<svg class="marks" width="776" height="465" viewBox="0 0 776 465" version="1.1" xmlns="http://www.w3.org/2000/svg" xmlns:xlink="http://www.w3.org/1999/xlink"><rect width="776" height="465" style="fill: white;"></rect><g transform="translate(72,13)"><g class="mark-group role-frame root"><g transform="translate(0,0)"><path class="background" d="M0.5,0.5h600v400h-600Z" style="fill: none; stroke: #ddd;"></path><g><g class="mark-line role-mark layer_0_marks"><path d="M0,385.03036883604966L11.972789115646252,382.3784323970594L23.945578231292526,379.65786094746466L35.918367346938794,376.8659550313095L47.89115646258505,373.99987175046266L59.863945578231295,371.0566151086571L71.83673469387755,368.03302556488353L83.8095238095238,364.9257687195636L95.78231292517005,361.7313230483342L107.7551020408163,358.4459665885783L119.72789115646259,355.0657624728824L131.70068027210885,351.5865431912054L143.6734693877551,348.00389344947985L155.64625850340144,344.31313147640583L167.61904761904765,340.50928861202755L179.5918367346939,336.5870869909693L191.56462585034012,332.54091510955305L203.5374149659864,328.36480103894166L215.51020408163265,324.0523830153972L227.4829931972789,319.5968771030557L239.45578231292515,314.99104158351037L251.4285714285714,310.2271376790353L263.40136054421765,305.2968861613714L275.3741496598639,300.19141933429336L287.3469387755102,294.90122780411394L299.3197278911565,289.4161013659284L311.2925170068027,283.7250632324663L323.265306122449,277.8162967141026L335.23809523809535,271.67706331950035L347.2108843537416,265.29361108237924L359.1836734693879,258.65107172597465L371.15646258503415,251.73334504667633L383.1292517006804,244.5229686244504L395.1020408163266,237.00097064050684L407.0748299319729,229.14670319049594L419.04761904761915,220.93765300962858L431.02040816326536,212.34922595608313L442.9931972789116,203.35450090768524L454.96598639455783,193.92394788471648L466.9387755102041,184.02510418140074L478.91156462585036,173.62220102222318L490.8843537414966,162.67573169506738L502.8571428571429,151.1419501713437L514.8299319727892,138.97228679970826L526.8027210884354,126.1126646180859L538.7755102040815,112.5026959881065L550.7482993197278,98.0747343767335L562.7210884353741,82.75274986997103L574.6938775510204,66.45098896807914L586.6666666666666,49.07236878765033" style="fill: none; stroke: black; stroke-width: 2;"></path></g><g class="mark-symbol role-mark layer_1_marks"><path transform="translate(552.3809523809524,96.11050589374015)" d="M2.7386127875258306,0A2.7386127875258306,2.7386127875258306,0,1,1,-2.7386127875258306,0A2.7386127875258306,2.7386127875258306,0,1,1,2.7386127875258306,0" style="fill: none; stroke: #4c78a8; stroke-width: 2; opacity: 0.7;"></path><path transform="translate(466.6666666666665,188.49765907556773)" d="M2.7386127875258306,0A2.7386127875258306,2.7386127875258306,0,1,1,-2.7386127875258306,0A2.7386127875258306,2.7386127875258306,0,1,1,2.7386127875258306,0" style="fill: none; stroke: #4c78a8; stroke-width: 2; opacity: 0.7;"></path><path transform="translate(400,236.78926614917017)" d="M2.7386127875258306,0A2.7386127875258306,2.7386127875258306,0,1,1,-2.7386127875258306,0A2.7386127875258306,2.7386127875258306,0,1,1,2.7386127875258306,0" style="fill: none; stroke: #4c78a8; stroke-width: 2; opacity: 0.7;"></path><path transform="translate(346.66666666666663,261.8396023300345)" d="M2.7386127875258306,0A2.7386127875258306,2.7386127875258306,0,1,1,-2.7386127875258306,0A2.7386127875258306,2.7386127875258306,0,1,1,2.7386127875258306,0" style="fill: none; stroke: #4c78a8; stroke-width: 2; opacity: 0.7;"></path><path transform="translate(266.66666666666663,287.7664978964652)" d="M2.7386127875258306,0A2.7386127875258306,2.7386127875258306,0,1,1,-2.7386127875258306,0A2.7386127875258306,2.7386127875258306,0,1,1,2.7386127875258306,0" style="fill: none; stroke: #4c78a8; stroke-width: 2; opacity: 0.7;"></path><path transform="translate(166.66666666666663,307.92536927179384)" d="M2.7386127875258306,0A2.7386127875258306,2.7386127875258306,0,1,1,-2.7386127875258306,0A2.7386127875258306,2.7386127875258306,0,1,1,2.7386127875258306,0" style="fill: none; stroke: #4c78a8; stroke-width: 2; opacity: 0.7;"></path><path transform="translate(106.66666666666664,347.7623062385929)" d="M2.7386127875258306,0A2.7386127875258306,2.7386127875258306,0,1,1,-2.7386127875258306,0A2.7386127875258306,2.7386127875258306,0,1,1,2.7386127875258306,0" style="fill: none; stroke: #4c78a8; stroke-width: 2; opacity: 0.7;"></path><path transform="translate(586.6666666666666,54.832485696797086)" d="M2.7386127875258306,0A2.7386127875258306,2.7386127875258306,0,1,1,-2.7386127875258306,0A2.7386127875258306,2.7386127875258306,0,1,1,2.7386127875258306,0" style="fill: none; stroke: #f58518; stroke-width: 2; opacity: 0.7;"></path><path transform="translate(558.9743589743589,83.93460685490139)" d="M2.7386127875258306,0A2.7386127875258306,2.7386127875258306,0,1,1,-2.7386127875258306,0A2.7386127875258306,2.7386127875258306,0,1,1,2.7386127875258306,0" style="fill: none; stroke: #f58518; stroke-width: 2; opacity: 0.7;"></path><path transform="translate(533.3333333333333,109.80885340456359)" d="M2.7386127875258306,0A2.7386127875258306,2.7386127875258306,0,1,1,-2.7386127875258306,0A2.7386127875258306,2.7386127875258306,0,1,1,2.7386127875258306,0" style="fill: none; stroke: #f58518; stroke-width: 2; opacity: 0.7;"></path><path transform="translate(38.0952380952381,345.33822109472624)" d="M2.7386127875258306,0A2.7386127875258306,2.7386127875258306,0,1,1,-2.7386127875258306,0A2.7386127875258306,2.7386127875258306,0,1,1,2.7386127875258306,0" style="fill: none; stroke: #4c78a8; stroke-width: 2; opacity: 0.7;"></path><path transform="translate(509.5238095238096,137.23334257936958)" d="M2.7386127875258306,0A2.7386127875258306,2.7386127875258306,0,1,1,-2.7386127875258306,0A2.7386127875258306,2.7386127875258306,0,1,1,2.7386127875258306,0" style="fill: none; stroke: #f58518; stroke-width: 2; opacity: 0.7;"></path><path transform="translate(487.35632183908046,162.2813066838202)" d="M2.7386127875258306,0A2.7386127875258306,2.7386127875258306,0,1,1,-2.7386127875258306,0A2.7386127875258306,2.7386127875258306,0,1,1,2.7386127875258306,0" style="fill: none; stroke: #f58518; stroke-width: 2; opacity: 0.7;"></path><path transform="translate(466.66666666666674,186.1515047892864)" d="M2.7386127875258306,0A2.7386127875258306,2.7386127875258306,0,1,1,-2.7386127875258306,0A2.7386127875258306,2.7386127875258306,0,1,1,2.7386127875258306,0" style="fill: none; stroke: #f58518; stroke-width: 2; opacity: 0.7;"></path><path transform="translate(429.16666666666663,217.56511311761778)" d="M2.7386127875258306,0A2.7386127875258306,2.7386127875258306,0,1,1,-2.7386127875258306,0A2.7386127875258306,2.7386127875258306,0,1,1,2.7386127875258306,0" style="fill: none; stroke: #f58518; stroke-width: 2; opacity: 0.7;"></path><path transform="translate(0,333.4312350855704)" d="M2.7386127875258306,0A2.7386127875258306,2.7386127875258306,0,1,1,-2.7386127875258306,0A2.7386127875258306,2.7386127875258306,0,1,1,2.7386127875258306,0" style="fill: none; stroke: #4c78a8; stroke-width: 2; opacity: 0.7;"></path><path transform="translate(366.66666666666663,254.5155376561758)" d="M2.7386127875258306,0A2.7386127875258306,2.7386127875258306,0,1,1,-2.7386127875258306,0A2.7386127875258306,2.7386127875258306,0,1,1,2.7386127875258306,0" style="fill: none; stroke: #f58518; stroke-width: 2; opacity: 0.7;"></path><path transform="translate(316.6666666666667,272.1909659685873)" d="M2.7386127875258306,0A2.7386127875258306,2.7386127875258306,0,1,1,-2.7386127875258306,0A2.7386127875258306,2.7386127875258306,0,1,1,2.7386127875258306,0" style="fill: none; stroke: #f58518; stroke-width: 2; opacity: 0.7;"></path><path transform="translate(226.66666666666666,324.70891245522523)" d="M2.7386127875258306,0A2.7386127875258306,2.7386127875258306,0,1,1,-2.7386127875258306,0A2.7386127875258306,2.7386127875258306,0,1,1,2.7386127875258306,0" style="fill: none; stroke: #f58518; stroke-width: 2; opacity: 0.7;"></path></g><g class="mark-rule role-mark layer_2_layer_0_marks"><line transform="translate(552.3809523809524,98.16161834558716)" x2="0" y2="-3.9878563902652786" style="fill: none; stroke: #4c78a8;"></line><line transform="translate(466.6666666666665,190.4447775641146)" x2="0" y2="-3.7908821047652452" style="fill: none; stroke: #4c78a8;"></line><line transform="translate(400,238.47637323568858)" x2="0" y2="-3.29607014264397" style="fill: none; stroke: #4c78a8;"></line><line transform="translate(346.66666666666663,266.0869135955535)" x2="0" y2="-8.031501427324088" style="fill: none; stroke: #4c78a8;"></line><line transform="translate(266.66666666666663,292.8392751870743)" x2="0" y2="-9.498385911799744" style="fill: none; stroke: #4c78a8;"></line><line transform="translate(166.66666666666663,315.25393920375444)" x2="0" y2="-13.377343485250435" style="fill: none; stroke: #4c78a8;"></line><line transform="translate(106.66666666666664,355.7519778147958)" x2="0" y2="-14.481192510166522" style="fill: none; stroke: #4c78a8;"></line><line transform="translate(586.6666666666666,57.044415145792506)" x2="0" y2="-4.291426803842533" style="fill: none; stroke: #f58518;"></line><line transform="translate(558.9743589743589,85.902563403359)" x2="0" y2="-3.830393603810208" style="fill: none; stroke: #f58518;"></line><line transform="translate(533.3333333333333,111.99202492170693)" x2="0" y2="-4.237232595816835" style="fill: none; stroke: #f58518;"></line><line transform="translate(38.0952380952381,356.5587332533719)" x2="0" y2="-19.68833770377671" style="fill: none; stroke: #4c78a8;"></line><line transform="translate(509.5238095238096,139.17896458051322)" x2="0" y2="-3.788043764864625" style="fill: none; stroke: #f58518;"></line><line transform="translate(487.35632183908046,164.2586835901999)" x2="0" y2="-3.8482487830945615" style="fill: none; stroke: #f58518;"></line><line transform="translate(466.66666666666674,189.53375362206137)" x2="0" y2="-6.46425193725895" style="fill: none; stroke: #f58518;"></line><line transform="translate(429.16666666666663,219.8070742435)" x2="0" y2="-4.347979077897179" style="fill: none; stroke: #f58518;"></line><line transform="translate(0,361.6420613966186)" x2="0" y2="-43.572011437336755" style="fill: none; stroke: #4c78a8;"></line><line transform="translate(366.66666666666663,267.6891592649441)" x2="0" y2="-22.702709692464822" style="fill: none; stroke: #f58518;"></line><line transform="translate(316.6666666666667,282.96746077658884)" x2="0" y2="-18.989834673751545" style="fill: none; stroke: #f58518;"></line><line transform="translate(226.66666666666666,331.26063785474093)" x2="0" y2="-12.061802460363992" style="fill: none; stroke: #f58518;"></line></g><g class="mark-group role-legend"><g transform="translate(618,0)"><path class="background" d="M0,0h81v59h-81Z" style="pointer-events: none; fill: none;"></path><g><g class="mark-group role-legend-entry"><g transform="translate(0,25)"><path class="background" d="M0,0h0v0h0Z" style="pointer-events: none; fill: none;"></path><g><g class="mark-group role-scope"><g transform="translate(0,0)"><path class="background" d="M0,0h51.21666717529297v16h-51.21666717529297Z" style="pointer-events: none; fill: none; opacity: 1;"></path><g><g class="mark-symbol role-legend-symbol" style="pointer-events: none;"><path transform="translate(8,8)" d="M5,0A5,5,0,1,1,-5,0A5,5,0,1,1,5,0" style="fill: none; stroke: #4c78a8; stroke-width: 1.5; opacity: 0.7;"></path></g><g class="mark-text role-legend-label" style="pointer-events: none;"><text text-anchor="start" transform="translate(20,13)" style="font-family: Roboto; font-size: 16px; fill: #000; opacity: 1;">1</text></g></g><path class="foreground" d="" style="pointer-events: none; display: none; fill: none;"></path></g><g transform="translate(0,18)"><path class="background" d="M0,0h51.21666717529297v16h-51.21666717529297Z" style="pointer-events: none; fill: none; opacity: 1;"></path><g><g class="mark-symbol role-legend-symbol" style="pointer-events: none;"><path transform="translate(8,8)" d="M5,0A5,5,0,1,1,-5,0A5,5,0,1,1,5,0" style="fill: none; stroke: #f58518; stroke-width: 1.5; opacity: 0.7;"></path></g><g class="mark-text role-legend-label" style="pointer-events: none;"><text text-anchor="start" transform="translate(20,13)" style="font-family: Roboto; font-size: 16px; fill: #000; opacity: 1;">13.5</text></g></g><path class="foreground" d="" style="pointer-events: none; display: none; fill: none;"></path></g></g></g><path class="foreground" d="" style="pointer-events: none; display: none; fill: none;"></path></g></g><g class="mark-text role-legend-title" style="pointer-events: none;"><text text-anchor="start" transform="translate(0,16)" style="font-family: Roboto; font-size: 20px; font-weight: bold; fill: #000; opacity: 1;">Pressure</text></g></g><path class="foreground" d="" style="pointer-events: none; display: none; fill: none;"></path></g></g><g class="mark-group role-axis"><g transform="translate(0.5,400.5)"><path class="background" d="M0,0h0v0h0Z" style="pointer-events: none; fill: none;"></path><g><g class="mark-rule role-axis-tick" style="pointer-events: none;"><line transform="translate(0,0)" x2="0" y2="5" style="fill: none; stroke: #888; stroke-width: 1; opacity: 1;"></line><line transform="translate(33,0)" x2="0" y2="5" style="fill: none; stroke: #888; stroke-width: 1; opacity: 1;"></line><line transform="translate(67,0)" x2="0" y2="5" style="fill: none; stroke: #888; stroke-width: 1; opacity: 1;"></line><line transform="translate(100,0)" x2="0" y2="5" style="fill: none; stroke: #888; stroke-width: 1; opacity: 1;"></line><line transform="translate(133,0)" x2="0" y2="5" style="fill: none; stroke: #888; stroke-width: 1; opacity: 1;"></line><line transform="translate(167,0)" x2="0" y2="5" style="fill: none; stroke: #888; stroke-width: 1; opacity: 1;"></line><line transform="translate(200,0)" x2="0" y2="5" style="fill: none; stroke: #888; stroke-width: 1; opacity: 1;"></line><line transform="translate(233,0)" x2="0" y2="5" style="fill: none; stroke: #888; stroke-width: 1; opacity: 1;"></line><line transform="translate(267,0)" x2="0" y2="5" style="fill: none; stroke: #888; stroke-width: 1; opacity: 1;"></line><line transform="translate(300,0)" x2="0" y2="5" style="fill: none; stroke: #888; stroke-width: 1; opacity: 1;"></line><line transform="translate(333,0)" x2="0" y2="5" style="fill: none; stroke: #888; stroke-width: 1; opacity: 1;"></line><line transform="translate(367,0)" x2="0" y2="5" style="fill: none; stroke: #888; stroke-width: 1; opacity: 1;"></line><line transform="translate(400,0)" x2="0" y2="5" style="fill: none; stroke: #888; stroke-width: 1; opacity: 1;"></line><line transform="translate(433,0)" x2="0" y2="5" style="fill: none; stroke: #888; stroke-width: 1; opacity: 1;"></line><line transform="translate(467,0)" x2="0" y2="5" style="fill: none; stroke: #888; stroke-width: 1; opacity: 1;"></line><line transform="translate(500,0)" x2="0" y2="5" style="fill: none; stroke: #888; stroke-width: 1; opacity: 1;"></line><line transform="translate(533,0)" x2="0" y2="5" style="fill: none; stroke: #888; stroke-width: 1; opacity: 1;"></line><line transform="translate(567,0)" x2="0" y2="5" style="fill: none; stroke: #888; stroke-width: 1; opacity: 1;"></line><line transform="translate(600,0)" x2="0" y2="5" style="fill: none; stroke: #888; stroke-width: 1; opacity: 1;"></line></g><g class="mark-text role-axis-label" style="pointer-events: none;"><text text-anchor="start" transform="translate(0,20)" style="font-family: Roboto; font-size: 16px; fill: #000; opacity: 1;">0.200</text><text text-anchor="middle" transform="translate(33.33333333333332,20)" style="font-family: Roboto; font-size: 16px; fill: #000; opacity: 0;">0.250</text><text text-anchor="middle" transform="translate(66.66666666666664,20)" style="font-family: Roboto; font-size: 16px; fill: #000; opacity: 1;">0.300</text><text text-anchor="middle" transform="translate(99.99999999999996,20)" style="font-family: Roboto; font-size: 16px; fill: #000; opacity: 0;">0.350</text><text text-anchor="middle" transform="translate(133.33333333333331,20)" style="font-family: Roboto; font-size: 16px; fill: #000; opacity: 1;">0.400</text><text text-anchor="middle" transform="translate(166.66666666666663,20)" style="font-family: Roboto; font-size: 16px; fill: #000; opacity: 0;">0.450</text><text text-anchor="middle" transform="translate(199.99999999999994,20)" style="font-family: Roboto; font-size: 16px; fill: #000; opacity: 1;">0.500</text><text text-anchor="middle" transform="translate(233.33333333333334,20)" style="font-family: Roboto; font-size: 16px; fill: #000; opacity: 0;">0.550</text><text text-anchor="middle" transform="translate(266.66666666666663,20)" style="font-family: Roboto; font-size: 16px; fill: #000; opacity: 1;">0.600</text><text text-anchor="middle" transform="translate(299.99999999999994,20)" style="font-family: Roboto; font-size: 16px; fill: #000; opacity: 0;">0.650</text><text text-anchor="middle" transform="translate(333.3333333333332,20)" style="font-family: Roboto; font-size: 16px; fill: #000; opacity: 1;">0.700</text><text text-anchor="middle" transform="translate(366.66666666666663,20)" style="font-family: Roboto; font-size: 16px; fill: #000; opacity: 0;">0.750</text><text text-anchor="middle" transform="translate(400,20)" style="font-family: Roboto; font-size: 16px; fill: #000; opacity: 1;">0.800</text><text text-anchor="middle" transform="translate(433.3333333333332,20)" style="font-family: Roboto; font-size: 16px; fill: #000; opacity: 0;">0.850</text><text text-anchor="middle" transform="translate(466.6666666666665,20)" style="font-family: Roboto; font-size: 16px; fill: #000; opacity: 1;">0.900</text><text text-anchor="middle" transform="translate(499.99999999999994,20)" style="font-family: Roboto; font-size: 16px; fill: #000; opacity: 0;">0.950</text><text text-anchor="middle" transform="translate(533.3333333333333,20)" style="font-family: Roboto; font-size: 16px; fill: #000; opacity: 1;">1.00</text><text text-anchor="middle" transform="translate(566.6666666666666,20)" style="font-family: Roboto; font-size: 16px; fill: #000; opacity: 0;">1.05</text><text text-anchor="end" transform="translate(600,20)" style="font-family: Roboto; font-size: 16px; fill: #000; opacity: 1;">1.10</text></g><g class="mark-rule role-axis-domain" style="pointer-events: none;"><line transform="translate(0,0)" x2="600" y2="0" style="fill: none; stroke: #888; stroke-width: 1; opacity: 1;"></line></g><g class="mark-text role-axis-title" style="pointer-events: none;"><text text-anchor="middle" transform="translate(300,43)" style="font-family: Roboto; font-size: 20px; font-weight: bold; fill: #000; opacity: 1;">Tm/T</text></g></g><path class="foreground" d="" style="pointer-events: none; display: none; fill: none;"></path></g></g><g class="mark-group role-axis"><g transform="translate(0.5,0.5)"><path class="background" d="M0,0h0v0h0Z" style="pointer-events: none; fill: none;"></path><g><g class="mark-rule role-axis-tick" style="pointer-events: none;"><line transform="translate(0,400)" x2="-5" y2="0" style="fill: none; stroke: #888; stroke-width: 1; opacity: 1;"></line><line transform="translate(0,376)" x2="-5" y2="0" style="fill: none; stroke: #888; stroke-width: 1; opacity: 1;"></line><line transform="translate(0,362)" x2="-5" y2="0" style="fill: none; stroke: #888; stroke-width: 1; opacity: 1;"></line><line transform="translate(0,352)" x2="-5" y2="0" style="fill: none; stroke: #888; stroke-width: 1; opacity: 1;"></line><line transform="translate(0,344)" x2="-5" y2="0" style="fill: none; stroke: #888; stroke-width: 1; opacity: 1;"></line><line transform="translate(0,338)" x2="-5" y2="0" style="fill: none; stroke: #888; stroke-width: 1; opacity: 1;"></line><line transform="translate(0,332)" x2="-5" y2="0" style="fill: none; stroke: #888; stroke-width: 1; opacity: 1;"></line><line transform="translate(0,328)" x2="-5" y2="0" style="fill: none; stroke: #888; stroke-width: 1; opacity: 1;"></line><line transform="translate(0,324)" x2="-5" y2="0" style="fill: none; stroke: #888; stroke-width: 1; opacity: 1;"></line><line transform="translate(0,320)" x2="-5" y2="0" style="fill: none; stroke: #888; stroke-width: 1; opacity: 1;"></line><line transform="translate(0,296)" x2="-5" y2="0" style="fill: none; stroke: #888; stroke-width: 1; opacity: 1;"></line><line transform="translate(0,282)" x2="-5" y2="0" style="fill: none; stroke: #888; stroke-width: 1; opacity: 1;"></line><line transform="translate(0,272)" x2="-5" y2="0" style="fill: none; stroke: #888; stroke-width: 1; opacity: 1;"></line><line transform="translate(0,264)" x2="-5" y2="0" style="fill: none; stroke: #888; stroke-width: 1; opacity: 1;"></line><line transform="translate(0,258)" x2="-5" y2="0" style="fill: none; stroke: #888; stroke-width: 1; opacity: 1;"></line><line transform="translate(0,252)" x2="-5" y2="0" style="fill: none; stroke: #888; stroke-width: 1; opacity: 1;"></line><line transform="translate(0,248)" x2="-5" y2="0" style="fill: none; stroke: #888; stroke-width: 1; opacity: 1;"></line><line transform="translate(0,244)" x2="-5" y2="0" style="fill: none; stroke: #888; stroke-width: 1; opacity: 1;"></line><line transform="translate(0,240)" x2="-5" y2="0" style="fill: none; stroke: #888; stroke-width: 1; opacity: 1;"></line><line transform="translate(0,216)" x2="-5" y2="0" style="fill: none; stroke: #888; stroke-width: 1; opacity: 1;"></line><line transform="translate(0,202)" x2="-5" y2="0" style="fill: none; stroke: #888; stroke-width: 1; opacity: 1;"></line><line transform="translate(0,192)" x2="-5" y2="0" style="fill: none; stroke: #888; stroke-width: 1; opacity: 1;"></line><line transform="translate(0,184)" x2="-5" y2="0" style="fill: none; stroke: #888; stroke-width: 1; opacity: 1;"></line><line transform="translate(0,178)" x2="-5" y2="0" style="fill: none; stroke: #888; stroke-width: 1; opacity: 1;"></line><line transform="translate(0,172)" x2="-5" y2="0" style="fill: none; stroke: #888; stroke-width: 1; opacity: 1;"></line><line transform="translate(0,168)" x2="-5" y2="0" style="fill: none; stroke: #888; stroke-width: 1; opacity: 1;"></line><line transform="translate(0,164)" x2="-5" y2="0" style="fill: none; stroke: #888; stroke-width: 1; opacity: 1;"></line><line transform="translate(0,160)" x2="-5" y2="0" style="fill: none; stroke: #888; stroke-width: 1; opacity: 1;"></line><line transform="translate(0,136)" x2="-5" y2="0" style="fill: none; stroke: #888; stroke-width: 1; opacity: 1;"></line><line transform="translate(0,122)" x2="-5" y2="0" style="fill: none; stroke: #888; stroke-width: 1; opacity: 1;"></line><line transform="translate(0,112)" x2="-5" y2="0" style="fill: none; stroke: #888; stroke-width: 1; opacity: 1;"></line><line transform="translate(0,104)" x2="-5" y2="0" style="fill: none; stroke: #888; stroke-width: 1; opacity: 1;"></line><line transform="translate(0,98)" x2="-5" y2="0" style="fill: none; stroke: #888; stroke-width: 1; opacity: 1;"></line><line transform="translate(0,92)" x2="-5" y2="0" style="fill: none; stroke: #888; stroke-width: 1; opacity: 1;"></line><line transform="translate(0,88)" x2="-5" y2="0" style="fill: none; stroke: #888; stroke-width: 1; opacity: 1;"></line><line transform="translate(0,84)" x2="-5" y2="0" style="fill: none; stroke: #888; stroke-width: 1; opacity: 1;"></line><line transform="translate(0,80)" x2="-5" y2="0" style="fill: none; stroke: #888; stroke-width: 1; opacity: 1;"></line><line transform="translate(0,56)" x2="-5" y2="0" style="fill: none; stroke: #888; stroke-width: 1; opacity: 1;"></line><line transform="translate(0,42)" x2="-5" y2="0" style="fill: none; stroke: #888; stroke-width: 1; opacity: 1;"></line><line transform="translate(0,32)" x2="-5" y2="0" style="fill: none; stroke: #888; stroke-width: 1; opacity: 1;"></line><line transform="translate(0,24)" x2="-5" y2="0" style="fill: none; stroke: #888; stroke-width: 1; opacity: 1;"></line><line transform="translate(0,18)" x2="-5" y2="0" style="fill: none; stroke: #888; stroke-width: 1; opacity: 1;"></line><line transform="translate(0,12)" x2="-5" y2="0" style="fill: none; stroke: #888; stroke-width: 1; opacity: 1;"></line><line transform="translate(0,8)" x2="-5" y2="0" style="fill: none; stroke: #888; stroke-width: 1; opacity: 1;"></line><line transform="translate(0,4)" x2="-5" y2="0" style="fill: none; stroke: #888; stroke-width: 1; opacity: 1;"></line><line transform="translate(0,0)" x2="-5" y2="0" style="fill: none; stroke: #888; stroke-width: 1; opacity: 1;"></line></g><g class="mark-text role-axis-label" style="pointer-events: none;"><text text-anchor="end" transform="translate(-7,405)" style="font-family: Roboto; font-size: 16px; fill: #000; opacity: 1;">1e+0</text><text text-anchor="end" transform="translate(-7,380.9176003468815)" style="font-family: Roboto; font-size: 16px; fill: #000; opacity: 1;">2e+0</text><text text-anchor="end" transform="translate(-7,366.830299622427)" style="font-family: Roboto; font-size: 16px; fill: #000; opacity: 1;"></text><text text-anchor="end" transform="translate(-7,356.835200693763)" style="font-family: Roboto; font-size: 16px; fill: #000; opacity: 1;"></text><text text-anchor="end" transform="translate(-7,349.0823996531185)" style="font-family: Roboto; font-size: 16px; fill: #000; opacity: 1;"></text><text text-anchor="end" transform="translate(-7,342.7478999693085)" style="font-family: Roboto; font-size: 16px; fill: #000; opacity: 1;"></text><text text-anchor="end" transform="translate(-7,337.39215679885945)" style="font-family: Roboto; font-size: 16px; fill: #000; opacity: 1;"></text><text text-anchor="end" transform="translate(-7,332.7528010406445)" style="font-family: Roboto; font-size: 16px; fill: #000; opacity: 1;"></text><text text-anchor="end" transform="translate(-7,328.66059924485404)" style="font-family: Roboto; font-size: 16px; fill: #000; opacity: 1;"></text><text text-anchor="end" transform="translate(-7,325)" style="font-family: Roboto; font-size: 16px; fill: #000; opacity: 1;">1e+1</text><text text-anchor="end" transform="translate(-7,300.9176003468815)" style="font-family: Roboto; font-size: 16px; fill: #000; opacity: 1;">2e+1</text><text text-anchor="end" transform="translate(-7,286.83029962242705)" style="font-family: Roboto; font-size: 16px; fill: #000; opacity: 1;"></text><text text-anchor="end" transform="translate(-7,276.83520069376306)" style="font-family: Roboto; font-size: 16px; fill: #000; opacity: 1;"></text><text text-anchor="end" transform="translate(-7,269.0823996531185)" style="font-family: Roboto; font-size: 16px; fill: #000; opacity: 1;"></text><text text-anchor="end" transform="translate(-7,262.7478999693085)" style="font-family: Roboto; font-size: 16px; fill: #000; opacity: 1;"></text><text text-anchor="end" transform="translate(-7,257.39215679885945)" style="font-family: Roboto; font-size: 16px; fill: #000; opacity: 1;"></text><text text-anchor="end" transform="translate(-7,252.7528010406445)" style="font-family: Roboto; font-size: 16px; fill: #000; opacity: 1;"></text><text text-anchor="end" transform="translate(-7,248.66059924485404)" style="font-family: Roboto; font-size: 16px; fill: #000; opacity: 1;"></text><text text-anchor="end" transform="translate(-7,245)" style="font-family: Roboto; font-size: 16px; fill: #000; opacity: 1;">1e+2</text><text text-anchor="end" transform="translate(-7,220.9176003468815)" style="font-family: Roboto; font-size: 16px; fill: #000; opacity: 1;">2e+2</text><text text-anchor="end" transform="translate(-7,206.83029962242705)" style="font-family: Roboto; font-size: 16px; fill: #000; opacity: 1;"></text><text text-anchor="end" transform="translate(-7,196.835200693763)" style="font-family: Roboto; font-size: 16px; fill: #000; opacity: 1;"></text><text text-anchor="end" transform="translate(-7,189.0823996531185)" style="font-family: Roboto; font-size: 16px; fill: #000; opacity: 1;"></text><text text-anchor="end" transform="translate(-7,182.74789996930852)" style="font-family: Roboto; font-size: 16px; fill: #000; opacity: 1;"></text><text text-anchor="end" transform="translate(-7,177.39215679885947)" style="font-family: Roboto; font-size: 16px; fill: #000; opacity: 1;"></text><text text-anchor="end" transform="translate(-7,172.75280104064453)" style="font-family: Roboto; font-size: 16px; fill: #000; opacity: 1;"></text><text text-anchor="end" transform="translate(-7,168.660599244854)" style="font-family: Roboto; font-size: 16px; fill: #000; opacity: 1;"></text><text text-anchor="end" transform="translate(-7,165)" style="font-family: Roboto; font-size: 16px; fill: #000; opacity: 1;">1e+3</text><text text-anchor="end" transform="translate(-7,140.91760034688153)" style="font-family: Roboto; font-size: 16px; fill: #000; opacity: 1;">2e+3</text><text text-anchor="end" transform="translate(-7,126.83029962242702)" style="font-family: Roboto; font-size: 16px; fill: #000; opacity: 1;"></text><text text-anchor="end" transform="translate(-7,116.83520069376303)" style="font-family: Roboto; font-size: 16px; fill: #000; opacity: 1;"></text><text text-anchor="end" transform="translate(-7,109.08239965311847)" style="font-family: Roboto; font-size: 16px; fill: #000; opacity: 1;"></text><text text-anchor="end" transform="translate(-7,102.74789996930852)" style="font-family: Roboto; font-size: 16px; fill: #000; opacity: 1;"></text><text text-anchor="end" transform="translate(-7,97.39215679885947)" style="font-family: Roboto; font-size: 16px; fill: #000; opacity: 1;"></text><text text-anchor="end" transform="translate(-7,92.75280104064453)" style="font-family: Roboto; font-size: 16px; fill: #000; opacity: 1;"></text><text text-anchor="end" transform="translate(-7,88.66059924485398)" style="font-family: Roboto; font-size: 16px; fill: #000; opacity: 1;"></text><text text-anchor="end" transform="translate(-7,84.99999999999999)" style="font-family: Roboto; font-size: 16px; fill: #000; opacity: 1;">1e+4</text><text text-anchor="end" transform="translate(-7,60.917600346881535)" style="font-family: Roboto; font-size: 16px; fill: #000; opacity: 1;">2e+4</text><text text-anchor="end" transform="translate(-7,46.83029962242699)" style="font-family: Roboto; font-size: 16px; fill: #000; opacity: 1;"></text><text text-anchor="end" transform="translate(-7,36.83520069376304)" style="font-family: Roboto; font-size: 16px; fill: #000; opacity: 1;"></text><text text-anchor="end" transform="translate(-7,29.082399653118493)" style="font-family: Roboto; font-size: 16px; fill: #000; opacity: 1;"></text><text text-anchor="end" transform="translate(-7,22.7478999693085)" style="font-family: Roboto; font-size: 16px; fill: #000; opacity: 1;"></text><text text-anchor="end" transform="translate(-7,17.3921567988595)" style="font-family: Roboto; font-size: 16px; fill: #000; opacity: 1;"></text><text text-anchor="end" transform="translate(-7,12.752801040644552)" style="font-family: Roboto; font-size: 16px; fill: #000; opacity: 1;"></text><text text-anchor="end" transform="translate(-7,8.660599244854046)" style="font-family: Roboto; font-size: 16px; fill: #000; opacity: 1;"></text><text text-anchor="end" transform="translate(-7,5)" style="font-family: Roboto; font-size: 16px; fill: #000; opacity: 1;">1e+5</text></g><g class="mark-rule role-axis-domain" style="pointer-events: none;"><line transform="translate(0,400)" x2="0" y2="-400" style="fill: none; stroke: #888; stroke-width: 1; opacity: 1;"></line></g><g class="mark-text role-axis-title" style="pointer-events: none;"><text text-anchor="middle" transform="translate(-46.56666564941406,200) rotate(-90) translate(0,-4)" style="font-family: Roboto; font-size: 20px; font-weight: bold; fill: #000; opacity: 1;">Rotational Relaxation</text></g></g><path class="foreground" d="" style="pointer-events: none; display: none; fill: none;"></path></g></g></g><path class="foreground" d="" style="display: none; fill: none;"></path></g></g></g></svg>