<svg class="marks" width="803" height="465" viewBox="0 0 803 465" version="1.1" xmlns="http://www.w3.org/2000/svg" xmlns:xlink="http://www.w3.org/1999/xlink"><rect width="803" height="465" style="fill: white;"></rect><g transform="translate(63,13)"><g class="mark-group role-frame root"><g transform="translate(0,0)"><path class="background" d="M0.5,0.5h600v400h-600Z" style="fill: none; stroke: #ddd;"></path><g><g class="mark-rect role-mark marks"><path d="M1,29.0909090909091h74v370.9090909090909h-74Z" style="fill: #4c78a8; opacity: 0.8;"></path><path d="M151,380h74.00000000000003v20h-74.00000000000003Z" style="fill: #4c78a8; opacity: 0.8;"></path><path d="M76,296.3636363636364h74v103.63636363636363h-74Z" style="fill: #4c78a8; opacity: 0.8;"></path><path d="M301,389.0909090909091h74v10.909090909090878h-74Z" style="fill: #4c78a8; opacity: 0.8;"></path><path d="M226.00000000000003,380h73.99999999999997v20h-73.99999999999997Z" style="fill: #4c78a8; opacity: 0.8;"></path><path d="M376,387.27272727272725h74.00000000000006v12.727272727272748h-74.00000000000006Z" style="fill: #4c78a8; opacity: 0.8;"></path><path d="M526,398.1818181818182h74v1.818181818181813h-74Z" style="fill: #4c78a8; opacity: 0.8;"></path><path d="M451.00000000000006,394.5454545454545h74.00000000000006v5.454545454545496h-74.00000000000006Z" style="fill: #4c78a8; opacity: 0.8;"></path><path d="M1,125.45454545454544h74v274.54545454545456h-74Z" style="fill: #f58518; opacity: 0.8;"></path><path d="M76,305.4545454545455h74v94.5454545454545h-74Z" style="fill: #f58518; opacity: 0.8;"></path><path d="M151,341.8181818181818h74.00000000000003v58.18181818181819h-74.00000000000003Z" style="fill: #f58518; opacity: 0.8;"></path><path d="M226.00000000000003,363.6363636363636h73.99999999999997v36.363636363636374h-73.99999999999997Z" style="fill: #f58518; opacity: 0.8;"></path><path d="M451.00000000000006,383.6363636363636h74.00000000000006v16.363636363636374h-74.00000000000006Z" style="fill: #f58518; opacity: 0.8;"></path><path d="M526,389.0909090909091h74v10.909090909090878h-74Z" style="fill: #f58518; opacity: 0.8;"></path><path d="M301,370.9090909090909h74v29.090909090909122h-74Z" style="fill: #f58518; opacity: 0.8;"></path><path d="M376,374.54545454545456h74.00000000000006v25.45454545454544h-74.00000000000006Z" style="fill: #f58518; opacity: 0.8;"></path></g><g class="mark-group role-legend"><g transform="translate(618,0)"><path class="background" d="M0,0h117v59h-117Z" style="pointer-events: none; fill: none;"></path><g><g class="mark-group role-legend-entry"><g transform="translate(0,25)"><path class="background" d="M0,0h0v0h0Z" style="pointer-events: none; fill: none;"></path><g><g class="mark-group role-scope"><g transform="translate(0,0)"><path class="background" d="M0,0h116.96666717529297v16h-116.96666717529297Z" style="pointer-events: none; fill: none; opacity: 1;"></path><g><g class="mark-symbol role-legend-symbol" style="pointer-events: none;"><path transform="translate(8,8)" d="M-5,-5h10v10h-10Z" style="fill: #4c78a8; stroke-width: 1.5; opacity: 0.8;"></path></g><g class="mark-text role-legend-label" style="pointer-events: none;"><text text-anchor="start" transform="translate(20,13)" style="font-family: Roboto; font-size: 16px; fill: #000; opacity: 1;">First Passage</text></g></g><path class="foreground" d="" style="pointer-events: none; display: none; fill: none;"></path></g><g transform="translate(0,18)"><path class="background" d="M0,0h116.96666717529297v16h-116.96666717529297Z" style="pointer-events: none; fill: none; opacity: 1;"></path><g><g class="mark-symbol role-legend-symbol" style="pointer-events: none;"><path transform="translate(8,8)" d="M-5,-5h10v10h-10Z" style="fill: #f58518; stroke-width: 1.5; opacity: 0.8;"></path></g><g class="mark-text role-legend-label" style="pointer-events: none;"><text text-anchor="start" transform="translate(20,13)" style="font-family: Roboto; font-size: 16px; fill: #000; opacity: 1;">Last Passage</text></g></g><path class="foreground" d="" style="pointer-events: none; display: none; fill: none;"></path></g></g></g><path class="foreground" d="" style="pointer-events: none; display: none; fill: none;"></path></g></g><g class="mark-text role-legend-title" style="pointer-events: none;"><text text-anchor="start" transform="translate(0,16)" style="font-family: Roboto; font-size: 20px; font-weight: bold; fill: #000; opacity: 1;">Time</text></g></g><path class="foreground" d="" style="pointer-events: none; display: none; fill: none;"></path></g></g><g class="mark-group role-axis"><g transform="translate(0.5,400.5)"><path class="background" d="M0,0h0v0h0Z" style="pointer-events: none; fill: none;"></path><g><g class="mark-rule role-axis-tick" style="pointer-events: none;"><line transform="translate(0,0)" x2="0" y2="5" style="fill: none; stroke: #888; stroke-width: 1; opacity: 1;"></line><line transform="translate(75,0)" x2="0" y2="5" style="fill: none; stroke: #888; stroke-width: 1; opacity: 1;"></line><line transform="translate(150,0)" x2="0" y2="5" style="fill: none; stroke: #888; stroke-width: 1; opacity: 1;"></line><line transform="translate(225,0)" x2="0" y2="5" style="fill: none; stroke: #888; stroke-width: 1; opacity: 1;"></line><line transform="translate(300,0)" x2="0" y2="5" style="fill: none; stroke: #888; stroke-width: 1; opacity: 1;"></line><line transform="translate(375,0)" x2="0" y2="5" style="fill: none; stroke: #888; stroke-width: 1; opacity: 1;"></line><line transform="translate(450,0)" x2="0" y2="5" style="fill: none; stroke: #888; stroke-width: 1; opacity: 1;"></line><line transform="translate(525,0)" x2="0" y2="5" style="fill: none; stroke: #888; stroke-width: 1; opacity: 1;"></line><line transform="translate(600,0)" x2="0" y2="5" style="fill: none; stroke: #888; stroke-width: 1; opacity: 1;"></line></g><g class="mark-text role-axis-label" style="pointer-events: none;"><text text-anchor="start" transform="translate(0,20)" style="font-family: Roboto; font-size: 16px; fill: #000; opacity: 1;">0.00</text><text text-anchor="middle" transform="translate(75,20)" style="font-family: Roboto; font-size: 16px; fill: #000; opacity: 1;">0.20</text><text text-anchor="middle" transform="translate(150,20)" style="font-family: Roboto; font-size: 16px; fill: #000; opacity: 1;">0.40</text><text text-anchor="middle" transform="translate(225.00000000000003,20)" style="font-family: Roboto; font-size: 16px; fill: #000; opacity: 1;">0.60</text><text text-anchor="middle" transform="translate(300,20)" style="font-family: Roboto; font-size: 16px; fill: #000; opacity: 1;">0.80</text><text text-anchor="middle" transform="translate(375,20)" style="font-family: Roboto; font-size: 16px; fill: #000; opacity: 1;">1.00</text><text text-anchor="middle" transform="translate(450.00000000000006,20)" style="font-family: Roboto; font-size: 16px; fill: #000; opacity: 1;">1.20</text><text text-anchor="middle" transform="translate(525,20)" style="font-family: Roboto; font-size: 16px; fill: #000; opacity: 1;">1.40</text><text text-anchor="end" transform="translate(600,20)" style="font-family: Roboto; font-size: 16px; fill: #000; opacity: 1;">1.60</text></g><g class="mark-rule role-axis-domain" style="pointer-events: none;"><line transform="translate(0,0)" x2="600" y2="0" style="fill: none; stroke: #888; stroke-width: 1; opacity: 1;"></line></g><g class="mark-text role-axis-title" style="pointer-events: none;"><text text-anchor="middle" transform="translate(300,43)" style="font-family: Roboto; font-size: 20px; font-weight: bold; fill: #000; opacity: 1;">Angular Displacement</text></g></g><path class="foreground" d="" style="pointer-events: none; display: none; fill: none;"></path></g></g><g class="mark-group role-axis"><g transform="translate(0.5,0.5)"><path class="background" d="M0,0h0v0h0Z" style="pointer-events: none; fill: none;"></path><g><g class="mark-rule role-axis-tick" style="pointer-events: none;"><line transform="translate(0,400)" x2="-5" y2="0" style="fill: none; stroke: #888; stroke-width: 1; opacity: 1;"></line><line transform="translate(0,364)" x2="-5" y2="0" style="fill: none; stroke: #888; stroke-width: 1; opacity: 1;"></line><line transform="translate(0,327)" x2="-5" y2="0" style="fill: none; stroke: #888; stroke-width: 1; opacity: 1;"></line><line transform="translate(0,291)" x2="-5" y2="0" style="fill: none; stroke: #888; stroke-width: 1; opacity: 1;"></line><line transform="translate(0,255)" x2="-5" y2="0" style="fill: none; stroke: #888; stroke-width: 1; opacity: 1;"></line><line transform="translate(0,218)" x2="-5" y2="0" style="fill: none; stroke: #888; stroke-width: 1; opacity: 1;"></line><line transform="translate(0,182)" x2="-5" y2="0" style="fill: none; stroke: #888; stroke-width: 1; opacity: 1;"></line><line transform="translate(0,145)" x2="-5" y2="0" style="fill: none; stroke: #888; stroke-width: 1; opacity: 1;"></line><line transform="translate(0,109)" x2="-5" y2="0" style="fill: none; stroke: #888; stroke-width: 1; opacity: 1;"></line><line transform="translate(0,73)" x2="-5" y2="0" style="fill: none; stroke: #888; stroke-width: 1; opacity: 1;"></line><line transform="translate(0,36)" x2="-5" y2="0" style="fill: none; stroke: #888; stroke-width: 1; opacity: 1;"></line><line transform="translate(0,0)" x2="-5" y2="0" style="fill: none; stroke: #888; stroke-width: 1; opacity: 1;"></line></g><g class="mark-text role-axis-label" style="pointer-events: none;"><text text-anchor="end" transform="translate(-7,405)" style="font-family: Roboto; font-size: 16px; fill: #000; opacity: 1;">0</text><text text-anchor="end" transform="translate(-7,368.6363636363636)" style="font-family: Roboto; font-size: 16px; fill: #000; opacity: 1;">20</text><text text-anchor="end" transform="translate(-7,332.27272727272725)" style="font-family: Roboto; font-size: 16px; fill: #000; opacity: 1;">40</text><text text-anchor="end" transform="translate(-7,295.90909090909093)" style="font-family: Roboto; font-size: 16px; fill: #000; opacity: 1;">60</text><text text-anchor="end" transform="translate(-7,259.5454545454545)" style="font-family: Roboto; font-size: 16px; fill: #000; opacity: 1;">80</text><text text-anchor="end" transform="translate(-7,223.18181818181816)" style="font-family: Roboto; font-size: 16px; fill: #000; opacity: 1;">100</text><text text-anchor="end" transform="translate(-7,186.81818181818184)" style="font-family: Roboto; font-size: 16px; fill: #000; opacity: 1;">120</text><text text-anchor="end" transform="translate(-7,150.45454545454547)" style="font-family: Roboto; font-size: 16px; fill: #000; opacity: 1;">140</text><text text-anchor="end" transform="translate(-7,114.09090909090908)" style="font-family: Roboto; font-size: 16px; fill: #000; opacity: 1;">160</text><text text-anchor="end" transform="translate(-7,77.7272727272727)" style="font-family: Roboto; font-size: 16px; fill: #000; opacity: 1;">180</text><text text-anchor="end" transform="translate(-7,41.363636363636374)" style="font-family: Roboto; font-size: 16px; fill: #000; opacity: 1;">200</text><text text-anchor="end" transform="translate(-7,5)" style="font-family: Roboto; font-size: 16px; fill: #000; opacity: 1;">220</text></g><g class="mark-rule role-axis-domain" style="pointer-events: none;"><line transform="translate(0,400)" x2="0" y2="-400" style="fill: none; stroke: #888; stroke-width: 1; opacity: 1;"></line></g><g class="mark-text role-axis-title" style="pointer-events: none;"><text text-anchor="middle" transform="translate(-38,200) rotate(-90) translate(0,-4)" style="font-family: Roboto; font-size: 20px; font-weight: bold; fill: #000; opacity: 1;">Occurrence</text></g></g><path class="foreground" d="" style="pointer-events: none; display: none; fill: none;"></path></g></g></g><path class="foreground" d="" style="display: none; fill: none;"></path></g></g></g></svg>