<svg class="marks" width="803" height="465" viewBox="0 0 803 465" version="1.1" xmlns="http://www.w3.org/2000/svg" xmlns:xlink="http://www.w3.org/1999/xlink"><rect width="803" height="465" style="fill: white;"></rect><g transform="translate(79,13)"><g class="mark-group role-frame root"><g transform="translate(0,0)"><path class="background" d="M0.5,0.5h600v400h-600Z" style="fill: none; stroke: #ddd;"></path><g><g class="mark-line role-mark layer_0_marks"><path d="M0,368.12002622976L11.972789115646252,364.6779986075865L23.945578231292526,361.1578905651926L35.918367346938794,357.557014808467L47.89115646258505,353.8725592939843L59.863945578231295,350.1015799051315L71.83673469387755,346.2409926061341L83.8095238095238,342.28756503003723L95.78231292517005,338.2379074524176L107.7551020408163,334.08846309785156L119.72789115646259,329.8354977208752L131.70068027210885,325.4750883972865L143.6734693877551,321.00311145507357L155.64625850340144,316.41522946692083L167.61904761904765,311.70687721804984L179.5918367346939,306.8732465539688L191.56462585034012,301.90927000241527L203.5374149659864,296.8096030522147L215.51020408163265,291.568604958779L227.4829931972789,286.180317931323L239.45578231292515,280.6384445403538L251.4285714285714,274.93632316531534L263.40136054421765,269.0669012811312L275.3741496598639,263.0227063584173L287.3469387755102,256.79581412490575L299.3197278911565,250.37781390462536L311.2925170068027,243.75977071604947L323.265306122449,236.93218377004075L335.23809523809535,229.88494096220703L347.2108843537416,222.6072689012599L359.1836734693879,215.0876779540138L371.15646258503415,207.31390171744113L383.1292517006804,199.27283024710925L395.1020408163266,190.95043627746801L407.0748299319729,182.33169356056194L419.04761904761915,173.40048632307935L431.02040816326536,164.13950869394594L442.9931972789116,154.5301527819571L454.96598639455783,144.5523838804403L466.9387755102041,134.1846010378065L478.91156462585036,123.40348095200585L490.8843537414966,112.18380281463988L502.8571428571429,100.49825133614416L514.8299319727892,88.3171947138639L526.8027210884354,75.60843374371422L538.7755102040815,62.33691760316776L550.7482993197278,48.46442102323613L562.7210884353741,33.94917658813512L574.6938775510204,18.745454713394906L586.6666666666666,2.803082405537225" style="fill: none; stroke: black; stroke-width: 2;"></path></g><g class="mark-symbol role-mark layer_1_marks"><path transform="translate(552.3809523809524,53.14089773295018)" d="M2.7386127875258306,0A2.7386127875258306,2.7386127875258306,0,1,1,-2.7386127875258306,0A2.7386127875258306,2.7386127875258306,0,1,1,2.7386127875258306,0" style="fill: none; stroke: #4c78a8; stroke-width: 2; opacity: 0.7;"></path><path transform="translate(466.6666666666665,140.61311412840564)" d="M2.7386127875258306,0A2.7386127875258306,2.7386127875258306,0,1,1,-2.7386127875258306,0A2.7386127875258306,2.7386127875258306,0,1,1,2.7386127875258306,0" style="fill: none; stroke: #4c78a8; stroke-width: 2; opacity: 0.7;"></path><path transform="translate(400,194.0698941294611)" d="M2.7386127875258306,0A2.7386127875258306,2.7386127875258306,0,1,1,-2.7386127875258306,0A2.7386127875258306,2.7386127875258306,0,1,1,2.7386127875258306,0" style="fill: none; stroke: #4c78a8; stroke-width: 2; opacity: 0.7;"></path><path transform="translate(346.66666666666663,227.54298923987352)" d="M2.7386127875258306,0A2.7386127875258306,2.7386127875258306,0,1,1,-2.7386127875258306,0A2.7386127875258306,2.7386127875258306,0,1,1,2.7386127875258306,0" style="fill: none; stroke: #4c78a8; stroke-width: 2; opacity: 0.7;"></path><path transform="translate(266.66666666666663,265.8891944751854)" d="M2.7386127875258306,0A2.7386127875258306,2.7386127875258306,0,1,1,-2.7386127875258306,0A2.7386127875258306,2.7386127875258306,0,1,1,2.7386127875258306,0" style="fill: none; stroke: #4c78a8; stroke-width: 2; opacity: 0.7;"></path><path transform="translate(166.66666666666663,305.8367603741748)" d="M2.7386127875258306,0A2.7386127875258306,2.7386127875258306,0,1,1,-2.7386127875258306,0A2.7386127875258306,2.7386127875258306,0,1,1,2.7386127875258306,0" style="fill: none; stroke: #4c78a8; stroke-width: 2; opacity: 0.7;"></path><path transform="translate(106.66666666666664,325.15669529504044)" d="M2.7386127875258306,0A2.7386127875258306,2.7386127875258306,0,1,1,-2.7386127875258306,0A2.7386127875258306,2.7386127875258306,0,1,1,2.7386127875258306,0" style="fill: none; stroke: #4c78a8; stroke-width: 2; opacity: 0.7;"></path><path transform="translate(586.6666666666666,3.0943180480285832)" d="M2.7386127875258306,0A2.7386127875258306,2.7386127875258306,0,1,1,-2.7386127875258306,0A2.7386127875258306,2.7386127875258306,0,1,1,2.7386127875258306,0" style="fill: none; stroke: #f58518; stroke-width: 2; opacity: 0.7;"></path><path transform="translate(558.9743589743589,35.30325062663678)" d="M2.7386127875258306,0A2.7386127875258306,2.7386127875258306,0,1,1,-2.7386127875258306,0A2.7386127875258306,2.7386127875258306,0,1,1,2.7386127875258306,0" style="fill: none; stroke: #f58518; stroke-width: 2; opacity: 0.7;"></path><path transform="translate(533.3333333333333,65.07261087456965)" d="M2.7386127875258306,0A2.7386127875258306,2.7386127875258306,0,1,1,-2.7386127875258306,0A2.7386127875258306,2.7386127875258306,0,1,1,2.7386127875258306,0" style="fill: none; stroke: #f58518; stroke-width: 2; opacity: 0.7;"></path><path transform="translate(38.0952380952381,348.8817955967651)" d="M2.7386127875258306,0A2.7386127875258306,2.7386127875258306,0,1,1,-2.7386127875258306,0A2.7386127875258306,2.7386127875258306,0,1,1,2.7386127875258306,0" style="fill: none; stroke: #4c78a8; stroke-width: 2; opacity: 0.7;"></path><path transform="translate(509.5238095238096,88.18278309007803)" d="M2.7386127875258306,0A2.7386127875258306,2.7386127875258306,0,1,1,-2.7386127875258306,0A2.7386127875258306,2.7386127875258306,0,1,1,2.7386127875258306,0" style="fill: none; stroke: #f58518; stroke-width: 2; opacity: 0.7;"></path><path transform="translate(487.35632183908046,106.6770498971535)" d="M2.7386127875258306,0A2.7386127875258306,2.7386127875258306,0,1,1,-2.7386127875258306,0A2.7386127875258306,2.7386127875258306,0,1,1,2.7386127875258306,0" style="fill: none; stroke: #f58518; stroke-width: 2; opacity: 0.7;"></path><path transform="translate(466.66666666666674,126.45763313315427)" d="M2.7386127875258306,0A2.7386127875258306,2.7386127875258306,0,1,1,-2.7386127875258306,0A2.7386127875258306,2.7386127875258306,0,1,1,2.7386127875258306,0" style="fill: none; stroke: #f58518; stroke-width: 2; opacity: 0.7;"></path><path transform="translate(429.16666666666663,157.94731836993998)" d="M2.7386127875258306,0A2.7386127875258306,2.7386127875258306,0,1,1,-2.7386127875258306,0A2.7386127875258306,2.7386127875258306,0,1,1,2.7386127875258306,0" style="fill: none; stroke: #f58518; stroke-width: 2; opacity: 0.7;"></path><path transform="translate(0,363.130505484996)" d="M2.7386127875258306,0A2.7386127875258306,2.7386127875258306,0,1,1,-2.7386127875258306,0A2.7386127875258306,2.7386127875258306,0,1,1,2.7386127875258306,0" style="fill: none; stroke: #4c78a8; stroke-width: 2; opacity: 0.7;"></path><path transform="translate(366.66666666666663,202.25750687974235)" d="M2.7386127875258306,0A2.7386127875258306,2.7386127875258306,0,1,1,-2.7386127875258306,0A2.7386127875258306,2.7386127875258306,0,1,1,2.7386127875258306,0" style="fill: none; stroke: #f58518; stroke-width: 2; opacity: 0.7;"></path><path transform="translate(316.6666666666667,233.3334243693218)" d="M2.7386127875258306,0A2.7386127875258306,2.7386127875258306,0,1,1,-2.7386127875258306,0A2.7386127875258306,2.7386127875258306,0,1,1,2.7386127875258306,0" style="fill: none; stroke: #f58518; stroke-width: 2; opacity: 0.7;"></path><path transform="translate(226.66666666666666,275.1387092397455)" d="M2.7386127875258306,0A2.7386127875258306,2.7386127875258306,0,1,1,-2.7386127875258306,0A2.7386127875258306,2.7386127875258306,0,1,1,2.7386127875258306,0" style="fill: none; stroke: #f58518; stroke-width: 2; opacity: 0.7;"></path></g><g class="mark-rule role-mark layer_2_layer_0_marks"><line transform="translate(552.3809523809524,53.23609062929131)" x2="0" y2="-0.19007383846087578" style="fill: none; stroke: #4c78a8;"></line><line transform="translate(466.6666666666665,140.7606084756589)" x2="0" y2="-0.29424112456484863" style="fill: none; stroke: #4c78a8;"></line><line transform="translate(400,194.26071577038107)" x2="0" y2="-0.3803938550374255" style="fill: none; stroke: #4c78a8;"></line><line transform="translate(346.66666666666663,227.71737557263032)" x2="0" y2="-0.3477286061666405" style="fill: none; stroke: #4c78a8;"></line><line transform="translate(266.66666666666663,266.1605577382851)" x2="0" y2="-0.5402067574699458" style="fill: none; stroke: #4c78a8;"></line><line transform="translate(166.66666666666663,306.1364994721353)" x2="0" y2="-0.5964068794641548" style="fill: none; stroke: #4c78a8;"></line><line transform="translate(106.66666666666664,325.91944712211125)" x2="0" y2="-1.5059240394895141" style="fill: none; stroke: #4c78a8;"></line><line transform="translate(586.6666666666666,3.1259972075895917)" x2="0" y2="-0.06332369495237344" style="fill: none; stroke: #f58518;"></line><line transform="translate(558.9743589743589,35.36431151113288)" x2="0" y2="-0.12199326449075443" style="fill: none; stroke: #f58518;"></line><line transform="translate(533.3333333333333,65.13711563234648)" x2="0" y2="-0.12886612381549867" style="fill: none; stroke: #f58518;"></line><line transform="translate(38.0952380952381,349.3783454952359)" x2="0" y2="-0.9847272434350316" style="fill: none; stroke: #4c78a8;"></line><line transform="translate(509.5238095238096,88.33808952685678)" x2="0" y2="-0.3097842380888096" style="fill: none; stroke: #f58518;"></line><line transform="translate(487.35632183908046,106.81698043861104)" x2="0" y2="-0.27918804595861957" style="fill: none; stroke: #f58518;"></line><line transform="translate(466.66666666666674,126.74323608692515)" x2="0" y2="-0.5684161096754679" style="fill: none; stroke: #f58518;"></line><line transform="translate(429.16666666666663,158.22881695635996)" x2="0" y2="-0.5602866026620177" style="fill: none; stroke: #f58518;"></line><line transform="translate(0,363.55406710810985)" x2="0" y2="-0.8410160724249636" style="fill: none; stroke: #4c78a8;"></line><line transform="translate(366.66666666666663,202.9057398580614)" x2="0" y2="-1.2822698156217882" style="fill: none; stroke: #f58518;"></line><line transform="translate(316.6666666666667,234.1799942015704)" x2="0" y2="-1.669087991361522" style="fill: none; stroke: #f58518;"></line><line transform="translate(226.66666666666666,275.8248502588128)" x2="0" y2="-1.356397263605004" style="fill: none; stroke: #f58518;"></line></g><g class="mark-group role-legend"><g transform="translate(618,0)"><path class="background" d="M0,0h101v59h-101Z" style="pointer-events: none; fill: none;"></path><g><g class="mark-group role-legend-entry"><g transform="translate(0,25)"><path class="background" d="M0,0h0v0h0Z" style="pointer-events: none; fill: none;"></path><g><g class="mark-group role-scope"><g transform="translate(0,0)"><path class="background" d="M0,0h55v16h-55Z" style="pointer-events: none; fill: none; opacity: 1;"></path><g><g class="mark-symbol role-legend-symbol" style="pointer-events: none;"><path transform="translate(8,8)" d="M5,0A5,5,0,1,1,-5,0A5,5,0,1,1,5,0" style="fill: none; stroke: #4c78a8; stroke-width: 1.5; opacity: 0.7;"></path></g><g class="mark-text role-legend-label" style="pointer-events: none;"><text text-anchor="start" transform="translate(20,13)" style="font-family: sans-serif; font-size: 16px; fill: #000; opacity: 1;">1</text></g></g></g><g transform="translate(0,18)"><path class="background" d="M0,0h55v16h-55Z" style="pointer-events: none; fill: none; opacity: 1;"></path><g><g class="mark-symbol role-legend-symbol" style="pointer-events: none;"><path transform="translate(8,8)" d="M5,0A5,5,0,1,1,-5,0A5,5,0,1,1,5,0" style="fill: none; stroke: #f58518; stroke-width: 1.5; opacity: 0.7;"></path></g><g class="mark-text role-legend-label" style="pointer-events: none;"><text text-anchor="start" transform="translate(20,13)" style="font-family: sans-serif; font-size: 16px; fill: #000; opacity: 1;">13.5</text></g></g></g></g></g></g></g><g class="mark-text role-legend-title" style="pointer-events: none;"><text text-anchor="start" transform="translate(0,16)" style="font-family: sans-serif; font-size: 20px; font-weight: bold; fill: #000; opacity: 1;">Pressure</text></g></g></g></g><g class="mark-group role-axis"><g transform="translate(0.5,400.5)"><path class="background" d="M0,0h0v0h0Z" style="pointer-events: none; fill: none;"></path><g><g class="mark-rule role-axis-tick" style="pointer-events: none;"><line transform="translate(0,0)" x2="0" y2="5" style="fill: none; stroke: #888; stroke-width: 1; opacity: 1;"></line><line transform="translate(33,0)" x2="0" y2="5" style="fill: none; stroke: #888; stroke-width: 1; opacity: 1;"></line><line transform="translate(67,0)" x2="0" y2="5" style="fill: none; stroke: #888; stroke-width: 1; opacity: 1;"></line><line transform="translate(100,0)" x2="0" y2="5" style="fill: none; stroke: #888; stroke-width: 1; opacity: 1;"></line><line transform="translate(133,0)" x2="0" y2="5" style="fill: none; stroke: #888; stroke-width: 1; opacity: 1;"></line><line transform="translate(167,0)" x2="0" y2="5" style="fill: none; stroke: #888; stroke-width: 1; opacity: 1;"></line><line transform="translate(200,0)" x2="0" y2="5" style="fill: none; stroke: #888; stroke-width: 1; opacity: 1;"></line><line transform="translate(233,0)" x2="0" y2="5" style="fill: none; stroke: #888; stroke-width: 1; opacity: 1;"></line><line transform="translate(267,0)" x2="0" y2="5" style="fill: none; stroke: #888; stroke-width: 1; opacity: 1;"></line><line transform="translate(300,0)" x2="0" y2="5" style="fill: none; stroke: #888; stroke-width: 1; opacity: 1;"></line><line transform="translate(333,0)" x2="0" y2="5" style="fill: none; stroke: #888; stroke-width: 1; opacity: 1;"></line><line transform="translate(367,0)" x2="0" y2="5" style="fill: none; stroke: #888; stroke-width: 1; opacity: 1;"></line><line transform="translate(400,0)" x2="0" y2="5" style="fill: none; stroke: #888; stroke-width: 1; opacity: 1;"></line><line transform="translate(433,0)" x2="0" y2="5" style="fill: none; stroke: #888; stroke-width: 1; opacity: 1;"></line><line transform="translate(467,0)" x2="0" y2="5" style="fill: none; stroke: #888; stroke-width: 1; opacity: 1;"></line><line transform="translate(500,0)" x2="0" y2="5" style="fill: none; stroke: #888; stroke-width: 1; opacity: 1;"></line><line transform="translate(533,0)" x2="0" y2="5" style="fill: none; stroke: #888; stroke-width: 1; opacity: 1;"></line><line transform="translate(567,0)" x2="0" y2="5" style="fill: none; stroke: #888; stroke-width: 1; opacity: 1;"></line><line transform="translate(600,0)" x2="0" y2="5" style="fill: none; stroke: #888; stroke-width: 1; opacity: 1;"></line></g><g class="mark-text role-axis-label" style="pointer-events: none;"><text text-anchor="start" transform="translate(0,20)" style="font-family: sans-serif; font-size: 16px; fill: #000; opacity: 1;">0.200</text><text text-anchor="middle" transform="translate(33.33333333333332,20)" style="font-family: sans-serif; font-size: 16px; fill: #000; opacity: 0;">0.250</text><text text-anchor="middle" transform="translate(66.66666666666664,20)" style="font-family: sans-serif; font-size: 16px; fill: #000; opacity: 0;">0.300</text><text text-anchor="middle" transform="translate(99.99999999999996,20)" style="font-family: sans-serif; font-size: 16px; fill: #000; opacity: 0;">0.350</text><text text-anchor="middle" transform="translate(133.33333333333331,20)" style="font-family: sans-serif; font-size: 16px; fill: #000; opacity: 1;">0.400</text><text text-anchor="middle" transform="translate(166.66666666666663,20)" style="font-family: sans-serif; font-size: 16px; fill: #000; opacity: 0;">0.450</text><text text-anchor="middle" transform="translate(199.99999999999994,20)" style="font-family: sans-serif; font-size: 16px; fill: #000; opacity: 0;">0.500</text><text text-anchor="middle" transform="translate(233.33333333333334,20)" style="font-family: sans-serif; font-size: 16px; fill: #000; opacity: 0;">0.550</text><text text-anchor="middle" transform="translate(266.66666666666663,20)" style="font-family: sans-serif; font-size: 16px; fill: #000; opacity: 1;">0.600</text><text text-anchor="middle" transform="translate(299.99999999999994,20)" style="font-family: sans-serif; font-size: 16px; fill: #000; opacity: 0;">0.650</text><text text-anchor="middle" transform="translate(333.3333333333332,20)" style="font-family: sans-serif; font-size: 16px; fill: #000; opacity: 0;">0.700</text><text text-anchor="middle" transform="translate(366.66666666666663,20)" style="font-family: sans-serif; font-size: 16px; fill: #000; opacity: 0;">0.750</text><text text-anchor="middle" transform="translate(400,20)" style="font-family: sans-serif; font-size: 16px; fill: #000; opacity: 1;">0.800</text><text text-anchor="middle" transform="translate(433.3333333333332,20)" style="font-family: sans-serif; font-size: 16px; fill: #000; opacity: 0;">0.850</text><text text-anchor="middle" transform="translate(466.6666666666665,20)" style="font-family: sans-serif; font-size: 16px; fill: #000; opacity: 0;">0.900</text><text text-anchor="middle" transform="translate(499.99999999999994,20)" style="font-family: sans-serif; font-size: 16px; fill: #000; opacity: 0;">0.950</text><text text-anchor="middle" transform="translate(533.3333333333333,20)" style="font-family: sans-serif; font-size: 16px; fill: #000; opacity: 1;">1.00</text><text text-anchor="middle" transform="translate(566.6666666666666,20)" style="font-family: sans-serif; font-size: 16px; fill: #000; opacity: 0;">1.05</text><text text-anchor="end" transform="translate(600,20)" style="font-family: sans-serif; font-size: 16px; fill: #000; opacity: 0;">1.10</text></g><g class="mark-rule role-axis-domain" style="pointer-events: none;"><line transform="translate(0,0)" x2="600" y2="0" style="fill: none; stroke: #888; stroke-width: 1; opacity: 1;"></line></g><g class="mark-text role-axis-title" style="pointer-events: none;"><text text-anchor="middle" transform="translate(300,43)" style="font-family: sans-serif; font-size: 20px; font-weight: bold; fill: #000; opacity: 1;">Tₘ/T</text></g></g></g></g><g class="mark-group role-axis"><g transform="translate(0.5,0.5)"><path class="background" d="M0,0h0v0h0Z" style="pointer-events: none; fill: none;"></path><g><g class="mark-rule role-axis-tick" style="pointer-events: none;"><line transform="translate(0,400)" x2="-5" y2="0" style="fill: none; stroke: #888; stroke-width: 1; opacity: 1;"></line><line transform="translate(0,380)" x2="-5" y2="0" style="fill: none; stroke: #888; stroke-width: 1; opacity: 1;"></line><line transform="translate(0,368)" x2="-5" y2="0" style="fill: none; stroke: #888; stroke-width: 1; opacity: 1;"></line><line transform="translate(0,360)" x2="-5" y2="0" style="fill: none; stroke: #888; stroke-width: 1; opacity: 1;"></line><line transform="translate(0,353)" x2="-5" y2="0" style="fill: none; stroke: #888; stroke-width: 1; opacity: 1;"></line><line transform="translate(0,348)" x2="-5" y2="0" style="fill: none; stroke: #888; stroke-width: 1; opacity: 1;"></line><line transform="translate(0,344)" x2="-5" y2="0" style="fill: none; stroke: #888; stroke-width: 1; opacity: 1;"></line><line transform="translate(0,340)" x2="-5" y2="0" style="fill: none; stroke: #888; stroke-width: 1; opacity: 1;"></line><line transform="translate(0,336)" x2="-5" y2="0" style="fill: none; stroke: #888; stroke-width: 1; opacity: 1;"></line><line transform="translate(0,333)" x2="-5" y2="0" style="fill: none; stroke: #888; stroke-width: 1; opacity: 1;"></line><line transform="translate(0,313)" x2="-5" y2="0" style="fill: none; stroke: #888; stroke-width: 1; opacity: 1;"></line><line transform="translate(0,302)" x2="-5" y2="0" style="fill: none; stroke: #888; stroke-width: 1; opacity: 1;"></line><line transform="translate(0,293)" x2="-5" y2="0" style="fill: none; stroke: #888; stroke-width: 1; opacity: 1;"></line><line transform="translate(0,287)" x2="-5" y2="0" style="fill: none; stroke: #888; stroke-width: 1; opacity: 1;"></line><line transform="translate(0,281)" x2="-5" y2="0" style="fill: none; stroke: #888; stroke-width: 1; opacity: 1;"></line><line transform="translate(0,277)" x2="-5" y2="0" style="fill: none; stroke: #888; stroke-width: 1; opacity: 1;"></line><line transform="translate(0,273)" x2="-5" y2="0" style="fill: none; stroke: #888; stroke-width: 1; opacity: 1;"></line><line transform="translate(0,270)" x2="-5" y2="0" style="fill: none; stroke: #888; stroke-width: 1; opacity: 1;"></line><line transform="translate(0,267)" x2="-5" y2="0" style="fill: none; stroke: #888; stroke-width: 1; opacity: 1;"></line><line transform="translate(0,247)" x2="-5" y2="0" style="fill: none; stroke: #888; stroke-width: 1; opacity: 1;"></line><line transform="translate(0,235)" x2="-5" y2="0" style="fill: none; stroke: #888; stroke-width: 1; opacity: 1;"></line><line transform="translate(0,227)" x2="-5" y2="0" style="fill: none; stroke: #888; stroke-width: 1; opacity: 1;"></line><line transform="translate(0,220)" x2="-5" y2="0" style="fill: none; stroke: #888; stroke-width: 1; opacity: 1;"></line><line transform="translate(0,215)" x2="-5" y2="0" style="fill: none; stroke: #888; stroke-width: 1; opacity: 1;"></line><line transform="translate(0,210)" x2="-5" y2="0" style="fill: none; stroke: #888; stroke-width: 1; opacity: 1;"></line><line transform="translate(0,206)" x2="-5" y2="0" style="fill: none; stroke: #888; stroke-width: 1; opacity: 1;"></line><line transform="translate(0,203)" x2="-5" y2="0" style="fill: none; stroke: #888; stroke-width: 1; opacity: 1;"></line><line transform="translate(0,200)" x2="-5" y2="0" style="fill: none; stroke: #888; stroke-width: 1; opacity: 1;"></line><line transform="translate(0,180)" x2="-5" y2="0" style="fill: none; stroke: #888; stroke-width: 1; opacity: 1;"></line><line transform="translate(0,168)" x2="-5" y2="0" style="fill: none; stroke: #888; stroke-width: 1; opacity: 1;"></line><line transform="translate(0,160)" x2="-5" y2="0" style="fill: none; stroke: #888; stroke-width: 1; opacity: 1;"></line><line transform="translate(0,153)" x2="-5" y2="0" style="fill: none; stroke: #888; stroke-width: 1; opacity: 1;"></line><line transform="translate(0,148)" x2="-5" y2="0" style="fill: none; stroke: #888; stroke-width: 1; opacity: 1;"></line><line transform="translate(0,144)" x2="-5" y2="0" style="fill: none; stroke: #888; stroke-width: 1; opacity: 1;"></line><line transform="translate(0,140)" x2="-5" y2="0" style="fill: none; stroke: #888; stroke-width: 1; opacity: 1;"></line><line transform="translate(0,136)" x2="-5" y2="0" style="fill: none; stroke: #888; stroke-width: 1; opacity: 1;"></line><line transform="translate(0,133)" x2="-5" y2="0" style="fill: none; stroke: #888; stroke-width: 1; opacity: 1;"></line><line transform="translate(0,113)" x2="-5" y2="0" style="fill: none; stroke: #888; stroke-width: 1; opacity: 1;"></line><line transform="translate(0,102)" x2="-5" y2="0" style="fill: none; stroke: #888; stroke-width: 1; opacity: 1;"></line><line transform="translate(0,93)" x2="-5" y2="0" style="fill: none; stroke: #888; stroke-width: 1; opacity: 1;"></line><line transform="translate(0,87)" x2="-5" y2="0" style="fill: none; stroke: #888; stroke-width: 1; opacity: 1;"></line><line transform="translate(0,81)" x2="-5" y2="0" style="fill: none; stroke: #888; stroke-width: 1; opacity: 1;"></line><line transform="translate(0,77)" x2="-5" y2="0" style="fill: none; stroke: #888; stroke-width: 1; opacity: 1;"></line><line transform="translate(0,73)" x2="-5" y2="0" style="fill: none; stroke: #888; stroke-width: 1; opacity: 1;"></line><line transform="translate(0,70)" x2="-5" y2="0" style="fill: none; stroke: #888; stroke-width: 1; opacity: 1;"></line><line transform="translate(0,67)" x2="-5" y2="0" style="fill: none; stroke: #888; stroke-width: 1; opacity: 1;"></line><line transform="translate(0,47)" x2="-5" y2="0" style="fill: none; stroke: #888; stroke-width: 1; opacity: 1;"></line><line transform="translate(0,35)" x2="-5" y2="0" style="fill: none; stroke: #888; stroke-width: 1; opacity: 1;"></line><line transform="translate(0,27)" x2="-5" y2="0" style="fill: none; stroke: #888; stroke-width: 1; opacity: 1;"></line><line transform="translate(0,20)" x2="-5" y2="0" style="fill: none; stroke: #888; stroke-width: 1; opacity: 1;"></line><line transform="translate(0,15)" x2="-5" y2="0" style="fill: none; stroke: #888; stroke-width: 1; opacity: 1;"></line><line transform="translate(0,10)" x2="-5" y2="0" style="fill: none; stroke: #888; stroke-width: 1; opacity: 1;"></line><line transform="translate(0,6)" x2="-5" y2="0" style="fill: none; stroke: #888; stroke-width: 1; opacity: 1;"></line><line transform="translate(0,3)" x2="-5" y2="0" style="fill: none; stroke: #888; stroke-width: 1; opacity: 1;"></line><line transform="translate(0,0)" x2="-5" y2="0" style="fill: none; stroke: #888; stroke-width: 1; opacity: 1;"></line></g><g class="mark-text role-axis-label" style="pointer-events: none;"><text text-anchor="end" transform="translate(-7,405)" style="font-family: sans-serif; font-size: 16px; fill: #000; opacity: 1;">1e+0</text><text text-anchor="end" transform="translate(-7,384.93133362240127)" style="font-family: sans-serif; font-size: 16px; fill: #000; opacity: 1;"></text><text text-anchor="end" transform="translate(-7,373.19191635202253)" style="font-family: sans-serif; font-size: 16px; fill: #000; opacity: 1;"></text><text text-anchor="end" transform="translate(-7,364.86266724480254)" style="font-family: sans-serif; font-size: 16px; fill: #000; opacity: 1;"></text><text text-anchor="end" transform="translate(-7,358.4019997109321)" style="font-family: sans-serif; font-size: 16px; fill: #000; opacity: 1;"></text><text text-anchor="end" transform="translate(-7,353.12324997442374)" style="font-family: sans-serif; font-size: 16px; fill: #000; opacity: 1;"></text><text text-anchor="end" transform="translate(-7,348.6601306657162)" style="font-family: sans-serif; font-size: 16px; fill: #000; opacity: 1;"></text><text text-anchor="end" transform="translate(-7,344.79400086720375)" style="font-family: sans-serif; font-size: 16px; fill: #000; opacity: 1;"></text><text text-anchor="end" transform="translate(-7,341.383832704045)" style="font-family: sans-serif; font-size: 16px; fill: #000; opacity: 1;"></text><text text-anchor="end" transform="translate(-7,338.3333333333333)" style="font-family: sans-serif; font-size: 16px; fill: #000; opacity: 1;">1e+1</text><text text-anchor="end" transform="translate(-7,318.2646669557346)" style="font-family: sans-serif; font-size: 16px; fill: #000; opacity: 1;"></text><text text-anchor="end" transform="translate(-7,306.52524968535585)" style="font-family: sans-serif; font-size: 16px; fill: #000; opacity: 1;"></text><text text-anchor="end" transform="translate(-7,298.19600057813585)" style="font-family: sans-serif; font-size: 16px; fill: #000; opacity: 1;"></text><text text-anchor="end" transform="translate(-7,291.7353330442654)" style="font-family: sans-serif; font-size: 16px; fill: #000; opacity: 1;"></text><text text-anchor="end" transform="translate(-7,286.4565833077571)" style="font-family: sans-serif; font-size: 16px; fill: #000; opacity: 1;"></text><text text-anchor="end" transform="translate(-7,281.99346399904954)" style="font-family: sans-serif; font-size: 16px; fill: #000; opacity: 1;"></text><text text-anchor="end" transform="translate(-7,278.1273342005371)" style="font-family: sans-serif; font-size: 16px; fill: #000; opacity: 1;"></text><text text-anchor="end" transform="translate(-7,274.7171660373783)" style="font-family: sans-serif; font-size: 16px; fill: #000; opacity: 1;"></text><text text-anchor="end" transform="translate(-7,271.66666666666663)" style="font-family: sans-serif; font-size: 16px; fill: #000; opacity: 1;">1e+2</text><text text-anchor="end" transform="translate(-7,251.59800028906793)" style="font-family: sans-serif; font-size: 16px; fill: #000; opacity: 1;"></text><text text-anchor="end" transform="translate(-7,239.85858301868916)" style="font-family: sans-serif; font-size: 16px; fill: #000; opacity: 1;"></text><text text-anchor="end" transform="translate(-7,231.52933391146917)" style="font-family: sans-serif; font-size: 16px; fill: #000; opacity: 1;"></text><text text-anchor="end" transform="translate(-7,225.06866637759873)" style="font-family: sans-serif; font-size: 16px; fill: #000; opacity: 1;"></text><text text-anchor="end" transform="translate(-7,219.78991664109043)" style="font-family: sans-serif; font-size: 16px; fill: #000; opacity: 1;"></text><text text-anchor="end" transform="translate(-7,215.32679733238288)" style="font-family: sans-serif; font-size: 16px; fill: #000; opacity: 1;"></text><text text-anchor="end" transform="translate(-7,211.46066753387043)" style="font-family: sans-serif; font-size: 16px; fill: #000; opacity: 1;"></text><text text-anchor="end" transform="translate(-7,208.05049937071166)" style="font-family: sans-serif; font-size: 16px; fill: #000; opacity: 1;"></text><text text-anchor="end" transform="translate(-7,205)" style="font-family: sans-serif; font-size: 16px; fill: #000; opacity: 1;">1e+3</text><text text-anchor="end" transform="translate(-7,184.93133362240124)" style="font-family: sans-serif; font-size: 16px; fill: #000; opacity: 1;"></text><text text-anchor="end" transform="translate(-7,173.1919163520225)" style="font-family: sans-serif; font-size: 16px; fill: #000; opacity: 1;"></text><text text-anchor="end" transform="translate(-7,164.8626672448025)" style="font-family: sans-serif; font-size: 16px; fill: #000; opacity: 1;"></text><text text-anchor="end" transform="translate(-7,158.40199971093207)" style="font-family: sans-serif; font-size: 16px; fill: #000; opacity: 1;"></text><text text-anchor="end" transform="translate(-7,153.1232499744238)" style="font-family: sans-serif; font-size: 16px; fill: #000; opacity: 1;"></text><text text-anchor="end" transform="translate(-7,148.66013066571617)" style="font-family: sans-serif; font-size: 16px; fill: #000; opacity: 1;"></text><text text-anchor="end" transform="translate(-7,144.79400086720375)" style="font-family: sans-serif; font-size: 16px; fill: #000; opacity: 1;"></text><text text-anchor="end" transform="translate(-7,141.38383270404495)" style="font-family: sans-serif; font-size: 16px; fill: #000; opacity: 1;"></text><text text-anchor="end" transform="translate(-7,138.33333333333331)" style="font-family: sans-serif; font-size: 16px; fill: #000; opacity: 1;">1e+4</text><text text-anchor="end" transform="translate(-7,118.26466695573458)" style="font-family: sans-serif; font-size: 16px; fill: #000; opacity: 1;"></text><text text-anchor="end" transform="translate(-7,106.52524968535579)" style="font-family: sans-serif; font-size: 16px; fill: #000; opacity: 1;"></text><text text-anchor="end" transform="translate(-7,98.19600057813585)" style="font-family: sans-serif; font-size: 16px; fill: #000; opacity: 1;"></text><text text-anchor="end" transform="translate(-7,91.73533304426542)" style="font-family: sans-serif; font-size: 16px; fill: #000; opacity: 1;"></text><text text-anchor="end" transform="translate(-7,86.45658330775711)" style="font-family: sans-serif; font-size: 16px; fill: #000; opacity: 1;"></text><text text-anchor="end" transform="translate(-7,81.99346399904954)" style="font-family: sans-serif; font-size: 16px; fill: #000; opacity: 1;"></text><text text-anchor="end" transform="translate(-7,78.12733420053712)" style="font-family: sans-serif; font-size: 16px; fill: #000; opacity: 1;"></text><text text-anchor="end" transform="translate(-7,74.71716603737832)" style="font-family: sans-serif; font-size: 16px; fill: #000; opacity: 1;"></text><text text-anchor="end" transform="translate(-7,71.66666666666663)" style="font-family: sans-serif; font-size: 16px; fill: #000; opacity: 1;">1e+5</text><text text-anchor="end" transform="translate(-7,51.5980002890679)" style="font-family: sans-serif; font-size: 16px; fill: #000; opacity: 1;"></text><text text-anchor="end" transform="translate(-7,39.85858301868916)" style="font-family: sans-serif; font-size: 16px; fill: #000; opacity: 1;"></text><text text-anchor="end" transform="translate(-7,31.529333911469166)" style="font-family: sans-serif; font-size: 16px; fill: #000; opacity: 1;"></text><text text-anchor="end" transform="translate(-7,25.068666377598788)" style="font-family: sans-serif; font-size: 16px; fill: #000; opacity: 1;"></text><text text-anchor="end" transform="translate(-7,19.78991664109043)" style="font-family: sans-serif; font-size: 16px; fill: #000; opacity: 1;"></text><text text-anchor="end" transform="translate(-7,15.326797332382853)" style="font-family: sans-serif; font-size: 16px; fill: #000; opacity: 1;"></text><text text-anchor="end" transform="translate(-7,11.460667533870378)" style="font-family: sans-serif; font-size: 16px; fill: #000; opacity: 1;"></text><text text-anchor="end" transform="translate(-7,8.050499370711634)" style="font-family: sans-serif; font-size: 16px; fill: #000; opacity: 1;"></text><text text-anchor="end" transform="translate(-7,5)" style="font-family: sans-serif; font-size: 16px; fill: #000; opacity: 1;">1e+6</text></g><g class="mark-rule role-axis-domain" style="pointer-events: none;"><line transform="translate(0,400)" x2="0" y2="-400" style="fill: none; stroke: #888; stroke-width: 1; opacity: 1;"></line></g><g class="mark-text role-axis-title" style="pointer-events: none;"><text text-anchor="middle" transform="translate(-54,200) rotate(-90) translate(0,-4)" style="font-family: sans-serif; font-size: 20px; font-weight: bold; fill: #000; opacity: 1;">1/D_t</text></g></g></g></g></g></g></g></g></svg>