<svg class="marks" width="806" height="465" viewBox="0 0 806 465" version="1.1" xmlns="http://www.w3.org/2000/svg" xmlns:xlink="http://www.w3.org/1999/xlink"><rect width="806" height="465" style="fill: white;"></rect><g transform="translate(72,13)"><g class="mark-group role-frame root"><g transform="translate(0,0)"><path class="background" d="M0.5,0.5h600v400h-600Z" style="fill: none; stroke: #ddd;"></path><g><g class="mark-rule role-mark layer_0_layer_0_marks"><line transform="translate(600,29.338644785103174)" x2="0" y2="-0.09039700535105055" style="fill: none; stroke: #4c78a8;"></line><line transform="translate(514.2857142857143,139.9270679719685)" x2="0" y2="-0.14255537884568525" style="fill: none; stroke: #4c78a8;"></line><line transform="translate(514.2857142857143,145.4227485400168)" x2="0" y2="-0.05474648643973978" style="fill: none; stroke: #4c78a8;"></line><line transform="translate(450,205.57045635674422)" x2="0" y2="-0.22068084342362226" style="fill: none; stroke: #4c78a8;"></line><line transform="translate(450,213.06011520243945)" x2="0" y2="-0.0575569355009975" style="fill: none; stroke: #4c78a8;"></line><line transform="translate(400.00000000000006,245.69553682778587)" x2="0" y2="-0.2852953912781686" style="fill: none; stroke: #4c78a8;"></line><line transform="translate(400.00000000000006,256.52113425846227)" x2="0" y2="-0.05562742781074803" style="fill: none; stroke: #4c78a8;"></line><line transform="translate(360,270.78803167947274)" x2="0" y2="-0.26079645462499457" style="fill: none; stroke: #4c78a8;"></line><line transform="translate(360,282.3421570810691)" x2="0" y2="-0.054299295312432605" style="fill: none; stroke: #4c78a8;"></line><line transform="translate(300,299.62041830371385)" x2="0" y2="-0.40515506810243096" style="fill: none; stroke: #4c78a8;"></line><line transform="translate(300,309.1023500689698)" x2="0" y2="-0.0793254245907633" style="fill: none; stroke: #4c78a8;"></line><line transform="translate(225,329.60237460410144)" x2="0" y2="-0.4473051595981019" style="fill: none; stroke: #4c78a8;"></line><line transform="translate(225,331.92011504782874)" x2="0" y2="-0.07446390311946516" style="fill: none; stroke: #4c78a8;"></line><line transform="translate(180,344.43958534158344)" x2="0" y2="-1.1294430296171072" style="fill: none; stroke: #4c78a8;"></line><line transform="translate(180,343.05226326143526)" x2="0" y2="-0.21791060848011057" style="fill: none; stroke: #4c78a8;"></line><line transform="translate(540.0000000000001,102.34449790569222)" x2="0" y2="-0.04749277121428008" style="fill: none; stroke: #f58518;"></line><line transform="translate(540.0000000000001,107.1875049865334)" x2="0" y2="-0.05419247222589263" style="fill: none; stroke: #f58518;"></line><line transform="translate(519.2307692307692,126.52323363334968)" x2="0" y2="-0.0914949483680374" style="fill: none; stroke: #f58518;"></line><line transform="translate(519.2307692307692,132.42619383793107)" x2="0" y2="-0.05678078621778582" style="fill: none; stroke: #f58518;"></line><line transform="translate(500,148.85283672425987)" x2="0" y2="-0.09664959286160979" style="fill: none; stroke: #f58518;"></line><line transform="translate(500,151.90755554095526)" x2="0" y2="-0.05646441908098154" style="fill: none; stroke: #f58518;"></line><line transform="translate(128.57142857142858,362.0337591214269)" x2="0" y2="-0.7385454325762453" style="fill: none; stroke: #4c78a8;"></line><line transform="translate(128.57142857142858,355.4131156256509)" x2="0" y2="-0.2197225692328857" style="fill: none; stroke: #4c78a8;"></line><line transform="translate(482.1428571428572,166.25356714514265)" x2="0" y2="-0.23233817856666406" style="fill: none; stroke: #f58518;"></line><line transform="translate(482.1428571428572,171.46499296046204)" x2="0" y2="-0.05882246296903304" style="fill: none; stroke: #f58518;"></line><line transform="translate(465.5172413793104,180.1127353289583)" x2="0" y2="-0.2093910344689789" style="fill: none; stroke: #f58518;"></line><line transform="translate(465.5172413793104,188.24395726894733)" x2="0" y2="-0.0585746273291079" style="fill: none; stroke: #f58518;"></line><line transform="translate(450.00000000000006,195.0574270651939)" x2="0" y2="-0.4263120822566009" style="fill: none; stroke: #f58518;"></line><line transform="translate(450.00000000000006,203.22766850981205)" x2="0" y2="-0.09170644314733067" style="fill: none; stroke: #f58518;"></line><line transform="translate(421.875,218.67161271727005)" x2="0" y2="-0.4202149519965701" style="fill: none; stroke: #f58518;"></line><line transform="translate(421.875,228.54677334076382)" x2="0" y2="-0.09234139860652135" style="fill: none; stroke: #f58518;"></line><line transform="translate(100.00000000000001,372.66555033108244)" x2="0" y2="-0.6307620543188364" style="fill: none; stroke: #4c78a8;"></line><line transform="translate(100.00000000000001,363.0913078113615)" x2="0" y2="-0.21996611850369163" style="fill: none; stroke: #4c78a8;"></line><line transform="translate(375,252.1793048935461)" x2="0" y2="-0.9617023617163909" style="fill: none; stroke: #f58518;"></line><line transform="translate(375,265.4075805295811)" x2="0" y2="-0.30325711650857556" style="fill: none; stroke: #f58518;"></line><line transform="translate(337.50000000000006,275.63499565117786)" x2="0" y2="-1.251815993521177" style="fill: none; stroke: #f58518;"></line><line transform="translate(337.50000000000006,286.99821704959095)" x2="0" y2="-0.2650193057712613" style="fill: none; stroke: #f58518;"></line><line transform="translate(270.00000000000006,306.8686376941096)" x2="0" y2="-1.017297947703753" style="fill: none; stroke: #f58518;"></line><line transform="translate(270.00000000000006,318.11540943095355)" x2="0" y2="-0.2652355618864135" style="fill: none; stroke: #f58518;"></line></g><g class="mark-symbol role-mark layer_1_marks"><path transform="translate(600,29.29339924284382)" d="M2.7386127875258306,0A2.7386127875258306,2.7386127875258306,0,1,1,-2.7386127875258306,0A2.7386127875258306,2.7386127875258306,0,1,1,2.7386127875258306,0" style="fill: none; stroke: #4c78a8; stroke-width: 2; opacity: 0.7;"></path><path transform="translate(514.2857142857143,139.85567329971266)" d="M2.7386127875258306,0A2.7386127875258306,2.7386127875258306,0,1,1,-2.7386127875258306,0A2.7386127875258306,2.7386127875258306,0,1,1,2.7386127875258306,0" style="fill: none; stroke: #4c78a8; stroke-width: 2; opacity: 0.7;"></path><path transform="translate(514.2857142857143,145.39535804365931)" d="M-2.7386127875258306,-2.7386127875258306h5.477225575051661v5.477225575051661h-5.477225575051661Z" style="fill: none; stroke: #4c78a8; stroke-width: 2; opacity: 0.7;"></path><path transform="translate(450,205.45983559630426)" d="M2.7386127875258306,0A2.7386127875258306,2.7386127875258306,0,1,1,-2.7386127875258306,0A2.7386127875258306,2.7386127875258306,0,1,1,2.7386127875258306,0" style="fill: none; stroke: #4c78a8; stroke-width: 2; opacity: 0.7;"></path><path transform="translate(450,213.03131766468005)" d="M-2.7386127875258306,-2.7386127875258306h5.477225575051661v5.477225575051661h-5.477225575051661Z" style="fill: none; stroke: #4c78a8; stroke-width: 2; opacity: 0.7;"></path><path transform="translate(400.00000000000006,245.55242059709582)" d="M2.7386127875258306,0A2.7386127875258306,2.7386127875258306,0,1,1,-2.7386127875258306,0A2.7386127875258306,2.7386127875258306,0,1,1,2.7386127875258306,0" style="fill: none; stroke: #4c78a8; stroke-width: 2; opacity: 0.7;"></path><path transform="translate(400.00000000000006,256.49330273170176)" d="M-2.7386127875258306,-2.7386127875258306h5.477225575051661v5.477225575051661h-5.477225575051661Z" style="fill: none; stroke: #4c78a8; stroke-width: 2; opacity: 0.7;"></path><path transform="translate(360,270.6572419299052)" d="M2.7386127875258306,0A2.7386127875258306,2.7386127875258306,0,1,1,-2.7386127875258306,0A2.7386127875258306,2.7386127875258306,0,1,1,2.7386127875258306,0" style="fill: none; stroke: #4c78a8; stroke-width: 2; opacity: 0.7;"></path><path transform="translate(360,282.31499046098503)" d="M-2.7386127875258306,-2.7386127875258306h5.477225575051661v5.477225575051661h-5.477225575051661Z" style="fill: none; stroke: #4c78a8; stroke-width: 2; opacity: 0.7;"></path><path transform="translate(300,299.4168958563891)" d="M2.7386127875258306,0A2.7386127875258306,2.7386127875258306,0,1,1,-2.7386127875258306,0A2.7386127875258306,2.7386127875258306,0,1,1,2.7386127875258306,0" style="fill: none; stroke: #4c78a8; stroke-width: 2; opacity: 0.7;"></path><path transform="translate(300,309.06265113402054)" d="M-2.7386127875258306,-2.7386127875258306h5.477225575051661v5.477225575051661h-5.477225575051661Z" style="fill: none; stroke: #4c78a8; stroke-width: 2; opacity: 0.7;"></path><path transform="translate(225,329.3775702806311)" d="M2.7386127875258306,0A2.7386127875258306,2.7386127875258306,0,1,1,-2.7386127875258306,0A2.7386127875258306,2.7386127875258306,0,1,1,2.7386127875258306,0" style="fill: none; stroke: #4c78a8; stroke-width: 2; opacity: 0.7;"></path><path transform="translate(225,331.88285117743067)" d="M-2.7386127875258306,-2.7386127875258306h5.477225575051661v5.477225575051661h-5.477225575051661Z" style="fill: none; stroke: #4c78a8; stroke-width: 2; opacity: 0.7;"></path><path transform="translate(180,343.8675214712803)" d="M2.7386127875258306,0A2.7386127875258306,2.7386127875258306,0,1,1,-2.7386127875258306,0A2.7386127875258306,2.7386127875258306,0,1,1,2.7386127875258306,0" style="fill: none; stroke: #4c78a8; stroke-width: 2; opacity: 0.7;"></path><path transform="translate(180,342.9430346125177)" d="M-2.7386127875258306,-2.7386127875258306h5.477225575051661v5.477225575051661h-5.477225575051661Z" style="fill: none; stroke: #4c78a8; stroke-width: 2; opacity: 0.7;"></path><path transform="translate(540.0000000000001,102.32073853602147)" d="M2.7386127875258306,0A2.7386127875258306,2.7386127875258306,0,1,1,-2.7386127875258306,0A2.7386127875258306,2.7386127875258306,0,1,1,2.7386127875258306,0" style="fill: none; stroke: #f58518; stroke-width: 2; opacity: 0.7;"></path><path transform="translate(540.0000000000001,107.1603918447067)" d="M-2.7386127875258306,-2.7386127875258306h5.477225575051661v5.477225575051661h-5.477225575051661Z" style="fill: none; stroke: #f58518; stroke-width: 2; opacity: 0.7;"></path><path transform="translate(519.2307692307692,126.47743796997761)" d="M2.7386127875258306,0A2.7386127875258306,2.7386127875258306,0,1,1,-2.7386127875258306,0A2.7386127875258306,2.7386127875258306,0,1,1,2.7386127875258306,0" style="fill: none; stroke: #f58518; stroke-width: 2; opacity: 0.7;"></path><path transform="translate(519.2307692307692,132.39778488565955)" d="M-2.7386127875258306,-2.7386127875258306h5.477225575051661v5.477225575051661h-5.477225575051661Z" style="fill: none; stroke: #f58518; stroke-width: 2; opacity: 0.7;"></path><path transform="translate(500,148.80445815592728)" d="M2.7386127875258306,0A2.7386127875258306,2.7386127875258306,0,1,1,-2.7386127875258306,0A2.7386127875258306,2.7386127875258306,0,1,1,2.7386127875258306,0" style="fill: none; stroke: #f58518; stroke-width: 2; opacity: 0.7;"></path><path transform="translate(500,151.8793049784892)" d="M-2.7386127875258306,-2.7386127875258306h5.477225575051661v5.477225575051661h-5.477225575051661Z" style="fill: none; stroke: #f58518; stroke-width: 2; opacity: 0.7;"></path><path transform="translate(128.57142857142858,361.66134669757383)" d="M2.7386127875258306,0A2.7386127875258306,2.7386127875258306,0,1,1,-2.7386127875258306,0A2.7386127875258306,2.7386127875258306,0,1,1,2.7386127875258306,0" style="fill: none; stroke: #4c78a8; stroke-width: 2; opacity: 0.7;"></path><path transform="translate(128.57142857142858,355.3029764316695)" d="M-2.7386127875258306,-2.7386127875258306h5.477225575051661v5.477225575051661h-5.477225575051661Z" style="fill: none; stroke: #4c78a8; stroke-width: 2; opacity: 0.7;"></path><path transform="translate(482.1428571428572,166.13708731755858)" d="M2.7386127875258306,0A2.7386127875258306,2.7386127875258306,0,1,1,-2.7386127875258306,0A2.7386127875258306,2.7386127875258306,0,1,1,2.7386127875258306,0" style="fill: none; stroke: #f58518; stroke-width: 2; opacity: 0.7;"></path><path transform="translate(482.1428571428572,171.43556181114968)" d="M-2.7386127875258306,-2.7386127875258306h5.477225575051661v5.477225575051661h-5.477225575051661Z" style="fill: none; stroke: #f58518; stroke-width: 2; opacity: 0.7;"></path><path transform="translate(465.5172413793104,180.00778742286516)" d="M2.7386127875258306,0A2.7386127875258306,2.7386127875258306,0,1,1,-2.7386127875258306,0A2.7386127875258306,2.7386127875258306,0,1,1,2.7386127875258306,0" style="fill: none; stroke: #f58518; stroke-width: 2; opacity: 0.7;"></path><path transform="translate(465.5172413793104,188.21465020494017)" d="M-2.7386127875258306,-2.7386127875258306h5.477225575051661v5.477225575051661h-5.477225575051661Z" style="fill: none; stroke: #f58518; stroke-width: 2; opacity: 0.7;"></path><path transform="translate(450.00000000000006,194.84322484986572)" d="M2.7386127875258306,0A2.7386127875258306,2.7386127875258306,0,1,1,-2.7386127875258306,0A2.7386127875258306,2.7386127875258306,0,1,1,2.7386127875258306,0" style="fill: none; stroke: #f58518; stroke-width: 2; opacity: 0.7;"></path><path transform="translate(450.00000000000006,203.18176687600996)" d="M-2.7386127875258306,-2.7386127875258306h5.477225575051661v5.477225575051661h-5.477225575051661Z" style="fill: none; stroke: #f58518; stroke-width: 2; opacity: 0.7;"></path><path transform="translate(421.875,218.460488777455)" d="M2.7386127875258306,0A2.7386127875258306,2.7386127875258306,0,1,1,-2.7386127875258306,0A2.7386127875258306,2.7386127875258306,0,1,1,2.7386127875258306,0" style="fill: none; stroke: #f58518; stroke-width: 2; opacity: 0.7;"></path><path transform="translate(421.875,228.50055355652037)" d="M-2.7386127875258306,-2.7386127875258306h5.477225575051661v5.477225575051661h-5.477225575051661Z" style="fill: none; stroke: #f58518; stroke-width: 2; opacity: 0.7;"></path><path transform="translate(100.00000000000001,372.34787911374696)" d="M2.7386127875258306,0A2.7386127875258306,2.7386127875258306,0,1,1,-2.7386127875258306,0A2.7386127875258306,2.7386127875258306,0,1,1,2.7386127875258306,0" style="fill: none; stroke: #4c78a8; stroke-width: 2; opacity: 0.7;"></path><path transform="translate(100.00000000000001,362.98104622631416)" d="M-2.7386127875258306,-2.7386127875258306h5.477225575051661v5.477225575051661h-5.477225575051661Z" style="fill: none; stroke: #4c78a8; stroke-width: 2; opacity: 0.7;"></path><path transform="translate(375,251.6931301598068)" d="M2.7386127875258306,0A2.7386127875258306,2.7386127875258306,0,1,1,-2.7386127875258306,0A2.7386127875258306,2.7386127875258306,0,1,1,2.7386127875258306,0" style="fill: none; stroke: #f58518; stroke-width: 2; opacity: 0.7;"></path><path transform="translate(375,265.25542258323185)" d="M-2.7386127875258306,-2.7386127875258306h5.477225575051661v5.477225575051661h-5.477225575051661Z" style="fill: none; stroke: #f58518; stroke-width: 2; opacity: 0.7;"></path><path transform="translate(337.50000000000006,275.0000682769913)" d="M2.7386127875258306,0A2.7386127875258306,2.7386127875258306,0,1,1,-2.7386127875258306,0A2.7386127875258306,2.7386127875258306,0,1,1,2.7386127875258306,0" style="fill: none; stroke: #f58518; stroke-width: 2; opacity: 0.7;"></path><path transform="translate(337.50000000000006,286.8653030927166)" d="M-2.7386127875258306,-2.7386127875258306h5.477225575051661v5.477225575051661h-5.477225575051661Z" style="fill: none; stroke: #f58518; stroke-width: 2; opacity: 0.7;"></path><path transform="translate(270.00000000000006,306.35403192980914)" d="M2.7386127875258306,0A2.7386127875258306,2.7386127875258306,0,1,1,-2.7386127875258306,0A2.7386127875258306,2.7386127875258306,0,1,1,2.7386127875258306,0" style="fill: none; stroke: #f58518; stroke-width: 2; opacity: 0.7;"></path><path transform="translate(270.00000000000006,317.98238668593126)" d="M-2.7386127875258306,-2.7386127875258306h5.477225575051661v5.477225575051661h-5.477225575051661Z" style="fill: none; stroke: #f58518; stroke-width: 2; opacity: 0.7;"></path></g><g class="mark-group role-legend"><g transform="translate(618,0)"><path class="background" d="M0,0h81v59h-81Z" style="pointer-events: none; fill: none;"></path><g><g class="mark-group role-legend-entry"><g transform="translate(0,25)"><path class="background" d="M0,0h0v0h0Z" style="pointer-events: none; fill: none;"></path><g><g class="mark-group role-scope"><g transform="translate(0,0)"><path class="background" d="M0,0h51.21666717529297v16h-51.21666717529297Z" style="pointer-events: none; fill: none; opacity: 1;"></path><g><g class="mark-symbol role-legend-symbol" style="pointer-events: none;"><path transform="translate(8,8)" d="M5,0A5,5,0,1,1,-5,0A5,5,0,1,1,5,0" style="fill: none; stroke: #4c78a8; stroke-width: 1.5; opacity: 0.7;"></path></g><g class="mark-text role-legend-label" style="pointer-events: none;"><text text-anchor="start" transform="translate(20,13)" style="font-family: Roboto; font-size: 16px; fill: #000; opacity: 1;">1</text></g></g><path class="foreground" d="" style="pointer-events: none; display: none; fill: none;"></path></g><g transform="translate(0,18)"><path class="background" d="M0,0h51.21666717529297v16h-51.21666717529297Z" style="pointer-events: none; fill: none; opacity: 1;"></path><g><g class="mark-symbol role-legend-symbol" style="pointer-events: none;"><path transform="translate(8,8)" d="M5,0A5,5,0,1,1,-5,0A5,5,0,1,1,5,0" style="fill: none; stroke: #f58518; stroke-width: 1.5; opacity: 0.7;"></path></g><g class="mark-text role-legend-label" style="pointer-events: none;"><text text-anchor="start" transform="translate(20,13)" style="font-family: Roboto; font-size: 16px; fill: #000; opacity: 1;">13.5</text></g></g><path class="foreground" d="" style="pointer-events: none; display: none; fill: none;"></path></g></g></g><path class="foreground" d="" style="pointer-events: none; display: none; fill: none;"></path></g></g><g class="mark-text role-legend-title" style="pointer-events: none;"><text text-anchor="start" transform="translate(0,16)" style="font-family: Roboto; font-size: 20px; font-weight: bold; fill: #000; opacity: 1;">Pressure</text></g></g><path class="foreground" d="" style="pointer-events: none; display: none; fill: none;"></path></g></g><g class="mark-group role-legend"><g transform="translate(618,67)"><path class="background" d="M0,0h111v59h-111Z" style="pointer-events: none; fill: none;"></path><g><g class="mark-group role-legend-entry"><g transform="translate(0,25)"><path class="background" d="M0,0h0v0h0Z" style="pointer-events: none; fill: none;"></path><g><g class="mark-group role-scope"><g transform="translate(0,0)"><path class="background" d="M0,0h110.63333129882812v16h-110.63333129882812Z" style="pointer-events: none; fill: none; opacity: 1;"></path><g><g class="mark-symbol role-legend-symbol" style="pointer-events: none;"><path transform="translate(8,8)" d="M5,0A5,5,0,1,1,-5,0A5,5,0,1,1,5,0" style="fill: none; stroke: #888; stroke-width: 1.5; opacity: 0.7;"></path></g><g class="mark-text role-legend-label" style="pointer-events: none;"><text text-anchor="start" transform="translate(20,13)" style="font-family: Roboto; font-size: 16px; fill: #000; opacity: 1;">inv_diffusion</text></g></g><path class="foreground" d="" style="pointer-events: none; display: none; fill: none;"></path></g><g transform="translate(0,18)"><path class="background" d="M0,0h110.63333129882812v16h-110.63333129882812Z" style="pointer-events: none; fill: none; opacity: 1;"></path><g><g class="mark-symbol role-legend-symbol" style="pointer-events: none;"><path transform="translate(8,8)" d="M-5,-5h10v10h-10Z" style="fill: none; stroke: #888; stroke-width: 1.5; opacity: 0.7;"></path></g><g class="mark-text role-legend-label" style="pointer-events: none;"><text text-anchor="start" transform="translate(20,13)" style="font-family: Roboto; font-size: 16px; fill: #000; opacity: 1;">tau_D</text></g></g><path class="foreground" d="" style="pointer-events: none; display: none; fill: none;"></path></g></g></g><path class="foreground" d="" style="pointer-events: none; display: none; fill: none;"></path></g></g><g class="mark-text role-legend-title" style="pointer-events: none;"><text text-anchor="start" transform="translate(0,16)" style="font-family: Roboto; font-size: 20px; font-weight: bold; fill: #000; opacity: 1;">Relaxation</text></g></g><path class="foreground" d="" style="pointer-events: none; display: none; fill: none;"></path></g></g><g class="mark-group role-axis"><g transform="translate(0.5,400.5)"><path class="background" d="M0,0h0v0h0Z" style="pointer-events: none; fill: none;"></path><g><g class="mark-rule role-axis-tick" style="pointer-events: none;"><line transform="translate(0,0)" x2="0" y2="5" style="fill: none; stroke: #888; stroke-width: 1; opacity: 1;"></line><line transform="translate(50,0)" x2="0" y2="5" style="fill: none; stroke: #888; stroke-width: 1; opacity: 1;"></line><line transform="translate(100,0)" x2="0" y2="5" style="fill: none; stroke: #888; stroke-width: 1; opacity: 1;"></line><line transform="translate(150,0)" x2="0" y2="5" style="fill: none; stroke: #888; stroke-width: 1; opacity: 1;"></line><line transform="translate(200,0)" x2="0" y2="5" style="fill: none; stroke: #888; stroke-width: 1; opacity: 1;"></line><line transform="translate(250,0)" x2="0" y2="5" style="fill: none; stroke: #888; stroke-width: 1; opacity: 1;"></line><line transform="translate(300,0)" x2="0" y2="5" style="fill: none; stroke: #888; stroke-width: 1; opacity: 1;"></line><line transform="translate(350,0)" x2="0" y2="5" style="fill: none; stroke: #888; stroke-width: 1; opacity: 1;"></line><line transform="translate(400,0)" x2="0" y2="5" style="fill: none; stroke: #888; stroke-width: 1; opacity: 1;"></line><line transform="translate(450,0)" x2="0" y2="5" style="fill: none; stroke: #888; stroke-width: 1; opacity: 1;"></line><line transform="translate(500,0)" x2="0" y2="5" style="fill: none; stroke: #888; stroke-width: 1; opacity: 1;"></line><line transform="translate(550,0)" x2="0" y2="5" style="fill: none; stroke: #888; stroke-width: 1; opacity: 1;"></line><line transform="translate(600,0)" x2="0" y2="5" style="fill: none; stroke: #888; stroke-width: 1; opacity: 1;"></line></g><g class="mark-text role-axis-label" style="pointer-events: none;"><text text-anchor="start" transform="translate(0,20)" style="font-family: Roboto; font-size: 16px; fill: #000; opacity: 1;">0.0</text><text text-anchor="middle" transform="translate(50.00000000000001,20)" style="font-family: Roboto; font-size: 16px; fill: #000; opacity: 1;">0.10</text><text text-anchor="middle" transform="translate(100.00000000000001,20)" style="font-family: Roboto; font-size: 16px; fill: #000; opacity: 1;">0.20</text><text text-anchor="middle" transform="translate(150,20)" style="font-family: Roboto; font-size: 16px; fill: #000; opacity: 1;">0.30</text><text text-anchor="middle" transform="translate(200.00000000000003,20)" style="font-family: Roboto; font-size: 16px; fill: #000; opacity: 1;">0.40</text><text text-anchor="middle" transform="translate(250,20)" style="font-family: Roboto; font-size: 16px; fill: #000; opacity: 1;">0.50</text><text text-anchor="middle" transform="translate(300,20)" style="font-family: Roboto; font-size: 16px; fill: #000; opacity: 1;">0.60</text><text text-anchor="middle" transform="translate(350,20)" style="font-family: Roboto; font-size: 16px; fill: #000; opacity: 1;">0.70</text><text text-anchor="middle" transform="translate(400.00000000000006,20)" style="font-family: Roboto; font-size: 16px; fill: #000; opacity: 1;">0.80</text><text text-anchor="middle" transform="translate(450,20)" style="font-family: Roboto; font-size: 16px; fill: #000; opacity: 1;">0.90</text><text text-anchor="middle" transform="translate(500,20)" style="font-family: Roboto; font-size: 16px; fill: #000; opacity: 1;">1.0</text><text text-anchor="middle" transform="translate(550,20)" style="font-family: Roboto; font-size: 16px; fill: #000; opacity: 1;">1.1</text><text text-anchor="end" transform="translate(600,20)" style="font-family: Roboto; font-size: 16px; fill: #000; opacity: 1;">1.2</text></g><g class="mark-rule role-axis-domain" style="pointer-events: none;"><line transform="translate(0,0)" x2="600" y2="0" style="fill: none; stroke: #888; stroke-width: 1; opacity: 1;"></line></g><g class="mark-text role-axis-title" style="pointer-events: none;"><text text-anchor="middle" transform="translate(300,43)" style="font-family: Roboto; font-size: 20px; font-weight: bold; fill: #000; opacity: 1;">Tm/T</text></g></g><path class="foreground" d="" style="pointer-events: none; display: none; fill: none;"></path></g></g><g class="mark-group role-axis"><g transform="translate(0.5,0.5)"><path class="background" d="M0,0h0v0h0Z" style="pointer-events: none; fill: none;"></path><g><g class="mark-rule role-axis-tick" style="pointer-events: none;"><line transform="translate(0,400)" x2="-5" y2="0" style="fill: none; stroke: #888; stroke-width: 1; opacity: 1;"></line><line transform="translate(0,385)" x2="-5" y2="0" style="fill: none; stroke: #888; stroke-width: 1; opacity: 1;"></line><line transform="translate(0,376)" x2="-5" y2="0" style="fill: none; stroke: #888; stroke-width: 1; opacity: 1;"></line><line transform="translate(0,370)" x2="-5" y2="0" style="fill: none; stroke: #888; stroke-width: 1; opacity: 1;"></line><line transform="translate(0,365)" x2="-5" y2="0" style="fill: none; stroke: #888; stroke-width: 1; opacity: 1;"></line><line transform="translate(0,361)" x2="-5" y2="0" style="fill: none; stroke: #888; stroke-width: 1; opacity: 1;"></line><line transform="translate(0,358)" x2="-5" y2="0" style="fill: none; stroke: #888; stroke-width: 1; opacity: 1;"></line><line transform="translate(0,355)" x2="-5" y2="0" style="fill: none; stroke: #888; stroke-width: 1; opacity: 1;"></line><line transform="translate(0,352)" x2="-5" y2="0" style="fill: none; stroke: #888; stroke-width: 1; opacity: 1;"></line><line transform="translate(0,350)" x2="-5" y2="0" style="fill: none; stroke: #888; stroke-width: 1; opacity: 1;"></line><line transform="translate(0,335)" x2="-5" y2="0" style="fill: none; stroke: #888; stroke-width: 1; opacity: 1;"></line><line transform="translate(0,326)" x2="-5" y2="0" style="fill: none; stroke: #888; stroke-width: 1; opacity: 1;"></line><line transform="translate(0,320)" x2="-5" y2="0" style="fill: none; stroke: #888; stroke-width: 1; opacity: 1;"></line><line transform="translate(0,315)" x2="-5" y2="0" style="fill: none; stroke: #888; stroke-width: 1; opacity: 1;"></line><line transform="translate(0,311)" x2="-5" y2="0" style="fill: none; stroke: #888; stroke-width: 1; opacity: 1;"></line><line transform="translate(0,308)" x2="-5" y2="0" style="fill: none; stroke: #888; stroke-width: 1; opacity: 1;"></line><line transform="translate(0,305)" x2="-5" y2="0" style="fill: none; stroke: #888; stroke-width: 1; opacity: 1;"></line><line transform="translate(0,302)" x2="-5" y2="0" style="fill: none; stroke: #888; stroke-width: 1; opacity: 1;"></line><line transform="translate(0,300)" x2="-5" y2="0" style="fill: none; stroke: #888; stroke-width: 1; opacity: 1;"></line><line transform="translate(0,285)" x2="-5" y2="0" style="fill: none; stroke: #888; stroke-width: 1; opacity: 1;"></line><line transform="translate(0,276)" x2="-5" y2="0" style="fill: none; stroke: #888; stroke-width: 1; opacity: 1;"></line><line transform="translate(0,270)" x2="-5" y2="0" style="fill: none; stroke: #888; stroke-width: 1; opacity: 1;"></line><line transform="translate(0,265)" x2="-5" y2="0" style="fill: none; stroke: #888; stroke-width: 1; opacity: 1;"></line><line transform="translate(0,261)" x2="-5" y2="0" style="fill: none; stroke: #888; stroke-width: 1; opacity: 1;"></line><line transform="translate(0,258)" x2="-5" y2="0" style="fill: none; stroke: #888; stroke-width: 1; opacity: 1;"></line><line transform="translate(0,255)" x2="-5" y2="0" style="fill: none; stroke: #888; stroke-width: 1; opacity: 1;"></line><line transform="translate(0,252)" x2="-5" y2="0" style="fill: none; stroke: #888; stroke-width: 1; opacity: 1;"></line><line transform="translate(0,250)" x2="-5" y2="0" style="fill: none; stroke: #888; stroke-width: 1; opacity: 1;"></line><line transform="translate(0,235)" x2="-5" y2="0" style="fill: none; stroke: #888; stroke-width: 1; opacity: 1;"></line><line transform="translate(0,226)" x2="-5" y2="0" style="fill: none; stroke: #888; stroke-width: 1; opacity: 1;"></line><line transform="translate(0,220)" x2="-5" y2="0" style="fill: none; stroke: #888; stroke-width: 1; opacity: 1;"></line><line transform="translate(0,215)" x2="-5" y2="0" style="fill: none; stroke: #888; stroke-width: 1; opacity: 1;"></line><line transform="translate(0,211)" x2="-5" y2="0" style="fill: none; stroke: #888; stroke-width: 1; opacity: 1;"></line><line transform="translate(0,208)" x2="-5" y2="0" style="fill: none; stroke: #888; stroke-width: 1; opacity: 1;"></line><line transform="translate(0,205)" x2="-5" y2="0" style="fill: none; stroke: #888; stroke-width: 1; opacity: 1;"></line><line transform="translate(0,202)" x2="-5" y2="0" style="fill: none; stroke: #888; stroke-width: 1; opacity: 1;"></line><line transform="translate(0,200)" x2="-5" y2="0" style="fill: none; stroke: #888; stroke-width: 1; opacity: 1;"></line><line transform="translate(0,185)" x2="-5" y2="0" style="fill: none; stroke: #888; stroke-width: 1; opacity: 1;"></line><line transform="translate(0,176)" x2="-5" y2="0" style="fill: none; stroke: #888; stroke-width: 1; opacity: 1;"></line><line transform="translate(0,170)" x2="-5" y2="0" style="fill: none; stroke: #888; stroke-width: 1; opacity: 1;"></line><line transform="translate(0,165)" x2="-5" y2="0" style="fill: none; stroke: #888; stroke-width: 1; opacity: 1;"></line><line transform="translate(0,161)" x2="-5" y2="0" style="fill: none; stroke: #888; stroke-width: 1; opacity: 1;"></line><line transform="translate(0,158)" x2="-5" y2="0" style="fill: none; stroke: #888; stroke-width: 1; opacity: 1;"></line><line transform="translate(0,155)" x2="-5" y2="0" style="fill: none; stroke: #888; stroke-width: 1; opacity: 1;"></line><line transform="translate(0,152)" x2="-5" y2="0" style="fill: none; stroke: #888; stroke-width: 1; opacity: 1;"></line><line transform="translate(0,150)" x2="-5" y2="0" style="fill: none; stroke: #888; stroke-width: 1; opacity: 1;"></line><line transform="translate(0,135)" x2="-5" y2="0" style="fill: none; stroke: #888; stroke-width: 1; opacity: 1;"></line><line transform="translate(0,126)" x2="-5" y2="0" style="fill: none; stroke: #888; stroke-width: 1; opacity: 1;"></line><line transform="translate(0,120)" x2="-5" y2="0" style="fill: none; stroke: #888; stroke-width: 1; opacity: 1;"></line><line transform="translate(0,115)" x2="-5" y2="0" style="fill: none; stroke: #888; stroke-width: 1; opacity: 1;"></line><line transform="translate(0,111)" x2="-5" y2="0" style="fill: none; stroke: #888; stroke-width: 1; opacity: 1;"></line><line transform="translate(0,108)" x2="-5" y2="0" style="fill: none; stroke: #888; stroke-width: 1; opacity: 1;"></line><line transform="translate(0,105)" x2="-5" y2="0" style="fill: none; stroke: #888; stroke-width: 1; opacity: 1;"></line><line transform="translate(0,102)" x2="-5" y2="0" style="fill: none; stroke: #888; stroke-width: 1; opacity: 1;"></line><line transform="translate(0,100)" x2="-5" y2="0" style="fill: none; stroke: #888; stroke-width: 1; opacity: 1;"></line><line transform="translate(0,85)" x2="-5" y2="0" style="fill: none; stroke: #888; stroke-width: 1; opacity: 1;"></line><line transform="translate(0,76)" x2="-5" y2="0" style="fill: none; stroke: #888; stroke-width: 1; opacity: 1;"></line><line transform="translate(0,70)" x2="-5" y2="0" style="fill: none; stroke: #888; stroke-width: 1; opacity: 1;"></line><line transform="translate(0,65)" x2="-5" y2="0" style="fill: none; stroke: #888; stroke-width: 1; opacity: 1;"></line><line transform="translate(0,61)" x2="-5" y2="0" style="fill: none; stroke: #888; stroke-width: 1; opacity: 1;"></line><line transform="translate(0,58)" x2="-5" y2="0" style="fill: none; stroke: #888; stroke-width: 1; opacity: 1;"></line><line transform="translate(0,55)" x2="-5" y2="0" style="fill: none; stroke: #888; stroke-width: 1; opacity: 1;"></line><line transform="translate(0,52)" x2="-5" y2="0" style="fill: none; stroke: #888; stroke-width: 1; opacity: 1;"></line><line transform="translate(0,50)" x2="-5" y2="0" style="fill: none; stroke: #888; stroke-width: 1; opacity: 1;"></line><line transform="translate(0,35)" x2="-5" y2="0" style="fill: none; stroke: #888; stroke-width: 1; opacity: 1;"></line><line transform="translate(0,26)" x2="-5" y2="0" style="fill: none; stroke: #888; stroke-width: 1; opacity: 1;"></line><line transform="translate(0,20)" x2="-5" y2="0" style="fill: none; stroke: #888; stroke-width: 1; opacity: 1;"></line><line transform="translate(0,15)" x2="-5" y2="0" style="fill: none; stroke: #888; stroke-width: 1; opacity: 1;"></line><line transform="translate(0,11)" x2="-5" y2="0" style="fill: none; stroke: #888; stroke-width: 1; opacity: 1;"></line><line transform="translate(0,8)" x2="-5" y2="0" style="fill: none; stroke: #888; stroke-width: 1; opacity: 1;"></line><line transform="translate(0,5)" x2="-5" y2="0" style="fill: none; stroke: #888; stroke-width: 1; opacity: 1;"></line><line transform="translate(0,2)" x2="-5" y2="0" style="fill: none; stroke: #888; stroke-width: 1; opacity: 1;"></line><line transform="translate(0,0)" x2="-5" y2="0" style="fill: none; stroke: #888; stroke-width: 1; opacity: 1;"></line></g><g class="mark-text role-axis-label" style="pointer-events: none;"><text text-anchor="end" transform="translate(-7,405)" style="font-family: Roboto; font-size: 16px; fill: #000; opacity: 1;">1e+0</text><text text-anchor="end" transform="translate(-7,389.94850021680094)" style="font-family: Roboto; font-size: 16px; fill: #000; opacity: 1;"></text><text text-anchor="end" transform="translate(-7,381.14393726401687)" style="font-family: Roboto; font-size: 16px; fill: #000; opacity: 1;"></text><text text-anchor="end" transform="translate(-7,374.8970004336019)" style="font-family: Roboto; font-size: 16px; fill: #000; opacity: 1;"></text><text text-anchor="end" transform="translate(-7,370.05149978319906)" style="font-family: Roboto; font-size: 16px; fill: #000; opacity: 1;"></text><text text-anchor="end" transform="translate(-7,366.0924374808178)" style="font-family: Roboto; font-size: 16px; fill: #000; opacity: 1;"></text><text text-anchor="end" transform="translate(-7,362.74509799928717)" style="font-family: Roboto; font-size: 16px; fill: #000; opacity: 1;"></text><text text-anchor="end" transform="translate(-7,359.8455006504028)" style="font-family: Roboto; font-size: 16px; fill: #000; opacity: 1;"></text><text text-anchor="end" transform="translate(-7,357.28787452803374)" style="font-family: Roboto; font-size: 16px; fill: #000; opacity: 1;"></text><text text-anchor="end" transform="translate(-7,355)" style="font-family: Roboto; font-size: 16px; fill: #000; opacity: 1;">1e+1</text><text text-anchor="end" transform="translate(-7,339.94850021680094)" style="font-family: Roboto; font-size: 16px; fill: #000; opacity: 1;"></text><text text-anchor="end" transform="translate(-7,331.14393726401687)" style="font-family: Roboto; font-size: 16px; fill: #000; opacity: 1;"></text><text text-anchor="end" transform="translate(-7,324.8970004336019)" style="font-family: Roboto; font-size: 16px; fill: #000; opacity: 1;"></text><text text-anchor="end" transform="translate(-7,320.05149978319906)" style="font-family: Roboto; font-size: 16px; fill: #000; opacity: 1;"></text><text text-anchor="end" transform="translate(-7,316.0924374808178)" style="font-family: Roboto; font-size: 16px; fill: #000; opacity: 1;"></text><text text-anchor="end" transform="translate(-7,312.74509799928717)" style="font-family: Roboto; font-size: 16px; fill: #000; opacity: 1;"></text><text text-anchor="end" transform="translate(-7,309.8455006504028)" style="font-family: Roboto; font-size: 16px; fill: #000; opacity: 1;"></text><text text-anchor="end" transform="translate(-7,307.28787452803374)" style="font-family: Roboto; font-size: 16px; fill: #000; opacity: 1;"></text><text text-anchor="end" transform="translate(-7,305)" style="font-family: Roboto; font-size: 16px; fill: #000; opacity: 1;">1e+2</text><text text-anchor="end" transform="translate(-7,289.94850021680094)" style="font-family: Roboto; font-size: 16px; fill: #000; opacity: 1;"></text><text text-anchor="end" transform="translate(-7,281.14393726401687)" style="font-family: Roboto; font-size: 16px; fill: #000; opacity: 1;"></text><text text-anchor="end" transform="translate(-7,274.8970004336019)" style="font-family: Roboto; font-size: 16px; fill: #000; opacity: 1;"></text><text text-anchor="end" transform="translate(-7,270.05149978319906)" style="font-family: Roboto; font-size: 16px; fill: #000; opacity: 1;"></text><text text-anchor="end" transform="translate(-7,266.0924374808178)" style="font-family: Roboto; font-size: 16px; fill: #000; opacity: 1;"></text><text text-anchor="end" transform="translate(-7,262.74509799928717)" style="font-family: Roboto; font-size: 16px; fill: #000; opacity: 1;"></text><text text-anchor="end" transform="translate(-7,259.8455006504028)" style="font-family: Roboto; font-size: 16px; fill: #000; opacity: 1;"></text><text text-anchor="end" transform="translate(-7,257.28787452803374)" style="font-family: Roboto; font-size: 16px; fill: #000; opacity: 1;"></text><text text-anchor="end" transform="translate(-7,255)" style="font-family: Roboto; font-size: 16px; fill: #000; opacity: 1;">1e+3</text><text text-anchor="end" transform="translate(-7,239.94850021680094)" style="font-family: Roboto; font-size: 16px; fill: #000; opacity: 1;"></text><text text-anchor="end" transform="translate(-7,231.14393726401693)" style="font-family: Roboto; font-size: 16px; fill: #000; opacity: 1;"></text><text text-anchor="end" transform="translate(-7,224.89700043360187)" style="font-family: Roboto; font-size: 16px; fill: #000; opacity: 1;"></text><text text-anchor="end" transform="translate(-7,220.05149978319906)" style="font-family: Roboto; font-size: 16px; fill: #000; opacity: 1;"></text><text text-anchor="end" transform="translate(-7,216.09243748081786)" style="font-family: Roboto; font-size: 16px; fill: #000; opacity: 1;"></text><text text-anchor="end" transform="translate(-7,212.74509799928717)" style="font-family: Roboto; font-size: 16px; fill: #000; opacity: 1;"></text><text text-anchor="end" transform="translate(-7,209.8455006504028)" style="font-family: Roboto; font-size: 16px; fill: #000; opacity: 1;"></text><text text-anchor="end" transform="translate(-7,207.28787452803374)" style="font-family: Roboto; font-size: 16px; fill: #000; opacity: 1;"></text><text text-anchor="end" transform="translate(-7,205)" style="font-family: Roboto; font-size: 16px; fill: #000; opacity: 1;">1e+4</text><text text-anchor="end" transform="translate(-7,189.948500216801)" style="font-family: Roboto; font-size: 16px; fill: #000; opacity: 1;"></text><text text-anchor="end" transform="translate(-7,181.14393726401693)" style="font-family: Roboto; font-size: 16px; fill: #000; opacity: 1;"></text><text text-anchor="end" transform="translate(-7,174.89700043360193)" style="font-family: Roboto; font-size: 16px; fill: #000; opacity: 1;"></text><text text-anchor="end" transform="translate(-7,170.05149978319906)" style="font-family: Roboto; font-size: 16px; fill: #000; opacity: 1;"></text><text text-anchor="end" transform="translate(-7,166.09243748081786)" style="font-family: Roboto; font-size: 16px; fill: #000; opacity: 1;"></text><text text-anchor="end" transform="translate(-7,162.7450979992872)" style="font-family: Roboto; font-size: 16px; fill: #000; opacity: 1;"></text><text text-anchor="end" transform="translate(-7,159.84550065040287)" style="font-family: Roboto; font-size: 16px; fill: #000; opacity: 1;"></text><text text-anchor="end" transform="translate(-7,157.2878745280338)" style="font-family: Roboto; font-size: 16px; fill: #000; opacity: 1;"></text><text text-anchor="end" transform="translate(-7,155)" style="font-family: Roboto; font-size: 16px; fill: #000; opacity: 1;">1e+5</text><text text-anchor="end" transform="translate(-7,139.94850021680094)" style="font-family: Roboto; font-size: 16px; fill: #000; opacity: 1;"></text><text text-anchor="end" transform="translate(-7,131.14393726401693)" style="font-family: Roboto; font-size: 16px; fill: #000; opacity: 1;"></text><text text-anchor="end" transform="translate(-7,124.89700043360192)" style="font-family: Roboto; font-size: 16px; fill: #000; opacity: 1;"></text><text text-anchor="end" transform="translate(-7,120.0514997831991)" style="font-family: Roboto; font-size: 16px; fill: #000; opacity: 1;"></text><text text-anchor="end" transform="translate(-7,116.09243748081785)" style="font-family: Roboto; font-size: 16px; fill: #000; opacity: 1;"></text><text text-anchor="end" transform="translate(-7,112.7450979992872)" style="font-family: Roboto; font-size: 16px; fill: #000; opacity: 1;"></text><text text-anchor="end" transform="translate(-7,109.84550065040285)" style="font-family: Roboto; font-size: 16px; fill: #000; opacity: 1;"></text><text text-anchor="end" transform="translate(-7,107.28787452803378)" style="font-family: Roboto; font-size: 16px; fill: #000; opacity: 1;"></text><text text-anchor="end" transform="translate(-7,105.00000000000004)" style="font-family: Roboto; font-size: 16px; fill: #000; opacity: 1;">1e+6</text><text text-anchor="end" transform="translate(-7,89.94850021680098)" style="font-family: Roboto; font-size: 16px; fill: #000; opacity: 1;"></text><text text-anchor="end" transform="translate(-7,81.14393726401691)" style="font-family: Roboto; font-size: 16px; fill: #000; opacity: 1;"></text><text text-anchor="end" transform="translate(-7,74.89700043360192)" style="font-family: Roboto; font-size: 16px; fill: #000; opacity: 1;"></text><text text-anchor="end" transform="translate(-7,70.05149978319906)" style="font-family: Roboto; font-size: 16px; fill: #000; opacity: 1;"></text><text text-anchor="end" transform="translate(-7,66.09243748081785)" style="font-family: Roboto; font-size: 16px; fill: #000; opacity: 1;"></text><text text-anchor="end" transform="translate(-7,62.745097999287196)" style="font-family: Roboto; font-size: 16px; fill: #000; opacity: 1;"></text><text text-anchor="end" transform="translate(-7,59.845500650402855)" style="font-family: Roboto; font-size: 16px; fill: #000; opacity: 1;"></text><text text-anchor="end" transform="translate(-7,57.287874528033825)" style="font-family: Roboto; font-size: 16px; fill: #000; opacity: 1;"></text><text text-anchor="end" transform="translate(-7,55)" style="font-family: Roboto; font-size: 16px; fill: #000; opacity: 1;">1e+7</text><text text-anchor="end" transform="translate(-7,39.94850021680098)" style="font-family: Roboto; font-size: 16px; fill: #000; opacity: 1;"></text><text text-anchor="end" transform="translate(-7,31.14393726401696)" style="font-family: Roboto; font-size: 16px; fill: #000; opacity: 1;"></text><text text-anchor="end" transform="translate(-7,24.897000433601917)" style="font-family: Roboto; font-size: 16px; fill: #000; opacity: 1;"></text><text text-anchor="end" transform="translate(-7,20.051499783199105)" style="font-family: Roboto; font-size: 16px; fill: #000; opacity: 1;"></text><text text-anchor="end" transform="translate(-7,16.09243748081785)" style="font-family: Roboto; font-size: 16px; fill: #000; opacity: 1;"></text><text text-anchor="end" transform="translate(-7,12.745097999287198)" style="font-family: Roboto; font-size: 16px; fill: #000; opacity: 1;"></text><text text-anchor="end" transform="translate(-7,9.845500650402856)" style="font-family: Roboto; font-size: 16px; fill: #000; opacity: 1;"></text><text text-anchor="end" transform="translate(-7,7.287874528033784)" style="font-family: Roboto; font-size: 16px; fill: #000; opacity: 1;"></text><text text-anchor="end" transform="translate(-7,5)" style="font-family: Roboto; font-size: 16px; fill: #000; opacity: 1;">1e+8</text></g><g class="mark-rule role-axis-domain" style="pointer-events: none;"><line transform="translate(0,400)" x2="0" y2="-400" style="fill: none; stroke: #888; stroke-width: 1; opacity: 1;"></line></g><g class="mark-text role-axis-title" style="pointer-events: none;"><text text-anchor="middle" transform="translate(-46.56666564941406,200) rotate(-90) translate(0,-4)" style="font-family: Roboto; font-size: 20px; font-weight: bold; fill: #000; opacity: 1;">Relaxation Time</text></g></g><path class="foreground" d="" style="pointer-events: none; display: none; fill: none;"></path></g></g></g><path class="foreground" d="" style="display: none; fill: none;"></path></g></g></g></svg>