<svg class="marks" width="700" height="465" viewBox="0 0 700 465" version="1.1" xmlns="http://www.w3.org/2000/svg" xmlns:xlink="http://www.w3.org/1999/xlink"><rect width="700" height="465" style="fill: white;"></rect><g transform="translate(94,13)"><g class="mark-group role-frame root"><g transform="translate(0,0)"><path class="background" d="M0.5,0.5h600v400h-600Z" style="fill: none; stroke: #ddd;"></path><g><g class="mark-rect role-mark marks"><path d="M40.56043956043956,287.856h5.593406593406591v112.144h-5.593406593406591Z" style="fill: #4c78a8;"></path><path d="M1,7.024000000000008h5.593406593406594v392.976h-5.593406593406594Z" style="fill: #4c78a8;"></path><path d="M7.593406593406594,125.35599999999998h5.593406593406594v274.644h-5.593406593406594Z" style="fill: #4c78a8;"></path><path d="M99.9010989010989,381.39599999999996h5.593406593406598v18.604000000000042h-5.593406593406598Z" style="fill: #4c78a8;"></path><path d="M33.967032967032964,264.54h5.593406593406598v135.45999999999998h-5.593406593406598Z" style="fill: #4c78a8;"></path><path d="M172.42857142857142,396.00399999999996h5.593406593406598v3.9960000000000377h-5.593406593406598Z" style="fill: #4c78a8;"></path><path d="M27.373626373626376,238.60399999999998h5.593406593406588v161.39600000000002h-5.593406593406588Z" style="fill: #4c78a8;"></path><path d="M20.78021978021978,205.12800000000001h5.593406593406595v194.87199999999999h-5.593406593406595Z" style="fill: #4c78a8;"></path><path d="M14.186813186813188,163.236h5.593406593406593v236.764h-5.593406593406593Z" style="fill: #4c78a8;"></path><path d="M47.15384615384615,305.416h5.593406593406598v94.584h-5.593406593406598Z" style="fill: #4c78a8;"></path><path d="M119.68131868131867,387.732h5.593406593406613v12.267999999999972h-5.593406593406613Z" style="fill: #4c78a8;"></path><path d="M152.64835164835165,394.04400000000004h5.593406593406598v5.95599999999996h-5.593406593406598Z" style="fill: #4c78a8;"></path><path d="M93.3076923076923,378.23199999999997h5.593406593406598v21.76800000000003h-5.593406593406598Z" style="fill: #4c78a8;"></path><path d="M159.24175824175825,394.96000000000004h5.593406593406598v5.039999999999964h-5.593406593406598Z" style="fill: #4c78a8;"></path><path d="M60.340659340659336,309.096h5.593406593406591v90.904h-5.593406593406591Z" style="fill: #4c78a8;"></path><path d="M53.74725274725275,316.028h5.593406593406584v83.97199999999998h-5.593406593406584Z" style="fill: #4c78a8;"></path><path d="M86.71428571428571,374.40799999999996h5.593406593406598v25.59200000000004h-5.593406593406598Z" style="fill: #4c78a8;"></path><path d="M66.93406593406593,383.96h5.593406593406598v16.04000000000002h-5.593406593406598Z" style="fill: #4c78a8;"></path><path d="M73.52747252747253,364.464h5.593406593406598v35.536h-5.593406593406598Z" style="fill: #4c78a8;"></path><path d="M106.4945054945055,384.028h5.593406593406584v15.97199999999998h-5.593406593406584Z" style="fill: #4c78a8;"></path><path d="M324.07692307692304,399.84000000000003h5.593406593406655v0.15999999999996817h-5.593406593406655Z" style="fill: #4c78a8;"></path><path d="M80.12087912087912,369.76800000000003h5.593406593406584v30.23199999999997h-5.593406593406584Z" style="fill: #4c78a8;"></path><path d="M165.83516483516485,395.544h5.59340659340657v4.456000000000017h-5.59340659340657Z" style="fill: #4c78a8;"></path><path d="M146.05494505494505,393.228h5.593406593406598v6.771999999999991h-5.593406593406598Z" style="fill: #4c78a8;"></path><path d="M277.92307692307696,399.536h5.593406593406542v0.46399999999999864h-5.593406593406542Z" style="fill: #4c78a8;"></path><path d="M132.86813186813185,391.02000000000004h5.593406593406627v8.979999999999961h-5.593406593406627Z" style="fill: #4c78a8;"></path><path d="M113.08791208791209,386.324h5.593406593406584v13.675999999999988h-5.593406593406584Z" style="fill: #4c78a8;"></path><path d="M264.7362637362637,399.396h5.593406593406598v0.603999999999985h-5.593406593406598Z" style="fill: #4c78a8;"></path><path d="M211.989010989011,398.15999999999997h5.59340659340657v1.8400000000000318h-5.59340659340657Z" style="fill: #4c78a8;"></path><path d="M179.02197802197801,396.564h5.593406593406598v3.4359999999999786h-5.593406593406598Z" style="fill: #4c78a8;"></path><path d="M198.8021978021978,397.716h5.593406593406598v2.283999999999992h-5.593406593406598Z" style="fill: #4c78a8;"></path><path d="M126.27472527472528,389.54h5.59340659340657v10.45999999999998h-5.59340659340657Z" style="fill: #4c78a8;"></path><path d="M244.95604395604394,399.188h5.593406593406627v0.8120000000000118h-5.593406593406627Z" style="fill: #4c78a8;"></path><path d="M231.76923076923077,398.76h5.59340659340657v1.240000000000009h-5.59340659340657Z" style="fill: #4c78a8;"></path><path d="M205.3956043956044,397.928h5.593406593406598v2.0720000000000027h-5.593406593406598Z" style="fill: #4c78a8;"></path><path d="M192.20879120879118,397.384h5.593406593406627v2.6159999999999854h-5.593406593406627Z" style="fill: #4c78a8;"></path><path d="M218.58241758241758,398.46h5.593406593406598v1.5400000000000205h-5.593406593406598Z" style="fill: #4c78a8;"></path><path d="M225.17582417582418,398.644h5.593406593406598v1.3559999999999945h-5.593406593406598Z" style="fill: #4c78a8;"></path><path d="M258.1428571428571,399.276h5.593406593406598v0.7239999999999895h-5.593406593406598Z" style="fill: #4c78a8;"></path><path d="M310.8901098901099,399.74h5.593406593406598v0.2599999999999909h-5.593406593406598Z" style="fill: #4c78a8;"></path><path d="M139.46153846153848,392.364h5.59340659340657v7.636000000000024h-5.59340659340657Z" style="fill: #4c78a8;"></path><path d="M357.04395604395603,399.912h5.593406593406598v0.08800000000002228h-5.593406593406598Z" style="fill: #4c78a8;"></path><path d="M185.6153846153846,397.06800000000004h5.59340659340657v2.9319999999999595h-5.59340659340657Z" style="fill: #4c78a8;"></path><path d="M238.36263736263734,398.97999999999996h5.593406593406598v1.0200000000000387h-5.593406593406598Z" style="fill: #4c78a8;"></path><path d="M284.5164835164835,399.592h5.593406593406598v0.40800000000001546h-5.593406593406598Z" style="fill: #4c78a8;"></path><path d="M370.2307692307692,399.932h5.593406593406598v0.06799999999998363h-5.593406593406598Z" style="fill: #4c78a8;"></path><path d="M383.41758241758237,399.96h5.593406593406655v0.040000000000020464h-5.593406593406655Z" style="fill: #4c78a8;"></path><path d="M271.3296703296703,399.51599999999996h5.593406593406655v0.4840000000000373h-5.593406593406655Z" style="fill: #4c78a8;"></path><path d="M449.35164835164835,399.99600000000004h5.593406593406598v0.003999999999962256h-5.593406593406598Z" style="fill: #4c78a8;"></path><path d="M343.85714285714283,399.868h5.593406593406655v0.132000000000005h-5.593406593406655Z" style="fill: #4c78a8;"></path><path d="M251.54945054945057,399.072h5.593406593406542v0.9279999999999973h-5.593406593406542Z" style="fill: #4c78a8;"></path><path d="M376.8241758241758,399.952h5.593406593406542v0.04800000000000182h-5.593406593406542Z" style="fill: #4c78a8;"></path><path d="M337.2637362637363,399.884h5.593406593406542v0.11599999999998545h-5.593406593406542Z" style="fill: #4c78a8;"></path><path d="M304.2967032967033,399.752h5.593406593406598v0.24799999999999045h-5.593406593406598Z" style="fill: #4c78a8;"></path><path d="M350.4505494505495,399.90000000000003h5.593406593406542v0.0999999999999659h-5.593406593406542Z" style="fill: #4c78a8;"></path><path d="M396.6043956043956,399.95599999999996h5.593406593406542v0.04400000000003956h-5.593406593406542Z" style="fill: #4c78a8;"></path><path d="M363.6373626373626,399.912h5.593406593406598v0.08800000000002228h-5.593406593406598Z" style="fill: #4c78a8;"></path><path d="M317.4835164835165,399.79200000000003h5.593406593406542v0.20799999999997h-5.593406593406542Z" style="fill: #4c78a8;"></path><path d="M330.6703296703297,399.85200000000003h5.593406593406598v0.1479999999999677h-5.593406593406598Z" style="fill: #4c78a8;"></path><path d="M297.7032967032967,399.688h5.593406593406598v0.3120000000000118h-5.593406593406598Z" style="fill: #4c78a8;"></path><path d="M291.1098901098901,399.688h5.593406593406598v0.3120000000000118h-5.593406593406598Z" style="fill: #4c78a8;"></path><path d="M455.94505494505495,399.992h5.593406593406598v0.007999999999981355h-5.593406593406598Z" style="fill: #4c78a8;"></path><path d="M416.38461538461536,399.984h5.593406593406655v0.016000000000019554h-5.593406593406655Z" style="fill: #4c78a8;"></path><path d="M403.19780219780216,399.972h5.593406593406655v0.02800000000002001h-5.593406593406655Z" style="fill: #4c78a8;"></path><path d="M475.7252747252747,399.992h5.593406593406655v0.007999999999981355h-5.593406593406655Z" style="fill: #4c78a8;"></path><path d="M462.53846153846155,399.988h5.593406593406598v0.012000000000000455h-5.593406593406598Z" style="fill: #4c78a8;"></path><path d="M594.4065934065934,399.99600000000004h5.593406593406598v0.003999999999962256h-5.593406593406598Z" style="fill: #4c78a8;"></path><path d="M587.8131868131868,399.99600000000004h5.593406593406598v0.003999999999962256h-5.593406593406598Z" style="fill: #4c78a8;"></path><path d="M581.2197802197802,399.99600000000004h5.593406593406598v0.003999999999962256h-5.593406593406598Z" style="fill: #4c78a8;"></path><path d="M422.978021978022,399.992h5.593406593406542v0.007999999999981355h-5.593406593406542Z" style="fill: #4c78a8;"></path><path d="M482.31868131868134,399.984h5.593406593406542v0.016000000000019554h-5.593406593406542Z" style="fill: #4c78a8;"></path><path d="M469.13186813186815,399.992h5.593406593406542v0.007999999999981355h-5.593406593406542Z" style="fill: #4c78a8;"></path><path d="M442.7582417582418,399.988h5.593406593406542v0.012000000000000455h-5.593406593406542Z" style="fill: #4c78a8;"></path><path d="M436.16483516483515,399.992h5.593406593406655v0.007999999999981355h-5.593406593406655Z" style="fill: #4c78a8;"></path><path d="M390.010989010989,399.984h5.593406593406598v0.016000000000019554h-5.593406593406598Z" style="fill: #4c78a8;"></path><path d="M429.57142857142856,399.992h5.593406593406598v0.007999999999981355h-5.593406593406598Z" style="fill: #4c78a8;"></path><path d="M495.5054945054945,399.99600000000004h5.593406593406655v0.003999999999962256h-5.593406593406655Z" style="fill: #4c78a8;"></path></g><g class="mark-group role-axis"><g transform="translate(0.5,400.5)"><path class="background" d="M0,0h0v0h0Z" style="pointer-events: none; fill: none;"></path><g><g class="mark-rule role-axis-tick" style="pointer-events: none;"><line transform="translate(0,0)" x2="0" y2="5" style="fill: none; stroke: #888; stroke-width: 1; opacity: 1;"></line><line transform="translate(7,0)" x2="0" y2="5" style="fill: none; stroke: #888; stroke-width: 1; opacity: 1;"></line><line transform="translate(13,0)" x2="0" y2="5" style="fill: none; stroke: #888; stroke-width: 1; opacity: 1;"></line><line transform="translate(20,0)" x2="0" y2="5" style="fill: none; stroke: #888; stroke-width: 1; opacity: 1;"></line><line transform="translate(26,0)" x2="0" y2="5" style="fill: none; stroke: #888; stroke-width: 1; opacity: 1;"></line><line transform="translate(33,0)" x2="0" y2="5" style="fill: none; stroke: #888; stroke-width: 1; opacity: 1;"></line><line transform="translate(40,0)" x2="0" y2="5" style="fill: none; stroke: #888; stroke-width: 1; opacity: 1;"></line><line transform="translate(46,0)" x2="0" y2="5" style="fill: none; stroke: #888; stroke-width: 1; opacity: 1;"></line><line transform="translate(53,0)" x2="0" y2="5" style="fill: none; stroke: #888; stroke-width: 1; opacity: 1;"></line><line transform="translate(59,0)" x2="0" y2="5" style="fill: none; stroke: #888; stroke-width: 1; opacity: 1;"></line><line transform="translate(66,0)" x2="0" y2="5" style="fill: none; stroke: #888; stroke-width: 1; opacity: 1;"></line><line transform="translate(73,0)" x2="0" y2="5" style="fill: none; stroke: #888; stroke-width: 1; opacity: 1;"></line><line transform="translate(79,0)" x2="0" y2="5" style="fill: none; stroke: #888; stroke-width: 1; opacity: 1;"></line><line transform="translate(86,0)" x2="0" y2="5" style="fill: none; stroke: #888; stroke-width: 1; opacity: 1;"></line><line transform="translate(92,0)" x2="0" y2="5" style="fill: none; stroke: #888; stroke-width: 1; opacity: 1;"></line><line transform="translate(99,0)" x2="0" y2="5" style="fill: none; stroke: #888; stroke-width: 1; opacity: 1;"></line><line transform="translate(105,0)" x2="0" y2="5" style="fill: none; stroke: #888; stroke-width: 1; opacity: 1;"></line><line transform="translate(112,0)" x2="0" y2="5" style="fill: none; stroke: #888; stroke-width: 1; opacity: 1;"></line><line transform="translate(119,0)" x2="0" y2="5" style="fill: none; stroke: #888; stroke-width: 1; opacity: 1;"></line><line transform="translate(125,0)" x2="0" y2="5" style="fill: none; stroke: #888; stroke-width: 1; opacity: 1;"></line><line transform="translate(132,0)" x2="0" y2="5" style="fill: none; stroke: #888; stroke-width: 1; opacity: 1;"></line><line transform="translate(138,0)" x2="0" y2="5" style="fill: none; stroke: #888; stroke-width: 1; opacity: 1;"></line><line transform="translate(145,0)" x2="0" y2="5" style="fill: none; stroke: #888; stroke-width: 1; opacity: 1;"></line><line transform="translate(152,0)" x2="0" y2="5" style="fill: none; stroke: #888; stroke-width: 1; opacity: 1;"></line><line transform="translate(158,0)" x2="0" y2="5" style="fill: none; stroke: #888; stroke-width: 1; opacity: 1;"></line><line transform="translate(165,0)" x2="0" y2="5" style="fill: none; stroke: #888; stroke-width: 1; opacity: 1;"></line><line transform="translate(171,0)" x2="0" y2="5" style="fill: none; stroke: #888; stroke-width: 1; opacity: 1;"></line><line transform="translate(178,0)" x2="0" y2="5" style="fill: none; stroke: #888; stroke-width: 1; opacity: 1;"></line><line transform="translate(185,0)" x2="0" y2="5" style="fill: none; stroke: #888; stroke-width: 1; opacity: 1;"></line><line transform="translate(191,0)" x2="0" y2="5" style="fill: none; stroke: #888; stroke-width: 1; opacity: 1;"></line><line transform="translate(198,0)" x2="0" y2="5" style="fill: none; stroke: #888; stroke-width: 1; opacity: 1;"></line><line transform="translate(204,0)" x2="0" y2="5" style="fill: none; stroke: #888; stroke-width: 1; opacity: 1;"></line><line transform="translate(211,0)" x2="0" y2="5" style="fill: none; stroke: #888; stroke-width: 1; opacity: 1;"></line><line transform="translate(218,0)" x2="0" y2="5" style="fill: none; stroke: #888; stroke-width: 1; opacity: 1;"></line><line transform="translate(224,0)" x2="0" y2="5" style="fill: none; stroke: #888; stroke-width: 1; opacity: 1;"></line><line transform="translate(231,0)" x2="0" y2="5" style="fill: none; stroke: #888; stroke-width: 1; opacity: 1;"></line><line transform="translate(237,0)" x2="0" y2="5" style="fill: none; stroke: #888; stroke-width: 1; opacity: 1;"></line><line transform="translate(244,0)" x2="0" y2="5" style="fill: none; stroke: #888; stroke-width: 1; opacity: 1;"></line><line transform="translate(251,0)" x2="0" y2="5" style="fill: none; stroke: #888; stroke-width: 1; opacity: 1;"></line><line transform="translate(257,0)" x2="0" y2="5" style="fill: none; stroke: #888; stroke-width: 1; opacity: 1;"></line><line transform="translate(264,0)" x2="0" y2="5" style="fill: none; stroke: #888; stroke-width: 1; opacity: 1;"></line><line transform="translate(270,0)" x2="0" y2="5" style="fill: none; stroke: #888; stroke-width: 1; opacity: 1;"></line><line transform="translate(277,0)" x2="0" y2="5" style="fill: none; stroke: #888; stroke-width: 1; opacity: 1;"></line><line transform="translate(284,0)" x2="0" y2="5" style="fill: none; stroke: #888; stroke-width: 1; opacity: 1;"></line><line transform="translate(290,0)" x2="0" y2="5" style="fill: none; stroke: #888; stroke-width: 1; opacity: 1;"></line><line transform="translate(297,0)" x2="0" y2="5" style="fill: none; stroke: #888; stroke-width: 1; opacity: 1;"></line><line transform="translate(303,0)" x2="0" y2="5" style="fill: none; stroke: #888; stroke-width: 1; opacity: 1;"></line><line transform="translate(310,0)" x2="0" y2="5" style="fill: none; stroke: #888; stroke-width: 1; opacity: 1;"></line><line transform="translate(316,0)" x2="0" y2="5" style="fill: none; stroke: #888; stroke-width: 1; opacity: 1;"></line><line transform="translate(323,0)" x2="0" y2="5" style="fill: none; stroke: #888; stroke-width: 1; opacity: 1;"></line><line transform="translate(330,0)" x2="0" y2="5" style="fill: none; stroke: #888; stroke-width: 1; opacity: 1;"></line><line transform="translate(336,0)" x2="0" y2="5" style="fill: none; stroke: #888; stroke-width: 1; opacity: 1;"></line><line transform="translate(343,0)" x2="0" y2="5" style="fill: none; stroke: #888; stroke-width: 1; opacity: 1;"></line><line transform="translate(349,0)" x2="0" y2="5" style="fill: none; stroke: #888; stroke-width: 1; opacity: 1;"></line><line transform="translate(356,0)" x2="0" y2="5" style="fill: none; stroke: #888; stroke-width: 1; opacity: 1;"></line><line transform="translate(363,0)" x2="0" y2="5" style="fill: none; stroke: #888; stroke-width: 1; opacity: 1;"></line><line transform="translate(369,0)" x2="0" y2="5" style="fill: none; stroke: #888; stroke-width: 1; opacity: 1;"></line><line transform="translate(376,0)" x2="0" y2="5" style="fill: none; stroke: #888; stroke-width: 1; opacity: 1;"></line><line transform="translate(382,0)" x2="0" y2="5" style="fill: none; stroke: #888; stroke-width: 1; opacity: 1;"></line><line transform="translate(389,0)" x2="0" y2="5" style="fill: none; stroke: #888; stroke-width: 1; opacity: 1;"></line><line transform="translate(396,0)" x2="0" y2="5" style="fill: none; stroke: #888; stroke-width: 1; opacity: 1;"></line><line transform="translate(402,0)" x2="0" y2="5" style="fill: none; stroke: #888; stroke-width: 1; opacity: 1;"></line><line transform="translate(409,0)" x2="0" y2="5" style="fill: none; stroke: #888; stroke-width: 1; opacity: 1;"></line><line transform="translate(415,0)" x2="0" y2="5" style="fill: none; stroke: #888; stroke-width: 1; opacity: 1;"></line><line transform="translate(422,0)" x2="0" y2="5" style="fill: none; stroke: #888; stroke-width: 1; opacity: 1;"></line><line transform="translate(429,0)" x2="0" y2="5" style="fill: none; stroke: #888; stroke-width: 1; opacity: 1;"></line><line transform="translate(435,0)" x2="0" y2="5" style="fill: none; stroke: #888; stroke-width: 1; opacity: 1;"></line><line transform="translate(442,0)" x2="0" y2="5" style="fill: none; stroke: #888; stroke-width: 1; opacity: 1;"></line><line transform="translate(448,0)" x2="0" y2="5" style="fill: none; stroke: #888; stroke-width: 1; opacity: 1;"></line><line transform="translate(455,0)" x2="0" y2="5" style="fill: none; stroke: #888; stroke-width: 1; opacity: 1;"></line><line transform="translate(462,0)" x2="0" y2="5" style="fill: none; stroke: #888; stroke-width: 1; opacity: 1;"></line><line transform="translate(468,0)" x2="0" y2="5" style="fill: none; stroke: #888; stroke-width: 1; opacity: 1;"></line><line transform="translate(475,0)" x2="0" y2="5" style="fill: none; stroke: #888; stroke-width: 1; opacity: 1;"></line><line transform="translate(481,0)" x2="0" y2="5" style="fill: none; stroke: #888; stroke-width: 1; opacity: 1;"></line><line transform="translate(488,0)" x2="0" y2="5" style="fill: none; stroke: #888; stroke-width: 1; opacity: 1;"></line><line transform="translate(495,0)" x2="0" y2="5" style="fill: none; stroke: #888; stroke-width: 1; opacity: 1;"></line><line transform="translate(501,0)" x2="0" y2="5" style="fill: none; stroke: #888; stroke-width: 1; opacity: 1;"></line><line transform="translate(508,0)" x2="0" y2="5" style="fill: none; stroke: #888; stroke-width: 1; opacity: 1;"></line><line transform="translate(514,0)" x2="0" y2="5" style="fill: none; stroke: #888; stroke-width: 1; opacity: 1;"></line><line transform="translate(521,0)" x2="0" y2="5" style="fill: none; stroke: #888; stroke-width: 1; opacity: 1;"></line><line transform="translate(527,0)" x2="0" y2="5" style="fill: none; stroke: #888; stroke-width: 1; opacity: 1;"></line><line transform="translate(534,0)" x2="0" y2="5" style="fill: none; stroke: #888; stroke-width: 1; opacity: 1;"></line><line transform="translate(541,0)" x2="0" y2="5" style="fill: none; stroke: #888; stroke-width: 1; opacity: 1;"></line><line transform="translate(547,0)" x2="0" y2="5" style="fill: none; stroke: #888; stroke-width: 1; opacity: 1;"></line><line transform="translate(554,0)" x2="0" y2="5" style="fill: none; stroke: #888; stroke-width: 1; opacity: 1;"></line><line transform="translate(560,0)" x2="0" y2="5" style="fill: none; stroke: #888; stroke-width: 1; opacity: 1;"></line><line transform="translate(567,0)" x2="0" y2="5" style="fill: none; stroke: #888; stroke-width: 1; opacity: 1;"></line><line transform="translate(574,0)" x2="0" y2="5" style="fill: none; stroke: #888; stroke-width: 1; opacity: 1;"></line><line transform="translate(580,0)" x2="0" y2="5" style="fill: none; stroke: #888; stroke-width: 1; opacity: 1;"></line><line transform="translate(587,0)" x2="0" y2="5" style="fill: none; stroke: #888; stroke-width: 1; opacity: 1;"></line><line transform="translate(593,0)" x2="0" y2="5" style="fill: none; stroke: #888; stroke-width: 1; opacity: 1;"></line><line transform="translate(600,0)" x2="0" y2="5" style="fill: none; stroke: #888; stroke-width: 1; opacity: 1;"></line></g><g class="mark-text role-axis-label" style="pointer-events: none;"><text text-anchor="start" transform="translate(0,20)" style="font-family: Roboto; font-size: 16px; fill: #000; opacity: 1;">0</text><text text-anchor="middle" transform="translate(6.593406593406594,20)" style="font-family: Roboto; font-size: 16px; fill: #000; opacity: 0;">5,000</text><text text-anchor="middle" transform="translate(13.186813186813188,20)" style="font-family: Roboto; font-size: 16px; fill: #000; opacity: 0;">10,000</text><text text-anchor="middle" transform="translate(19.78021978021978,20)" style="font-family: Roboto; font-size: 16px; fill: #000; opacity: 0;">15,000</text><text text-anchor="middle" transform="translate(26.373626373626376,20)" style="font-family: Roboto; font-size: 16px; fill: #000; opacity: 0;">20,000</text><text text-anchor="middle" transform="translate(32.967032967032964,20)" style="font-family: Roboto; font-size: 16px; fill: #000; opacity: 0;">25,000</text><text text-anchor="middle" transform="translate(39.56043956043956,20)" style="font-family: Roboto; font-size: 16px; fill: #000; opacity: 0;">30,000</text><text text-anchor="middle" transform="translate(46.15384615384615,20)" style="font-family: Roboto; font-size: 16px; fill: #000; opacity: 0;">35,000</text><text text-anchor="middle" transform="translate(52.74725274725275,20)" style="font-family: Roboto; font-size: 16px; fill: #000; opacity: 0;">40,000</text><text text-anchor="middle" transform="translate(59.340659340659336,20)" style="font-family: Roboto; font-size: 16px; fill: #000; opacity: 0;">45,000</text><text text-anchor="middle" transform="translate(65.93406593406593,20)" style="font-family: Roboto; font-size: 16px; fill: #000; opacity: 0;">50,000</text><text text-anchor="middle" transform="translate(72.52747252747253,20)" style="font-family: Roboto; font-size: 16px; fill: #000; opacity: 0;">55,000</text><text text-anchor="middle" transform="translate(79.12087912087912,20)" style="font-family: Roboto; font-size: 16px; fill: #000; opacity: 0;">60,000</text><text text-anchor="middle" transform="translate(85.71428571428571,20)" style="font-family: Roboto; font-size: 16px; fill: #000; opacity: 0;">65,000</text><text text-anchor="middle" transform="translate(92.3076923076923,20)" style="font-family: Roboto; font-size: 16px; fill: #000; opacity: 0;">70,000</text><text text-anchor="middle" transform="translate(98.9010989010989,20)" style="font-family: Roboto; font-size: 16px; fill: #000; opacity: 0;">75,000</text><text text-anchor="middle" transform="translate(105.4945054945055,20)" style="font-family: Roboto; font-size: 16px; fill: #000; opacity: 1;">80,000</text><text text-anchor="middle" transform="translate(112.08791208791209,20)" style="font-family: Roboto; font-size: 16px; fill: #000; opacity: 0;">85,000</text><text text-anchor="middle" transform="translate(118.68131868131867,20)" style="font-family: Roboto; font-size: 16px; fill: #000; opacity: 0;">90,000</text><text text-anchor="middle" transform="translate(125.27472527472528,20)" style="font-family: Roboto; font-size: 16px; fill: #000; opacity: 0;">95,000</text><text text-anchor="middle" transform="translate(131.86813186813185,20)" style="font-family: Roboto; font-size: 16px; fill: #000; opacity: 0;">100,000</text><text text-anchor="middle" transform="translate(138.46153846153848,20)" style="font-family: Roboto; font-size: 16px; fill: #000; opacity: 0;">105,000</text><text text-anchor="middle" transform="translate(145.05494505494505,20)" style="font-family: Roboto; font-size: 16px; fill: #000; opacity: 0;">110,000</text><text text-anchor="middle" transform="translate(151.64835164835165,20)" style="font-family: Roboto; font-size: 16px; fill: #000; opacity: 0;">115,000</text><text text-anchor="middle" transform="translate(158.24175824175825,20)" style="font-family: Roboto; font-size: 16px; fill: #000; opacity: 0;">120,000</text><text text-anchor="middle" transform="translate(164.83516483516485,20)" style="font-family: Roboto; font-size: 16px; fill: #000; opacity: 0;">125,000</text><text text-anchor="middle" transform="translate(171.42857142857142,20)" style="font-family: Roboto; font-size: 16px; fill: #000; opacity: 0;">130,000</text><text text-anchor="middle" transform="translate(178.02197802197801,20)" style="font-family: Roboto; font-size: 16px; fill: #000; opacity: 0;">135,000</text><text text-anchor="middle" transform="translate(184.6153846153846,20)" style="font-family: Roboto; font-size: 16px; fill: #000; opacity: 0;">140,000</text><text text-anchor="middle" transform="translate(191.20879120879118,20)" style="font-family: Roboto; font-size: 16px; fill: #000; opacity: 0;">145,000</text><text text-anchor="middle" transform="translate(197.8021978021978,20)" style="font-family: Roboto; font-size: 16px; fill: #000; opacity: 0;">150,000</text><text text-anchor="middle" transform="translate(204.3956043956044,20)" style="font-family: Roboto; font-size: 16px; fill: #000; opacity: 0;">155,000</text><text text-anchor="middle" transform="translate(210.989010989011,20)" style="font-family: Roboto; font-size: 16px; fill: #000; opacity: 1;">160,000</text><text text-anchor="middle" transform="translate(217.58241758241758,20)" style="font-family: Roboto; font-size: 16px; fill: #000; opacity: 0;">165,000</text><text text-anchor="middle" transform="translate(224.17582417582418,20)" style="font-family: Roboto; font-size: 16px; fill: #000; opacity: 0;">170,000</text><text text-anchor="middle" transform="translate(230.76923076923077,20)" style="font-family: Roboto; font-size: 16px; fill: #000; opacity: 0;">175,000</text><text text-anchor="middle" transform="translate(237.36263736263734,20)" style="font-family: Roboto; font-size: 16px; fill: #000; opacity: 0;">180,000</text><text text-anchor="middle" transform="translate(243.95604395604394,20)" style="font-family: Roboto; font-size: 16px; fill: #000; opacity: 0;">185,000</text><text text-anchor="middle" transform="translate(250.54945054945057,20)" style="font-family: Roboto; font-size: 16px; fill: #000; opacity: 0;">190,000</text><text text-anchor="middle" transform="translate(257.1428571428571,20)" style="font-family: Roboto; font-size: 16px; fill: #000; opacity: 0;">195,000</text><text text-anchor="middle" transform="translate(263.7362637362637,20)" style="font-family: Roboto; font-size: 16px; fill: #000; opacity: 0;">200,000</text><text text-anchor="middle" transform="translate(270.3296703296703,20)" style="font-family: Roboto; font-size: 16px; fill: #000; opacity: 0;">205,000</text><text text-anchor="middle" transform="translate(276.92307692307696,20)" style="font-family: Roboto; font-size: 16px; fill: #000; opacity: 0;">210,000</text><text text-anchor="middle" transform="translate(283.5164835164835,20)" style="font-family: Roboto; font-size: 16px; fill: #000; opacity: 0;">215,000</text><text text-anchor="middle" transform="translate(290.1098901098901,20)" style="font-family: Roboto; font-size: 16px; fill: #000; opacity: 0;">220,000</text><text text-anchor="middle" transform="translate(296.7032967032967,20)" style="font-family: Roboto; font-size: 16px; fill: #000; opacity: 0;">225,000</text><text text-anchor="middle" transform="translate(303.2967032967033,20)" style="font-family: Roboto; font-size: 16px; fill: #000; opacity: 0;">230,000</text><text text-anchor="middle" transform="translate(309.8901098901099,20)" style="font-family: Roboto; font-size: 16px; fill: #000; opacity: 0;">235,000</text><text text-anchor="middle" transform="translate(316.4835164835165,20)" style="font-family: Roboto; font-size: 16px; fill: #000; opacity: 1;">240,000</text><text text-anchor="middle" transform="translate(323.07692307692304,20)" style="font-family: Roboto; font-size: 16px; fill: #000; opacity: 0;">245,000</text><text text-anchor="middle" transform="translate(329.6703296703297,20)" style="font-family: Roboto; font-size: 16px; fill: #000; opacity: 0;">250,000</text><text text-anchor="middle" transform="translate(336.2637362637363,20)" style="font-family: Roboto; font-size: 16px; fill: #000; opacity: 0;">255,000</text><text text-anchor="middle" transform="translate(342.85714285714283,20)" style="font-family: Roboto; font-size: 16px; fill: #000; opacity: 0;">260,000</text><text text-anchor="middle" transform="translate(349.4505494505495,20)" style="font-family: Roboto; font-size: 16px; fill: #000; opacity: 0;">265,000</text><text text-anchor="middle" transform="translate(356.04395604395603,20)" style="font-family: Roboto; font-size: 16px; fill: #000; opacity: 0;">270,000</text><text text-anchor="middle" transform="translate(362.6373626373626,20)" style="font-family: Roboto; font-size: 16px; fill: #000; opacity: 0;">275,000</text><text text-anchor="middle" transform="translate(369.2307692307692,20)" style="font-family: Roboto; font-size: 16px; fill: #000; opacity: 0;">280,000</text><text text-anchor="middle" transform="translate(375.8241758241758,20)" style="font-family: Roboto; font-size: 16px; fill: #000; opacity: 0;">285,000</text><text text-anchor="middle" transform="translate(382.41758241758237,20)" style="font-family: Roboto; font-size: 16px; fill: #000; opacity: 0;">290,000</text><text text-anchor="middle" transform="translate(389.010989010989,20)" style="font-family: Roboto; font-size: 16px; fill: #000; opacity: 0;">295,000</text><text text-anchor="middle" transform="translate(395.6043956043956,20)" style="font-family: Roboto; font-size: 16px; fill: #000; opacity: 0;">300,000</text><text text-anchor="middle" transform="translate(402.19780219780216,20)" style="font-family: Roboto; font-size: 16px; fill: #000; opacity: 0;">305,000</text><text text-anchor="middle" transform="translate(408.7912087912088,20)" style="font-family: Roboto; font-size: 16px; fill: #000; opacity: 0;">310,000</text><text text-anchor="middle" transform="translate(415.38461538461536,20)" style="font-family: Roboto; font-size: 16px; fill: #000; opacity: 0;">315,000</text><text text-anchor="middle" transform="translate(421.978021978022,20)" style="font-family: Roboto; font-size: 16px; fill: #000; opacity: 1;">320,000</text><text text-anchor="middle" transform="translate(428.57142857142856,20)" style="font-family: Roboto; font-size: 16px; fill: #000; opacity: 0;">325,000</text><text text-anchor="middle" transform="translate(435.16483516483515,20)" style="font-family: Roboto; font-size: 16px; fill: #000; opacity: 0;">330,000</text><text text-anchor="middle" transform="translate(441.7582417582418,20)" style="font-family: Roboto; font-size: 16px; fill: #000; opacity: 0;">335,000</text><text text-anchor="middle" transform="translate(448.35164835164835,20)" style="font-family: Roboto; font-size: 16px; fill: #000; opacity: 0;">340,000</text><text text-anchor="middle" transform="translate(454.94505494505495,20)" style="font-family: Roboto; font-size: 16px; fill: #000; opacity: 0;">345,000</text><text text-anchor="middle" transform="translate(461.53846153846155,20)" style="font-family: Roboto; font-size: 16px; fill: #000; opacity: 0;">350,000</text><text text-anchor="middle" transform="translate(468.13186813186815,20)" style="font-family: Roboto; font-size: 16px; fill: #000; opacity: 0;">355,000</text><text text-anchor="middle" transform="translate(474.7252747252747,20)" style="font-family: Roboto; font-size: 16px; fill: #000; opacity: 0;">360,000</text><text text-anchor="middle" transform="translate(481.31868131868134,20)" style="font-family: Roboto; font-size: 16px; fill: #000; opacity: 0;">365,000</text><text text-anchor="middle" transform="translate(487.9120879120879,20)" style="font-family: Roboto; font-size: 16px; fill: #000; opacity: 0;">370,000</text><text text-anchor="middle" transform="translate(494.5054945054945,20)" style="font-family: Roboto; font-size: 16px; fill: #000; opacity: 0;">375,000</text><text text-anchor="middle" transform="translate(501.09890109890114,20)" style="font-family: Roboto; font-size: 16px; fill: #000; opacity: 0;">380,000</text><text text-anchor="middle" transform="translate(507.6923076923077,20)" style="font-family: Roboto; font-size: 16px; fill: #000; opacity: 0;">385,000</text><text text-anchor="middle" transform="translate(514.2857142857142,20)" style="font-family: Roboto; font-size: 16px; fill: #000; opacity: 0;">390,000</text><text text-anchor="middle" transform="translate(520.8791208791209,20)" style="font-family: Roboto; font-size: 16px; fill: #000; opacity: 0;">395,000</text><text text-anchor="middle" transform="translate(527.4725274725274,20)" style="font-family: Roboto; font-size: 16px; fill: #000; opacity: 1;">400,000</text><text text-anchor="middle" transform="translate(534.065934065934,20)" style="font-family: Roboto; font-size: 16px; fill: #000; opacity: 0;">405,000</text><text text-anchor="middle" transform="translate(540.6593406593406,20)" style="font-family: Roboto; font-size: 16px; fill: #000; opacity: 0;">410,000</text><text text-anchor="middle" transform="translate(547.2527472527472,20)" style="font-family: Roboto; font-size: 16px; fill: #000; opacity: 0;">415,000</text><text text-anchor="middle" transform="translate(553.8461538461539,20)" style="font-family: Roboto; font-size: 16px; fill: #000; opacity: 0;">420,000</text><text text-anchor="middle" transform="translate(560.4395604395604,20)" style="font-family: Roboto; font-size: 16px; fill: #000; opacity: 0;">425,000</text><text text-anchor="middle" transform="translate(567.032967032967,20)" style="font-family: Roboto; font-size: 16px; fill: #000; opacity: 0;">430,000</text><text text-anchor="middle" transform="translate(573.6263736263736,20)" style="font-family: Roboto; font-size: 16px; fill: #000; opacity: 0;">435,000</text><text text-anchor="middle" transform="translate(580.2197802197802,20)" style="font-family: Roboto; font-size: 16px; fill: #000; opacity: 0;">440,000</text><text text-anchor="middle" transform="translate(586.8131868131868,20)" style="font-family: Roboto; font-size: 16px; fill: #000; opacity: 0;">445,000</text><text text-anchor="middle" transform="translate(593.4065934065934,20)" style="font-family: Roboto; font-size: 16px; fill: #000; opacity: 0;">450,000</text><text text-anchor="end" transform="translate(600,20)" style="font-family: Roboto; font-size: 16px; fill: #000; opacity: 0;">455,000</text></g><g class="mark-rule role-axis-domain" style="pointer-events: none;"><line transform="translate(0,0)" x2="600" y2="0" style="fill: none; stroke: #888; stroke-width: 1; opacity: 1;"></line></g><g class="mark-text role-axis-title" style="pointer-events: none;"><text text-anchor="middle" transform="translate(300,43)" style="font-family: Roboto; font-size: 20px; font-weight: bold; fill: #000; opacity: 1;">τ_L</text></g></g><path class="foreground" d="" style="pointer-events: none; display: none; fill: none;"></path></g></g><g class="mark-group role-axis"><g transform="translate(0.5,0.5)"><path class="background" d="M0,0h0v0h0Z" style="pointer-events: none; fill: none;"></path><g><g class="mark-rule role-axis-tick" style="pointer-events: none;"><line transform="translate(0,400)" x2="-5" y2="0" style="fill: none; stroke: #888; stroke-width: 1; opacity: 1;"></line><line transform="translate(0,360)" x2="-5" y2="0" style="fill: none; stroke: #888; stroke-width: 1; opacity: 1;"></line><line transform="translate(0,320)" x2="-5" y2="0" style="fill: none; stroke: #888; stroke-width: 1; opacity: 1;"></line><line transform="translate(0,280)" x2="-5" y2="0" style="fill: none; stroke: #888; stroke-width: 1; opacity: 1;"></line><line transform="translate(0,240)" x2="-5" y2="0" style="fill: none; stroke: #888; stroke-width: 1; opacity: 1;"></line><line transform="translate(0,200)" x2="-5" y2="0" style="fill: none; stroke: #888; stroke-width: 1; opacity: 1;"></line><line transform="translate(0,160)" x2="-5" y2="0" style="fill: none; stroke: #888; stroke-width: 1; opacity: 1;"></line><line transform="translate(0,120)" x2="-5" y2="0" style="fill: none; stroke: #888; stroke-width: 1; opacity: 1;"></line><line transform="translate(0,80)" x2="-5" y2="0" style="fill: none; stroke: #888; stroke-width: 1; opacity: 1;"></line><line transform="translate(0,40)" x2="-5" y2="0" style="fill: none; stroke: #888; stroke-width: 1; opacity: 1;"></line><line transform="translate(0,0)" x2="-5" y2="0" style="fill: none; stroke: #888; stroke-width: 1; opacity: 1;"></line></g><g class="mark-text role-axis-label" style="pointer-events: none;"><text text-anchor="end" transform="translate(-7,405)" style="font-family: Roboto; font-size: 16px; fill: #000; opacity: 1;">0</text><text text-anchor="end" transform="translate(-7,365)" style="font-family: Roboto; font-size: 16px; fill: #000; opacity: 1;">10,000</text><text text-anchor="end" transform="translate(-7,325)" style="font-family: Roboto; font-size: 16px; fill: #000; opacity: 1;">20,000</text><text text-anchor="end" transform="translate(-7,285)" style="font-family: Roboto; font-size: 16px; fill: #000; opacity: 1;">30,000</text><text text-anchor="end" transform="translate(-7,245)" style="font-family: Roboto; font-size: 16px; fill: #000; opacity: 1;">40,000</text><text text-anchor="end" transform="translate(-7,205)" style="font-family: Roboto; font-size: 16px; fill: #000; opacity: 1;">50,000</text><text text-anchor="end" transform="translate(-7,165)" style="font-family: Roboto; font-size: 16px; fill: #000; opacity: 1;">60,000</text><text text-anchor="end" transform="translate(-7,125.00000000000001)" style="font-family: Roboto; font-size: 16px; fill: #000; opacity: 1;">70,000</text><text text-anchor="end" transform="translate(-7,84.99999999999999)" style="font-family: Roboto; font-size: 16px; fill: #000; opacity: 1;">80,000</text><text text-anchor="end" transform="translate(-7,44.99999999999999)" style="font-family: Roboto; font-size: 16px; fill: #000; opacity: 1;">90,000</text><text text-anchor="end" transform="translate(-7,5)" style="font-family: Roboto; font-size: 16px; fill: #000; opacity: 1;">100,000</text></g><g class="mark-rule role-axis-domain" style="pointer-events: none;"><line transform="translate(0,400)" x2="0" y2="-400" style="fill: none; stroke: #888; stroke-width: 1; opacity: 1;"></line></g><g class="mark-text role-axis-title" style="pointer-events: none;"><text text-anchor="middle" transform="translate(-68.1500015258789,200) rotate(-90) translate(0,-4)" style="font-family: Roboto; font-size: 20px; font-weight: bold; fill: #000; opacity: 1;">Frequency</text></g></g><path class="foreground" d="" style="pointer-events: none; display: none; fill: none;"></path></g></g></g><path class="foreground" d="" style="display: none; fill: none;"></path></g></g></g></svg>