<svg class="marks" width="807" height="465" viewBox="0 0 807 465" version="1.1" xmlns="http://www.w3.org/2000/svg" xmlns:xlink="http://www.w3.org/1999/xlink"><rect width="807" height="465" style="fill: white;"></rect><g transform="translate(91,13)"><g class="mark-group role-frame root"><g transform="translate(0,0)"><path class="background" d="M0.5,0.5h600v400h-600Z" style="fill: none; stroke: #ddd;"></path><g><g class="mark-symbol role-mark marks"><path transform="translate(561.0389610389611,334.42317843537364)" d="M2.7386127875258306,0A2.7386127875258306,2.7386127875258306,0,1,1,-2.7386127875258306,0A2.7386127875258306,2.7386127875258306,0,1,1,2.7386127875258306,0" style="fill: none; stroke: #4c78a8; stroke-width: 2; opacity: 0.7;"></path><path transform="translate(490.9090909090908,348.25078718152577)" d="M2.7386127875258306,0A2.7386127875258306,2.7386127875258306,0,1,1,-2.7386127875258306,0A2.7386127875258306,2.7386127875258306,0,1,1,2.7386127875258306,0" style="fill: none; stroke: #4c78a8; stroke-width: 2; opacity: 0.7;"></path><path transform="translate(436.3636363636364,358.9057969585807)" d="M2.7386127875258306,0A2.7386127875258306,2.7386127875258306,0,1,1,-2.7386127875258306,0A2.7386127875258306,2.7386127875258306,0,1,1,2.7386127875258306,0" style="fill: none; stroke: #4c78a8; stroke-width: 2; opacity: 0.7;"></path><path transform="translate(392.72727272727263,366.1715333740266)" d="M2.7386127875258306,0A2.7386127875258306,2.7386127875258306,0,1,1,-2.7386127875258306,0A2.7386127875258306,2.7386127875258306,0,1,1,2.7386127875258306,0" style="fill: none; stroke: #4c78a8; stroke-width: 2; opacity: 0.7;"></path><path transform="translate(327.27272727272725,372.4699066552829)" d="M2.7386127875258306,0A2.7386127875258306,2.7386127875258306,0,1,1,-2.7386127875258306,0A2.7386127875258306,2.7386127875258306,0,1,1,2.7386127875258306,0" style="fill: none; stroke: #4c78a8; stroke-width: 2; opacity: 0.7;"></path><path transform="translate(245.45454545454544,378.4458166193622)" d="M2.7386127875258306,0A2.7386127875258306,2.7386127875258306,0,1,1,-2.7386127875258306,0A2.7386127875258306,2.7386127875258306,0,1,1,2.7386127875258306,0" style="fill: none; stroke: #4c78a8; stroke-width: 2; opacity: 0.7;"></path><path transform="translate(196.36363636363632,379.9393721694557)" d="M2.7386127875258306,0A2.7386127875258306,2.7386127875258306,0,1,1,-2.7386127875258306,0A2.7386127875258306,2.7386127875258306,0,1,1,2.7386127875258306,0" style="fill: none; stroke: #4c78a8; stroke-width: 2; opacity: 0.7;"></path><path transform="translate(589.0909090909091,320.2468894155554)" d="M2.7386127875258306,0A2.7386127875258306,2.7386127875258306,0,1,1,-2.7386127875258306,0A2.7386127875258306,2.7386127875258306,0,1,1,2.7386127875258306,0" style="fill: none; stroke: #4c78a8; stroke-width: 2; opacity: 0.7;"></path><path transform="translate(566.4335664335663,330.3693637872687)" d="M2.7386127875258306,0A2.7386127875258306,2.7386127875258306,0,1,1,-2.7386127875258306,0A2.7386127875258306,2.7386127875258306,0,1,1,2.7386127875258306,0" style="fill: none; stroke: #4c78a8; stroke-width: 2; opacity: 0.7;"></path><path transform="translate(545.4545454545454,332.4944902523825)" d="M2.7386127875258306,0A2.7386127875258306,2.7386127875258306,0,1,1,-2.7386127875258306,0A2.7386127875258306,2.7386127875258306,0,1,1,2.7386127875258306,0" style="fill: none; stroke: #4c78a8; stroke-width: 2; opacity: 0.7;"></path><path transform="translate(140.25974025974028,379.97288827967486)" d="M2.7386127875258306,0A2.7386127875258306,2.7386127875258306,0,1,1,-2.7386127875258306,0A2.7386127875258306,2.7386127875258306,0,1,1,2.7386127875258306,0" style="fill: none; stroke: #4c78a8; stroke-width: 2; opacity: 0.7;"></path><path transform="translate(525.974025974026,337.123374571252)" d="M2.7386127875258306,0A2.7386127875258306,2.7386127875258306,0,1,1,-2.7386127875258306,0A2.7386127875258306,2.7386127875258306,0,1,1,2.7386127875258306,0" style="fill: none; stroke: #4c78a8; stroke-width: 2; opacity: 0.7;"></path><path transform="translate(507.83699059561127,341.7689383430929)" d="M2.7386127875258306,0A2.7386127875258306,2.7386127875258306,0,1,1,-2.7386127875258306,0A2.7386127875258306,2.7386127875258306,0,1,1,2.7386127875258306,0" style="fill: none; stroke: #4c78a8; stroke-width: 2; opacity: 0.7;"></path><path transform="translate(490.90909090909093,344.20037770379776)" d="M2.7386127875258306,0A2.7386127875258306,2.7386127875258306,0,1,1,-2.7386127875258306,0A2.7386127875258306,2.7386127875258306,0,1,1,2.7386127875258306,0" style="fill: none; stroke: #4c78a8; stroke-width: 2; opacity: 0.7;"></path><path transform="translate(460.2272727272727,351.36294906535494)" d="M2.7386127875258306,0A2.7386127875258306,2.7386127875258306,0,1,1,-2.7386127875258306,0A2.7386127875258306,2.7386127875258306,0,1,1,2.7386127875258306,0" style="fill: none; stroke: #4c78a8; stroke-width: 2; opacity: 0.7;"></path><path transform="translate(109.0909090909091,380.843184356484)" d="M2.7386127875258306,0A2.7386127875258306,2.7386127875258306,0,1,1,-2.7386127875258306,0A2.7386127875258306,2.7386127875258306,0,1,1,2.7386127875258306,0" style="fill: none; stroke: #4c78a8; stroke-width: 2; opacity: 0.7;"></path><path transform="translate(409.09090909090907,357.0946240995718)" d="M2.7386127875258306,0A2.7386127875258306,2.7386127875258306,0,1,1,-2.7386127875258306,0A2.7386127875258306,2.7386127875258306,0,1,1,2.7386127875258306,0" style="fill: none; stroke: #4c78a8; stroke-width: 2; opacity: 0.7;"></path><path transform="translate(368.1818181818182,365.19950551867726)" d="M2.7386127875258306,0A2.7386127875258306,2.7386127875258306,0,1,1,-2.7386127875258306,0A2.7386127875258306,2.7386127875258306,0,1,1,2.7386127875258306,0" style="fill: none; stroke: #4c78a8; stroke-width: 2; opacity: 0.7;"></path><path transform="translate(294.54545454545456,370.98747981603054)" d="M2.7386127875258306,0A2.7386127875258306,2.7386127875258306,0,1,1,-2.7386127875258306,0A2.7386127875258306,2.7386127875258306,0,1,1,2.7386127875258306,0" style="fill: none; stroke: #4c78a8; stroke-width: 2; opacity: 0.7;"></path><path transform="translate(561.0389610389611,173.2190684989052)" d="M-2.7386127875258306,-2.7386127875258306h5.477225575051661v5.477225575051661h-5.477225575051661Z" style="fill: none; stroke: #f58518; stroke-width: 2; opacity: 0.7;"></path><path transform="translate(490.9090909090908,303.53919745838056)" d="M-2.7386127875258306,-2.7386127875258306h5.477225575051661v5.477225575051661h-5.477225575051661Z" style="fill: none; stroke: #f58518; stroke-width: 2; opacity: 0.7;"></path><path transform="translate(436.3636363636364,353.239625958139)" d="M-2.7386127875258306,-2.7386127875258306h5.477225575051661v5.477225575051661h-5.477225575051661Z" style="fill: none; stroke: #f58518; stroke-width: 2; opacity: 0.7;"></path><path transform="translate(392.72727272727263,365.8896264562238)" d="M-2.7386127875258306,-2.7386127875258306h5.477225575051661v5.477225575051661h-5.477225575051661Z" style="fill: none; stroke: #f58518; stroke-width: 2; opacity: 0.7;"></path><path transform="translate(327.27272727272725,373.1595551053544)" d="M-2.7386127875258306,-2.7386127875258306h5.477225575051661v5.477225575051661h-5.477225575051661Z" style="fill: none; stroke: #f58518; stroke-width: 2; opacity: 0.7;"></path><path transform="translate(245.45454545454544,378.430360040138)" d="M-2.7386127875258306,-2.7386127875258306h5.477225575051661v5.477225575051661h-5.477225575051661Z" style="fill: none; stroke: #f58518; stroke-width: 2; opacity: 0.7;"></path><path transform="translate(196.36363636363632,380.1989156429201)" d="M-2.7386127875258306,-2.7386127875258306h5.477225575051661v5.477225575051661h-5.477225575051661Z" style="fill: none; stroke: #f58518; stroke-width: 2; opacity: 0.7;"></path><path transform="translate(589.0909090909091,67.01188560619698)" d="M-2.7386127875258306,-2.7386127875258306h5.477225575051661v5.477225575051661h-5.477225575051661Z" style="fill: none; stroke: #f58518; stroke-width: 2; opacity: 0.7;"></path><path transform="translate(566.4335664335663,114.4200500530049)" d="M-2.7386127875258306,-2.7386127875258306h5.477225575051661v5.477225575051661h-5.477225575051661Z" style="fill: none; stroke: #f58518; stroke-width: 2; opacity: 0.7;"></path><path transform="translate(545.4545454545454,156.5342657121251)" d="M-2.7386127875258306,-2.7386127875258306h5.477225575051661v5.477225575051661h-5.477225575051661Z" style="fill: none; stroke: #f58518; stroke-width: 2; opacity: 0.7;"></path><path transform="translate(140.25974025974028,381.880979651213)" d="M-2.7386127875258306,-2.7386127875258306h5.477225575051661v5.477225575051661h-5.477225575051661Z" style="fill: none; stroke: #f58518; stroke-width: 2; opacity: 0.7;"></path><path transform="translate(525.974025974026,195.0026167844642)" d="M-2.7386127875258306,-2.7386127875258306h5.477225575051661v5.477225575051661h-5.477225575051661Z" style="fill: none; stroke: #f58518; stroke-width: 2; opacity: 0.7;"></path><path transform="translate(507.83699059561127,228.56121187211863)" d="M-2.7386127875258306,-2.7386127875258306h5.477225575051661v5.477225575051661h-5.477225575051661Z" style="fill: none; stroke: #f58518; stroke-width: 2; opacity: 0.7;"></path><path transform="translate(490.90909090909093,258.173353754188)" d="M-2.7386127875258306,-2.7386127875258306h5.477225575051661v5.477225575051661h-5.477225575051661Z" style="fill: none; stroke: #f58518; stroke-width: 2; opacity: 0.7;"></path><path transform="translate(460.2272727272727,300.96110076463737)" d="M-2.7386127875258306,-2.7386127875258306h5.477225575051661v5.477225575051661h-5.477225575051661Z" style="fill: none; stroke: #f58518; stroke-width: 2; opacity: 0.7;"></path><path transform="translate(109.0909090909091,382.28337312240103)" d="M-2.7386127875258306,-2.7386127875258306h5.477225575051661v5.477225575051661h-5.477225575051661Z" style="fill: none; stroke: #f58518; stroke-width: 2; opacity: 0.7;"></path><path transform="translate(409.09090909090907,348.1852641737402)" d="M-2.7386127875258306,-2.7386127875258306h5.477225575051661v5.477225575051661h-5.477225575051661Z" style="fill: none; stroke: #f58518; stroke-width: 2; opacity: 0.7;"></path><path transform="translate(368.1818181818182,360.7779255371644)" d="M-2.7386127875258306,-2.7386127875258306h5.477225575051661v5.477225575051661h-5.477225575051661Z" style="fill: none; stroke: #f58518; stroke-width: 2; opacity: 0.7;"></path><path transform="translate(294.54545454545456,371.70686054812097)" d="M-2.7386127875258306,-2.7386127875258306h5.477225575051661v5.477225575051661h-5.477225575051661Z" style="fill: none; stroke: #f58518; stroke-width: 2; opacity: 0.7;"></path><path transform="translate(561.0389610389611,309.1077644260398)" d="M0,-2.3717082451262845L-2.7386127875258306,2.3717082451262845L2.7386127875258306,2.3717082451262845Z" style="fill: none; stroke: #e45756; stroke-width: 2; opacity: 0.7;"></path><path transform="translate(490.9090909090908,326.72231949182236)" d="M0,-2.3717082451262845L-2.7386127875258306,2.3717082451262845L2.7386127875258306,2.3717082451262845Z" style="fill: none; stroke: #e45756; stroke-width: 2; opacity: 0.7;"></path><path transform="translate(436.3636363636364,335.66916375291646)" d="M0,-2.3717082451262845L-2.7386127875258306,2.3717082451262845L2.7386127875258306,2.3717082451262845Z" style="fill: none; stroke: #e45756; stroke-width: 2; opacity: 0.7;"></path><path transform="translate(392.72727272727263,339.72908856268367)" d="M0,-2.3717082451262845L-2.7386127875258306,2.3717082451262845L2.7386127875258306,2.3717082451262845Z" style="fill: none; stroke: #e45756; stroke-width: 2; opacity: 0.7;"></path><path transform="translate(327.27272727272725,344.8275304411407)" d="M0,-2.3717082451262845L-2.7386127875258306,2.3717082451262845L2.7386127875258306,2.3717082451262845Z" style="fill: none; stroke: #e45756; stroke-width: 2; opacity: 0.7;"></path><path transform="translate(245.45454545454544,349.9786762497861)" d="M0,-2.3717082451262845L-2.7386127875258306,2.3717082451262845L2.7386127875258306,2.3717082451262845Z" style="fill: none; stroke: #e45756; stroke-width: 2; opacity: 0.7;"></path><path transform="translate(196.36363636363632,352.31936491187963)" d="M0,-2.3717082451262845L-2.7386127875258306,2.3717082451262845L2.7386127875258306,2.3717082451262845Z" style="fill: none; stroke: #e45756; stroke-width: 2; opacity: 0.7;"></path><path transform="translate(589.0909090909091,291.21966987146)" d="M0,-2.3717082451262845L-2.7386127875258306,2.3717082451262845L2.7386127875258306,2.3717082451262845Z" style="fill: none; stroke: #e45756; stroke-width: 2; opacity: 0.7;"></path><path transform="translate(566.4335664335663,305.07591790575384)" d="M0,-2.3717082451262845L-2.7386127875258306,2.3717082451262845L2.7386127875258306,2.3717082451262845Z" style="fill: none; stroke: #e45756; stroke-width: 2; opacity: 0.7;"></path><path transform="translate(545.4545454545454,308.93578177394113)" d="M0,-2.3717082451262845L-2.7386127875258306,2.3717082451262845L2.7386127875258306,2.3717082451262845Z" style="fill: none; stroke: #e45756; stroke-width: 2; opacity: 0.7;"></path><path transform="translate(140.25974025974028,354.81245789402857)" d="M0,-2.3717082451262845L-2.7386127875258306,2.3717082451262845L2.7386127875258306,2.3717082451262845Z" style="fill: none; stroke: #e45756; stroke-width: 2; opacity: 0.7;"></path><path transform="translate(525.974025974026,313.384986968131)" d="M0,-2.3717082451262845L-2.7386127875258306,2.3717082451262845L2.7386127875258306,2.3717082451262845Z" style="fill: none; stroke: #e45756; stroke-width: 2; opacity: 0.7;"></path><path transform="translate(507.83699059561127,318.4550566132905)" d="M0,-2.3717082451262845L-2.7386127875258306,2.3717082451262845L2.7386127875258306,2.3717082451262845Z" style="fill: none; stroke: #e45756; stroke-width: 2; opacity: 0.7;"></path><path transform="translate(490.90909090909093,322.03575094503856)" d="M0,-2.3717082451262845L-2.7386127875258306,2.3717082451262845L2.7386127875258306,2.3717082451262845Z" style="fill: none; stroke: #e45756; stroke-width: 2; opacity: 0.7;"></path><path transform="translate(460.2272727272727,329.8476066916762)" d="M0,-2.3717082451262845L-2.7386127875258306,2.3717082451262845L2.7386127875258306,2.3717082451262845Z" style="fill: none; stroke: #e45756; stroke-width: 2; opacity: 0.7;"></path><path transform="translate(109.0909090909091,356.90991962557456)" d="M0,-2.3717082451262845L-2.7386127875258306,2.3717082451262845L2.7386127875258306,2.3717082451262845Z" style="fill: none; stroke: #e45756; stroke-width: 2; opacity: 0.7;"></path><path transform="translate(409.09090909090907,333.3957725703572)" d="M0,-2.3717082451262845L-2.7386127875258306,2.3717082451262845L2.7386127875258306,2.3717082451262845Z" style="fill: none; stroke: #e45756; stroke-width: 2; opacity: 0.7;"></path><path transform="translate(368.1818181818182,341.98509093885684)" d="M0,-2.3717082451262845L-2.7386127875258306,2.3717082451262845L2.7386127875258306,2.3717082451262845Z" style="fill: none; stroke: #e45756; stroke-width: 2; opacity: 0.7;"></path><path transform="translate(294.54545454545456,342.6357945500159)" d="M0,-2.3717082451262845L-2.7386127875258306,2.3717082451262845L2.7386127875258306,2.3717082451262845Z" style="fill: none; stroke: #e45756; stroke-width: 2; opacity: 0.7;"></path><path transform="translate(561.0389610389611,263.3203851754024)" d="M-2.7386127875258306,-1.0954451150103321L-2.7386127875258306,1.0954451150103321L-1.0954451150103321,1.0954451150103321L-1.0954451150103321,2.7386127875258306L1.0954451150103321,2.7386127875258306L1.0954451150103321,1.0954451150103321L2.7386127875258306,1.0954451150103321L2.7386127875258306,-1.0954451150103321L1.0954451150103321,-1.0954451150103321L1.0954451150103321,-2.7386127875258306L-1.0954451150103321,-2.7386127875258306L-1.0954451150103321,-1.0954451150103321Z" style="fill: none; stroke: #72b7b2; stroke-width: 2; opacity: 0.7;"></path><path transform="translate(490.9090909090908,308.4313432511989)" d="M-2.7386127875258306,-1.0954451150103321L-2.7386127875258306,1.0954451150103321L-1.0954451150103321,1.0954451150103321L-1.0954451150103321,2.7386127875258306L1.0954451150103321,2.7386127875258306L1.0954451150103321,1.0954451150103321L2.7386127875258306,1.0954451150103321L2.7386127875258306,-1.0954451150103321L1.0954451150103321,-1.0954451150103321L1.0954451150103321,-2.7386127875258306L-1.0954451150103321,-2.7386127875258306L-1.0954451150103321,-1.0954451150103321Z" style="fill: none; stroke: #72b7b2; stroke-width: 2; opacity: 0.7;"></path><path transform="translate(436.3636363636364,331.88331639034607)" d="M-2.7386127875258306,-1.0954451150103321L-2.7386127875258306,1.0954451150103321L-1.0954451150103321,1.0954451150103321L-1.0954451150103321,2.7386127875258306L1.0954451150103321,2.7386127875258306L1.0954451150103321,1.0954451150103321L2.7386127875258306,1.0954451150103321L2.7386127875258306,-1.0954451150103321L1.0954451150103321,-1.0954451150103321L1.0954451150103321,-2.7386127875258306L-1.0954451150103321,-2.7386127875258306L-1.0954451150103321,-1.0954451150103321Z" style="fill: none; stroke: #72b7b2; stroke-width: 2; opacity: 0.7;"></path><path transform="translate(392.72727272727263,342.8132490253057)" d="M-2.7386127875258306,-1.0954451150103321L-2.7386127875258306,1.0954451150103321L-1.0954451150103321,1.0954451150103321L-1.0954451150103321,2.7386127875258306L1.0954451150103321,2.7386127875258306L1.0954451150103321,1.0954451150103321L2.7386127875258306,1.0954451150103321L2.7386127875258306,-1.0954451150103321L1.0954451150103321,-1.0954451150103321L1.0954451150103321,-2.7386127875258306L-1.0954451150103321,-2.7386127875258306L-1.0954451150103321,-1.0954451150103321Z" style="fill: none; stroke: #72b7b2; stroke-width: 2; opacity: 0.7;"></path><path transform="translate(327.27272727272725,353.42649455212415)" d="M-2.7386127875258306,-1.0954451150103321L-2.7386127875258306,1.0954451150103321L-1.0954451150103321,1.0954451150103321L-1.0954451150103321,2.7386127875258306L1.0954451150103321,2.7386127875258306L1.0954451150103321,1.0954451150103321L2.7386127875258306,1.0954451150103321L2.7386127875258306,-1.0954451150103321L1.0954451150103321,-1.0954451150103321L1.0954451150103321,-2.7386127875258306L-1.0954451150103321,-2.7386127875258306L-1.0954451150103321,-1.0954451150103321Z" style="fill: none; stroke: #72b7b2; stroke-width: 2; opacity: 0.7;"></path><path transform="translate(245.45454545454544,361.0949289294823)" d="M-2.7386127875258306,-1.0954451150103321L-2.7386127875258306,1.0954451150103321L-1.0954451150103321,1.0954451150103321L-1.0954451150103321,2.7386127875258306L1.0954451150103321,2.7386127875258306L1.0954451150103321,1.0954451150103321L2.7386127875258306,1.0954451150103321L2.7386127875258306,-1.0954451150103321L1.0954451150103321,-1.0954451150103321L1.0954451150103321,-2.7386127875258306L-1.0954451150103321,-2.7386127875258306L-1.0954451150103321,-1.0954451150103321Z" style="fill: none; stroke: #72b7b2; stroke-width: 2; opacity: 0.7;"></path><path transform="translate(196.36363636363632,364.5936941611099)" d="M-2.7386127875258306,-1.0954451150103321L-2.7386127875258306,1.0954451150103321L-1.0954451150103321,1.0954451150103321L-1.0954451150103321,2.7386127875258306L1.0954451150103321,2.7386127875258306L1.0954451150103321,1.0954451150103321L2.7386127875258306,1.0954451150103321L2.7386127875258306,-1.0954451150103321L1.0954451150103321,-1.0954451150103321L1.0954451150103321,-2.7386127875258306L-1.0954451150103321,-2.7386127875258306L-1.0954451150103321,-1.0954451150103321Z" style="fill: none; stroke: #72b7b2; stroke-width: 2; opacity: 0.7;"></path><path transform="translate(589.0909090909091,208.60277459732387)" d="M-2.7386127875258306,-1.0954451150103321L-2.7386127875258306,1.0954451150103321L-1.0954451150103321,1.0954451150103321L-1.0954451150103321,2.7386127875258306L1.0954451150103321,2.7386127875258306L1.0954451150103321,1.0954451150103321L2.7386127875258306,1.0954451150103321L2.7386127875258306,-1.0954451150103321L1.0954451150103321,-1.0954451150103321L1.0954451150103321,-2.7386127875258306L-1.0954451150103321,-2.7386127875258306L-1.0954451150103321,-1.0954451150103321Z" style="fill: none; stroke: #72b7b2; stroke-width: 2; opacity: 0.7;"></path><path transform="translate(566.4335664335663,234.3310513945742)" d="M-2.7386127875258306,-1.0954451150103321L-2.7386127875258306,1.0954451150103321L-1.0954451150103321,1.0954451150103321L-1.0954451150103321,2.7386127875258306L1.0954451150103321,2.7386127875258306L1.0954451150103321,1.0954451150103321L2.7386127875258306,1.0954451150103321L2.7386127875258306,-1.0954451150103321L1.0954451150103321,-1.0954451150103321L1.0954451150103321,-2.7386127875258306L-1.0954451150103321,-2.7386127875258306L-1.0954451150103321,-1.0954451150103321Z" style="fill: none; stroke: #72b7b2; stroke-width: 2; opacity: 0.7;"></path><path transform="translate(545.4545454545454,250.1373184500984)" d="M-2.7386127875258306,-1.0954451150103321L-2.7386127875258306,1.0954451150103321L-1.0954451150103321,1.0954451150103321L-1.0954451150103321,2.7386127875258306L1.0954451150103321,2.7386127875258306L1.0954451150103321,1.0954451150103321L2.7386127875258306,1.0954451150103321L2.7386127875258306,-1.0954451150103321L1.0954451150103321,-1.0954451150103321L1.0954451150103321,-2.7386127875258306L-1.0954451150103321,-2.7386127875258306L-1.0954451150103321,-1.0954451150103321Z" style="fill: none; stroke: #72b7b2; stroke-width: 2; opacity: 0.7;"></path><path transform="translate(140.25974025974028,367.96277348972774)" d="M-2.7386127875258306,-1.0954451150103321L-2.7386127875258306,1.0954451150103321L-1.0954451150103321,1.0954451150103321L-1.0954451150103321,2.7386127875258306L1.0954451150103321,2.7386127875258306L1.0954451150103321,1.0954451150103321L2.7386127875258306,1.0954451150103321L2.7386127875258306,-1.0954451150103321L1.0954451150103321,-1.0954451150103321L1.0954451150103321,-2.7386127875258306L-1.0954451150103321,-2.7386127875258306L-1.0954451150103321,-1.0954451150103321Z" style="fill: none; stroke: #72b7b2; stroke-width: 2; opacity: 0.7;"></path><path transform="translate(525.974025974026,268.34121798208156)" d="M-2.7386127875258306,-1.0954451150103321L-2.7386127875258306,1.0954451150103321L-1.0954451150103321,1.0954451150103321L-1.0954451150103321,2.7386127875258306L1.0954451150103321,2.7386127875258306L1.0954451150103321,1.0954451150103321L2.7386127875258306,1.0954451150103321L2.7386127875258306,-1.0954451150103321L1.0954451150103321,-1.0954451150103321L1.0954451150103321,-2.7386127875258306L-1.0954451150103321,-2.7386127875258306L-1.0954451150103321,-1.0954451150103321Z" style="fill: none; stroke: #72b7b2; stroke-width: 2; opacity: 0.7;"></path><path transform="translate(507.83699059561127,280.9165135167433)" d="M-2.7386127875258306,-1.0954451150103321L-2.7386127875258306,1.0954451150103321L-1.0954451150103321,1.0954451150103321L-1.0954451150103321,2.7386127875258306L1.0954451150103321,2.7386127875258306L1.0954451150103321,1.0954451150103321L2.7386127875258306,1.0954451150103321L2.7386127875258306,-1.0954451150103321L1.0954451150103321,-1.0954451150103321L1.0954451150103321,-2.7386127875258306L-1.0954451150103321,-2.7386127875258306L-1.0954451150103321,-1.0954451150103321Z" style="fill: none; stroke: #72b7b2; stroke-width: 2; opacity: 0.7;"></path><path transform="translate(490.90909090909093,291.1919323294944)" d="M-2.7386127875258306,-1.0954451150103321L-2.7386127875258306,1.0954451150103321L-1.0954451150103321,1.0954451150103321L-1.0954451150103321,2.7386127875258306L1.0954451150103321,2.7386127875258306L1.0954451150103321,1.0954451150103321L2.7386127875258306,1.0954451150103321L2.7386127875258306,-1.0954451150103321L1.0954451150103321,-1.0954451150103321L1.0954451150103321,-2.7386127875258306L-1.0954451150103321,-2.7386127875258306L-1.0954451150103321,-1.0954451150103321Z" style="fill: none; stroke: #72b7b2; stroke-width: 2; opacity: 0.7;"></path><path transform="translate(460.2272727272727,307.25708768501613)" d="M-2.7386127875258306,-1.0954451150103321L-2.7386127875258306,1.0954451150103321L-1.0954451150103321,1.0954451150103321L-1.0954451150103321,2.7386127875258306L1.0954451150103321,2.7386127875258306L1.0954451150103321,1.0954451150103321L2.7386127875258306,1.0954451150103321L2.7386127875258306,-1.0954451150103321L1.0954451150103321,-1.0954451150103321L1.0954451150103321,-2.7386127875258306L-1.0954451150103321,-2.7386127875258306L-1.0954451150103321,-1.0954451150103321Z" style="fill: none; stroke: #72b7b2; stroke-width: 2; opacity: 0.7;"></path><path transform="translate(109.0909090909091,369.3126856617145)" d="M-2.7386127875258306,-1.0954451150103321L-2.7386127875258306,1.0954451150103321L-1.0954451150103321,1.0954451150103321L-1.0954451150103321,2.7386127875258306L1.0954451150103321,2.7386127875258306L1.0954451150103321,1.0954451150103321L2.7386127875258306,1.0954451150103321L2.7386127875258306,-1.0954451150103321L1.0954451150103321,-1.0954451150103321L1.0954451150103321,-2.7386127875258306L-1.0954451150103321,-2.7386127875258306L-1.0954451150103321,-1.0954451150103321Z" style="fill: none; stroke: #72b7b2; stroke-width: 2; opacity: 0.7;"></path><path transform="translate(409.09090909090907,328.4132382999644)" d="M-2.7386127875258306,-1.0954451150103321L-2.7386127875258306,1.0954451150103321L-1.0954451150103321,1.0954451150103321L-1.0954451150103321,2.7386127875258306L1.0954451150103321,2.7386127875258306L1.0954451150103321,1.0954451150103321L2.7386127875258306,1.0954451150103321L2.7386127875258306,-1.0954451150103321L1.0954451150103321,-1.0954451150103321L1.0954451150103321,-2.7386127875258306L-1.0954451150103321,-2.7386127875258306L-1.0954451150103321,-1.0954451150103321Z" style="fill: none; stroke: #72b7b2; stroke-width: 2; opacity: 0.7;"></path><path transform="translate(368.1818181818182,339.4245230569785)" d="M-2.7386127875258306,-1.0954451150103321L-2.7386127875258306,1.0954451150103321L-1.0954451150103321,1.0954451150103321L-1.0954451150103321,2.7386127875258306L1.0954451150103321,2.7386127875258306L1.0954451150103321,1.0954451150103321L2.7386127875258306,1.0954451150103321L2.7386127875258306,-1.0954451150103321L1.0954451150103321,-1.0954451150103321L1.0954451150103321,-2.7386127875258306L-1.0954451150103321,-2.7386127875258306L-1.0954451150103321,-1.0954451150103321Z" style="fill: none; stroke: #72b7b2; stroke-width: 2; opacity: 0.7;"></path><path transform="translate(294.54545454545456,352.0415350308074)" d="M-2.7386127875258306,-1.0954451150103321L-2.7386127875258306,1.0954451150103321L-1.0954451150103321,1.0954451150103321L-1.0954451150103321,2.7386127875258306L1.0954451150103321,2.7386127875258306L1.0954451150103321,1.0954451150103321L2.7386127875258306,1.0954451150103321L2.7386127875258306,-1.0954451150103321L1.0954451150103321,-1.0954451150103321L1.0954451150103321,-2.7386127875258306L-1.0954451150103321,-2.7386127875258306L-1.0954451150103321,-1.0954451150103321Z" style="fill: none; stroke: #72b7b2; stroke-width: 2; opacity: 0.7;"></path><path transform="translate(561.0389610389611,203.37289525414266)" d="M-2.7386127875258306,0L0,-2.7386127875258306L2.7386127875258306,0L0,2.7386127875258306Z" style="fill: none; stroke: #54a24b; stroke-width: 2; opacity: 0.7;"></path><path transform="translate(490.9090909090908,273.5710216786084)" d="M-2.7386127875258306,0L0,-2.7386127875258306L2.7386127875258306,0L0,2.7386127875258306Z" style="fill: none; stroke: #54a24b; stroke-width: 2; opacity: 0.7;"></path><path transform="translate(436.3636363636364,312.16622209513486)" d="M-2.7386127875258306,0L0,-2.7386127875258306L2.7386127875258306,0L0,2.7386127875258306Z" style="fill: none; stroke: #54a24b; stroke-width: 2; opacity: 0.7;"></path><path transform="translate(392.72727272727263,331.01641966819835)" d="M-2.7386127875258306,0L0,-2.7386127875258306L2.7386127875258306,0L0,2.7386127875258306Z" style="fill: none; stroke: #54a24b; stroke-width: 2; opacity: 0.7;"></path><path transform="translate(327.27272727272725,347.5620229303052)" d="M-2.7386127875258306,0L0,-2.7386127875258306L2.7386127875258306,0L0,2.7386127875258306Z" style="fill: none; stroke: #54a24b; stroke-width: 2; opacity: 0.7;"></path><path transform="translate(245.45454545454544,360.18067521402656)" d="M-2.7386127875258306,0L0,-2.7386127875258306L2.7386127875258306,0L0,2.7386127875258306Z" style="fill: none; stroke: #54a24b; stroke-width: 2; opacity: 0.7;"></path><path transform="translate(196.36363636363632,364.48586993035207)" d="M-2.7386127875258306,0L0,-2.7386127875258306L2.7386127875258306,0L0,2.7386127875258306Z" style="fill: none; stroke: #54a24b; stroke-width: 2; opacity: 0.7;"></path><path transform="translate(589.0909090909091,128.79407198062086)" d="M-2.7386127875258306,0L0,-2.7386127875258306L2.7386127875258306,0L0,2.7386127875258306Z" style="fill: none; stroke: #54a24b; stroke-width: 2; opacity: 0.7;"></path><path transform="translate(566.4335664335663,165.57299957196173)" d="M-2.7386127875258306,0L0,-2.7386127875258306L2.7386127875258306,0L0,2.7386127875258306Z" style="fill: none; stroke: #54a24b; stroke-width: 2; opacity: 0.7;"></path><path transform="translate(545.4545454545454,188.36461602898166)" d="M-2.7386127875258306,0L0,-2.7386127875258306L2.7386127875258306,0L0,2.7386127875258306Z" style="fill: none; stroke: #54a24b; stroke-width: 2; opacity: 0.7;"></path><path transform="translate(140.25974025974028,367.81155139819043)" d="M-2.7386127875258306,0L0,-2.7386127875258306L2.7386127875258306,0L0,2.7386127875258306Z" style="fill: none; stroke: #54a24b; stroke-width: 2; opacity: 0.7;"></path><path transform="translate(525.974025974026,214.29036097523505)" d="M-2.7386127875258306,0L0,-2.7386127875258306L2.7386127875258306,0L0,2.7386127875258306Z" style="fill: none; stroke: #54a24b; stroke-width: 2; opacity: 0.7;"></path><path transform="translate(507.83699059561127,233.0519283494482)" d="M-2.7386127875258306,0L0,-2.7386127875258306L2.7386127875258306,0L0,2.7386127875258306Z" style="fill: none; stroke: #54a24b; stroke-width: 2; opacity: 0.7;"></path><path transform="translate(490.90909090909093,249.41641851120622)" d="M-2.7386127875258306,0L0,-2.7386127875258306L2.7386127875258306,0L0,2.7386127875258306Z" style="fill: none; stroke: #54a24b; stroke-width: 2; opacity: 0.7;"></path><path transform="translate(460.2272727272727,275.3712295348482)" d="M-2.7386127875258306,0L0,-2.7386127875258306L2.7386127875258306,0L0,2.7386127875258306Z" style="fill: none; stroke: #54a24b; stroke-width: 2; opacity: 0.7;"></path><path transform="translate(109.0909090909091,369.9813769571136)" d="M-2.7386127875258306,0L0,-2.7386127875258306L2.7386127875258306,0L0,2.7386127875258306Z" style="fill: none; stroke: #54a24b; stroke-width: 2; opacity: 0.7;"></path><path transform="translate(409.09090909090907,307.85203833314546)" d="M-2.7386127875258306,0L0,-2.7386127875258306L2.7386127875258306,0L0,2.7386127875258306Z" style="fill: none; stroke: #54a24b; stroke-width: 2; opacity: 0.7;"></path><path transform="translate(368.1818181818182,326.6581563087942)" d="M-2.7386127875258306,0L0,-2.7386127875258306L2.7386127875258306,0L0,2.7386127875258306Z" style="fill: none; stroke: #54a24b; stroke-width: 2; opacity: 0.7;"></path><path transform="translate(294.54545454545456,346.20831325202744)" d="M-2.7386127875258306,0L0,-2.7386127875258306L2.7386127875258306,0L0,2.7386127875258306Z" style="fill: none; stroke: #54a24b; stroke-width: 2; opacity: 0.7;"></path><path transform="translate(561.0389610389611,164.27303032122222)" d="M2.3717082451262845,0L-2.3717082451262845,-2.7386127875258306L-2.3717082451262845,2.7386127875258306Z" style="fill: none; stroke: #eeca3b; stroke-width: 2; opacity: 0.7;"></path><path transform="translate(490.9090909090908,250.14150925467095)" d="M2.3717082451262845,0L-2.3717082451262845,-2.7386127875258306L-2.3717082451262845,2.7386127875258306Z" style="fill: none; stroke: #eeca3b; stroke-width: 2; opacity: 0.7;"></path><path transform="translate(436.3636363636364,298.8395618715867)" d="M2.3717082451262845,0L-2.3717082451262845,-2.7386127875258306L-2.3717082451262845,2.7386127875258306Z" style="fill: none; stroke: #eeca3b; stroke-width: 2; opacity: 0.7;"></path><path transform="translate(392.72727272727263,323.32887253055287)" d="M2.3717082451262845,0L-2.3717082451262845,-2.7386127875258306L-2.3717082451262845,2.7386127875258306Z" style="fill: none; stroke: #eeca3b; stroke-width: 2; opacity: 0.7;"></path><path transform="translate(327.27272727272725,344.8412638300329)" d="M2.3717082451262845,0L-2.3717082451262845,-2.7386127875258306L-2.3717082451262845,2.7386127875258306Z" style="fill: none; stroke: #eeca3b; stroke-width: 2; opacity: 0.7;"></path><path transform="translate(245.45454545454544,359.39431660026594)" d="M2.3717082451262845,0L-2.3717082451262845,-2.7386127875258306L-2.3717082451262845,2.7386127875258306Z" style="fill: none; stroke: #eeca3b; stroke-width: 2; opacity: 0.7;"></path><path transform="translate(196.36363636363632,363.49385908749906)" d="M2.3717082451262845,0L-2.3717082451262845,-2.7386127875258306L-2.3717082451262845,2.7386127875258306Z" style="fill: none; stroke: #eeca3b; stroke-width: 2; opacity: 0.7;"></path><path transform="translate(589.0909090909091,87.02635324069922)" d="M2.3717082451262845,0L-2.3717082451262845,-2.7386127875258306L-2.3717082451262845,2.7386127875258306Z" style="fill: none; stroke: #eeca3b; stroke-width: 2; opacity: 0.7;"></path><path transform="translate(566.4335664335663,127.43028305138176)" d="M2.3717082451262845,0L-2.3717082451262845,-2.7386127875258306L-2.3717082451262845,2.7386127875258306Z" style="fill: none; stroke: #eeca3b; stroke-width: 2; opacity: 0.7;"></path><path transform="translate(545.4545454545454,152.98122287381645)" d="M2.3717082451262845,0L-2.3717082451262845,-2.7386127875258306L-2.3717082451262845,2.7386127875258306Z" style="fill: none; stroke: #eeca3b; stroke-width: 2; opacity: 0.7;"></path><path transform="translate(140.25974025974028,368.6188018349805)" d="M2.3717082451262845,0L-2.3717082451262845,-2.7386127875258306L-2.3717082451262845,2.7386127875258306Z" style="fill: none; stroke: #eeca3b; stroke-width: 2; opacity: 0.7;"></path><path transform="translate(525.974025974026,181.2509258524131)" d="M2.3717082451262845,0L-2.3717082451262845,-2.7386127875258306L-2.3717082451262845,2.7386127875258306Z" style="fill: none; stroke: #eeca3b; stroke-width: 2; opacity: 0.7;"></path><path transform="translate(507.83699059561127,202.66381000754888)" d="M2.3717082451262845,0L-2.3717082451262845,-2.7386127875258306L-2.3717082451262845,2.7386127875258306Z" style="fill: none; stroke: #eeca3b; stroke-width: 2; opacity: 0.7;"></path><path transform="translate(490.90909090909093,221.82433413005734)" d="M2.3717082451262845,0L-2.3717082451262845,-2.7386127875258306L-2.3717082451262845,2.7386127875258306Z" style="fill: none; stroke: #eeca3b; stroke-width: 2; opacity: 0.7;"></path><path transform="translate(460.2272727272727,253.62350414036544)" d="M2.3717082451262845,0L-2.3717082451262845,-2.7386127875258306L-2.3717082451262845,2.7386127875258306Z" style="fill: none; stroke: #eeca3b; stroke-width: 2; opacity: 0.7;"></path><path transform="translate(109.0909090909091,370.7445654038339)" d="M2.3717082451262845,0L-2.3717082451262845,-2.7386127875258306L-2.3717082451262845,2.7386127875258306Z" style="fill: none; stroke: #eeca3b; stroke-width: 2; opacity: 0.7;"></path><path transform="translate(409.09090909090907,294.9898233369325)" d="M2.3717082451262845,0L-2.3717082451262845,-2.7386127875258306L-2.3717082451262845,2.7386127875258306Z" style="fill: none; stroke: #eeca3b; stroke-width: 2; opacity: 0.7;"></path><path transform="translate(368.1818181818182,316.23403591908067)" d="M2.3717082451262845,0L-2.3717082451262845,-2.7386127875258306L-2.3717082451262845,2.7386127875258306Z" style="fill: none; stroke: #eeca3b; stroke-width: 2; opacity: 0.7;"></path><path transform="translate(294.54545454545456,342.4178975684668)" d="M2.3717082451262845,0L-2.3717082451262845,-2.7386127875258306L-2.3717082451262845,2.7386127875258306Z" style="fill: none; stroke: #eeca3b; stroke-width: 2; opacity: 0.7;"></path></g><g class="mark-group role-legend"><g transform="translate(618,0)"><path class="background" d="M0,0h93v131h-93Z" style="pointer-events: none; fill: none;"></path><g><g class="mark-group role-legend-entry"><g transform="translate(0,25)"><path class="background" d="M0,0h0v0h0Z" style="pointer-events: none; fill: none;"></path><g><g class="mark-group role-scope"><g transform="translate(0,0)"><path class="background" d="M0,0h74v16h-74Z" style="pointer-events: none; fill: none; opacity: 1;"></path><g><g class="mark-symbol role-legend-symbol" style="pointer-events: none;"><path transform="translate(8,8)" d="M5,0A5,5,0,1,1,-5,0A5,5,0,1,1,5,0" style="fill: none; stroke: #4c78a8; stroke-width: 1.5; opacity: 0.7;"></path></g><g class="mark-text role-legend-label" style="pointer-events: none;"><text text-anchor="start" transform="translate(20,13)" style="font-family: sans-serif; font-size: 16px; fill: #000; opacity: 1;">tau_D</text></g></g></g><g transform="translate(0,18)"><path class="background" d="M0,0h74v16h-74Z" style="pointer-events: none; fill: none; opacity: 1;"></path><g><g class="mark-symbol role-legend-symbol" style="pointer-events: none;"><path transform="translate(8,8)" d="M-5,-5h10v10h-10Z" style="fill: none; stroke: #f58518; stroke-width: 1.5; opacity: 0.7;"></path></g><g class="mark-text role-legend-label" style="pointer-events: none;"><text text-anchor="start" transform="translate(20,13)" style="font-family: sans-serif; font-size: 16px; fill: #000; opacity: 1;">tau_F</text></g></g></g><g transform="translate(0,36)"><path class="background" d="M0,0h74v16h-74Z" style="pointer-events: none; fill: none; opacity: 1;"></path><g><g class="mark-symbol role-legend-symbol" style="pointer-events: none;"><path transform="translate(8,8)" d="M0,-4.330127018922193L-5,4.330127018922193L5,4.330127018922193Z" style="fill: none; stroke: #e45756; stroke-width: 1.5; opacity: 0.7;"></path></g><g class="mark-text role-legend-label" style="pointer-events: none;"><text text-anchor="start" transform="translate(20,13)" style="font-family: sans-serif; font-size: 16px; fill: #000; opacity: 1;">tau_L</text></g></g></g><g transform="translate(0,54)"><path class="background" d="M0,0h74v16h-74Z" style="pointer-events: none; fill: none; opacity: 1;"></path><g><g class="mark-symbol role-legend-symbol" style="pointer-events: none;"><path transform="translate(8,8)" d="M-5,-2L-5,2L-2,2L-2,5L2,5L2,2L5,2L5,-2L2,-2L2,-5L-2,-5L-2,-2Z" style="fill: none; stroke: #72b7b2; stroke-width: 1.5; opacity: 0.7;"></path></g><g class="mark-text role-legend-label" style="pointer-events: none;"><text text-anchor="start" transform="translate(20,13)" style="font-family: sans-serif; font-size: 16px; fill: #000; opacity: 1;">tau_T2</text></g></g></g><g transform="translate(0,72)"><path class="background" d="M0,0h74v16h-74Z" style="pointer-events: none; fill: none; opacity: 1;"></path><g><g class="mark-symbol role-legend-symbol" style="pointer-events: none;"><path transform="translate(8,8)" d="M-5,0L0,-5L5,0L0,5Z" style="fill: none; stroke: #54a24b; stroke-width: 1.5; opacity: 0.7;"></path></g><g class="mark-text role-legend-label" style="pointer-events: none;"><text text-anchor="start" transform="translate(20,13)" style="font-family: sans-serif; font-size: 16px; fill: #000; opacity: 1;">tau_T3</text></g></g></g><g transform="translate(0,90)"><path class="background" d="M0,0h74v16h-74Z" style="pointer-events: none; fill: none; opacity: 1;"></path><g><g class="mark-symbol role-legend-symbol" style="pointer-events: none;"><path transform="translate(8,8)" d="M4.330127018922193,0L-4.330127018922193,-5L-4.330127018922193,5Z" style="fill: none; stroke: #eeca3b; stroke-width: 1.5; opacity: 0.7;"></path></g><g class="mark-text role-legend-label" style="pointer-events: none;"><text text-anchor="start" transform="translate(20,13)" style="font-family: sans-serif; font-size: 16px; fill: #000; opacity: 1;">tau_T4</text></g></g></g></g></g></g></g><g class="mark-text role-legend-title" style="pointer-events: none;"><text text-anchor="start" transform="translate(0,16)" style="font-family: sans-serif; font-size: 20px; font-weight: bold; fill: #000; opacity: 1;">variable</text></g></g></g></g><g class="mark-group role-axis"><g transform="translate(0.5,400.5)"><path class="background" d="M0,0h0v0h0Z" style="pointer-events: none; fill: none;"></path><g><g class="mark-rule role-axis-tick" style="pointer-events: none;"><line transform="translate(0,0)" x2="0" y2="5" style="fill: none; stroke: #888; stroke-width: 1; opacity: 1;"></line><line transform="translate(55,0)" x2="0" y2="5" style="fill: none; stroke: #888; stroke-width: 1; opacity: 1;"></line><line transform="translate(109,0)" x2="0" y2="5" style="fill: none; stroke: #888; stroke-width: 1; opacity: 1;"></line><line transform="translate(164,0)" x2="0" y2="5" style="fill: none; stroke: #888; stroke-width: 1; opacity: 1;"></line><line transform="translate(218,0)" x2="0" y2="5" style="fill: none; stroke: #888; stroke-width: 1; opacity: 1;"></line><line transform="translate(273,0)" x2="0" y2="5" style="fill: none; stroke: #888; stroke-width: 1; opacity: 1;"></line><line transform="translate(327,0)" x2="0" y2="5" style="fill: none; stroke: #888; stroke-width: 1; opacity: 1;"></line><line transform="translate(382,0)" x2="0" y2="5" style="fill: none; stroke: #888; stroke-width: 1; opacity: 1;"></line><line transform="translate(436,0)" x2="0" y2="5" style="fill: none; stroke: #888; stroke-width: 1; opacity: 1;"></line><line transform="translate(491,0)" x2="0" y2="5" style="fill: none; stroke: #888; stroke-width: 1; opacity: 1;"></line><line transform="translate(545,0)" x2="0" y2="5" style="fill: none; stroke: #888; stroke-width: 1; opacity: 1;"></line><line transform="translate(600,0)" x2="0" y2="5" style="fill: none; stroke: #888; stroke-width: 1; opacity: 1;"></line></g><g class="mark-text role-axis-label" style="pointer-events: none;"><text text-anchor="start" transform="translate(0,20)" style="font-family: sans-serif; font-size: 16px; fill: #000; opacity: 1;">0.0</text><text text-anchor="middle" transform="translate(54.54545454545455,20)" style="font-family: sans-serif; font-size: 16px; fill: #000; opacity: 1;">0.1</text><text text-anchor="middle" transform="translate(109.0909090909091,20)" style="font-family: sans-serif; font-size: 16px; fill: #000; opacity: 1;">0.2</text><text text-anchor="middle" transform="translate(163.63636363636363,20)" style="font-family: sans-serif; font-size: 16px; fill: #000; opacity: 1;">0.3</text><text text-anchor="middle" transform="translate(218.1818181818182,20)" style="font-family: sans-serif; font-size: 16px; fill: #000; opacity: 1;">0.4</text><text text-anchor="middle" transform="translate(272.7272727272727,20)" style="font-family: sans-serif; font-size: 16px; fill: #000; opacity: 1;">0.5</text><text text-anchor="middle" transform="translate(327.27272727272725,20)" style="font-family: sans-serif; font-size: 16px; fill: #000; opacity: 1;">0.6</text><text text-anchor="middle" transform="translate(381.81818181818176,20)" style="font-family: sans-serif; font-size: 16px; fill: #000; opacity: 1;">0.7</text><text text-anchor="middle" transform="translate(436.3636363636364,20)" style="font-family: sans-serif; font-size: 16px; fill: #000; opacity: 1;">0.8</text><text text-anchor="middle" transform="translate(490.9090909090909,20)" style="font-family: sans-serif; font-size: 16px; fill: #000; opacity: 1;">0.9</text><text text-anchor="middle" transform="translate(545.4545454545454,20)" style="font-family: sans-serif; font-size: 16px; fill: #000; opacity: 1;">1.0</text><text text-anchor="end" transform="translate(600,20)" style="font-family: sans-serif; font-size: 16px; fill: #000; opacity: 1;">1.1</text></g><g class="mark-rule role-axis-domain" style="pointer-events: none;"><line transform="translate(0,0)" x2="600" y2="0" style="fill: none; stroke: #888; stroke-width: 1; opacity: 1;"></line></g><g class="mark-text role-axis-title" style="pointer-events: none;"><text text-anchor="middle" transform="translate(300,43)" style="font-family: sans-serif; font-size: 20px; font-weight: bold; fill: #000; opacity: 1;">inv_temp_norm</text></g></g></g></g><g class="mark-group role-axis"><g transform="translate(0.5,0.5)"><path class="background" d="M0,0h0v0h0Z" style="pointer-events: none; fill: none;"></path><g><g class="mark-rule role-axis-tick" style="pointer-events: none;"><line transform="translate(0,400)" x2="-5" y2="0" style="fill: none; stroke: #888; stroke-width: 1; opacity: 1;"></line><line transform="translate(0,370)" x2="-5" y2="0" style="fill: none; stroke: #888; stroke-width: 1; opacity: 1;"></line><line transform="translate(0,352)" x2="-5" y2="0" style="fill: none; stroke: #888; stroke-width: 1; opacity: 1;"></line><line transform="translate(0,340)" x2="-5" y2="0" style="fill: none; stroke: #888; stroke-width: 1; opacity: 1;"></line><line transform="translate(0,330)" x2="-5" y2="0" style="fill: none; stroke: #888; stroke-width: 1; opacity: 1;"></line><line transform="translate(0,322)" x2="-5" y2="0" style="fill: none; stroke: #888; stroke-width: 1; opacity: 1;"></line><line transform="translate(0,315)" x2="-5" y2="0" style="fill: none; stroke: #888; stroke-width: 1; opacity: 1;"></line><line transform="translate(0,310)" x2="-5" y2="0" style="fill: none; stroke: #888; stroke-width: 1; opacity: 1;"></line><line transform="translate(0,305)" x2="-5" y2="0" style="fill: none; stroke: #888; stroke-width: 1; opacity: 1;"></line><line transform="translate(0,300)" x2="-5" y2="0" style="fill: none; stroke: #888; stroke-width: 1; opacity: 1;"></line><line transform="translate(0,270)" x2="-5" y2="0" style="fill: none; stroke: #888; stroke-width: 1; opacity: 1;"></line><line transform="translate(0,252)" x2="-5" y2="0" style="fill: none; stroke: #888; stroke-width: 1; opacity: 1;"></line><line transform="translate(0,240)" x2="-5" y2="0" style="fill: none; stroke: #888; stroke-width: 1; opacity: 1;"></line><line transform="translate(0,230)" x2="-5" y2="0" style="fill: none; stroke: #888; stroke-width: 1; opacity: 1;"></line><line transform="translate(0,222)" x2="-5" y2="0" style="fill: none; stroke: #888; stroke-width: 1; opacity: 1;"></line><line transform="translate(0,215)" x2="-5" y2="0" style="fill: none; stroke: #888; stroke-width: 1; opacity: 1;"></line><line transform="translate(0,210)" x2="-5" y2="0" style="fill: none; stroke: #888; stroke-width: 1; opacity: 1;"></line><line transform="translate(0,205)" x2="-5" y2="0" style="fill: none; stroke: #888; stroke-width: 1; opacity: 1;"></line><line transform="translate(0,200)" x2="-5" y2="0" style="fill: none; stroke: #888; stroke-width: 1; opacity: 1;"></line><line transform="translate(0,170)" x2="-5" y2="0" style="fill: none; stroke: #888; stroke-width: 1; opacity: 1;"></line><line transform="translate(0,152)" x2="-5" y2="0" style="fill: none; stroke: #888; stroke-width: 1; opacity: 1;"></line><line transform="translate(0,140)" x2="-5" y2="0" style="fill: none; stroke: #888; stroke-width: 1; opacity: 1;"></line><line transform="translate(0,130)" x2="-5" y2="0" style="fill: none; stroke: #888; stroke-width: 1; opacity: 1;"></line><line transform="translate(0,122)" x2="-5" y2="0" style="fill: none; stroke: #888; stroke-width: 1; opacity: 1;"></line><line transform="translate(0,115)" x2="-5" y2="0" style="fill: none; stroke: #888; stroke-width: 1; opacity: 1;"></line><line transform="translate(0,110)" x2="-5" y2="0" style="fill: none; stroke: #888; stroke-width: 1; opacity: 1;"></line><line transform="translate(0,105)" x2="-5" y2="0" style="fill: none; stroke: #888; stroke-width: 1; opacity: 1;"></line><line transform="translate(0,100)" x2="-5" y2="0" style="fill: none; stroke: #888; stroke-width: 1; opacity: 1;"></line><line transform="translate(0,70)" x2="-5" y2="0" style="fill: none; stroke: #888; stroke-width: 1; opacity: 1;"></line><line transform="translate(0,52)" x2="-5" y2="0" style="fill: none; stroke: #888; stroke-width: 1; opacity: 1;"></line><line transform="translate(0,40)" x2="-5" y2="0" style="fill: none; stroke: #888; stroke-width: 1; opacity: 1;"></line><line transform="translate(0,30)" x2="-5" y2="0" style="fill: none; stroke: #888; stroke-width: 1; opacity: 1;"></line><line transform="translate(0,22)" x2="-5" y2="0" style="fill: none; stroke: #888; stroke-width: 1; opacity: 1;"></line><line transform="translate(0,15)" x2="-5" y2="0" style="fill: none; stroke: #888; stroke-width: 1; opacity: 1;"></line><line transform="translate(0,10)" x2="-5" y2="0" style="fill: none; stroke: #888; stroke-width: 1; opacity: 1;"></line><line transform="translate(0,5)" x2="-5" y2="0" style="fill: none; stroke: #888; stroke-width: 1; opacity: 1;"></line><line transform="translate(0,0)" x2="-5" y2="0" style="fill: none; stroke: #888; stroke-width: 1; opacity: 1;"></line></g><g class="mark-text role-axis-label" style="pointer-events: none;"><text text-anchor="end" transform="translate(-7,405)" style="font-family: sans-serif; font-size: 16px; fill: #000; opacity: 1;">1</text><text text-anchor="end" transform="translate(-7,374.8970004336019)" style="font-family: sans-serif; font-size: 16px; fill: #000; opacity: 1;">2</text><text text-anchor="end" transform="translate(-7,357.28787452803374)" style="font-family: sans-serif; font-size: 16px; fill: #000; opacity: 1;"></text><text text-anchor="end" transform="translate(-7,344.79400086720375)" style="font-family: sans-serif; font-size: 16px; fill: #000; opacity: 1;"></text><text text-anchor="end" transform="translate(-7,335.1029995663981)" style="font-family: sans-serif; font-size: 16px; fill: #000; opacity: 1;"></text><text text-anchor="end" transform="translate(-7,327.1848749616356)" style="font-family: sans-serif; font-size: 16px; fill: #000; opacity: 1;"></text><text text-anchor="end" transform="translate(-7,320.49019599857434)" style="font-family: sans-serif; font-size: 16px; fill: #000; opacity: 1;"></text><text text-anchor="end" transform="translate(-7,314.6910013008056)" style="font-family: sans-serif; font-size: 16px; fill: #000; opacity: 1;"></text><text text-anchor="end" transform="translate(-7,309.5757490560675)" style="font-family: sans-serif; font-size: 16px; fill: #000; opacity: 1;"></text><text text-anchor="end" transform="translate(-7,305)" style="font-family: sans-serif; font-size: 16px; fill: #000; opacity: 1;">10</text><text text-anchor="end" transform="translate(-7,274.8970004336019)" style="font-family: sans-serif; font-size: 16px; fill: #000; opacity: 1;">20</text><text text-anchor="end" transform="translate(-7,257.28787452803374)" style="font-family: sans-serif; font-size: 16px; fill: #000; opacity: 1;"></text><text text-anchor="end" transform="translate(-7,244.79400086720378)" style="font-family: sans-serif; font-size: 16px; fill: #000; opacity: 1;"></text><text text-anchor="end" transform="translate(-7,235.10299956639815)" style="font-family: sans-serif; font-size: 16px; fill: #000; opacity: 1;"></text><text text-anchor="end" transform="translate(-7,227.18487496163567)" style="font-family: sans-serif; font-size: 16px; fill: #000; opacity: 1;"></text><text text-anchor="end" transform="translate(-7,220.4901959985743)" style="font-family: sans-serif; font-size: 16px; fill: #000; opacity: 1;"></text><text text-anchor="end" transform="translate(-7,214.69100130080568)" style="font-family: sans-serif; font-size: 16px; fill: #000; opacity: 1;"></text><text text-anchor="end" transform="translate(-7,209.57574905606754)" style="font-family: sans-serif; font-size: 16px; fill: #000; opacity: 1;"></text><text text-anchor="end" transform="translate(-7,205)" style="font-family: sans-serif; font-size: 16px; fill: #000; opacity: 1;">100</text><text text-anchor="end" transform="translate(-7,174.89700043360193)" style="font-family: sans-serif; font-size: 16px; fill: #000; opacity: 1;">200</text><text text-anchor="end" transform="translate(-7,157.2878745280338)" style="font-family: sans-serif; font-size: 16px; fill: #000; opacity: 1;"></text><text text-anchor="end" transform="translate(-7,144.7940008672038)" style="font-family: sans-serif; font-size: 16px; fill: #000; opacity: 1;"></text><text text-anchor="end" transform="translate(-7,135.10299956639818)" style="font-family: sans-serif; font-size: 16px; fill: #000; opacity: 1;"></text><text text-anchor="end" transform="translate(-7,127.18487496163567)" style="font-family: sans-serif; font-size: 16px; fill: #000; opacity: 1;"></text><text text-anchor="end" transform="translate(-7,120.49019599857434)" style="font-family: sans-serif; font-size: 16px; fill: #000; opacity: 1;"></text><text text-anchor="end" transform="translate(-7,114.69100130080568)" style="font-family: sans-serif; font-size: 16px; fill: #000; opacity: 1;"></text><text text-anchor="end" transform="translate(-7,109.57574905606754)" style="font-family: sans-serif; font-size: 16px; fill: #000; opacity: 1;"></text><text text-anchor="end" transform="translate(-7,105.00000000000006)" style="font-family: sans-serif; font-size: 16px; fill: #000; opacity: 1;">1,000</text><text text-anchor="end" transform="translate(-7,74.89700043360193)" style="font-family: sans-serif; font-size: 16px; fill: #000; opacity: 1;">2,000</text><text text-anchor="end" transform="translate(-7,57.28787452803385)" style="font-family: sans-serif; font-size: 16px; fill: #000; opacity: 1;"></text><text text-anchor="end" transform="translate(-7,44.794000867203806)" style="font-family: sans-serif; font-size: 16px; fill: #000; opacity: 1;"></text><text text-anchor="end" transform="translate(-7,35.102999566398125)" style="font-family: sans-serif; font-size: 16px; fill: #000; opacity: 1;"></text><text text-anchor="end" transform="translate(-7,27.184874961635728)" style="font-family: sans-serif; font-size: 16px; fill: #000; opacity: 1;"></text><text text-anchor="end" transform="translate(-7,20.490195998574336)" style="font-family: sans-serif; font-size: 16px; fill: #000; opacity: 1;"></text><text text-anchor="end" transform="translate(-7,14.69100130080568)" style="font-family: sans-serif; font-size: 16px; fill: #000; opacity: 1;"></text><text text-anchor="end" transform="translate(-7,9.575749056067536)" style="font-family: sans-serif; font-size: 16px; fill: #000; opacity: 1;"></text><text text-anchor="end" transform="translate(-7,5)" style="font-family: sans-serif; font-size: 16px; fill: #000; opacity: 1;">10,000</text></g><g class="mark-rule role-axis-domain" style="pointer-events: none;"><line transform="translate(0,400)" x2="0" y2="-400" style="fill: none; stroke: #888; stroke-width: 1; opacity: 1;"></line></g><g class="mark-text role-axis-title" style="pointer-events: none;"><text text-anchor="middle" transform="translate(-66,200) rotate(-90) translate(0,-4)" style="font-family: sans-serif; font-size: 20px; font-weight: bold; fill: #000; opacity: 1;">value</text></g></g></g></g></g></g></g></g></svg>