<?xml version="1.0" encoding="utf-8" standalone="no"?>
<!DOCTYPE svg PUBLIC "-//W3C//DTD SVG 1.1//EN"
  "http://www.w3.org/Graphics/SVG/1.1/DTD/svg11.dtd">
<!-- Created with matplotlib (https://matplotlib.org/) -->
<svg height="345.6pt" version="1.1" viewBox="0 0 460.8 345.6" width="460.8pt" xmlns="http://www.w3.org/2000/svg" xmlns:xlink="http://www.w3.org/1999/xlink">
 <defs>
  <style type="text/css">
*{stroke-linecap:butt;stroke-linejoin:round;}
  </style>
 </defs>
 <g id="figure_1">
  <g id="patch_1">
   <path d="M 0 345.6 
L 460.8 345.6 
L 460.8 0 
L 0 0 
z
" style="fill:#ffffff;"/>
  </g>
  <g id="axes_1">
   <g id="patch_2">
    <path d="M 57.6 307.584 
L 414.72 307.584 
L 414.72 41.472 
L 57.6 41.472 
z
" style="fill:#ffffff;"/>
   </g>
   <g id="matplotlib.axis_1">
    <g id="xtick_1">
     <g id="line2d_1">
      <defs>
       <path d="M 0 0 
L 0 3.5 
" id="m49ebe5ba1e" style="stroke:#000000;stroke-width:0.8;"/>
      </defs>
      <g>
       <use style="stroke:#000000;stroke-width:0.8;" x="73.616036" xlink:href="#m49ebe5ba1e" y="307.584"/>
      </g>
     </g>
     <g id="text_1">
      <!-- 0 -->
      <defs>
       <path d="M 31.78125 66.40625 
Q 24.171875 66.40625 20.328125 58.90625 
Q 16.5 51.421875 16.5 36.375 
Q 16.5 21.390625 20.328125 13.890625 
Q 24.171875 6.390625 31.78125 6.390625 
Q 39.453125 6.390625 43.28125 13.890625 
Q 47.125 21.390625 47.125 36.375 
Q 47.125 51.421875 43.28125 58.90625 
Q 39.453125 66.40625 31.78125 66.40625 
z
M 31.78125 74.21875 
Q 44.046875 74.21875 50.515625 64.515625 
Q 56.984375 54.828125 56.984375 36.375 
Q 56.984375 17.96875 50.515625 8.265625 
Q 44.046875 -1.421875 31.78125 -1.421875 
Q 19.53125 -1.421875 13.0625 8.265625 
Q 6.59375 17.96875 6.59375 36.375 
Q 6.59375 54.828125 13.0625 64.515625 
Q 19.53125 74.21875 31.78125 74.21875 
z
" id="DejaVuSans-48"/>
      </defs>
      <g transform="translate(70.434786 322.182437)scale(0.1 -0.1)">
       <use xlink:href="#DejaVuSans-48"/>
      </g>
     </g>
    </g>
    <g id="xtick_2">
     <g id="line2d_2">
      <g>
       <use style="stroke:#000000;stroke-width:0.8;" x="122.422954" xlink:href="#m49ebe5ba1e" y="307.584"/>
      </g>
     </g>
     <g id="text_2">
      <!-- 5 -->
      <defs>
       <path d="M 10.796875 72.90625 
L 49.515625 72.90625 
L 49.515625 64.59375 
L 19.828125 64.59375 
L 19.828125 46.734375 
Q 21.96875 47.46875 24.109375 47.828125 
Q 26.265625 48.1875 28.421875 48.1875 
Q 40.625 48.1875 47.75 41.5 
Q 54.890625 34.8125 54.890625 23.390625 
Q 54.890625 11.625 47.5625 5.09375 
Q 40.234375 -1.421875 26.90625 -1.421875 
Q 22.3125 -1.421875 17.546875 -0.640625 
Q 12.796875 0.140625 7.71875 1.703125 
L 7.71875 11.625 
Q 12.109375 9.234375 16.796875 8.0625 
Q 21.484375 6.890625 26.703125 6.890625 
Q 35.15625 6.890625 40.078125 11.328125 
Q 45.015625 15.765625 45.015625 23.390625 
Q 45.015625 31 40.078125 35.4375 
Q 35.15625 39.890625 26.703125 39.890625 
Q 22.75 39.890625 18.8125 39.015625 
Q 14.890625 38.140625 10.796875 36.28125 
z
" id="DejaVuSans-53"/>
      </defs>
      <g transform="translate(119.241704 322.182437)scale(0.1 -0.1)">
       <use xlink:href="#DejaVuSans-53"/>
      </g>
     </g>
    </g>
    <g id="xtick_3">
     <g id="line2d_3">
      <g>
       <use style="stroke:#000000;stroke-width:0.8;" x="171.229872" xlink:href="#m49ebe5ba1e" y="307.584"/>
      </g>
     </g>
     <g id="text_3">
      <!-- 10 -->
      <defs>
       <path d="M 12.40625 8.296875 
L 28.515625 8.296875 
L 28.515625 63.921875 
L 10.984375 60.40625 
L 10.984375 69.390625 
L 28.421875 72.90625 
L 38.28125 72.90625 
L 38.28125 8.296875 
L 54.390625 8.296875 
L 54.390625 0 
L 12.40625 0 
z
" id="DejaVuSans-49"/>
      </defs>
      <g transform="translate(164.867372 322.182437)scale(0.1 -0.1)">
       <use xlink:href="#DejaVuSans-49"/>
       <use x="63.623047" xlink:href="#DejaVuSans-48"/>
      </g>
     </g>
    </g>
    <g id="xtick_4">
     <g id="line2d_4">
      <g>
       <use style="stroke:#000000;stroke-width:0.8;" x="220.036791" xlink:href="#m49ebe5ba1e" y="307.584"/>
      </g>
     </g>
     <g id="text_4">
      <!-- 15 -->
      <g transform="translate(213.674291 322.182437)scale(0.1 -0.1)">
       <use xlink:href="#DejaVuSans-49"/>
       <use x="63.623047" xlink:href="#DejaVuSans-53"/>
      </g>
     </g>
    </g>
    <g id="xtick_5">
     <g id="line2d_5">
      <g>
       <use style="stroke:#000000;stroke-width:0.8;" x="268.843709" xlink:href="#m49ebe5ba1e" y="307.584"/>
      </g>
     </g>
     <g id="text_5">
      <!-- 20 -->
      <defs>
       <path d="M 19.1875 8.296875 
L 53.609375 8.296875 
L 53.609375 0 
L 7.328125 0 
L 7.328125 8.296875 
Q 12.9375 14.109375 22.625 23.890625 
Q 32.328125 33.6875 34.8125 36.53125 
Q 39.546875 41.84375 41.421875 45.53125 
Q 43.3125 49.21875 43.3125 52.78125 
Q 43.3125 58.59375 39.234375 62.25 
Q 35.15625 65.921875 28.609375 65.921875 
Q 23.96875 65.921875 18.8125 64.3125 
Q 13.671875 62.703125 7.8125 59.421875 
L 7.8125 69.390625 
Q 13.765625 71.78125 18.9375 73 
Q 24.125 74.21875 28.421875 74.21875 
Q 39.75 74.21875 46.484375 68.546875 
Q 53.21875 62.890625 53.21875 53.421875 
Q 53.21875 48.921875 51.53125 44.890625 
Q 49.859375 40.875 45.40625 35.40625 
Q 44.1875 33.984375 37.640625 27.21875 
Q 31.109375 20.453125 19.1875 8.296875 
z
" id="DejaVuSans-50"/>
      </defs>
      <g transform="translate(262.481209 322.182437)scale(0.1 -0.1)">
       <use xlink:href="#DejaVuSans-50"/>
       <use x="63.623047" xlink:href="#DejaVuSans-48"/>
      </g>
     </g>
    </g>
    <g id="xtick_6">
     <g id="line2d_6">
      <g>
       <use style="stroke:#000000;stroke-width:0.8;" x="317.650628" xlink:href="#m49ebe5ba1e" y="307.584"/>
      </g>
     </g>
     <g id="text_6">
      <!-- 25 -->
      <g transform="translate(311.288128 322.182437)scale(0.1 -0.1)">
       <use xlink:href="#DejaVuSans-50"/>
       <use x="63.623047" xlink:href="#DejaVuSans-53"/>
      </g>
     </g>
    </g>
    <g id="xtick_7">
     <g id="line2d_7">
      <g>
       <use style="stroke:#000000;stroke-width:0.8;" x="366.457546" xlink:href="#m49ebe5ba1e" y="307.584"/>
      </g>
     </g>
     <g id="text_7">
      <!-- 30 -->
      <defs>
       <path d="M 40.578125 39.3125 
Q 47.65625 37.796875 51.625 33 
Q 55.609375 28.21875 55.609375 21.1875 
Q 55.609375 10.40625 48.1875 4.484375 
Q 40.765625 -1.421875 27.09375 -1.421875 
Q 22.515625 -1.421875 17.65625 -0.515625 
Q 12.796875 0.390625 7.625 2.203125 
L 7.625 11.71875 
Q 11.71875 9.328125 16.59375 8.109375 
Q 21.484375 6.890625 26.8125 6.890625 
Q 36.078125 6.890625 40.9375 10.546875 
Q 45.796875 14.203125 45.796875 21.1875 
Q 45.796875 27.640625 41.28125 31.265625 
Q 36.765625 34.90625 28.71875 34.90625 
L 20.21875 34.90625 
L 20.21875 43.015625 
L 29.109375 43.015625 
Q 36.375 43.015625 40.234375 45.921875 
Q 44.09375 48.828125 44.09375 54.296875 
Q 44.09375 59.90625 40.109375 62.90625 
Q 36.140625 65.921875 28.71875 65.921875 
Q 24.65625 65.921875 20.015625 65.03125 
Q 15.375 64.15625 9.8125 62.3125 
L 9.8125 71.09375 
Q 15.4375 72.65625 20.34375 73.4375 
Q 25.25 74.21875 29.59375 74.21875 
Q 40.828125 74.21875 47.359375 69.109375 
Q 53.90625 64.015625 53.90625 55.328125 
Q 53.90625 49.265625 50.4375 45.09375 
Q 46.96875 40.921875 40.578125 39.3125 
z
" id="DejaVuSans-51"/>
      </defs>
      <g transform="translate(360.095046 322.182437)scale(0.1 -0.1)">
       <use xlink:href="#DejaVuSans-51"/>
       <use x="63.623047" xlink:href="#DejaVuSans-48"/>
      </g>
     </g>
    </g>
    <g id="text_8">
     <!-- $r$ -->
     <defs>
      <path d="M 44.578125 46.390625 
Q 43.21875 47.125 41.453125 47.515625 
Q 39.703125 47.90625 37.703125 47.90625 
Q 30.515625 47.90625 25.140625 42.453125 
Q 19.78125 37.015625 18.015625 27.875 
L 12.5 0 
L 3.515625 0 
L 14.203125 54.6875 
L 23.1875 54.6875 
L 21.484375 46.1875 
Q 25.046875 50.921875 30 53.453125 
Q 34.96875 56 40.578125 56 
Q 42.046875 56 43.453125 55.828125 
Q 44.875 55.671875 46.296875 55.28125 
z
" id="DejaVuSans-Oblique-114"/>
     </defs>
     <g transform="translate(234.06 335.860562)scale(0.1 -0.1)">
      <use xlink:href="#DejaVuSans-Oblique-114"/>
     </g>
    </g>
   </g>
   <g id="matplotlib.axis_2">
    <g id="ytick_1">
     <g id="line2d_8">
      <defs>
       <path d="M 0 0 
L -3.5 0 
" id="md0b5259950" style="stroke:#000000;stroke-width:0.8;"/>
      </defs>
      <g>
       <use style="stroke:#000000;stroke-width:0.8;" x="57.6" xlink:href="#md0b5259950" y="295.488"/>
      </g>
     </g>
     <g id="text_9">
      <!-- 0.0 -->
      <defs>
       <path d="M 10.6875 12.40625 
L 21 12.40625 
L 21 0 
L 10.6875 0 
z
" id="DejaVuSans-46"/>
      </defs>
      <g transform="translate(34.696875 299.287219)scale(0.1 -0.1)">
       <use xlink:href="#DejaVuSans-48"/>
       <use x="63.623047" xlink:href="#DejaVuSans-46"/>
       <use x="95.410156" xlink:href="#DejaVuSans-48"/>
      </g>
     </g>
    </g>
    <g id="ytick_2">
     <g id="line2d_9">
      <g>
       <use style="stroke:#000000;stroke-width:0.8;" x="57.6" xlink:href="#md0b5259950" y="242.841728"/>
      </g>
     </g>
     <g id="text_10">
      <!-- 0.5 -->
      <g transform="translate(34.696875 246.640947)scale(0.1 -0.1)">
       <use xlink:href="#DejaVuSans-48"/>
       <use x="63.623047" xlink:href="#DejaVuSans-46"/>
       <use x="95.410156" xlink:href="#DejaVuSans-53"/>
      </g>
     </g>
    </g>
    <g id="ytick_3">
     <g id="line2d_10">
      <g>
       <use style="stroke:#000000;stroke-width:0.8;" x="57.6" xlink:href="#md0b5259950" y="190.195457"/>
      </g>
     </g>
     <g id="text_11">
      <!-- 1.0 -->
      <g transform="translate(34.696875 193.994676)scale(0.1 -0.1)">
       <use xlink:href="#DejaVuSans-49"/>
       <use x="63.623047" xlink:href="#DejaVuSans-46"/>
       <use x="95.410156" xlink:href="#DejaVuSans-48"/>
      </g>
     </g>
    </g>
    <g id="ytick_4">
     <g id="line2d_11">
      <g>
       <use style="stroke:#000000;stroke-width:0.8;" x="57.6" xlink:href="#md0b5259950" y="137.549185"/>
      </g>
     </g>
     <g id="text_12">
      <!-- 1.5 -->
      <g transform="translate(34.696875 141.348404)scale(0.1 -0.1)">
       <use xlink:href="#DejaVuSans-49"/>
       <use x="63.623047" xlink:href="#DejaVuSans-46"/>
       <use x="95.410156" xlink:href="#DejaVuSans-53"/>
      </g>
     </g>
    </g>
    <g id="ytick_5">
     <g id="line2d_12">
      <g>
       <use style="stroke:#000000;stroke-width:0.8;" x="57.6" xlink:href="#md0b5259950" y="84.902914"/>
      </g>
     </g>
     <g id="text_13">
      <!-- 2.0 -->
      <g transform="translate(34.696875 88.702132)scale(0.1 -0.1)">
       <use xlink:href="#DejaVuSans-50"/>
       <use x="63.623047" xlink:href="#DejaVuSans-46"/>
       <use x="95.410156" xlink:href="#DejaVuSans-48"/>
      </g>
     </g>
    </g>
    <g id="text_14">
     <!-- RDF -->
     <defs>
      <path d="M 44.390625 34.1875 
Q 47.5625 33.109375 50.5625 29.59375 
Q 53.5625 26.078125 56.59375 19.921875 
L 66.609375 0 
L 56 0 
L 46.6875 18.703125 
Q 43.0625 26.03125 39.671875 28.421875 
Q 36.28125 30.8125 30.421875 30.8125 
L 19.671875 30.8125 
L 19.671875 0 
L 9.8125 0 
L 9.8125 72.90625 
L 32.078125 72.90625 
Q 44.578125 72.90625 50.734375 67.671875 
Q 56.890625 62.453125 56.890625 51.90625 
Q 56.890625 45.015625 53.6875 40.46875 
Q 50.484375 35.9375 44.390625 34.1875 
z
M 19.671875 64.796875 
L 19.671875 38.921875 
L 32.078125 38.921875 
Q 39.203125 38.921875 42.84375 42.21875 
Q 46.484375 45.515625 46.484375 51.90625 
Q 46.484375 58.296875 42.84375 61.546875 
Q 39.203125 64.796875 32.078125 64.796875 
z
" id="DejaVuSans-82"/>
      <path d="M 19.671875 64.796875 
L 19.671875 8.109375 
L 31.59375 8.109375 
Q 46.6875 8.109375 53.6875 14.9375 
Q 60.6875 21.78125 60.6875 36.53125 
Q 60.6875 51.171875 53.6875 57.984375 
Q 46.6875 64.796875 31.59375 64.796875 
z
M 9.8125 72.90625 
L 30.078125 72.90625 
Q 51.265625 72.90625 61.171875 64.09375 
Q 71.09375 55.28125 71.09375 36.53125 
Q 71.09375 17.671875 61.125 8.828125 
Q 51.171875 0 30.078125 0 
L 9.8125 0 
z
" id="DejaVuSans-68"/>
      <path d="M 9.8125 72.90625 
L 51.703125 72.90625 
L 51.703125 64.59375 
L 19.671875 64.59375 
L 19.671875 43.109375 
L 48.578125 43.109375 
L 48.578125 34.8125 
L 19.671875 34.8125 
L 19.671875 0 
L 9.8125 0 
z
" id="DejaVuSans-70"/>
     </defs>
     <g transform="translate(28.617188 184.728)rotate(-90)scale(0.1 -0.1)">
      <use xlink:href="#DejaVuSans-82"/>
      <use x="69.482422" xlink:href="#DejaVuSans-68"/>
      <use x="146.484375" xlink:href="#DejaVuSans-70"/>
     </g>
    </g>
   </g>
   <g id="line2d_13">
    <path clip-path="url(#pb70accfbc9)" d="M 73.832727 295.488 
L 87.755784 295.488 
L 88.080827 295.144605 
L 88.405823 290.685369 
L 88.730876 273.733019 
L 89.380916 225.446961 
L 89.705918 226.491614 
L 90.030981 233.87925 
L 90.681028 263.703269 
L 91.00605 268.953168 
L 91.331076 260.215239 
L 91.656095 234.198406 
L 92.631188 103.233735 
L 92.956223 92.955502 
L 93.281268 100.394569 
L 95.231435 223.265042 
L 95.556448 231.533755 
L 95.881509 233.671931 
L 96.20656 220.599349 
L 97.181622 131.790146 
L 97.506673 113.871414 
L 97.83171 106.658218 
L 98.481721 102.167078 
L 98.8068 96.991123 
L 99.131872 80.082225 
L 99.781909 59.57047 
L 100.106948 53.568 
L 100.431981 60.463886 
L 100.756999 69.894542 
L 101.732073 131.441217 
L 102.057126 152.840739 
L 102.70724 179.096045 
L 104.332351 247.930537 
L 104.982413 259.502193 
L 105.307504 260.999689 
L 105.632443 264.134657 
L 105.957515 261.823529 
L 106.282608 261.017936 
L 106.607638 258.933745 
L 107.58273 246.92477 
L 107.90776 244.806793 
L 108.232781 240.483048 
L 108.557827 237.683025 
L 109.857917 217.465266 
L 111.483123 184.225157 
L 111.808165 181.568709 
L 112.458197 174.236496 
L 112.78332 174.216275 
L 113.108346 174.413929 
L 113.433395 174.150616 
L 113.758364 177.984616 
L 114.083422 176.45388 
L 114.408438 181.13016 
L 114.733501 181.138984 
L 115.058419 183.211445 
L 115.383714 183.276049 
L 116.033723 182.267972 
L 116.358595 183.917951 
L 116.683644 183.434692 
L 117.008795 181.824767 
L 117.333778 183.20193 
L 117.658743 180.091519 
L 117.984001 182.41203 
L 118.30878 181.8087 
L 118.63401 180.422386 
L 118.958989 180.77434 
L 119.283894 176.470512 
L 119.60911 179.892196 
L 119.934089 179.875828 
L 120.584223 182.929932 
L 120.909072 183.143878 
L 121.23426 185.302821 
L 121.559262 184.308275 
L 121.884339 182.881444 
L 122.209341 183.081646 
L 122.534269 182.926392 
L 122.859578 181.550797 
L 123.184426 176.72549 
L 123.509326 177.142387 
L 123.834598 174.54379 
L 124.159484 176.070007 
L 124.484765 174.264625 
L 124.809614 174.489905 
L 125.459455 179.170452 
L 125.784718 179.379415 
L 126.109832 182.403783 
L 126.43482 183.078709 
L 126.759906 187.680141 
L 127.084871 189.714633 
L 127.409999 193.740432 
L 127.734922 194.917713 
L 128.38494 202.559737 
L 128.710026 202.463082 
L 129.035005 205.153985 
L 129.360277 206.506428 
L 129.685293 206.484255 
L 130.009983 208.954854 
L 130.335474 207.610646 
L 130.985418 207.701985 
L 131.310275 206.542483 
L 131.635589 207.572977 
L 131.960387 207.083474 
L 132.28531 203.678622 
L 132.6106 203.767432 
L 132.935375 204.501722 
L 133.260549 201.214838 
L 133.585802 199.532432 
L 133.910739 199.022049 
L 134.235411 197.775958 
L 134.560911 195.371005 
L 134.885736 193.804408 
L 135.210729 188.545579 
L 135.536034 187.580605 
L 135.860864 187.347743 
L 136.18575 183.971861 
L 136.836005 181.430249 
L 137.1611 181.35967 
L 137.485884 181.423999 
L 137.810998 181.015712 
L 138.1362 178.642634 
L 138.460969 181.164075 
L 138.786511 180.455385 
L 139.436455 183.880295 
L 140.086166 180.910929 
L 140.411475 184.523439 
L 141.061382 188.818883 
L 141.711712 187.780606 
L 142.03677 188.273856 
L 142.361432 189.191459 
L 142.68643 190.703474 
L 143.011865 189.295577 
L 143.33649 190.042249 
L 143.661995 189.505808 
L 143.986834 190.295037 
L 144.311831 190.259346 
L 144.63702 189.407565 
L 144.961654 188.934987 
L 145.28714 188.160965 
L 145.611775 189.240349 
L 145.936898 187.950759 
L 146.261979 188.591506 
L 146.587437 188.751693 
L 146.912002 189.679601 
L 147.237181 189.167423 
L 147.56216 189.686504 
L 147.887367 189.03913 
L 148.212029 189.441204 
L 148.537306 187.460434 
L 148.862555 189.202493 
L 149.187403 188.711238 
L 149.512321 190.448471 
L 150.162605 189.250654 
L 150.487579 191.16557 
L 150.812684 189.711244 
L 151.462371 191.681188 
L 151.788095 191.973539 
L 152.112427 190.514644 
L 152.43796 192.373824 
L 152.762682 191.79391 
L 153.08761 194.130756 
L 153.413227 193.219975 
L 153.737279 192.95033 
L 154.063445 194.076802 
L 154.387702 196.276526 
L 154.713282 194.650416 
L 155.363062 196.15805 
L 155.68799 194.197714 
L 156.01329 194.45637 
L 156.33833 195.146389 
L 156.662633 192.797367 
L 156.989013 194.748753 
L 157.313131 192.081253 
L 157.638375 192.857346 
L 157.963284 191.602889 
L 158.613763 190.562077 
L 158.938049 190.803544 
L 159.263647 187.674066 
L 159.588667 189.324195 
L 159.913232 187.331702 
L 160.238941 187.950169 
L 160.563562 187.581459 
L 160.889113 187.430448 
L 161.213324 186.011687 
L 161.53868 187.541067 
L 161.863617 188.119218 
L 162.189252 186.830017 
L 162.514096 186.237507 
L 162.838363 185.888553 
L 163.164082 186.906697 
L 163.488916 187.41039 
L 163.814458 186.904123 
L 164.139125 188.847275 
L 164.464183 188.864484 
L 164.789176 189.137286 
L 165.11375 189.153239 
L 165.439366 189.38944 
L 165.764424 190.285686 
L 166.088942 190.69364 
L 166.739543 188.48705 
L 167.064284 192.055434 
L 167.389891 189.971343 
L 167.714363 190.39709 
L 168.039551 190.054248 
L 168.364106 190.308907 
L 168.690002 189.675057 
L 169.339951 190.284424 
L 169.664478 191.363331 
L 169.989461 190.113456 
L 170.315264 189.503762 
L 170.639661 190.95084 
L 170.965082 190.435743 
L 171.289479 190.494417 
L 171.614984 189.473412 
L 171.940172 190.147571 
L 172.265528 188.812205 
L 172.589274 188.646144 
L 172.915821 189.909036 
L 173.240125 189.396381 
L 173.564596 189.377842 
L 173.890492 190.338874 
L 174.215317 190.631075 
L 174.540562 189.416338 
L 175.516136 191.513501 
L 175.839807 188.832113 
L 176.166047 191.629775 
L 176.490193 191.617926 
L 176.815679 191.779412 
L 177.140244 190.910762 
L 177.465013 191.643865 
L 177.791114 191.082835 
L 178.115185 191.273479 
L 178.441695 192.112363 
L 179.415826 192.611204 
L 179.740875 192.281693 
L 180.066175 193.012462 
L 180.390609 192.635248 
L 180.71631 193.031233 
L 181.041256 190.805822 
L 181.366174 192.093278 
L 181.691381 190.589258 
L 182.015759 191.262772 
L 182.341311 191.089261 
L 182.666285 189.890083 
L 182.991017 191.484638 
L 183.316196 189.37203 
L 183.966033 189.76051 
L 184.290821 191.615341 
L 184.616652 188.92285 
L 184.941616 187.374956 
L 185.266935 189.208178 
L 186.240731 188.176906 
L 186.566646 189.496319 
L 187.217302 187.814785 
L 187.866496 187.773866 
L 188.192485 188.891558 
L 188.8418 189.105705 
L 189.166774 187.964416 
L 189.817998 189.970754 
L 190.141865 188.523086 
L 191.117066 187.555075 
L 191.44191 188.398044 
L 191.767946 190.537501 
L 192.092911 189.667576 
L 192.416079 188.484715 
L 192.743213 189.895693 
L 193.066465 189.313125 
L 193.393394 189.389113 
L 193.717297 189.638293 
L 194.367507 190.856864 
L 194.691624 189.865167 
L 195.017501 190.31507 
L 195.343565 190.281079 
L 195.667562 190.770093 
L 196.968203 191.422237 
L 197.293419 191.146918 
L 197.618235 192.407319 
L 197.942139 191.045939 
L 198.268817 191.10647 
L 198.591566 190.773124 
L 198.918961 192.01742 
L 199.242436 191.228876 
L 199.569011 191.954517 
L 199.892841 191.950971 
L 200.21869 192.924335 
L 200.542863 191.425438 
L 200.869057 192.481048 
L 201.193166 190.157625 
L 201.51787 191.849903 
L 201.844138 192.102202 
L 202.494812 191.58012 
L 202.817525 189.947369 
L 203.143057 191.935294 
L 203.468329 190.476348 
L 203.794207 191.027939 
L 204.119367 189.932759 
L 204.442433 190.795874 
L 204.769259 190.59662 
L 205.094867 190.573694 
L 205.743102 189.539924 
L 206.069324 190.137015 
L 206.393311 191.664017 
L 207.044628 189.695077 
L 207.695368 189.579023 
L 208.018359 188.795875 
L 208.343519 188.87027 
L 208.669555 189.186891 
L 208.994538 189.230584 
L 209.318479 189.087467 
L 209.644459 189.749929 
L 209.969917 187.804882 
L 210.293839 187.660636 
L 210.620778 189.703136 
L 210.944393 187.556895 
L 211.268864 187.165152 
L 211.59342 188.807448 
L 211.919837 188.039463 
L 212.570297 187.406135 
L 212.894368 187.770038 
L 213.219147 187.289076 
L 213.545229 188.226737 
L 213.870306 188.492409 
L 214.195038 189.855804 
L 214.844307 189.217103 
L 215.170575 189.209672 
L 215.820877 190.90655 
L 216.144166 190.656329 
L 216.79418 190.749527 
L 217.121956 191.571252 
L 217.445022 191.4966 
L 217.769624 192.067992 
L 218.095622 191.884157 
L 218.419516 191.431764 
L 218.745803 192.43433 
L 219.069669 192.350051 
L 219.397222 191.114283 
L 219.720111 191.782695 
L 220.04475 191.639145 
L 220.370823 191.156295 
L 220.695751 191.811752 
L 221.67112 191.654214 
L 221.995703 191.27024 
L 222.321329 190.039475 
L 222.644432 190.497417 
L 222.97124 189.943679 
L 223.29574 190.940472 
L 223.946526 190.266525 
L 224.271286 191.488793 
L 224.595655 191.646187 
L 224.92156 190.398081 
L 225.245361 191.371245 
L 225.571537 190.799169 
L 225.896204 190.79723 
L 226.220545 190.05278 
L 226.547148 190.700204 
L 227.520926 190.502632 
L 227.846626 189.815048 
L 228.171684 190.09936 
L 228.496109 190.156471 
L 228.822163 189.963737 
L 229.470957 188.492284 
L 229.797439 188.615857 
L 230.122562 189.375244 
L 230.447062 189.767213 
L 230.770221 188.040016 
L 231.096526 188.220335 
L 231.422906 187.446125 
L 231.745115 188.473531 
L 232.07319 188.19242 
L 232.395566 187.044503 
L 232.722468 188.756124 
L 233.046688 188.886073 
L 233.37385 188.402864 
L 233.695426 189.518121 
L 234.021285 189.038553 
L 234.348949 189.732369 
L 234.672406 189.601528 
L 234.997464 190.585386 
L 235.320939 190.288704 
L 235.649125 190.240323 
L 235.971577 190.508594 
L 236.621134 189.79263 
L 236.947011 189.817069 
L 237.272814 189.713792 
L 237.597351 189.79568 
L 237.922222 191.133444 
L 238.247448 190.461305 
L 238.897173 189.989619 
L 239.223758 191.386828 
L 239.547903 190.704334 
L 239.870243 190.866648 
L 240.524529 190.786649 
L 240.846422 191.686265 
L 241.173733 191.031868 
L 241.497004 191.323786 
L 241.824128 191.102799 
L 242.146989 192.427558 
L 242.473742 191.028354 
L 242.798576 191.97401 
L 243.122796 191.703323 
L 243.44858 190.847255 
L 243.774104 191.754478 
L 244.09838 190.175976 
L 244.421427 191.229296 
L 244.747695 191.056903 
L 245.3985 191.500184 
L 245.723819 190.65439 
L 246.04614 190.927794 
L 246.699681 189.084129 
L 247.023734 190.195331 
L 247.349239 189.341153 
L 247.67264 189.61034 
L 247.998387 188.961233 
L 248.325679 188.987253 
L 248.646268 188.633668 
L 249.299065 189.375909 
L 249.623267 188.135083 
L 249.94974 190.153521 
L 250.272359 189.210927 
L 250.60088 189.477303 
L 250.92376 188.7201 
L 251.249916 189.278582 
L 251.574118 190.133827 
L 251.897574 189.369545 
L 252.223545 189.683128 
L 252.550185 191.06857 
L 252.873772 189.88446 
L 253.200673 189.217831 
L 253.522622 191.174702 
L 253.851646 190.61718 
L 254.173818 190.319783 
L 254.498634 189.764263 
L 254.825517 190.479681 
L 255.149253 190.16965 
L 255.475111 189.700249 
L 255.798512 190.301532 
L 256.125823 189.839311 
L 256.448814 189.770037 
L 256.773835 190.123936 
L 257.102151 189.863573 
L 258.399553 190.083733 
L 258.723885 189.051218 
L 259.05289 190.346343 
L 259.373796 190.577962 
L 259.701088 191.08768 
L 260.024731 190.327345 
L 260.349212 190.547279 
L 260.675573 191.56952 
L 261.000296 189.836988 
L 261.3269 190.928384 
L 261.648904 190.795925 
L 261.976196 190.114974 
L 262.626424 190.21628 
L 262.949862 190.581457 
L 263.274194 190.334048 
L 263.600332 190.853337 
L 263.927345 189.562316 
L 264.251248 190.215339 
L 264.574016 189.907668 
L 264.901811 190.495992 
L 265.225622 189.110236 
L 265.875607 191.21537 
L 266.199809 190.191767 
L 266.525686 190.416344 
L 266.852513 189.921864 
L 267.176212 190.828735 
L 267.501214 190.482392 
L 267.825117 190.655105 
L 268.150008 190.643539 
L 268.477989 189.882878 
L 268.801651 190.110192 
L 269.123916 189.678898 
L 269.45374 190.238547 
L 269.773827 190.033814 
L 270.101808 190.729933 
L 270.426568 190.462096 
L 270.750025 189.613252 
L 271.079737 190.429762 
L 271.398949 190.593162 
L 271.725813 189.487783 
L 272.05277 189.47675 
L 272.702328 191.236727 
L 273.025822 189.876728 
L 273.352332 189.837001 
L 273.673703 190.449996 
L 274.002951 189.243148 
L 274.326668 190.032195 
L 274.653811 189.724285 
L 274.975146 190.106954 
L 275.300501 190.061943 
L 275.629413 190.389596 
L 276.274447 189.646364 
L 276.604513 189.994138 
L 276.924507 189.599231 
L 277.252618 189.928793 
L 277.579594 189.407527 
L 278.2258 189.594725 
L 278.55447 190.691481 
L 278.877368 189.299857 
L 279.199279 190.395019 
L 279.529141 189.389503 
L 279.85351 190.436534 
L 280.176855 189.726143 
L 280.499176 190.021501 
L 280.829447 190.038019 
L 281.473512 190.328695 
L 282.126942 188.840673 
L 282.452131 189.674655 
L 282.776276 189.639071 
L 283.103941 189.948913 
L 283.430507 189.470336 
L 283.751692 190.016919 
L 284.726885 190.931114 
L 285.05306 190.667789 
L 286.355638 191.215364 
L 286.67673 190.849628 
L 287.005605 190.251061 
L 287.324519 191.244917 
L 287.655739 191.585097 
L 287.977185 190.36357 
L 288.302485 190.410589 
L 288.630224 191.41298 
L 288.95303 190.596262 
L 289.279335 191.015463 
L 289.604486 190.106376 
L 289.928688 190.608739 
L 290.25207 189.262905 
L 290.578599 189.96877 
L 290.904178 189.774179 
L 291.228752 190.978159 
L 291.553158 189.789417 
L 291.879687 190.2045 
L 292.530604 190.40287 
L 292.8546 190.12553 
L 293.504195 190.44987 
L 293.829551 189.062878 
L 294.154199 189.167611 
L 294.477619 189.801567 
L 294.805116 190.713578 
L 295.125836 189.657974 
L 295.45512 189.350378 
L 295.77921 189.796019 
L 296.105981 189.31925 
L 296.428209 189.340073 
L 296.753658 189.036959 
L 297.081732 190.079264 
L 297.401149 189.992355 
L 297.732109 190.565071 
L 298.053164 190.345803 
L 298.383528 189.470399 
L 298.701399 189.474742 
L 299.029268 189.201137 
L 299.354829 190.193097 
L 299.67944 190.107795 
L 300.00865 189.418711 
L 300.327266 190.124576 
L 300.653181 190.157864 
L 301.303688 190.648905 
L 301.628336 189.835445 
L 301.953785 190.047119 
L 302.279885 190.80601 
L 302.605074 189.711432 
L 302.932589 189.668103 
L 303.251876 190.675182 
L 303.582426 189.923471 
L 304.231797 190.936386 
L 304.555533 190.286401 
L 304.879288 189.996058 
L 305.207474 190.146618 
L 305.527598 190.429756 
L 305.856678 189.720181 
L 306.182983 190.944978 
L 306.505341 189.809902 
L 306.829822 190.438009 
L 307.154359 189.693872 
L 307.80373 191.149002 
L 308.130557 190.34793 
L 308.454479 190.354401 
L 308.781455 190.140166 
L 309.109585 190.070378 
L 309.425799 190.291849 
L 309.760036 191.254827 
L 310.079452 190.351558 
L 310.405832 190.232121 
L 310.733497 191.506491 
L 311.054179 190.505111 
L 311.37786 191.291522 
L 311.707926 190.58179 
L 312.032612 191.141791 
L 312.354765 189.435078 
L 312.678799 190.577089 
L 313.007004 190.84376 
L 313.334296 190.248783 
L 313.655667 191.152247 
L 313.981209 189.899296 
L 314.305895 190.071545 
L 314.633578 189.380854 
L 314.952641 190.671906 
L 315.605028 189.345383 
L 315.929211 189.461864 
L 316.26019 189.86872 
L 316.57754 189.220454 
L 316.906787 189.487696 
L 317.235159 190.204839 
L 317.553757 189.792856 
L 317.884214 188.62271 
L 318.208844 187.999122 
L 318.529787 188.892449 
L 318.857656 189.131675 
L 319.180852 190.200584 
L 319.50565 189.656543 
L 320.159154 189.342747 
L 320.481364 190.30998 
L 320.807855 190.321427 
L 321.133528 190.075988 
L 321.459759 189.268201 
L 321.780869 190.242313 
L 322.103972 189.601164 
L 322.432307 189.637238 
L 322.761219 190.403046 
L 323.08179 189.60193 
L 323.407537 190.323843 
L 323.726432 190.607208 
L 324.05944 189.352788 
L 324.384126 190.17742 
L 324.706447 190.478438 
L 325.357531 189.983356 
L 325.686276 190.896509 
L 326.006791 190.786919 
L 326.332296 190.203754 
L 326.660128 191.609943 
L 326.982356 191.537601 
L 327.308531 190.869052 
L 327.630666 191.323115 
L 327.959298 191.527026 
L 328.284654 191.330357 
L 328.604313 191.429529 
L 328.936073 190.734502 
L 329.25737 191.468032 
L 329.581814 189.744594 
L 329.90542 191.491567 
L 330.238837 190.848109 
L 330.553544 190.891093 
L 330.883629 189.892593 
L 331.211163 190.697361 
L 331.535811 189.45068 
L 332.177828 190.460583 
L 332.511004 190.262214 
L 332.828987 189.869837 
L 333.158755 190.04855 
L 333.482305 189.547543 
L 333.812222 190.070955 
L 334.132346 189.677743 
L 334.460625 189.569408 
L 334.784585 189.64428 
L 335.105808 190.304984 
L 335.431647 189.585449 
L 335.763818 189.343224 
L 336.080963 190.308982 
L 336.409651 189.854599 
L 336.737521 189.98372 
L 337.387488 189.45235 
L 337.707761 190.061252 
L 338.032391 190.243951 
L 338.361936 190.218533 
L 338.683084 189.312635 
L 339.012312 190.249794 
L 339.328638 189.15767 
L 339.66524 189.600047 
L 339.978047 189.295301 
L 340.313028 189.986908 
L 340.633227 189.655639 
L 340.959644 189.8881 
L 341.283287 189.324697 
L 341.610095 189.376449 
L 341.9391 190.137681 
L 342.260341 190.211084 
L 342.580819 190.107054 
L 342.911463 189.610767 
L 343.230358 189.814458 
L 343.564316 190.56059 
L 343.881647 189.31448 
L 344.207133 190.630284 
L 344.538726 190.336929 
L 344.857901 189.335768 
L 345.183759 190.647417 
L 345.513025 190.602614 
L 346.162359 189.977532 
L 346.485052 190.587696 
L 346.813313 190.414311 
L 347.12975 190.671297 
L 347.461176 190.416394 
L 347.78966 190.784195 
L 348.435065 189.987673 
L 348.754445 190.59566 
L 349.088774 189.815864 
L 349.732635 191.084818 
L 350.3802 189.768995 
L 350.712891 191.43182 
L 351.362616 190.092055 
L 351.686352 191.27806 
L 352.009288 190.469533 
L 352.335947 190.824336 
L 352.659609 190.445653 
L 352.98476 191.101004 
L 353.315831 191.17858 
L 353.632828 190.947344 
L 353.966729 190.286797 
L 354.282236 190.567669 
L 354.607983 189.654572 
L 354.93993 189.907618 
L 355.261823 190.96444 
L 355.585279 191.394522 
L 355.910337 189.733586 
L 356.234651 190.377816 
L 356.564791 189.565304 
L 356.885251 189.879326 
L 357.211519 189.219726 
L 357.535236 189.901128 
L 358.191254 189.476135 
L 358.50974 189.495252 
L 358.834686 189.735093 
L 359.158888 189.647368 
L 359.48888 189.035126 
L 359.815706 189.317053 
L 360.128774 189.945876 
L 360.465487 190.003087 
L 360.79008 189.920584 
L 361.109887 189.67689 
L 361.437943 189.261336 
L 361.757844 189.269444 
L 362.088431 189.878748 
L 362.411795 189.058322 
L 362.738417 189.164711 
L 363.060347 190.178775 
L 363.385479 188.861835 
L 363.712399 189.635958 
L 364.36151 188.95551 
L 364.684929 190.319431 
L 365.016653 191.157173 
L 365.339961 190.034529 
L 365.659973 190.993353 
L 365.988215 190.877418 
L 366.306793 190.240587 
L 366.639932 190.021501 
L 366.966014 190.254105 
L 367.285021 191.316676 
L 367.613411 190.931353 
L 367.937334 191.098085 
L 368.586742 190.78953 
L 369.568917 191.251343 
L 369.883288 190.187398 
L 370.211194 191.131705 
L 370.539361 191.109194 
L 370.863191 190.394316 
L 371.189887 190.083093 
L 371.511463 189.610465 
L 371.834045 189.716164 
L 372.167556 191.022329 
L 372.485185 190.339495 
L 373.133458 189.70232 
L 373.46412 189.951763 
L 374.117122 189.874682 
L 374.436725 190.501082 
L 374.763905 190.13704 
L 375.088944 190.336395 
L 375.409217 189.594449 
L 375.741146 190.222732 
L 376.066185 189.809312 
L 376.387761 190.190599 
L 376.711423 190.024714 
L 377.037728 190.771624 
L 377.687733 189.895756 
L 378.014317 189.845436 
L 378.338277 189.680341 
L 378.986028 190.002585 
L 379.316374 190.55808 
L 379.639961 189.819654 
L 379.962859 190.585775 
L 380.288289 189.920772 
L 380.615861 190.715084 
L 380.939895 189.683693 
L 381.260075 190.100389 
L 381.591407 189.539987 
L 381.916502 189.670501 
L 382.237781 189.948964 
L 382.561256 189.43922 
L 383.212266 189.93901 
L 383.539893 189.546765 
L 383.863592 189.432744 
L 384.192802 190.076741 
L 384.512219 189.101161 
L 384.839939 189.240926 
L 385.167082 190.129434 
L 385.484544 190.199687 
L 385.81623 189.586165 
L 386.141251 189.680843 
L 386.462678 190.246216 
L 386.795314 189.800149 
L 387.446659 190.320963 
L 387.759373 190.126472 
L 388.418537 190.084875 
L 388.73531 190.477886 
L 389.057147 190.658758 
L 389.402257 190.406604 
L 389.711359 191.080525 
L 390.036845 189.568467 
L 390.362108 190.634269 
L 390.69843 190.580999 
L 391.010623 189.739887 
L 391.339423 190.786285 
L 391.662005 191.406867 
L 391.995683 191.618253 
L 392.316924 190.947859 
L 392.637532 191.216098 
L 392.9692 191.230275 
L 393.293941 190.806663 
L 393.612576 190.966341 
L 393.936871 190.857033 
L 394.264963 190.325569 
L 394.587955 190.484802 
L 395.236358 191.255329 
L 395.568993 190.692711 
L 396.213449 190.247252 
L 396.544186 190.75402 
L 397.189834 190.266456 
L 397.518708 190.023296 
L 397.84561 190.222719 
L 398.166776 189.038578 
L 398.487273 190.229623 
L 398.487273 190.229623 
" style="fill:none;stroke:#1f77b4;stroke-linecap:square;stroke-width:1.5;"/>
   </g>
   <g id="patch_3">
    <path d="M 57.6 307.584 
L 57.6 41.472 
" style="fill:none;stroke:#000000;stroke-linecap:square;stroke-linejoin:miter;stroke-width:0.8;"/>
   </g>
   <g id="patch_4">
    <path d="M 414.72 307.584 
L 414.72 41.472 
" style="fill:none;stroke:#000000;stroke-linecap:square;stroke-linejoin:miter;stroke-width:0.8;"/>
   </g>
   <g id="patch_5">
    <path d="M 57.6 307.584 
L 414.72 307.584 
" style="fill:none;stroke:#000000;stroke-linecap:square;stroke-linejoin:miter;stroke-width:0.8;"/>
   </g>
   <g id="patch_6">
    <path d="M 57.6 41.472 
L 414.72 41.472 
" style="fill:none;stroke:#000000;stroke-linecap:square;stroke-linejoin:miter;stroke-width:0.8;"/>
   </g>
  </g>
 </g>
 <defs>
  <clipPath id="pb70accfbc9">
   <rect height="266.112" width="357.12" x="57.6" y="41.472"/>
  </clipPath>
 </defs>
</svg>
