<svg class="marks" width="776" height="465" viewBox="0 0 776 465" version="1.1" xmlns="http://www.w3.org/2000/svg" xmlns:xlink="http://www.w3.org/1999/xlink"><rect width="776" height="465" style="fill: white;"></rect><g transform="translate(72,13)"><g class="mark-group role-frame root"><g transform="translate(0,0)"><path class="background" d="M0.5,0.5h600v400h-600Z" style="fill: none; stroke: #ddd;"></path><g><g class="mark-line role-mark layer_0_marks"><path d="M0,350.8299785269427L11.972789115646252,348.1603349959028L23.945578231292526,345.42836360442084L35.918367346938794,342.6318558293461L47.89115646258505,339.76849755807115L59.863945578231295,336.8358627019076L71.83673469387755,333.8314063402292L83.8095238095238,330.75245735466024L95.78231292517005,327.59621050850296L107.7551020408163,324.359717922037L119.72789115646259,321.0398798892394L131.70068027210885,317.6334349757938L143.6734693877551,314.1369493318979L155.64625850340144,310.54680514625284L167.61904761904765,306.85918815962793L179.5918367346939,303.0700741474039L191.56462585034012,299.17521427038844L203.5374149659864,295.1701191817964L215.51020408163265,291.05004176541007L227.4829931972789,286.80995836537767L239.45578231292515,282.44454835160536L251.4285714285714,277.94817184597656L263.40136054421765,273.3148454133368L275.3741496598639,268.53821549692924L287.3469387755102,263.6115293502784L299.3197278911565,258.52760318586235L311.2925170068027,253.2787872246301L323.265306122449,247.85692728875443L335.23809523809535,242.25332253206756L347.2108843537416,236.45867884731427L359.1836734693879,230.4630574254264L371.15646258503415,224.25581786792668L383.1292517006804,217.82555516750045L395.1020408163266,211.1600297715312L407.0748299319729,204.24608982634135L419.04761904761915,197.06958456282285L431.02040816326536,189.61526762321026L442.9931972789116,181.8666889392257L454.96598639455783,173.80607354796246L466.9387755102041,165.4141854666058L478.91156462585036,156.6701744317365L490.8843537414966,147.55140293278671L502.8571428571429,138.0332505189025L514.8299319727892,128.08889181741273L526.8027210884354,117.68904404952897L538.7755102040815,106.8016790386646L550.7482993197278,95.3916937458282L562.7210884353741,83.42053219293497L574.6938775510204,70.8457501949702L586.6666666666666,57.62051254686655" style="fill: none; stroke: black; stroke-width: 2;"></path></g><g class="mark-symbol role-mark layer_1_marks"><path transform="translate(552.3809523809524,104.1674816311768)" d="M2.7386127875258306,0A2.7386127875258306,2.7386127875258306,0,1,1,-2.7386127875258306,0A2.7386127875258306,2.7386127875258306,0,1,1,2.7386127875258306,0" style="fill: none; stroke: #4c78a8; stroke-width: 2; opacity: 0.7;"></path><path transform="translate(466.6666666666665,171.74526155024742)" d="M2.7386127875258306,0A2.7386127875258306,2.7386127875258306,0,1,1,-2.7386127875258306,0A2.7386127875258306,2.7386127875258306,0,1,1,2.7386127875258306,0" style="fill: none; stroke: #4c78a8; stroke-width: 2; opacity: 0.7;"></path><path transform="translate(400,210.02670387963934)" d="M2.7386127875258306,0A2.7386127875258306,2.7386127875258306,0,1,1,-2.7386127875258306,0A2.7386127875258306,2.7386127875258306,0,1,1,2.7386127875258306,0" style="fill: none; stroke: #4c78a8; stroke-width: 2; opacity: 0.7;"></path><path transform="translate(346.66666666666663,238.87385172560903)" d="M2.7386127875258306,0A2.7386127875258306,2.7386127875258306,0,1,1,-2.7386127875258306,0A2.7386127875258306,2.7386127875258306,0,1,1,2.7386127875258306,0" style="fill: none; stroke: #4c78a8; stroke-width: 2; opacity: 0.7;"></path><path transform="translate(266.66666666666663,269.4793365835151)" d="M2.7386127875258306,0A2.7386127875258306,2.7386127875258306,0,1,1,-2.7386127875258306,0A2.7386127875258306,2.7386127875258306,0,1,1,2.7386127875258306,0" style="fill: none; stroke: #4c78a8; stroke-width: 2; opacity: 0.7;"></path><path transform="translate(166.66666666666663,303.51297150986085)" d="M2.7386127875258306,0A2.7386127875258306,2.7386127875258306,0,1,1,-2.7386127875258306,0A2.7386127875258306,2.7386127875258306,0,1,1,2.7386127875258306,0" style="fill: none; stroke: #4c78a8; stroke-width: 2; opacity: 0.7;"></path><path transform="translate(106.66666666666664,323.5065484103774)" d="M2.7386127875258306,0A2.7386127875258306,2.7386127875258306,0,1,1,-2.7386127875258306,0A2.7386127875258306,2.7386127875258306,0,1,1,2.7386127875258306,0" style="fill: none; stroke: #4c78a8; stroke-width: 2; opacity: 0.7;"></path><path transform="translate(586.6666666666666,55.95055121937102)" d="M2.7386127875258306,0A2.7386127875258306,2.7386127875258306,0,1,1,-2.7386127875258306,0A2.7386127875258306,2.7386127875258306,0,1,1,2.7386127875258306,0" style="fill: none; stroke: #f58518; stroke-width: 2; opacity: 0.7;"></path><path transform="translate(558.9743589743589,79.60479134645286)" d="M2.7386127875258306,0A2.7386127875258306,2.7386127875258306,0,1,1,-2.7386127875258306,0A2.7386127875258306,2.7386127875258306,0,1,1,2.7386127875258306,0" style="fill: none; stroke: #f58518; stroke-width: 2; opacity: 0.7;"></path><path transform="translate(533.3333333333333,108.54693308678658)" d="M2.7386127875258306,0A2.7386127875258306,2.7386127875258306,0,1,1,-2.7386127875258306,0A2.7386127875258306,2.7386127875258306,0,1,1,2.7386127875258306,0" style="fill: none; stroke: #f58518; stroke-width: 2; opacity: 0.7;"></path><path transform="translate(38.0952380952381,346.22393755230485)" d="M2.7386127875258306,0A2.7386127875258306,2.7386127875258306,0,1,1,-2.7386127875258306,0A2.7386127875258306,2.7386127875258306,0,1,1,2.7386127875258306,0" style="fill: none; stroke: #4c78a8; stroke-width: 2; opacity: 0.7;"></path><path transform="translate(509.5238095238096,126.36127137435791)" d="M2.7386127875258306,0A2.7386127875258306,2.7386127875258306,0,1,1,-2.7386127875258306,0A2.7386127875258306,2.7386127875258306,0,1,1,2.7386127875258306,0" style="fill: none; stroke: #f58518; stroke-width: 2; opacity: 0.7;"></path><path transform="translate(487.35632183908046,141.43052510552803)" d="M2.7386127875258306,0A2.7386127875258306,2.7386127875258306,0,1,1,-2.7386127875258306,0A2.7386127875258306,2.7386127875258306,0,1,1,2.7386127875258306,0" style="fill: none; stroke: #f58518; stroke-width: 2; opacity: 0.7;"></path><path transform="translate(466.66666666666674,157.9405579180944)" d="M2.7386127875258306,0A2.7386127875258306,2.7386127875258306,0,1,1,-2.7386127875258306,0A2.7386127875258306,2.7386127875258306,0,1,1,2.7386127875258306,0" style="fill: none; stroke: #f58518; stroke-width: 2; opacity: 0.7;"></path><path transform="translate(429.16666666666663,187.8272746538412)" d="M2.7386127875258306,0A2.7386127875258306,2.7386127875258306,0,1,1,-2.7386127875258306,0A2.7386127875258306,2.7386127875258306,0,1,1,2.7386127875258306,0" style="fill: none; stroke: #f58518; stroke-width: 2; opacity: 0.7;"></path><path transform="translate(0,363.100636807856)" d="M2.7386127875258306,0A2.7386127875258306,2.7386127875258306,0,1,1,-2.7386127875258306,0A2.7386127875258306,2.7386127875258306,0,1,1,2.7386127875258306,0" style="fill: none; stroke: #4c78a8; stroke-width: 2; opacity: 0.7;"></path><path transform="translate(366.66666666666663,220.66852114033807)" d="M2.7386127875258306,0A2.7386127875258306,2.7386127875258306,0,1,1,-2.7386127875258306,0A2.7386127875258306,2.7386127875258306,0,1,1,2.7386127875258306,0" style="fill: none; stroke: #f58518; stroke-width: 2; opacity: 0.7;"></path><path transform="translate(316.6666666666667,250.10759382685325)" d="M2.7386127875258306,0A2.7386127875258306,2.7386127875258306,0,1,1,-2.7386127875258306,0A2.7386127875258306,2.7386127875258306,0,1,1,2.7386127875258306,0" style="fill: none; stroke: #f58518; stroke-width: 2; opacity: 0.7;"></path><path transform="translate(226.66666666666666,281.15504506653235)" d="M2.7386127875258306,0A2.7386127875258306,2.7386127875258306,0,1,1,-2.7386127875258306,0A2.7386127875258306,2.7386127875258306,0,1,1,2.7386127875258306,0" style="fill: none; stroke: #f58518; stroke-width: 2; opacity: 0.7;"></path></g><g class="mark-rule role-mark layer_2_layer_0_marks"><line transform="translate(552.3809523809524,104.29451291666658)" x2="0" y2="-0.2535076543716599" style="fill: none; stroke: #4c78a8;"></line><line transform="translate(466.6666666666665,171.88385545320267)" x2="0" y2="-0.2765275351416676" style="fill: none; stroke: #4c78a8;"></line><line transform="translate(400,210.10690978537684)" x2="0" y2="-0.1601902376302462" style="fill: none; stroke: #4c78a8;"></line><line transform="translate(346.66666666666663,238.9755924141106)" x2="0" y2="-0.20312511188649296" style="fill: none; stroke: #4c78a8;"></line><line transform="translate(266.66666666666663,269.59648359220387)" x2="0" y2="-0.23382193663718454" style="fill: none; stroke: #4c78a8;"></line><line transform="translate(166.66666666666663,303.66038661557684)" x2="0" y2="-0.29408344250856544" style="fill: none; stroke: #4c78a8;"></line><line transform="translate(106.66666666666664,323.7974768727869)" x2="0" y2="-0.5789626430749877" style="fill: none; stroke: #4c78a8;"></line><line transform="translate(586.6666666666666,56.03205159352904)" x2="0" y2="-0.16277197485118933" style="fill: none; stroke: #f58518;"></line><line transform="translate(558.9743589743589,79.74594169576945)" x2="0" y2="-0.2816159051745615" style="fill: none; stroke: #f58518;"></line><line transform="translate(533.3333333333333,108.66283232491698)" x2="0" y2="-0.23133637870959944" style="fill: none; stroke: #f58518;"></line><line transform="translate(38.0952380952381,346.69549433305235)" x2="0" y2="-0.9355562406009312" style="fill: none; stroke: #4c78a8;"></line><line transform="translate(509.5238095238096,126.46612544432428)" x2="0" y2="-0.20932977747825987" style="fill: none; stroke: #f58518;"></line><line transform="translate(487.35632183908046,141.53542563897386)" x2="0" y2="-0.20942236964427252" style="fill: none; stroke: #f58518;"></line><line transform="translate(466.66666666666674,158.16710779866315)" x2="0" y2="-0.45134081807054827" style="fill: none; stroke: #f58518;"></line><line transform="translate(429.16666666666663,187.9984789122239)" x2="0" y2="-0.3414021024100009" style="fill: none; stroke: #f58518;"></line><line transform="translate(0,363.639677273062)" x2="0" y2="-1.0682283380531317" style="fill: none; stroke: #4c78a8;"></line><line transform="translate(366.66666666666663,221.1417372433032)" x2="0" y2="-0.9388220338227313" style="fill: none; stroke: #f58518;"></line><line transform="translate(316.6666666666667,250.51337524728646)" x2="0" y2="-0.8059542505840795" style="fill: none; stroke: #f58518;"></line><line transform="translate(226.66666666666666,281.5808833001074)" x2="0" y2="-0.8455039429732665" style="fill: none; stroke: #f58518;"></line></g><g class="mark-group role-legend"><g transform="translate(618,0)"><path class="background" d="M0,0h81v59h-81Z" style="pointer-events: none; fill: none;"></path><g><g class="mark-group role-legend-entry"><g transform="translate(0,25)"><path class="background" d="M0,0h0v0h0Z" style="pointer-events: none; fill: none;"></path><g><g class="mark-group role-scope"><g transform="translate(0,0)"><path class="background" d="M0,0h51.21666717529297v16h-51.21666717529297Z" style="pointer-events: none; fill: none; opacity: 1;"></path><g><g class="mark-symbol role-legend-symbol" style="pointer-events: none;"><path transform="translate(8,8)" d="M5,0A5,5,0,1,1,-5,0A5,5,0,1,1,5,0" style="fill: none; stroke: #4c78a8; stroke-width: 1.5; opacity: 0.7;"></path></g><g class="mark-text role-legend-label" style="pointer-events: none;"><text text-anchor="start" transform="translate(20,13)" style="font-family: Roboto; font-size: 16px; fill: #000; opacity: 1;">1</text></g></g><path class="foreground" d="" style="pointer-events: none; display: none; fill: none;"></path></g><g transform="translate(0,18)"><path class="background" d="M0,0h51.21666717529297v16h-51.21666717529297Z" style="pointer-events: none; fill: none; opacity: 1;"></path><g><g class="mark-symbol role-legend-symbol" style="pointer-events: none;"><path transform="translate(8,8)" d="M5,0A5,5,0,1,1,-5,0A5,5,0,1,1,5,0" style="fill: none; stroke: #f58518; stroke-width: 1.5; opacity: 0.7;"></path></g><g class="mark-text role-legend-label" style="pointer-events: none;"><text text-anchor="start" transform="translate(20,13)" style="font-family: Roboto; font-size: 16px; fill: #000; opacity: 1;">13.5</text></g></g><path class="foreground" d="" style="pointer-events: none; display: none; fill: none;"></path></g></g></g><path class="foreground" d="" style="pointer-events: none; display: none; fill: none;"></path></g></g><g class="mark-text role-legend-title" style="pointer-events: none;"><text text-anchor="start" transform="translate(0,16)" style="font-family: Roboto; font-size: 20px; font-weight: bold; fill: #000; opacity: 1;">Pressure</text></g></g><path class="foreground" d="" style="pointer-events: none; display: none; fill: none;"></path></g></g><g class="mark-group role-axis"><g transform="translate(0.5,400.5)"><path class="background" d="M0,0h0v0h0Z" style="pointer-events: none; fill: none;"></path><g><g class="mark-rule role-axis-tick" style="pointer-events: none;"><line transform="translate(0,0)" x2="0" y2="5" style="fill: none; stroke: #888; stroke-width: 1; opacity: 1;"></line><line transform="translate(33,0)" x2="0" y2="5" style="fill: none; stroke: #888; stroke-width: 1; opacity: 1;"></line><line transform="translate(67,0)" x2="0" y2="5" style="fill: none; stroke: #888; stroke-width: 1; opacity: 1;"></line><line transform="translate(100,0)" x2="0" y2="5" style="fill: none; stroke: #888; stroke-width: 1; opacity: 1;"></line><line transform="translate(133,0)" x2="0" y2="5" style="fill: none; stroke: #888; stroke-width: 1; opacity: 1;"></line><line transform="translate(167,0)" x2="0" y2="5" style="fill: none; stroke: #888; stroke-width: 1; opacity: 1;"></line><line transform="translate(200,0)" x2="0" y2="5" style="fill: none; stroke: #888; stroke-width: 1; opacity: 1;"></line><line transform="translate(233,0)" x2="0" y2="5" style="fill: none; stroke: #888; stroke-width: 1; opacity: 1;"></line><line transform="translate(267,0)" x2="0" y2="5" style="fill: none; stroke: #888; stroke-width: 1; opacity: 1;"></line><line transform="translate(300,0)" x2="0" y2="5" style="fill: none; stroke: #888; stroke-width: 1; opacity: 1;"></line><line transform="translate(333,0)" x2="0" y2="5" style="fill: none; stroke: #888; stroke-width: 1; opacity: 1;"></line><line transform="translate(367,0)" x2="0" y2="5" style="fill: none; stroke: #888; stroke-width: 1; opacity: 1;"></line><line transform="translate(400,0)" x2="0" y2="5" style="fill: none; stroke: #888; stroke-width: 1; opacity: 1;"></line><line transform="translate(433,0)" x2="0" y2="5" style="fill: none; stroke: #888; stroke-width: 1; opacity: 1;"></line><line transform="translate(467,0)" x2="0" y2="5" style="fill: none; stroke: #888; stroke-width: 1; opacity: 1;"></line><line transform="translate(500,0)" x2="0" y2="5" style="fill: none; stroke: #888; stroke-width: 1; opacity: 1;"></line><line transform="translate(533,0)" x2="0" y2="5" style="fill: none; stroke: #888; stroke-width: 1; opacity: 1;"></line><line transform="translate(567,0)" x2="0" y2="5" style="fill: none; stroke: #888; stroke-width: 1; opacity: 1;"></line><line transform="translate(600,0)" x2="0" y2="5" style="fill: none; stroke: #888; stroke-width: 1; opacity: 1;"></line></g><g class="mark-text role-axis-label" style="pointer-events: none;"><text text-anchor="start" transform="translate(0,20)" style="font-family: Roboto; font-size: 16px; fill: #000; opacity: 1;">0.200</text><text text-anchor="middle" transform="translate(33.33333333333332,20)" style="font-family: Roboto; font-size: 16px; fill: #000; opacity: 0;">0.250</text><text text-anchor="middle" transform="translate(66.66666666666664,20)" style="font-family: Roboto; font-size: 16px; fill: #000; opacity: 1;">0.300</text><text text-anchor="middle" transform="translate(99.99999999999996,20)" style="font-family: Roboto; font-size: 16px; fill: #000; opacity: 0;">0.350</text><text text-anchor="middle" transform="translate(133.33333333333331,20)" style="font-family: Roboto; font-size: 16px; fill: #000; opacity: 1;">0.400</text><text text-anchor="middle" transform="translate(166.66666666666663,20)" style="font-family: Roboto; font-size: 16px; fill: #000; opacity: 0;">0.450</text><text text-anchor="middle" transform="translate(199.99999999999994,20)" style="font-family: Roboto; font-size: 16px; fill: #000; opacity: 1;">0.500</text><text text-anchor="middle" transform="translate(233.33333333333334,20)" style="font-family: Roboto; font-size: 16px; fill: #000; opacity: 0;">0.550</text><text text-anchor="middle" transform="translate(266.66666666666663,20)" style="font-family: Roboto; font-size: 16px; fill: #000; opacity: 1;">0.600</text><text text-anchor="middle" transform="translate(299.99999999999994,20)" style="font-family: Roboto; font-size: 16px; fill: #000; opacity: 0;">0.650</text><text text-anchor="middle" transform="translate(333.3333333333332,20)" style="font-family: Roboto; font-size: 16px; fill: #000; opacity: 1;">0.700</text><text text-anchor="middle" transform="translate(366.66666666666663,20)" style="font-family: Roboto; font-size: 16px; fill: #000; opacity: 0;">0.750</text><text text-anchor="middle" transform="translate(400,20)" style="font-family: Roboto; font-size: 16px; fill: #000; opacity: 1;">0.800</text><text text-anchor="middle" transform="translate(433.3333333333332,20)" style="font-family: Roboto; font-size: 16px; fill: #000; opacity: 0;">0.850</text><text text-anchor="middle" transform="translate(466.6666666666665,20)" style="font-family: Roboto; font-size: 16px; fill: #000; opacity: 1;">0.900</text><text text-anchor="middle" transform="translate(499.99999999999994,20)" style="font-family: Roboto; font-size: 16px; fill: #000; opacity: 0;">0.950</text><text text-anchor="middle" transform="translate(533.3333333333333,20)" style="font-family: Roboto; font-size: 16px; fill: #000; opacity: 1;">1.00</text><text text-anchor="middle" transform="translate(566.6666666666666,20)" style="font-family: Roboto; font-size: 16px; fill: #000; opacity: 0;">1.05</text><text text-anchor="end" transform="translate(600,20)" style="font-family: Roboto; font-size: 16px; fill: #000; opacity: 1;">1.10</text></g><g class="mark-rule role-axis-domain" style="pointer-events: none;"><line transform="translate(0,0)" x2="600" y2="0" style="fill: none; stroke: #888; stroke-width: 1; opacity: 1;"></line></g><g class="mark-text role-axis-title" style="pointer-events: none;"><text text-anchor="middle" transform="translate(300,43)" style="font-family: Roboto; font-size: 20px; font-weight: bold; fill: #000; opacity: 1;">Tm/T</text></g></g><path class="foreground" d="" style="pointer-events: none; display: none; fill: none;"></path></g></g><g class="mark-group role-axis"><g transform="translate(0.5,0.5)"><path class="background" d="M0,0h0v0h0Z" style="pointer-events: none; fill: none;"></path><g><g class="mark-rule role-axis-tick" style="pointer-events: none;"><line transform="translate(0,400)" x2="-5" y2="0" style="fill: none; stroke: #888; stroke-width: 1; opacity: 1;"></line><line transform="translate(0,380)" x2="-5" y2="0" style="fill: none; stroke: #888; stroke-width: 1; opacity: 1;"></line><line transform="translate(0,368)" x2="-5" y2="0" style="fill: none; stroke: #888; stroke-width: 1; opacity: 1;"></line><line transform="translate(0,360)" x2="-5" y2="0" style="fill: none; stroke: #888; stroke-width: 1; opacity: 1;"></line><line transform="translate(0,353)" x2="-5" y2="0" style="fill: none; stroke: #888; stroke-width: 1; opacity: 1;"></line><line transform="translate(0,348)" x2="-5" y2="0" style="fill: none; stroke: #888; stroke-width: 1; opacity: 1;"></line><line transform="translate(0,344)" x2="-5" y2="0" style="fill: none; stroke: #888; stroke-width: 1; opacity: 1;"></line><line transform="translate(0,340)" x2="-5" y2="0" style="fill: none; stroke: #888; stroke-width: 1; opacity: 1;"></line><line transform="translate(0,336)" x2="-5" y2="0" style="fill: none; stroke: #888; stroke-width: 1; opacity: 1;"></line><line transform="translate(0,333)" x2="-5" y2="0" style="fill: none; stroke: #888; stroke-width: 1; opacity: 1;"></line><line transform="translate(0,313)" x2="-5" y2="0" style="fill: none; stroke: #888; stroke-width: 1; opacity: 1;"></line><line transform="translate(0,302)" x2="-5" y2="0" style="fill: none; stroke: #888; stroke-width: 1; opacity: 1;"></line><line transform="translate(0,293)" x2="-5" y2="0" style="fill: none; stroke: #888; stroke-width: 1; opacity: 1;"></line><line transform="translate(0,287)" x2="-5" y2="0" style="fill: none; stroke: #888; stroke-width: 1; opacity: 1;"></line><line transform="translate(0,281)" x2="-5" y2="0" style="fill: none; stroke: #888; stroke-width: 1; opacity: 1;"></line><line transform="translate(0,277)" x2="-5" y2="0" style="fill: none; stroke: #888; stroke-width: 1; opacity: 1;"></line><line transform="translate(0,273)" x2="-5" y2="0" style="fill: none; stroke: #888; stroke-width: 1; opacity: 1;"></line><line transform="translate(0,270)" x2="-5" y2="0" style="fill: none; stroke: #888; stroke-width: 1; opacity: 1;"></line><line transform="translate(0,267)" x2="-5" y2="0" style="fill: none; stroke: #888; stroke-width: 1; opacity: 1;"></line><line transform="translate(0,247)" x2="-5" y2="0" style="fill: none; stroke: #888; stroke-width: 1; opacity: 1;"></line><line transform="translate(0,235)" x2="-5" y2="0" style="fill: none; stroke: #888; stroke-width: 1; opacity: 1;"></line><line transform="translate(0,227)" x2="-5" y2="0" style="fill: none; stroke: #888; stroke-width: 1; opacity: 1;"></line><line transform="translate(0,220)" x2="-5" y2="0" style="fill: none; stroke: #888; stroke-width: 1; opacity: 1;"></line><line transform="translate(0,215)" x2="-5" y2="0" style="fill: none; stroke: #888; stroke-width: 1; opacity: 1;"></line><line transform="translate(0,210)" x2="-5" y2="0" style="fill: none; stroke: #888; stroke-width: 1; opacity: 1;"></line><line transform="translate(0,206)" x2="-5" y2="0" style="fill: none; stroke: #888; stroke-width: 1; opacity: 1;"></line><line transform="translate(0,203)" x2="-5" y2="0" style="fill: none; stroke: #888; stroke-width: 1; opacity: 1;"></line><line transform="translate(0,200)" x2="-5" y2="0" style="fill: none; stroke: #888; stroke-width: 1; opacity: 1;"></line><line transform="translate(0,180)" x2="-5" y2="0" style="fill: none; stroke: #888; stroke-width: 1; opacity: 1;"></line><line transform="translate(0,168)" x2="-5" y2="0" style="fill: none; stroke: #888; stroke-width: 1; opacity: 1;"></line><line transform="translate(0,160)" x2="-5" y2="0" style="fill: none; stroke: #888; stroke-width: 1; opacity: 1;"></line><line transform="translate(0,153)" x2="-5" y2="0" style="fill: none; stroke: #888; stroke-width: 1; opacity: 1;"></line><line transform="translate(0,148)" x2="-5" y2="0" style="fill: none; stroke: #888; stroke-width: 1; opacity: 1;"></line><line transform="translate(0,144)" x2="-5" y2="0" style="fill: none; stroke: #888; stroke-width: 1; opacity: 1;"></line><line transform="translate(0,140)" x2="-5" y2="0" style="fill: none; stroke: #888; stroke-width: 1; opacity: 1;"></line><line transform="translate(0,136)" x2="-5" y2="0" style="fill: none; stroke: #888; stroke-width: 1; opacity: 1;"></line><line transform="translate(0,133)" x2="-5" y2="0" style="fill: none; stroke: #888; stroke-width: 1; opacity: 1;"></line><line transform="translate(0,113)" x2="-5" y2="0" style="fill: none; stroke: #888; stroke-width: 1; opacity: 1;"></line><line transform="translate(0,102)" x2="-5" y2="0" style="fill: none; stroke: #888; stroke-width: 1; opacity: 1;"></line><line transform="translate(0,93)" x2="-5" y2="0" style="fill: none; stroke: #888; stroke-width: 1; opacity: 1;"></line><line transform="translate(0,87)" x2="-5" y2="0" style="fill: none; stroke: #888; stroke-width: 1; opacity: 1;"></line><line transform="translate(0,81)" x2="-5" y2="0" style="fill: none; stroke: #888; stroke-width: 1; opacity: 1;"></line><line transform="translate(0,77)" x2="-5" y2="0" style="fill: none; stroke: #888; stroke-width: 1; opacity: 1;"></line><line transform="translate(0,73)" x2="-5" y2="0" style="fill: none; stroke: #888; stroke-width: 1; opacity: 1;"></line><line transform="translate(0,70)" x2="-5" y2="0" style="fill: none; stroke: #888; stroke-width: 1; opacity: 1;"></line><line transform="translate(0,67)" x2="-5" y2="0" style="fill: none; stroke: #888; stroke-width: 1; opacity: 1;"></line><line transform="translate(0,47)" x2="-5" y2="0" style="fill: none; stroke: #888; stroke-width: 1; opacity: 1;"></line><line transform="translate(0,35)" x2="-5" y2="0" style="fill: none; stroke: #888; stroke-width: 1; opacity: 1;"></line><line transform="translate(0,27)" x2="-5" y2="0" style="fill: none; stroke: #888; stroke-width: 1; opacity: 1;"></line><line transform="translate(0,20)" x2="-5" y2="0" style="fill: none; stroke: #888; stroke-width: 1; opacity: 1;"></line><line transform="translate(0,15)" x2="-5" y2="0" style="fill: none; stroke: #888; stroke-width: 1; opacity: 1;"></line><line transform="translate(0,10)" x2="-5" y2="0" style="fill: none; stroke: #888; stroke-width: 1; opacity: 1;"></line><line transform="translate(0,6)" x2="-5" y2="0" style="fill: none; stroke: #888; stroke-width: 1; opacity: 1;"></line><line transform="translate(0,3)" x2="-5" y2="0" style="fill: none; stroke: #888; stroke-width: 1; opacity: 1;"></line><line transform="translate(0,0)" x2="-5" y2="0" style="fill: none; stroke: #888; stroke-width: 1; opacity: 1;"></line></g><g class="mark-text role-axis-label" style="pointer-events: none;"><text text-anchor="end" transform="translate(-7,405)" style="font-family: Roboto; font-size: 16px; fill: #000; opacity: 1;">1e+0</text><text text-anchor="end" transform="translate(-7,384.9313336224012)" style="font-family: Roboto; font-size: 16px; fill: #000; opacity: 1;"></text><text text-anchor="end" transform="translate(-7,373.19191635202253)" style="font-family: Roboto; font-size: 16px; fill: #000; opacity: 1;"></text><text text-anchor="end" transform="translate(-7,364.86266724480254)" style="font-family: Roboto; font-size: 16px; fill: #000; opacity: 1;"></text><text text-anchor="end" transform="translate(-7,358.40199971093205)" style="font-family: Roboto; font-size: 16px; fill: #000; opacity: 1;"></text><text text-anchor="end" transform="translate(-7,353.12324997442374)" style="font-family: Roboto; font-size: 16px; fill: #000; opacity: 1;"></text><text text-anchor="end" transform="translate(-7,348.6601306657162)" style="font-family: Roboto; font-size: 16px; fill: #000; opacity: 1;"></text><text text-anchor="end" transform="translate(-7,344.79400086720375)" style="font-family: Roboto; font-size: 16px; fill: #000; opacity: 1;"></text><text text-anchor="end" transform="translate(-7,341.383832704045)" style="font-family: Roboto; font-size: 16px; fill: #000; opacity: 1;"></text><text text-anchor="end" transform="translate(-7,338.3333333333333)" style="font-family: Roboto; font-size: 16px; fill: #000; opacity: 1;">1e+1</text><text text-anchor="end" transform="translate(-7,318.2646669557346)" style="font-family: Roboto; font-size: 16px; fill: #000; opacity: 1;"></text><text text-anchor="end" transform="translate(-7,306.52524968535585)" style="font-family: Roboto; font-size: 16px; fill: #000; opacity: 1;"></text><text text-anchor="end" transform="translate(-7,298.19600057813585)" style="font-family: Roboto; font-size: 16px; fill: #000; opacity: 1;"></text><text text-anchor="end" transform="translate(-7,291.7353330442654)" style="font-family: Roboto; font-size: 16px; fill: #000; opacity: 1;"></text><text text-anchor="end" transform="translate(-7,286.4565833077571)" style="font-family: Roboto; font-size: 16px; fill: #000; opacity: 1;"></text><text text-anchor="end" transform="translate(-7,281.99346399904954)" style="font-family: Roboto; font-size: 16px; fill: #000; opacity: 1;"></text><text text-anchor="end" transform="translate(-7,278.1273342005371)" style="font-family: Roboto; font-size: 16px; fill: #000; opacity: 1;"></text><text text-anchor="end" transform="translate(-7,274.7171660373783)" style="font-family: Roboto; font-size: 16px; fill: #000; opacity: 1;"></text><text text-anchor="end" transform="translate(-7,271.66666666666663)" style="font-family: Roboto; font-size: 16px; fill: #000; opacity: 1;">1e+2</text><text text-anchor="end" transform="translate(-7,251.59800028906793)" style="font-family: Roboto; font-size: 16px; fill: #000; opacity: 1;"></text><text text-anchor="end" transform="translate(-7,239.85858301868916)" style="font-family: Roboto; font-size: 16px; fill: #000; opacity: 1;"></text><text text-anchor="end" transform="translate(-7,231.52933391146917)" style="font-family: Roboto; font-size: 16px; fill: #000; opacity: 1;"></text><text text-anchor="end" transform="translate(-7,225.06866637759873)" style="font-family: Roboto; font-size: 16px; fill: #000; opacity: 1;"></text><text text-anchor="end" transform="translate(-7,219.78991664109043)" style="font-family: Roboto; font-size: 16px; fill: #000; opacity: 1;"></text><text text-anchor="end" transform="translate(-7,215.32679733238288)" style="font-family: Roboto; font-size: 16px; fill: #000; opacity: 1;"></text><text text-anchor="end" transform="translate(-7,211.46066753387043)" style="font-family: Roboto; font-size: 16px; fill: #000; opacity: 1;"></text><text text-anchor="end" transform="translate(-7,208.05049937071166)" style="font-family: Roboto; font-size: 16px; fill: #000; opacity: 1;"></text><text text-anchor="end" transform="translate(-7,205)" style="font-family: Roboto; font-size: 16px; fill: #000; opacity: 1;">1e+3</text><text text-anchor="end" transform="translate(-7,184.93133362240124)" style="font-family: Roboto; font-size: 16px; fill: #000; opacity: 1;"></text><text text-anchor="end" transform="translate(-7,173.1919163520225)" style="font-family: Roboto; font-size: 16px; fill: #000; opacity: 1;"></text><text text-anchor="end" transform="translate(-7,164.8626672448025)" style="font-family: Roboto; font-size: 16px; fill: #000; opacity: 1;"></text><text text-anchor="end" transform="translate(-7,158.40199971093207)" style="font-family: Roboto; font-size: 16px; fill: #000; opacity: 1;"></text><text text-anchor="end" transform="translate(-7,153.1232499744238)" style="font-family: Roboto; font-size: 16px; fill: #000; opacity: 1;"></text><text text-anchor="end" transform="translate(-7,148.6601306657162)" style="font-family: Roboto; font-size: 16px; fill: #000; opacity: 1;"></text><text text-anchor="end" transform="translate(-7,144.79400086720375)" style="font-family: Roboto; font-size: 16px; fill: #000; opacity: 1;"></text><text text-anchor="end" transform="translate(-7,141.38383270404498)" style="font-family: Roboto; font-size: 16px; fill: #000; opacity: 1;"></text><text text-anchor="end" transform="translate(-7,138.33333333333331)" style="font-family: Roboto; font-size: 16px; fill: #000; opacity: 1;">1e+4</text><text text-anchor="end" transform="translate(-7,118.26466695573458)" style="font-family: Roboto; font-size: 16px; fill: #000; opacity: 1;"></text><text text-anchor="end" transform="translate(-7,106.52524968535582)" style="font-family: Roboto; font-size: 16px; fill: #000; opacity: 1;"></text><text text-anchor="end" transform="translate(-7,98.19600057813587)" style="font-family: Roboto; font-size: 16px; fill: #000; opacity: 1;"></text><text text-anchor="end" transform="translate(-7,91.73533304426542)" style="font-family: Roboto; font-size: 16px; fill: #000; opacity: 1;"></text><text text-anchor="end" transform="translate(-7,86.45658330775709)" style="font-family: Roboto; font-size: 16px; fill: #000; opacity: 1;"></text><text text-anchor="end" transform="translate(-7,81.99346399904954)" style="font-family: Roboto; font-size: 16px; fill: #000; opacity: 1;"></text><text text-anchor="end" transform="translate(-7,78.12733420053709)" style="font-family: Roboto; font-size: 16px; fill: #000; opacity: 1;"></text><text text-anchor="end" transform="translate(-7,74.71716603737832)" style="font-family: Roboto; font-size: 16px; fill: #000; opacity: 1;"></text><text text-anchor="end" transform="translate(-7,71.66666666666666)" style="font-family: Roboto; font-size: 16px; fill: #000; opacity: 1;">1e+5</text><text text-anchor="end" transform="translate(-7,51.59800028906788)" style="font-family: Roboto; font-size: 16px; fill: #000; opacity: 1;"></text><text text-anchor="end" transform="translate(-7,39.85858301868916)" style="font-family: Roboto; font-size: 16px; fill: #000; opacity: 1;"></text><text text-anchor="end" transform="translate(-7,31.529333911469166)" style="font-family: Roboto; font-size: 16px; fill: #000; opacity: 1;"></text><text text-anchor="end" transform="translate(-7,25.068666377598767)" style="font-family: Roboto; font-size: 16px; fill: #000; opacity: 1;"></text><text text-anchor="end" transform="translate(-7,19.78991664109044)" style="font-family: Roboto; font-size: 16px; fill: #000; opacity: 1;"></text><text text-anchor="end" transform="translate(-7,15.326797332382842)" style="font-family: Roboto; font-size: 16px; fill: #000; opacity: 1;"></text><text text-anchor="end" transform="translate(-7,11.460667533870401)" style="font-family: Roboto; font-size: 16px; fill: #000; opacity: 1;"></text><text text-anchor="end" transform="translate(-7,8.050499370711623)" style="font-family: Roboto; font-size: 16px; fill: #000; opacity: 1;"></text><text text-anchor="end" transform="translate(-7,5)" style="font-family: Roboto; font-size: 16px; fill: #000; opacity: 1;">1e+6</text></g><g class="mark-rule role-axis-domain" style="pointer-events: none;"><line transform="translate(0,400)" x2="0" y2="-400" style="fill: none; stroke: #888; stroke-width: 1; opacity: 1;"></line></g><g class="mark-text role-axis-title" style="pointer-events: none;"><text text-anchor="middle" transform="translate(-46.56666564941406,200) rotate(-90) translate(0,-4)" style="font-family: Roboto; font-size: 20px; font-weight: bold; fill: #000; opacity: 1;">1/D_r</text></g></g><path class="foreground" d="" style="pointer-events: none; display: none; fill: none;"></path></g></g></g><path class="foreground" d="" style="display: none; fill: none;"></path></g></g></g></svg>