<svg class="marks" width="776" height="465" viewBox="0 0 776 465" version="1.1" xmlns="http://www.w3.org/2000/svg" xmlns:xlink="http://www.w3.org/1999/xlink"><rect width="776" height="465" style="fill: white;"></rect><g transform="translate(72,13)"><g class="mark-group role-frame root"><g transform="translate(0,0)"><path class="background" d="M0.5,0.5h600v400h-600Z" style="fill: none; stroke: #ddd;"></path><g><g class="mark-line role-mark layer_0_marks"><path d="M0,388.47784515841926L11.972789115646252,385.75986547385924L23.945578231292526,382.97195633291483L35.918367346938794,380.11138379879304L47.89115646258505,377.1752695396198L59.863945578231295,374.1605811679548L71.83673469387755,371.0641217942073L83.8095238095238,367.88251871829993L95.78231292517005,364.6122111754874L107.7551020408163,361.24943704273085L119.72789115646259,357.7902184012859L131.70068027210885,354.23034583902205L143.6734693877551,350.5653613622315L155.64625850340144,346.7905397710736L167.61904761904765,342.90086833504927L179.5918367346939,338.8910245846828L191.56462585034012,334.7553520125133L203.5374149659864,330.4878334501164L215.51020408163265,326.082061857645L227.4829931972789,321.53120822766857L239.45578231292515,316.82798626515336L251.4285714285714,311.9646134593632L263.40136054421765,306.9327681102263L275.3741496598639,301.7235418100231L287.3469387755102,296.32738680961194L299.3197278911565,290.7340576149777L311.2925170068027,284.93254606249405L323.265306122449,278.9110090072667L335.23809523809535,272.6566876250696L347.2108843537416,266.15581717078385L359.1836734693879,259.3935258501287L371.15646258503415,252.35372124097984L383.1292517006804,245.01896243850618L395.1020408163266,237.37031578582562L407.0748299319729,229.3871916778446L419.04761904761915,221.04715947666196L431.02040816326536,212.3257370351803L442.9931972789116,203.19615066973392L454.96598639455783,193.62906062528532L466.9387755102041,183.5922461033364L478.91156462585036,173.0502427288166L490.8843537414966,161.9639238609309L502.8571428571429,150.29001533075973L514.8299319727892,137.98053091978048L526.8027210884354,124.98211305349338L538.7755102040815,111.23525960849108L550.7482993197278,96.67341320148522L562.7210884353741,81.22188355356185L574.6938775510204,64.79656610984499L586.6666666666666,47.30241051089972" style="fill: none; stroke: black; stroke-width: 2;"></path></g><g class="mark-symbol role-mark layer_1_marks"><path transform="translate(552.3809523809524,100.03094147728673)" d="M2.7386127875258306,0A2.7386127875258306,2.7386127875258306,0,1,1,-2.7386127875258306,0A2.7386127875258306,2.7386127875258306,0,1,1,2.7386127875258306,0" style="fill: none; stroke: #4c78a8; stroke-width: 2; opacity: 0.7;"></path><path transform="translate(466.6666666666665,185.0760523112913)" d="M2.7386127875258306,0A2.7386127875258306,2.7386127875258306,0,1,1,-2.7386127875258306,0A2.7386127875258306,2.7386127875258306,0,1,1,2.7386127875258306,0" style="fill: none; stroke: #4c78a8; stroke-width: 2; opacity: 0.7;"></path><path transform="translate(400,238.08871795652075)" d="M2.7386127875258306,0A2.7386127875258306,2.7386127875258306,0,1,1,-2.7386127875258306,0A2.7386127875258306,2.7386127875258306,0,1,1,2.7386127875258306,0" style="fill: none; stroke: #4c78a8; stroke-width: 2; opacity: 0.7;"></path><path transform="translate(346.66666666666663,268.78960419000197)" d="M2.7386127875258306,0A2.7386127875258306,2.7386127875258306,0,1,1,-2.7386127875258306,0A2.7386127875258306,2.7386127875258306,0,1,1,2.7386127875258306,0" style="fill: none; stroke: #4c78a8; stroke-width: 2; opacity: 0.7;"></path><path transform="translate(266.66666666666663,305.17709524299977)" d="M2.7386127875258306,0A2.7386127875258306,2.7386127875258306,0,1,1,-2.7386127875258306,0A2.7386127875258306,2.7386127875258306,0,1,1,2.7386127875258306,0" style="fill: none; stroke: #4c78a8; stroke-width: 2; opacity: 0.7;"></path><path transform="translate(166.66666666666663,339.4164653876977)" d="M2.7386127875258306,0A2.7386127875258306,2.7386127875258306,0,1,1,-2.7386127875258306,0A2.7386127875258306,2.7386127875258306,0,1,1,2.7386127875258306,0" style="fill: none; stroke: #4c78a8; stroke-width: 2; opacity: 0.7;"></path><path transform="translate(106.66666666666664,358.81424035357344)" d="M2.7386127875258306,0A2.7386127875258306,2.7386127875258306,0,1,1,-2.7386127875258306,0A2.7386127875258306,2.7386127875258306,0,1,1,2.7386127875258306,0" style="fill: none; stroke: #4c78a8; stroke-width: 2; opacity: 0.7;"></path><path transform="translate(586.6666666666666,49.897760807621424)" d="M2.7386127875258306,0A2.7386127875258306,2.7386127875258306,0,1,1,-2.7386127875258306,0A2.7386127875258306,2.7386127875258306,0,1,1,2.7386127875258306,0" style="fill: none; stroke: #f58518; stroke-width: 2; opacity: 0.7;"></path><path transform="translate(558.9743589743589,82.87115763688293)" d="M2.7386127875258306,0A2.7386127875258306,2.7386127875258306,0,1,1,-2.7386127875258306,0A2.7386127875258306,2.7386127875258306,0,1,1,2.7386127875258306,0" style="fill: none; stroke: #f58518; stroke-width: 2; opacity: 0.7;"></path><path transform="translate(533.3333333333333,108.95000132634074)" d="M2.7386127875258306,0A2.7386127875258306,2.7386127875258306,0,1,1,-2.7386127875258306,0A2.7386127875258306,2.7386127875258306,0,1,1,2.7386127875258306,0" style="fill: none; stroke: #f58518; stroke-width: 2; opacity: 0.7;"></path><path transform="translate(38.0952380952381,381.11325141976334)" d="M2.7386127875258306,0A2.7386127875258306,2.7386127875258306,0,1,1,-2.7386127875258306,0A2.7386127875258306,2.7386127875258306,0,1,1,2.7386127875258306,0" style="fill: none; stroke: #4c78a8; stroke-width: 2; opacity: 0.7;"></path><path transform="translate(509.5238095238096,133.65036049031943)" d="M2.7386127875258306,0A2.7386127875258306,2.7386127875258306,0,1,1,-2.7386127875258306,0A2.7386127875258306,2.7386127875258306,0,1,1,2.7386127875258306,0" style="fill: none; stroke: #f58518; stroke-width: 2; opacity: 0.7;"></path><path transform="translate(487.35632183908046,156.0360127603983)" d="M2.7386127875258306,0A2.7386127875258306,2.7386127875258306,0,1,1,-2.7386127875258306,0A2.7386127875258306,2.7386127875258306,0,1,1,2.7386127875258306,0" style="fill: none; stroke: #f58518; stroke-width: 2; opacity: 0.7;"></path><path transform="translate(466.66666666666674,175.80624109979098)" d="M2.7386127875258306,0A2.7386127875258306,2.7386127875258306,0,1,1,-2.7386127875258306,0A2.7386127875258306,2.7386127875258306,0,1,1,2.7386127875258306,0" style="fill: none; stroke: #f58518; stroke-width: 2; opacity: 0.7;"></path><path transform="translate(429.16666666666663,205.78107321597207)" d="M2.7386127875258306,0A2.7386127875258306,2.7386127875258306,0,1,1,-2.7386127875258306,0A2.7386127875258306,2.7386127875258306,0,1,1,2.7386127875258306,0" style="fill: none; stroke: #f58518; stroke-width: 2; opacity: 0.7;"></path><path transform="translate(0,393.771887655851)" d="M2.7386127875258306,0A2.7386127875258306,2.7386127875258306,0,1,1,-2.7386127875258306,0A2.7386127875258306,2.7386127875258306,0,1,1,2.7386127875258306,0" style="fill: none; stroke: #4c78a8; stroke-width: 2; opacity: 0.7;"></path><path transform="translate(366.66666666666663,252.4321495335797)" d="M2.7386127875258306,0A2.7386127875258306,2.7386127875258306,0,1,1,-2.7386127875258306,0A2.7386127875258306,2.7386127875258306,0,1,1,2.7386127875258306,0" style="fill: none; stroke: #f58518; stroke-width: 2; opacity: 0.7;"></path><path transform="translate(316.6666666666667,279.139109557143)" d="M2.7386127875258306,0A2.7386127875258306,2.7386127875258306,0,1,1,-2.7386127875258306,0A2.7386127875258306,2.7386127875258306,0,1,1,2.7386127875258306,0" style="fill: none; stroke: #f58518; stroke-width: 2; opacity: 0.7;"></path><path transform="translate(226.66666666666666,319.90685837863657)" d="M2.7386127875258306,0A2.7386127875258306,2.7386127875258306,0,1,1,-2.7386127875258306,0A2.7386127875258306,2.7386127875258306,0,1,1,2.7386127875258306,0" style="fill: none; stroke: #f58518; stroke-width: 2; opacity: 0.7;"></path></g><g class="mark-rule role-mark layer_2_layer_0_marks"><line transform="translate(552.3809523809524,100.48697212975762)" x2="0" y2="-0.9049897230920294" style="fill: none; stroke: #4c78a8;"></line><line transform="translate(466.6666666666665,185.436826345382)" x2="0" y2="-0.7171078449669324" style="fill: none; stroke: #4c78a8;"></line><line transform="translate(400,238.3459705907784)" x2="0" y2="-0.5122396453908777" style="fill: none; stroke: #4c78a8;"></line><line transform="translate(346.66666666666663,268.99964890748566)" x2="0" y2="-0.4185765947702862" style="fill: none; stroke: #4c78a8;"></line><line transform="translate(266.66666666666663,305.392690102821)" x2="0" y2="-0.4295961766397909" style="fill: none; stroke: #4c78a8;"></line><line transform="translate(166.66666666666663,339.60035076212046)" x2="0" y2="-0.36661022729992965" style="fill: none; stroke: #4c78a8;"></line><line transform="translate(106.66666666666664,359.34257821031923)" x2="0" y2="-1.0472070560569477" style="fill: none; stroke: #4c78a8;"></line><line transform="translate(586.6666666666666,50.43258005049913)" x2="0" y2="-1.059938216089499" style="fill: none; stroke: #f58518;"></line><line transform="translate(558.9743589743589,83.34834289800494)" x2="0" y2="-0.9466331931264449" style="fill: none; stroke: #f58518;"></line><line transform="translate(533.3333333333333,109.46541679034634)" x2="0" y2="-1.021815845927776" style="fill: none; stroke: #f58518;"></line><line transform="translate(38.0952380952381,381.4800474089362)" x2="0" y2="-0.7290032284477661" style="fill: none; stroke: #4c78a8;"></line><line transform="translate(509.5238095238096,134.08381189303475)" x2="0" y2="-0.8605092554531666" style="fill: none; stroke: #f58518;"></line><line transform="translate(487.35632183908046,156.50319181126298)" x2="0" y2="-0.9269393464671793" style="fill: none; stroke: #f58518;"></line><line transform="translate(466.66666666666674,176.4654738074117)" x2="0" y2="-1.3037888380661116" style="fill: none; stroke: #f58518;"></line><line transform="translate(429.16666666666663,206.33367995406974)" x2="0" y2="-1.094863460563829" style="fill: none; stroke: #f58518;"></line><line transform="translate(0,394.203623942719)" x2="0" y2="-0.8571291513607662" style="fill: none; stroke: #4c78a8;"></line><line transform="translate(366.66666666666663,253.91000662621934)" x2="0" y2="-2.883928716122682" style="fill: none; stroke: #f58518;"></line><line transform="translate(316.6666666666667,279.92455191402223)" x2="0" y2="-1.550138627988872" style="fill: none; stroke: #f58518;"></line><line transform="translate(226.66666666666666,320.6717230056486)" x2="0" y2="-1.5100424131392174" style="fill: none; stroke: #f58518;"></line></g><g class="mark-group role-legend"><g transform="translate(618,0)"><path class="background" d="M0,0h81v59h-81Z" style="pointer-events: none; fill: none;"></path><g><g class="mark-group role-legend-entry"><g transform="translate(0,25)"><path class="background" d="M0,0h0v0h0Z" style="pointer-events: none; fill: none;"></path><g><g class="mark-group role-scope"><g transform="translate(0,0)"><path class="background" d="M0,0h51.21666717529297v16h-51.21666717529297Z" style="pointer-events: none; fill: none; opacity: 1;"></path><g><g class="mark-symbol role-legend-symbol" style="pointer-events: none;"><path transform="translate(8,8)" d="M5,0A5,5,0,1,1,-5,0A5,5,0,1,1,5,0" style="fill: none; stroke: #4c78a8; stroke-width: 1.5; opacity: 0.7;"></path></g><g class="mark-text role-legend-label" style="pointer-events: none;"><text text-anchor="start" transform="translate(20,13)" style="font-family: Roboto; font-size: 16px; fill: #000; opacity: 1;">1</text></g></g><path class="foreground" d="" style="pointer-events: none; display: none; fill: none;"></path></g><g transform="translate(0,18)"><path class="background" d="M0,0h51.21666717529297v16h-51.21666717529297Z" style="pointer-events: none; fill: none; opacity: 1;"></path><g><g class="mark-symbol role-legend-symbol" style="pointer-events: none;"><path transform="translate(8,8)" d="M5,0A5,5,0,1,1,-5,0A5,5,0,1,1,5,0" style="fill: none; stroke: #f58518; stroke-width: 1.5; opacity: 0.7;"></path></g><g class="mark-text role-legend-label" style="pointer-events: none;"><text text-anchor="start" transform="translate(20,13)" style="font-family: Roboto; font-size: 16px; fill: #000; opacity: 1;">13.5</text></g></g><path class="foreground" d="" style="pointer-events: none; display: none; fill: none;"></path></g></g></g><path class="foreground" d="" style="pointer-events: none; display: none; fill: none;"></path></g></g><g class="mark-text role-legend-title" style="pointer-events: none;"><text text-anchor="start" transform="translate(0,16)" style="font-family: Roboto; font-size: 20px; font-weight: bold; fill: #000; opacity: 1;">Pressure</text></g></g><path class="foreground" d="" style="pointer-events: none; display: none; fill: none;"></path></g></g><g class="mark-group role-axis"><g transform="translate(0.5,400.5)"><path class="background" d="M0,0h0v0h0Z" style="pointer-events: none; fill: none;"></path><g><g class="mark-rule role-axis-tick" style="pointer-events: none;"><line transform="translate(0,0)" x2="0" y2="5" style="fill: none; stroke: #888; stroke-width: 1; opacity: 1;"></line><line transform="translate(33,0)" x2="0" y2="5" style="fill: none; stroke: #888; stroke-width: 1; opacity: 1;"></line><line transform="translate(67,0)" x2="0" y2="5" style="fill: none; stroke: #888; stroke-width: 1; opacity: 1;"></line><line transform="translate(100,0)" x2="0" y2="5" style="fill: none; stroke: #888; stroke-width: 1; opacity: 1;"></line><line transform="translate(133,0)" x2="0" y2="5" style="fill: none; stroke: #888; stroke-width: 1; opacity: 1;"></line><line transform="translate(167,0)" x2="0" y2="5" style="fill: none; stroke: #888; stroke-width: 1; opacity: 1;"></line><line transform="translate(200,0)" x2="0" y2="5" style="fill: none; stroke: #888; stroke-width: 1; opacity: 1;"></line><line transform="translate(233,0)" x2="0" y2="5" style="fill: none; stroke: #888; stroke-width: 1; opacity: 1;"></line><line transform="translate(267,0)" x2="0" y2="5" style="fill: none; stroke: #888; stroke-width: 1; opacity: 1;"></line><line transform="translate(300,0)" x2="0" y2="5" style="fill: none; stroke: #888; stroke-width: 1; opacity: 1;"></line><line transform="translate(333,0)" x2="0" y2="5" style="fill: none; stroke: #888; stroke-width: 1; opacity: 1;"></line><line transform="translate(367,0)" x2="0" y2="5" style="fill: none; stroke: #888; stroke-width: 1; opacity: 1;"></line><line transform="translate(400,0)" x2="0" y2="5" style="fill: none; stroke: #888; stroke-width: 1; opacity: 1;"></line><line transform="translate(433,0)" x2="0" y2="5" style="fill: none; stroke: #888; stroke-width: 1; opacity: 1;"></line><line transform="translate(467,0)" x2="0" y2="5" style="fill: none; stroke: #888; stroke-width: 1; opacity: 1;"></line><line transform="translate(500,0)" x2="0" y2="5" style="fill: none; stroke: #888; stroke-width: 1; opacity: 1;"></line><line transform="translate(533,0)" x2="0" y2="5" style="fill: none; stroke: #888; stroke-width: 1; opacity: 1;"></line><line transform="translate(567,0)" x2="0" y2="5" style="fill: none; stroke: #888; stroke-width: 1; opacity: 1;"></line><line transform="translate(600,0)" x2="0" y2="5" style="fill: none; stroke: #888; stroke-width: 1; opacity: 1;"></line></g><g class="mark-text role-axis-label" style="pointer-events: none;"><text text-anchor="start" transform="translate(0,20)" style="font-family: Roboto; font-size: 16px; fill: #000; opacity: 1;">0.200</text><text text-anchor="middle" transform="translate(33.33333333333332,20)" style="font-family: Roboto; font-size: 16px; fill: #000; opacity: 0;">0.250</text><text text-anchor="middle" transform="translate(66.66666666666664,20)" style="font-family: Roboto; font-size: 16px; fill: #000; opacity: 1;">0.300</text><text text-anchor="middle" transform="translate(99.99999999999996,20)" style="font-family: Roboto; font-size: 16px; fill: #000; opacity: 0;">0.350</text><text text-anchor="middle" transform="translate(133.33333333333331,20)" style="font-family: Roboto; font-size: 16px; fill: #000; opacity: 1;">0.400</text><text text-anchor="middle" transform="translate(166.66666666666663,20)" style="font-family: Roboto; font-size: 16px; fill: #000; opacity: 0;">0.450</text><text text-anchor="middle" transform="translate(199.99999999999994,20)" style="font-family: Roboto; font-size: 16px; fill: #000; opacity: 1;">0.500</text><text text-anchor="middle" transform="translate(233.33333333333334,20)" style="font-family: Roboto; font-size: 16px; fill: #000; opacity: 0;">0.550</text><text text-anchor="middle" transform="translate(266.66666666666663,20)" style="font-family: Roboto; font-size: 16px; fill: #000; opacity: 1;">0.600</text><text text-anchor="middle" transform="translate(299.99999999999994,20)" style="font-family: Roboto; font-size: 16px; fill: #000; opacity: 0;">0.650</text><text text-anchor="middle" transform="translate(333.3333333333332,20)" style="font-family: Roboto; font-size: 16px; fill: #000; opacity: 1;">0.700</text><text text-anchor="middle" transform="translate(366.66666666666663,20)" style="font-family: Roboto; font-size: 16px; fill: #000; opacity: 0;">0.750</text><text text-anchor="middle" transform="translate(400,20)" style="font-family: Roboto; font-size: 16px; fill: #000; opacity: 1;">0.800</text><text text-anchor="middle" transform="translate(433.3333333333332,20)" style="font-family: Roboto; font-size: 16px; fill: #000; opacity: 0;">0.850</text><text text-anchor="middle" transform="translate(466.6666666666665,20)" style="font-family: Roboto; font-size: 16px; fill: #000; opacity: 1;">0.900</text><text text-anchor="middle" transform="translate(499.99999999999994,20)" style="font-family: Roboto; font-size: 16px; fill: #000; opacity: 0;">0.950</text><text text-anchor="middle" transform="translate(533.3333333333333,20)" style="font-family: Roboto; font-size: 16px; fill: #000; opacity: 1;">1.00</text><text text-anchor="middle" transform="translate(566.6666666666666,20)" style="font-family: Roboto; font-size: 16px; fill: #000; opacity: 0;">1.05</text><text text-anchor="end" transform="translate(600,20)" style="font-family: Roboto; font-size: 16px; fill: #000; opacity: 1;">1.10</text></g><g class="mark-rule role-axis-domain" style="pointer-events: none;"><line transform="translate(0,0)" x2="600" y2="0" style="fill: none; stroke: #888; stroke-width: 1; opacity: 1;"></line></g><g class="mark-text role-axis-title" style="pointer-events: none;"><text text-anchor="middle" transform="translate(300,43)" style="font-family: Roboto; font-size: 20px; font-weight: bold; fill: #000; opacity: 1;">Tm/T</text></g></g><path class="foreground" d="" style="pointer-events: none; display: none; fill: none;"></path></g></g><g class="mark-group role-axis"><g transform="translate(0.5,0.5)"><path class="background" d="M0,0h0v0h0Z" style="pointer-events: none; fill: none;"></path><g><g class="mark-rule role-axis-tick" style="pointer-events: none;"><line transform="translate(0,400)" x2="-5" y2="0" style="fill: none; stroke: #888; stroke-width: 1; opacity: 1;"></line><line transform="translate(0,380)" x2="-5" y2="0" style="fill: none; stroke: #888; stroke-width: 1; opacity: 1;"></line><line transform="translate(0,368)" x2="-5" y2="0" style="fill: none; stroke: #888; stroke-width: 1; opacity: 1;"></line><line transform="translate(0,360)" x2="-5" y2="0" style="fill: none; stroke: #888; stroke-width: 1; opacity: 1;"></line><line transform="translate(0,353)" x2="-5" y2="0" style="fill: none; stroke: #888; stroke-width: 1; opacity: 1;"></line><line transform="translate(0,348)" x2="-5" y2="0" style="fill: none; stroke: #888; stroke-width: 1; opacity: 1;"></line><line transform="translate(0,344)" x2="-5" y2="0" style="fill: none; stroke: #888; stroke-width: 1; opacity: 1;"></line><line transform="translate(0,340)" x2="-5" y2="0" style="fill: none; stroke: #888; stroke-width: 1; opacity: 1;"></line><line transform="translate(0,336)" x2="-5" y2="0" style="fill: none; stroke: #888; stroke-width: 1; opacity: 1;"></line><line transform="translate(0,333)" x2="-5" y2="0" style="fill: none; stroke: #888; stroke-width: 1; opacity: 1;"></line><line transform="translate(0,313)" x2="-5" y2="0" style="fill: none; stroke: #888; stroke-width: 1; opacity: 1;"></line><line transform="translate(0,302)" x2="-5" y2="0" style="fill: none; stroke: #888; stroke-width: 1; opacity: 1;"></line><line transform="translate(0,293)" x2="-5" y2="0" style="fill: none; stroke: #888; stroke-width: 1; opacity: 1;"></line><line transform="translate(0,287)" x2="-5" y2="0" style="fill: none; stroke: #888; stroke-width: 1; opacity: 1;"></line><line transform="translate(0,281)" x2="-5" y2="0" style="fill: none; stroke: #888; stroke-width: 1; opacity: 1;"></line><line transform="translate(0,277)" x2="-5" y2="0" style="fill: none; stroke: #888; stroke-width: 1; opacity: 1;"></line><line transform="translate(0,273)" x2="-5" y2="0" style="fill: none; stroke: #888; stroke-width: 1; opacity: 1;"></line><line transform="translate(0,270)" x2="-5" y2="0" style="fill: none; stroke: #888; stroke-width: 1; opacity: 1;"></line><line transform="translate(0,267)" x2="-5" y2="0" style="fill: none; stroke: #888; stroke-width: 1; opacity: 1;"></line><line transform="translate(0,247)" x2="-5" y2="0" style="fill: none; stroke: #888; stroke-width: 1; opacity: 1;"></line><line transform="translate(0,235)" x2="-5" y2="0" style="fill: none; stroke: #888; stroke-width: 1; opacity: 1;"></line><line transform="translate(0,227)" x2="-5" y2="0" style="fill: none; stroke: #888; stroke-width: 1; opacity: 1;"></line><line transform="translate(0,220)" x2="-5" y2="0" style="fill: none; stroke: #888; stroke-width: 1; opacity: 1;"></line><line transform="translate(0,215)" x2="-5" y2="0" style="fill: none; stroke: #888; stroke-width: 1; opacity: 1;"></line><line transform="translate(0,210)" x2="-5" y2="0" style="fill: none; stroke: #888; stroke-width: 1; opacity: 1;"></line><line transform="translate(0,206)" x2="-5" y2="0" style="fill: none; stroke: #888; stroke-width: 1; opacity: 1;"></line><line transform="translate(0,203)" x2="-5" y2="0" style="fill: none; stroke: #888; stroke-width: 1; opacity: 1;"></line><line transform="translate(0,200)" x2="-5" y2="0" style="fill: none; stroke: #888; stroke-width: 1; opacity: 1;"></line><line transform="translate(0,180)" x2="-5" y2="0" style="fill: none; stroke: #888; stroke-width: 1; opacity: 1;"></line><line transform="translate(0,168)" x2="-5" y2="0" style="fill: none; stroke: #888; stroke-width: 1; opacity: 1;"></line><line transform="translate(0,160)" x2="-5" y2="0" style="fill: none; stroke: #888; stroke-width: 1; opacity: 1;"></line><line transform="translate(0,153)" x2="-5" y2="0" style="fill: none; stroke: #888; stroke-width: 1; opacity: 1;"></line><line transform="translate(0,148)" x2="-5" y2="0" style="fill: none; stroke: #888; stroke-width: 1; opacity: 1;"></line><line transform="translate(0,144)" x2="-5" y2="0" style="fill: none; stroke: #888; stroke-width: 1; opacity: 1;"></line><line transform="translate(0,140)" x2="-5" y2="0" style="fill: none; stroke: #888; stroke-width: 1; opacity: 1;"></line><line transform="translate(0,136)" x2="-5" y2="0" style="fill: none; stroke: #888; stroke-width: 1; opacity: 1;"></line><line transform="translate(0,133)" x2="-5" y2="0" style="fill: none; stroke: #888; stroke-width: 1; opacity: 1;"></line><line transform="translate(0,113)" x2="-5" y2="0" style="fill: none; stroke: #888; stroke-width: 1; opacity: 1;"></line><line transform="translate(0,102)" x2="-5" y2="0" style="fill: none; stroke: #888; stroke-width: 1; opacity: 1;"></line><line transform="translate(0,93)" x2="-5" y2="0" style="fill: none; stroke: #888; stroke-width: 1; opacity: 1;"></line><line transform="translate(0,87)" x2="-5" y2="0" style="fill: none; stroke: #888; stroke-width: 1; opacity: 1;"></line><line transform="translate(0,81)" x2="-5" y2="0" style="fill: none; stroke: #888; stroke-width: 1; opacity: 1;"></line><line transform="translate(0,77)" x2="-5" y2="0" style="fill: none; stroke: #888; stroke-width: 1; opacity: 1;"></line><line transform="translate(0,73)" x2="-5" y2="0" style="fill: none; stroke: #888; stroke-width: 1; opacity: 1;"></line><line transform="translate(0,70)" x2="-5" y2="0" style="fill: none; stroke: #888; stroke-width: 1; opacity: 1;"></line><line transform="translate(0,67)" x2="-5" y2="0" style="fill: none; stroke: #888; stroke-width: 1; opacity: 1;"></line><line transform="translate(0,47)" x2="-5" y2="0" style="fill: none; stroke: #888; stroke-width: 1; opacity: 1;"></line><line transform="translate(0,35)" x2="-5" y2="0" style="fill: none; stroke: #888; stroke-width: 1; opacity: 1;"></line><line transform="translate(0,27)" x2="-5" y2="0" style="fill: none; stroke: #888; stroke-width: 1; opacity: 1;"></line><line transform="translate(0,20)" x2="-5" y2="0" style="fill: none; stroke: #888; stroke-width: 1; opacity: 1;"></line><line transform="translate(0,15)" x2="-5" y2="0" style="fill: none; stroke: #888; stroke-width: 1; opacity: 1;"></line><line transform="translate(0,10)" x2="-5" y2="0" style="fill: none; stroke: #888; stroke-width: 1; opacity: 1;"></line><line transform="translate(0,6)" x2="-5" y2="0" style="fill: none; stroke: #888; stroke-width: 1; opacity: 1;"></line><line transform="translate(0,3)" x2="-5" y2="0" style="fill: none; stroke: #888; stroke-width: 1; opacity: 1;"></line><line transform="translate(0,0)" x2="-5" y2="0" style="fill: none; stroke: #888; stroke-width: 1; opacity: 1;"></line></g><g class="mark-text role-axis-label" style="pointer-events: none;"><text text-anchor="end" transform="translate(-7,405)" style="font-family: Roboto; font-size: 16px; fill: #000; opacity: 1;">1e+0</text><text text-anchor="end" transform="translate(-7,384.9313336224012)" style="font-family: Roboto; font-size: 16px; fill: #000; opacity: 1;"></text><text text-anchor="end" transform="translate(-7,373.19191635202253)" style="font-family: Roboto; font-size: 16px; fill: #000; opacity: 1;"></text><text text-anchor="end" transform="translate(-7,364.86266724480254)" style="font-family: Roboto; font-size: 16px; fill: #000; opacity: 1;"></text><text text-anchor="end" transform="translate(-7,358.40199971093205)" style="font-family: Roboto; font-size: 16px; fill: #000; opacity: 1;"></text><text text-anchor="end" transform="translate(-7,353.12324997442374)" style="font-family: Roboto; font-size: 16px; fill: #000; opacity: 1;"></text><text text-anchor="end" transform="translate(-7,348.6601306657162)" style="font-family: Roboto; font-size: 16px; fill: #000; opacity: 1;"></text><text text-anchor="end" transform="translate(-7,344.79400086720375)" style="font-family: Roboto; font-size: 16px; fill: #000; opacity: 1;"></text><text text-anchor="end" transform="translate(-7,341.383832704045)" style="font-family: Roboto; font-size: 16px; fill: #000; opacity: 1;"></text><text text-anchor="end" transform="translate(-7,338.3333333333333)" style="font-family: Roboto; font-size: 16px; fill: #000; opacity: 1;">1e+1</text><text text-anchor="end" transform="translate(-7,318.2646669557346)" style="font-family: Roboto; font-size: 16px; fill: #000; opacity: 1;"></text><text text-anchor="end" transform="translate(-7,306.52524968535585)" style="font-family: Roboto; font-size: 16px; fill: #000; opacity: 1;"></text><text text-anchor="end" transform="translate(-7,298.19600057813585)" style="font-family: Roboto; font-size: 16px; fill: #000; opacity: 1;"></text><text text-anchor="end" transform="translate(-7,291.7353330442654)" style="font-family: Roboto; font-size: 16px; fill: #000; opacity: 1;"></text><text text-anchor="end" transform="translate(-7,286.4565833077571)" style="font-family: Roboto; font-size: 16px; fill: #000; opacity: 1;"></text><text text-anchor="end" transform="translate(-7,281.99346399904954)" style="font-family: Roboto; font-size: 16px; fill: #000; opacity: 1;"></text><text text-anchor="end" transform="translate(-7,278.1273342005371)" style="font-family: Roboto; font-size: 16px; fill: #000; opacity: 1;"></text><text text-anchor="end" transform="translate(-7,274.7171660373783)" style="font-family: Roboto; font-size: 16px; fill: #000; opacity: 1;"></text><text text-anchor="end" transform="translate(-7,271.66666666666663)" style="font-family: Roboto; font-size: 16px; fill: #000; opacity: 1;">1e+2</text><text text-anchor="end" transform="translate(-7,251.59800028906793)" style="font-family: Roboto; font-size: 16px; fill: #000; opacity: 1;"></text><text text-anchor="end" transform="translate(-7,239.85858301868916)" style="font-family: Roboto; font-size: 16px; fill: #000; opacity: 1;"></text><text text-anchor="end" transform="translate(-7,231.52933391146917)" style="font-family: Roboto; font-size: 16px; fill: #000; opacity: 1;"></text><text text-anchor="end" transform="translate(-7,225.06866637759873)" style="font-family: Roboto; font-size: 16px; fill: #000; opacity: 1;"></text><text text-anchor="end" transform="translate(-7,219.78991664109043)" style="font-family: Roboto; font-size: 16px; fill: #000; opacity: 1;"></text><text text-anchor="end" transform="translate(-7,215.32679733238288)" style="font-family: Roboto; font-size: 16px; fill: #000; opacity: 1;"></text><text text-anchor="end" transform="translate(-7,211.46066753387043)" style="font-family: Roboto; font-size: 16px; fill: #000; opacity: 1;"></text><text text-anchor="end" transform="translate(-7,208.05049937071166)" style="font-family: Roboto; font-size: 16px; fill: #000; opacity: 1;"></text><text text-anchor="end" transform="translate(-7,205)" style="font-family: Roboto; font-size: 16px; fill: #000; opacity: 1;">1e+3</text><text text-anchor="end" transform="translate(-7,184.93133362240124)" style="font-family: Roboto; font-size: 16px; fill: #000; opacity: 1;"></text><text text-anchor="end" transform="translate(-7,173.1919163520225)" style="font-family: Roboto; font-size: 16px; fill: #000; opacity: 1;"></text><text text-anchor="end" transform="translate(-7,164.8626672448025)" style="font-family: Roboto; font-size: 16px; fill: #000; opacity: 1;"></text><text text-anchor="end" transform="translate(-7,158.40199971093207)" style="font-family: Roboto; font-size: 16px; fill: #000; opacity: 1;"></text><text text-anchor="end" transform="translate(-7,153.1232499744238)" style="font-family: Roboto; font-size: 16px; fill: #000; opacity: 1;"></text><text text-anchor="end" transform="translate(-7,148.6601306657162)" style="font-family: Roboto; font-size: 16px; fill: #000; opacity: 1;"></text><text text-anchor="end" transform="translate(-7,144.79400086720375)" style="font-family: Roboto; font-size: 16px; fill: #000; opacity: 1;"></text><text text-anchor="end" transform="translate(-7,141.38383270404498)" style="font-family: Roboto; font-size: 16px; fill: #000; opacity: 1;"></text><text text-anchor="end" transform="translate(-7,138.33333333333331)" style="font-family: Roboto; font-size: 16px; fill: #000; opacity: 1;">1e+4</text><text text-anchor="end" transform="translate(-7,118.26466695573458)" style="font-family: Roboto; font-size: 16px; fill: #000; opacity: 1;"></text><text text-anchor="end" transform="translate(-7,106.52524968535582)" style="font-family: Roboto; font-size: 16px; fill: #000; opacity: 1;"></text><text text-anchor="end" transform="translate(-7,98.19600057813587)" style="font-family: Roboto; font-size: 16px; fill: #000; opacity: 1;"></text><text text-anchor="end" transform="translate(-7,91.73533304426542)" style="font-family: Roboto; font-size: 16px; fill: #000; opacity: 1;"></text><text text-anchor="end" transform="translate(-7,86.45658330775709)" style="font-family: Roboto; font-size: 16px; fill: #000; opacity: 1;"></text><text text-anchor="end" transform="translate(-7,81.99346399904954)" style="font-family: Roboto; font-size: 16px; fill: #000; opacity: 1;"></text><text text-anchor="end" transform="translate(-7,78.12733420053709)" style="font-family: Roboto; font-size: 16px; fill: #000; opacity: 1;"></text><text text-anchor="end" transform="translate(-7,74.71716603737832)" style="font-family: Roboto; font-size: 16px; fill: #000; opacity: 1;"></text><text text-anchor="end" transform="translate(-7,71.66666666666666)" style="font-family: Roboto; font-size: 16px; fill: #000; opacity: 1;">1e+5</text><text text-anchor="end" transform="translate(-7,51.59800028906788)" style="font-family: Roboto; font-size: 16px; fill: #000; opacity: 1;"></text><text text-anchor="end" transform="translate(-7,39.85858301868916)" style="font-family: Roboto; font-size: 16px; fill: #000; opacity: 1;"></text><text text-anchor="end" transform="translate(-7,31.529333911469166)" style="font-family: Roboto; font-size: 16px; fill: #000; opacity: 1;"></text><text text-anchor="end" transform="translate(-7,25.068666377598767)" style="font-family: Roboto; font-size: 16px; fill: #000; opacity: 1;"></text><text text-anchor="end" transform="translate(-7,19.78991664109044)" style="font-family: Roboto; font-size: 16px; fill: #000; opacity: 1;"></text><text text-anchor="end" transform="translate(-7,15.326797332382842)" style="font-family: Roboto; font-size: 16px; fill: #000; opacity: 1;"></text><text text-anchor="end" transform="translate(-7,11.460667533870401)" style="font-family: Roboto; font-size: 16px; fill: #000; opacity: 1;"></text><text text-anchor="end" transform="translate(-7,8.050499370711623)" style="font-family: Roboto; font-size: 16px; fill: #000; opacity: 1;"></text><text text-anchor="end" transform="translate(-7,5)" style="font-family: Roboto; font-size: 16px; fill: #000; opacity: 1;">1e+6</text></g><g class="mark-rule role-axis-domain" style="pointer-events: none;"><line transform="translate(0,400)" x2="0" y2="-400" style="fill: none; stroke: #888; stroke-width: 1; opacity: 1;"></line></g><g class="mark-text role-axis-title" style="pointer-events: none;"><text text-anchor="middle" transform="translate(-46.56666564941406,200) rotate(-90) translate(0,-4)" style="font-family: Roboto; font-size: 20px; font-weight: bold; fill: #000; opacity: 1;">Rotational Relaxation</text></g></g><path class="foreground" d="" style="pointer-events: none; display: none; fill: none;"></path></g></g></g><path class="foreground" d="" style="display: none; fill: none;"></path></g></g></g></svg>