<svg class="marks" width="803" height="465" viewBox="0 0 803 465" version="1.1" xmlns="http://www.w3.org/2000/svg" xmlns:xlink="http://www.w3.org/1999/xlink"><rect width="803" height="465" style="fill: white;"></rect><g transform="translate(79,13)"><g class="mark-group role-frame root"><g transform="translate(0,0)"><path class="background" d="M0.5,0.5h600v400h-600Z" style="fill: none; stroke: #ddd;"></path><g><g class="mark-symbol role-mark layer_0_marks"><path transform="translate(600,0.5561257855371196)" d="M2.7386127875258306,0A2.7386127875258306,2.7386127875258306,0,1,1,-2.7386127875258306,0A2.7386127875258306,2.7386127875258306,0,1,1,2.7386127875258306,0" style="fill: none; stroke: #4c78a8; stroke-width: 2; opacity: 0.7;"></path><path transform="translate(514.2857142857143,112.77046160020762)" d="M2.7386127875258306,0A2.7386127875258306,2.7386127875258306,0,1,1,-2.7386127875258306,0A2.7386127875258306,2.7386127875258306,0,1,1,2.7386127875258306,0" style="fill: none; stroke: #4c78a8; stroke-width: 2; opacity: 0.7;"></path><path transform="translate(450,178.19746169387588)" d="M2.7386127875258306,0A2.7386127875258306,2.7386127875258306,0,1,1,-2.7386127875258306,0A2.7386127875258306,2.7386127875258306,0,1,1,2.7386127875258306,0" style="fill: none; stroke: #4c78a8; stroke-width: 2; opacity: 0.7;"></path><path transform="translate(400,217.1756547660577)" d="M2.7386127875258306,0A2.7386127875258306,2.7386127875258306,0,1,1,-2.7386127875258306,0A2.7386127875258306,2.7386127875258306,0,1,1,2.7386127875258306,0" style="fill: none; stroke: #4c78a8; stroke-width: 2; opacity: 0.7;"></path><path transform="translate(360,241.6302920303621)" d="M2.7386127875258306,0A2.7386127875258306,2.7386127875258306,0,1,1,-2.7386127875258306,0A2.7386127875258306,2.7386127875258306,0,1,1,2.7386127875258306,0" style="fill: none; stroke: #4c78a8; stroke-width: 2; opacity: 0.7;"></path><path transform="translate(300,269.3902968022818)" d="M2.7386127875258306,0A2.7386127875258306,2.7386127875258306,0,1,1,-2.7386127875258306,0A2.7386127875258306,2.7386127875258306,0,1,1,2.7386127875258306,0" style="fill: none; stroke: #4c78a8; stroke-width: 2; opacity: 0.7;"></path><path transform="translate(225,298.8653058083109)" d="M2.7386127875258306,0A2.7386127875258306,2.7386127875258306,0,1,1,-2.7386127875258306,0A2.7386127875258306,2.7386127875258306,0,1,1,2.7386127875258306,0" style="fill: none; stroke: #4c78a8; stroke-width: 2; opacity: 0.7;"></path><path transform="translate(180,315.3052174050699)" d="M2.7386127875258306,0A2.7386127875258306,2.7386127875258306,0,1,1,-2.7386127875258306,0A2.7386127875258306,2.7386127875258306,0,1,1,2.7386127875258306,0" style="fill: none; stroke: #4c78a8; stroke-width: 2; opacity: 0.7;"></path><path transform="translate(540.0000000000001,70.38214609816436)" d="M2.7386127875258306,0A2.7386127875258306,2.7386127875258306,0,1,1,-2.7386127875258306,0A2.7386127875258306,2.7386127875258306,0,1,1,2.7386127875258306,0" style="fill: none; stroke: #f58518; stroke-width: 2; opacity: 0.7;"></path><path transform="translate(519.2307692307692,97.0057027178006)" d="M2.7386127875258306,0A2.7386127875258306,2.7386127875258306,0,1,1,-2.7386127875258306,0A2.7386127875258306,2.7386127875258306,0,1,1,2.7386127875258306,0" style="fill: none; stroke: #f58518; stroke-width: 2; opacity: 0.7;"></path><path transform="translate(500,117.83835956948298)" d="M2.7386127875258306,0A2.7386127875258306,2.7386127875258306,0,1,1,-2.7386127875258306,0A2.7386127875258306,2.7386127875258306,0,1,1,2.7386127875258306,0" style="fill: none; stroke: #f58518; stroke-width: 2; opacity: 0.7;"></path><path transform="translate(128.57142857142858,334.33033641969257)" d="M2.7386127875258306,0A2.7386127875258306,2.7386127875258306,0,1,1,-2.7386127875258306,0A2.7386127875258306,2.7386127875258306,0,1,1,2.7386127875258306,0" style="fill: none; stroke: #4c78a8; stroke-width: 2; opacity: 0.7;"></path><path transform="translate(482.1428571428572,137.55945259161047)" d="M2.7386127875258306,0A2.7386127875258306,2.7386127875258306,0,1,1,-2.7386127875258306,0A2.7386127875258306,2.7386127875258306,0,1,1,2.7386127875258306,0" style="fill: none; stroke: #f58518; stroke-width: 2; opacity: 0.7;"></path><path transform="translate(465.5172413793104,154.19461646689388)" d="M2.7386127875258306,0A2.7386127875258306,2.7386127875258306,0,1,1,-2.7386127875258306,0A2.7386127875258306,2.7386127875258306,0,1,1,2.7386127875258306,0" style="fill: none; stroke: #f58518; stroke-width: 2; opacity: 0.7;"></path><path transform="translate(450,169.2035474835074)" d="M2.7386127875258306,0A2.7386127875258306,2.7386127875258306,0,1,1,-2.7386127875258306,0A2.7386127875258306,2.7386127875258306,0,1,1,2.7386127875258306,0" style="fill: none; stroke: #f58518; stroke-width: 2; opacity: 0.7;"></path><path transform="translate(421.875,193.57337348839187)" d="M2.7386127875258306,0A2.7386127875258306,2.7386127875258306,0,1,1,-2.7386127875258306,0A2.7386127875258306,2.7386127875258306,0,1,1,2.7386127875258306,0" style="fill: none; stroke: #f58518; stroke-width: 2; opacity: 0.7;"></path><path transform="translate(100.00000000000001,347.8578422095815)" d="M2.7386127875258306,0A2.7386127875258306,2.7386127875258306,0,1,1,-2.7386127875258306,0A2.7386127875258306,2.7386127875258306,0,1,1,2.7386127875258306,0" style="fill: none; stroke: #4c78a8; stroke-width: 2; opacity: 0.7;"></path><path transform="translate(375,227.490946039067)" d="M2.7386127875258306,0A2.7386127875258306,2.7386127875258306,0,1,1,-2.7386127875258306,0A2.7386127875258306,2.7386127875258306,0,1,1,2.7386127875258306,0" style="fill: none; stroke: #f58518; stroke-width: 2; opacity: 0.7;"></path><path transform="translate(337.50000000000006,250.01156691652793)" d="M2.7386127875258306,0A2.7386127875258306,2.7386127875258306,0,1,1,-2.7386127875258306,0A2.7386127875258306,2.7386127875258306,0,1,1,2.7386127875258306,0" style="fill: none; stroke: #f58518; stroke-width: 2; opacity: 0.7;"></path><path transform="translate(270.00000000000006,281.086454462235)" d="M2.7386127875258306,0A2.7386127875258306,2.7386127875258306,0,1,1,-2.7386127875258306,0A2.7386127875258306,2.7386127875258306,0,1,1,2.7386127875258306,0" style="fill: none; stroke: #f58518; stroke-width: 2; opacity: 0.7;"></path></g><g class="mark-rule role-mark layer_1_marks"><line transform="translate(600,0.6206729019549471)" x2="0" y2="-0.1992743936582997" style="fill: none; stroke: #4c78a8; opacity: 1;"></line><line transform="translate(514.2857142857143,112.95606140211089)" x2="0" y2="-0.6435700430004658" style="fill: none; stroke: #4c78a8; opacity: 1;"></line><line transform="translate(450,178.35656385801198)" x2="0" y2="-0.5369650090088385" style="fill: none; stroke: #4c78a8; opacity: 1;"></line><line transform="translate(400,217.26990792734932)" x2="0" y2="-0.31590313526265845" style="fill: none; stroke: #4c78a8; opacity: 1;"></line><line transform="translate(360,241.70116755580597)" x2="0" y2="-0.23168544463797502" style="fill: none; stroke: #4c78a8; opacity: 1;"></line><line transform="translate(300,269.4675476896794)" x2="0" y2="-0.2693325548086136" style="fill: none; stroke: #4c78a8; opacity: 1;"></line><line transform="translate(225,298.93919374208156)" x2="0" y2="-0.24195309848886382" style="fill: none; stroke: #4c78a8; opacity: 1;"></line><line transform="translate(180,315.5104859660661)" x2="0" y2="-0.7311541851673837" style="fill: none; stroke: #4c78a8; opacity: 1;"></line><line transform="translate(540.0000000000001,70.61060589042097)" x2="0" y2="-0.7916699941634988" style="fill: none; stroke: #f58518; opacity: 1;"></line><line transform="translate(519.2307692307692,97.1984210244579)" x2="0" y2="-0.6379542945790604" style="fill: none; stroke: #f58518; opacity: 1;"></line><line transform="translate(500,118.0368854731866)" x2="0" y2="-0.7346640841824978" style="fill: none; stroke: #f58518; opacity: 1;"></line><line transform="translate(128.57142857142858,334.50696938981497)" x2="0" y2="-0.52617153067564" style="fill: none; stroke: #4c78a8; opacity: 1;"></line><line transform="translate(482.1428571428572,137.73248151694594)" x2="0" y2="-0.6091798699040964" style="fill: none; stroke: #f58518; opacity: 1;"></line><line transform="translate(465.5172413793104,154.3718380784266)" x2="0" y2="-0.5974601532597603" style="fill: none; stroke: #f58518; opacity: 1;"></line><line transform="translate(450,169.46384182003075)" x2="0" y2="-0.862348724472497" style="fill: none; stroke: #f58518; opacity: 1;"></line><line transform="translate(421.875,193.76186432559882)" x2="0" y2="-0.6418041808792623" style="fill: none; stroke: #f58518; opacity: 1;"></line><line transform="translate(100.00000000000001,348.05595118793394)" x2="0" y2="-0.6940112243761405" style="fill: none; stroke: #4c78a8; opacity: 1;"></line><line transform="translate(375,227.9465334454637)" x2="0" y2="-1.5706160536042546" style="fill: none; stroke: #f58518; opacity: 1;"></line><line transform="translate(337.50000000000006,250.36736982170683)" x2="0" y2="-1.1381845048289847" style="fill: none; stroke: #f58518; opacity: 1;"></line><line transform="translate(270.00000000000006,281.293262555191)" x2="0" y2="-0.7164117802994951" style="fill: none; stroke: #f58518; opacity: 1;"></line></g><g class="mark-group role-legend"><g transform="translate(618,0)"><path class="background" d="M0,0h101v59h-101Z" style="pointer-events: none; fill: none;"></path><g><g class="mark-group role-legend-entry"><g transform="translate(0,25)"><path class="background" d="M0,0h0v0h0Z" style="pointer-events: none; fill: none;"></path><g><g class="mark-group role-scope"><g transform="translate(0,0)"><path class="background" d="M0,0h55v16h-55Z" style="pointer-events: none; fill: none; opacity: 1;"></path><g><g class="mark-symbol role-legend-symbol" style="pointer-events: none;"><path transform="translate(8,8)" d="M5,0A5,5,0,1,1,-5,0A5,5,0,1,1,5,0" style="fill: none; stroke: #4c78a8; stroke-width: 1.5; opacity: 0.7;"></path></g><g class="mark-text role-legend-label" style="pointer-events: none;"><text text-anchor="start" transform="translate(20,13)" style="font-family: sans-serif; font-size: 16px; fill: #000; opacity: 1;">1</text></g></g></g><g transform="translate(0,18)"><path class="background" d="M0,0h55v16h-55Z" style="pointer-events: none; fill: none; opacity: 1;"></path><g><g class="mark-symbol role-legend-symbol" style="pointer-events: none;"><path transform="translate(8,8)" d="M5,0A5,5,0,1,1,-5,0A5,5,0,1,1,5,0" style="fill: none; stroke: #f58518; stroke-width: 1.5; opacity: 0.7;"></path></g><g class="mark-text role-legend-label" style="pointer-events: none;"><text text-anchor="start" transform="translate(20,13)" style="font-family: sans-serif; font-size: 16px; fill: #000; opacity: 1;">13.5</text></g></g></g></g></g></g></g><g class="mark-text role-legend-title" style="pointer-events: none;"><text text-anchor="start" transform="translate(0,16)" style="font-family: sans-serif; font-size: 20px; font-weight: bold; fill: #000; opacity: 1;">Pressure</text></g></g></g></g><g class="mark-group role-axis"><g transform="translate(0.5,400.5)"><path class="background" d="M0,0h0v0h0Z" style="pointer-events: none; fill: none;"></path><g><g class="mark-rule role-axis-tick" style="pointer-events: none;"><line transform="translate(0,0)" x2="0" y2="5" style="fill: none; stroke: #888; stroke-width: 1; opacity: 1;"></line><line transform="translate(50,0)" x2="0" y2="5" style="fill: none; stroke: #888; stroke-width: 1; opacity: 1;"></line><line transform="translate(100,0)" x2="0" y2="5" style="fill: none; stroke: #888; stroke-width: 1; opacity: 1;"></line><line transform="translate(150,0)" x2="0" y2="5" style="fill: none; stroke: #888; stroke-width: 1; opacity: 1;"></line><line transform="translate(200,0)" x2="0" y2="5" style="fill: none; stroke: #888; stroke-width: 1; opacity: 1;"></line><line transform="translate(250,0)" x2="0" y2="5" style="fill: none; stroke: #888; stroke-width: 1; opacity: 1;"></line><line transform="translate(300,0)" x2="0" y2="5" style="fill: none; stroke: #888; stroke-width: 1; opacity: 1;"></line><line transform="translate(350,0)" x2="0" y2="5" style="fill: none; stroke: #888; stroke-width: 1; opacity: 1;"></line><line transform="translate(400,0)" x2="0" y2="5" style="fill: none; stroke: #888; stroke-width: 1; opacity: 1;"></line><line transform="translate(450,0)" x2="0" y2="5" style="fill: none; stroke: #888; stroke-width: 1; opacity: 1;"></line><line transform="translate(500,0)" x2="0" y2="5" style="fill: none; stroke: #888; stroke-width: 1; opacity: 1;"></line><line transform="translate(550,0)" x2="0" y2="5" style="fill: none; stroke: #888; stroke-width: 1; opacity: 1;"></line><line transform="translate(600,0)" x2="0" y2="5" style="fill: none; stroke: #888; stroke-width: 1; opacity: 1;"></line></g><g class="mark-text role-axis-label" style="pointer-events: none;"><text text-anchor="start" transform="translate(0,20)" style="font-family: sans-serif; font-size: 16px; fill: #000; opacity: 1;">0.0</text><text text-anchor="middle" transform="translate(50.00000000000001,20)" style="font-family: sans-serif; font-size: 16px; fill: #000; opacity: 1;">0.10</text><text text-anchor="middle" transform="translate(100.00000000000001,20)" style="font-family: sans-serif; font-size: 16px; fill: #000; opacity: 1;">0.20</text><text text-anchor="middle" transform="translate(150,20)" style="font-family: sans-serif; font-size: 16px; fill: #000; opacity: 1;">0.30</text><text text-anchor="middle" transform="translate(200.00000000000003,20)" style="font-family: sans-serif; font-size: 16px; fill: #000; opacity: 1;">0.40</text><text text-anchor="middle" transform="translate(250,20)" style="font-family: sans-serif; font-size: 16px; fill: #000; opacity: 1;">0.50</text><text text-anchor="middle" transform="translate(300,20)" style="font-family: sans-serif; font-size: 16px; fill: #000; opacity: 1;">0.60</text><text text-anchor="middle" transform="translate(350,20)" style="font-family: sans-serif; font-size: 16px; fill: #000; opacity: 1;">0.70</text><text text-anchor="middle" transform="translate(400.00000000000006,20)" style="font-family: sans-serif; font-size: 16px; fill: #000; opacity: 1;">0.80</text><text text-anchor="middle" transform="translate(450,20)" style="font-family: sans-serif; font-size: 16px; fill: #000; opacity: 1;">0.90</text><text text-anchor="middle" transform="translate(500,20)" style="font-family: sans-serif; font-size: 16px; fill: #000; opacity: 1;">1.0</text><text text-anchor="middle" transform="translate(550,20)" style="font-family: sans-serif; font-size: 16px; fill: #000; opacity: 1;">1.1</text><text text-anchor="end" transform="translate(600,20)" style="font-family: sans-serif; font-size: 16px; fill: #000; opacity: 1;">1.2</text></g><g class="mark-rule role-axis-domain" style="pointer-events: none;"><line transform="translate(0,0)" x2="600" y2="0" style="fill: none; stroke: #888; stroke-width: 1; opacity: 1;"></line></g><g class="mark-text role-axis-title" style="pointer-events: none;"><text text-anchor="middle" transform="translate(300,43)" style="font-family: sans-serif; font-size: 20px; font-weight: bold; fill: #000; opacity: 1;">Tₘ/T</text></g></g></g></g><g class="mark-group role-axis"><g transform="translate(0.5,0.5)"><path class="background" d="M0,0h0v0h0Z" style="pointer-events: none; fill: none;"></path><g><g class="mark-rule role-axis-tick" style="pointer-events: none;"><line transform="translate(0,400)" x2="-5" y2="0" style="fill: none; stroke: #888; stroke-width: 1; opacity: 1;"></line><line transform="translate(0,383)" x2="-5" y2="0" style="fill: none; stroke: #888; stroke-width: 1; opacity: 1;"></line><line transform="translate(0,373)" x2="-5" y2="0" style="fill: none; stroke: #888; stroke-width: 1; opacity: 1;"></line><line transform="translate(0,366)" x2="-5" y2="0" style="fill: none; stroke: #888; stroke-width: 1; opacity: 1;"></line><line transform="translate(0,360)" x2="-5" y2="0" style="fill: none; stroke: #888; stroke-width: 1; opacity: 1;"></line><line transform="translate(0,356)" x2="-5" y2="0" style="fill: none; stroke: #888; stroke-width: 1; opacity: 1;"></line><line transform="translate(0,352)" x2="-5" y2="0" style="fill: none; stroke: #888; stroke-width: 1; opacity: 1;"></line><line transform="translate(0,348)" x2="-5" y2="0" style="fill: none; stroke: #888; stroke-width: 1; opacity: 1;"></line><line transform="translate(0,345)" x2="-5" y2="0" style="fill: none; stroke: #888; stroke-width: 1; opacity: 1;"></line><line transform="translate(0,343)" x2="-5" y2="0" style="fill: none; stroke: #888; stroke-width: 1; opacity: 1;"></line><line transform="translate(0,326)" x2="-5" y2="0" style="fill: none; stroke: #888; stroke-width: 1; opacity: 1;"></line><line transform="translate(0,316)" x2="-5" y2="0" style="fill: none; stroke: #888; stroke-width: 1; opacity: 1;"></line><line transform="translate(0,308)" x2="-5" y2="0" style="fill: none; stroke: #888; stroke-width: 1; opacity: 1;"></line><line transform="translate(0,303)" x2="-5" y2="0" style="fill: none; stroke: #888; stroke-width: 1; opacity: 1;"></line><line transform="translate(0,298)" x2="-5" y2="0" style="fill: none; stroke: #888; stroke-width: 1; opacity: 1;"></line><line transform="translate(0,295)" x2="-5" y2="0" style="fill: none; stroke: #888; stroke-width: 1; opacity: 1;"></line><line transform="translate(0,291)" x2="-5" y2="0" style="fill: none; stroke: #888; stroke-width: 1; opacity: 1;"></line><line transform="translate(0,288)" x2="-5" y2="0" style="fill: none; stroke: #888; stroke-width: 1; opacity: 1;"></line><line transform="translate(0,286)" x2="-5" y2="0" style="fill: none; stroke: #888; stroke-width: 1; opacity: 1;"></line><line transform="translate(0,269)" x2="-5" y2="0" style="fill: none; stroke: #888; stroke-width: 1; opacity: 1;"></line><line transform="translate(0,258)" x2="-5" y2="0" style="fill: none; stroke: #888; stroke-width: 1; opacity: 1;"></line><line transform="translate(0,251)" x2="-5" y2="0" style="fill: none; stroke: #888; stroke-width: 1; opacity: 1;"></line><line transform="translate(0,246)" x2="-5" y2="0" style="fill: none; stroke: #888; stroke-width: 1; opacity: 1;"></line><line transform="translate(0,241)" x2="-5" y2="0" style="fill: none; stroke: #888; stroke-width: 1; opacity: 1;"></line><line transform="translate(0,237)" x2="-5" y2="0" style="fill: none; stroke: #888; stroke-width: 1; opacity: 1;"></line><line transform="translate(0,234)" x2="-5" y2="0" style="fill: none; stroke: #888; stroke-width: 1; opacity: 1;"></line><line transform="translate(0,231)" x2="-5" y2="0" style="fill: none; stroke: #888; stroke-width: 1; opacity: 1;"></line><line transform="translate(0,229)" x2="-5" y2="0" style="fill: none; stroke: #888; stroke-width: 1; opacity: 1;"></line><line transform="translate(0,211)" x2="-5" y2="0" style="fill: none; stroke: #888; stroke-width: 1; opacity: 1;"></line><line transform="translate(0,201)" x2="-5" y2="0" style="fill: none; stroke: #888; stroke-width: 1; opacity: 1;"></line><line transform="translate(0,194)" x2="-5" y2="0" style="fill: none; stroke: #888; stroke-width: 1; opacity: 1;"></line><line transform="translate(0,189)" x2="-5" y2="0" style="fill: none; stroke: #888; stroke-width: 1; opacity: 1;"></line><line transform="translate(0,184)" x2="-5" y2="0" style="fill: none; stroke: #888; stroke-width: 1; opacity: 1;"></line><line transform="translate(0,180)" x2="-5" y2="0" style="fill: none; stroke: #888; stroke-width: 1; opacity: 1;"></line><line transform="translate(0,177)" x2="-5" y2="0" style="fill: none; stroke: #888; stroke-width: 1; opacity: 1;"></line><line transform="translate(0,174)" x2="-5" y2="0" style="fill: none; stroke: #888; stroke-width: 1; opacity: 1;"></line><line transform="translate(0,171)" x2="-5" y2="0" style="fill: none; stroke: #888; stroke-width: 1; opacity: 1;"></line><line transform="translate(0,154)" x2="-5" y2="0" style="fill: none; stroke: #888; stroke-width: 1; opacity: 1;"></line><line transform="translate(0,144)" x2="-5" y2="0" style="fill: none; stroke: #888; stroke-width: 1; opacity: 1;"></line><line transform="translate(0,137)" x2="-5" y2="0" style="fill: none; stroke: #888; stroke-width: 1; opacity: 1;"></line><line transform="translate(0,131)" x2="-5" y2="0" style="fill: none; stroke: #888; stroke-width: 1; opacity: 1;"></line><line transform="translate(0,127)" x2="-5" y2="0" style="fill: none; stroke: #888; stroke-width: 1; opacity: 1;"></line><line transform="translate(0,123)" x2="-5" y2="0" style="fill: none; stroke: #888; stroke-width: 1; opacity: 1;"></line><line transform="translate(0,120)" x2="-5" y2="0" style="fill: none; stroke: #888; stroke-width: 1; opacity: 1;"></line><line transform="translate(0,117)" x2="-5" y2="0" style="fill: none; stroke: #888; stroke-width: 1; opacity: 1;"></line><line transform="translate(0,114)" x2="-5" y2="0" style="fill: none; stroke: #888; stroke-width: 1; opacity: 1;"></line><line transform="translate(0,97)" x2="-5" y2="0" style="fill: none; stroke: #888; stroke-width: 1; opacity: 1;"></line><line transform="translate(0,87)" x2="-5" y2="0" style="fill: none; stroke: #888; stroke-width: 1; opacity: 1;"></line><line transform="translate(0,80)" x2="-5" y2="0" style="fill: none; stroke: #888; stroke-width: 1; opacity: 1;"></line><line transform="translate(0,74)" x2="-5" y2="0" style="fill: none; stroke: #888; stroke-width: 1; opacity: 1;"></line><line transform="translate(0,70)" x2="-5" y2="0" style="fill: none; stroke: #888; stroke-width: 1; opacity: 1;"></line><line transform="translate(0,66)" x2="-5" y2="0" style="fill: none; stroke: #888; stroke-width: 1; opacity: 1;"></line><line transform="translate(0,63)" x2="-5" y2="0" style="fill: none; stroke: #888; stroke-width: 1; opacity: 1;"></line><line transform="translate(0,60)" x2="-5" y2="0" style="fill: none; stroke: #888; stroke-width: 1; opacity: 1;"></line><line transform="translate(0,57)" x2="-5" y2="0" style="fill: none; stroke: #888; stroke-width: 1; opacity: 1;"></line><line transform="translate(0,40)" x2="-5" y2="0" style="fill: none; stroke: #888; stroke-width: 1; opacity: 1;"></line><line transform="translate(0,30)" x2="-5" y2="0" style="fill: none; stroke: #888; stroke-width: 1; opacity: 1;"></line><line transform="translate(0,23)" x2="-5" y2="0" style="fill: none; stroke: #888; stroke-width: 1; opacity: 1;"></line><line transform="translate(0,17)" x2="-5" y2="0" style="fill: none; stroke: #888; stroke-width: 1; opacity: 1;"></line><line transform="translate(0,13)" x2="-5" y2="0" style="fill: none; stroke: #888; stroke-width: 1; opacity: 1;"></line><line transform="translate(0,9)" x2="-5" y2="0" style="fill: none; stroke: #888; stroke-width: 1; opacity: 1;"></line><line transform="translate(0,6)" x2="-5" y2="0" style="fill: none; stroke: #888; stroke-width: 1; opacity: 1;"></line><line transform="translate(0,3)" x2="-5" y2="0" style="fill: none; stroke: #888; stroke-width: 1; opacity: 1;"></line><line transform="translate(0,0)" x2="-5" y2="0" style="fill: none; stroke: #888; stroke-width: 1; opacity: 1;"></line></g><g class="mark-text role-axis-label" style="pointer-events: none;"><text text-anchor="end" transform="translate(-7,405)" style="font-family: sans-serif; font-size: 16px; fill: #000; opacity: 1;">1e+2</text><text text-anchor="end" transform="translate(-7,387.79828596205823)" style="font-family: sans-serif; font-size: 16px; fill: #000; opacity: 1;"></text><text text-anchor="end" transform="translate(-7,377.73592830173357)" style="font-family: sans-serif; font-size: 16px; fill: #000; opacity: 1;"></text><text text-anchor="end" transform="translate(-7,370.59657192411646)" style="font-family: sans-serif; font-size: 16px; fill: #000; opacity: 1;"></text><text text-anchor="end" transform="translate(-7,365.05885689508466)" style="font-family: sans-serif; font-size: 16px; fill: #000; opacity: 1;"></text><text text-anchor="end" transform="translate(-7,360.5342142637918)" style="font-family: sans-serif; font-size: 16px; fill: #000; opacity: 1;"></text><text text-anchor="end" transform="translate(-7,356.70868342775674)" style="font-family: sans-serif; font-size: 16px; fill: #000; opacity: 1;"></text><text text-anchor="end" transform="translate(-7,353.39485788617463)" style="font-family: sans-serif; font-size: 16px; fill: #000; opacity: 1;"></text><text text-anchor="end" transform="translate(-7,350.47185660346713)" style="font-family: sans-serif; font-size: 16px; fill: #000; opacity: 1;"></text><text text-anchor="end" transform="translate(-7,347.8571428571429)" style="font-family: sans-serif; font-size: 16px; fill: #000; opacity: 1;">1e+3</text><text text-anchor="end" transform="translate(-7,330.65542881920106)" style="font-family: sans-serif; font-size: 16px; fill: #000; opacity: 1;"></text><text text-anchor="end" transform="translate(-7,320.59307115887646)" style="font-family: sans-serif; font-size: 16px; fill: #000; opacity: 1;"></text><text text-anchor="end" transform="translate(-7,313.4537147812593)" style="font-family: sans-serif; font-size: 16px; fill: #000; opacity: 1;"></text><text text-anchor="end" transform="translate(-7,307.9159997522275)" style="font-family: sans-serif; font-size: 16px; fill: #000; opacity: 1;"></text><text text-anchor="end" transform="translate(-7,303.3913571209347)" style="font-family: sans-serif; font-size: 16px; fill: #000; opacity: 1;"></text><text text-anchor="end" transform="translate(-7,299.5658262848996)" style="font-family: sans-serif; font-size: 16px; fill: #000; opacity: 1;"></text><text text-anchor="end" transform="translate(-7,296.25200074331747)" style="font-family: sans-serif; font-size: 16px; fill: #000; opacity: 1;"></text><text text-anchor="end" transform="translate(-7,293.32899946061)" style="font-family: sans-serif; font-size: 16px; fill: #000; opacity: 1;"></text><text text-anchor="end" transform="translate(-7,290.71428571428567)" style="font-family: sans-serif; font-size: 16px; fill: #000; opacity: 1;">1e+4</text><text text-anchor="end" transform="translate(-7,273.51257167634395)" style="font-family: sans-serif; font-size: 16px; fill: #000; opacity: 1;"></text><text text-anchor="end" transform="translate(-7,263.45021401601923)" style="font-family: sans-serif; font-size: 16px; fill: #000; opacity: 1;"></text><text text-anchor="end" transform="translate(-7,256.3108576384021)" style="font-family: sans-serif; font-size: 16px; fill: #000; opacity: 1;"></text><text text-anchor="end" transform="translate(-7,250.77314260937032)" style="font-family: sans-serif; font-size: 16px; fill: #000; opacity: 1;"></text><text text-anchor="end" transform="translate(-7,246.24849997807746)" style="font-family: sans-serif; font-size: 16px; fill: #000; opacity: 1;"></text><text text-anchor="end" transform="translate(-7,242.42296914204246)" style="font-family: sans-serif; font-size: 16px; fill: #000; opacity: 1;"></text><text text-anchor="end" transform="translate(-7,239.10914360046036)" style="font-family: sans-serif; font-size: 16px; fill: #000; opacity: 1;"></text><text text-anchor="end" transform="translate(-7,236.18614231775285)" style="font-family: sans-serif; font-size: 16px; fill: #000; opacity: 1;"></text><text text-anchor="end" transform="translate(-7,233.57142857142853)" style="font-family: sans-serif; font-size: 16px; fill: #000; opacity: 1;">1e+5</text><text text-anchor="end" transform="translate(-7,216.36971453348676)" style="font-family: sans-serif; font-size: 16px; fill: #000; opacity: 1;"></text><text text-anchor="end" transform="translate(-7,206.30735687316212)" style="font-family: sans-serif; font-size: 16px; fill: #000; opacity: 1;"></text><text text-anchor="end" transform="translate(-7,199.16800049554496)" style="font-family: sans-serif; font-size: 16px; fill: #000; opacity: 1;"></text><text text-anchor="end" transform="translate(-7,193.63028546651321)" style="font-family: sans-serif; font-size: 16px; fill: #000; opacity: 1;"></text><text text-anchor="end" transform="translate(-7,189.10564283522035)" style="font-family: sans-serif; font-size: 16px; fill: #000; opacity: 1;"></text><text text-anchor="end" transform="translate(-7,185.2801119991853)" style="font-family: sans-serif; font-size: 16px; fill: #000; opacity: 1;"></text><text text-anchor="end" transform="translate(-7,181.9662864576032)" style="font-family: sans-serif; font-size: 16px; fill: #000; opacity: 1;"></text><text text-anchor="end" transform="translate(-7,179.0432851748957)" style="font-family: sans-serif; font-size: 16px; fill: #000; opacity: 1;"></text><text text-anchor="end" transform="translate(-7,176.4285714285714)" style="font-family: sans-serif; font-size: 16px; fill: #000; opacity: 1;">1e+6</text><text text-anchor="end" transform="translate(-7,159.22685739062962)" style="font-family: sans-serif; font-size: 16px; fill: #000; opacity: 1;"></text><text text-anchor="end" transform="translate(-7,149.16449973030495)" style="font-family: sans-serif; font-size: 16px; fill: #000; opacity: 1;"></text><text text-anchor="end" transform="translate(-7,142.02514335268785)" style="font-family: sans-serif; font-size: 16px; fill: #000; opacity: 1;"></text><text text-anchor="end" transform="translate(-7,136.487428323656)" style="font-family: sans-serif; font-size: 16px; fill: #000; opacity: 1;"></text><text text-anchor="end" transform="translate(-7,131.96278569236313)" style="font-family: sans-serif; font-size: 16px; fill: #000; opacity: 1;"></text><text text-anchor="end" transform="translate(-7,128.13725485632813)" style="font-family: sans-serif; font-size: 16px; fill: #000; opacity: 1;"></text><text text-anchor="end" transform="translate(-7,124.82342931474602)" style="font-family: sans-serif; font-size: 16px; fill: #000; opacity: 1;"></text><text text-anchor="end" transform="translate(-7,121.90042803203858)" style="font-family: sans-serif; font-size: 16px; fill: #000; opacity: 1;"></text><text text-anchor="end" transform="translate(-7,119.28571428571422)" style="font-family: sans-serif; font-size: 16px; fill: #000; opacity: 1;">1e+7</text><text text-anchor="end" transform="translate(-7,102.08400024777251)" style="font-family: sans-serif; font-size: 16px; fill: #000; opacity: 1;"></text><text text-anchor="end" transform="translate(-7,92.02164258744784)" style="font-family: sans-serif; font-size: 16px; fill: #000; opacity: 1;"></text><text text-anchor="end" transform="translate(-7,84.88228620983062)" style="font-family: sans-serif; font-size: 16px; fill: #000; opacity: 1;"></text><text text-anchor="end" transform="translate(-7,79.34457118079888)" style="font-family: sans-serif; font-size: 16px; fill: #000; opacity: 1;"></text><text text-anchor="end" transform="translate(-7,74.81992854950602)" style="font-family: sans-serif; font-size: 16px; fill: #000; opacity: 1;"></text><text text-anchor="end" transform="translate(-7,70.99439771347102)" style="font-family: sans-serif; font-size: 16px; fill: #000; opacity: 1;"></text><text text-anchor="end" transform="translate(-7,67.68057217188891)" style="font-family: sans-serif; font-size: 16px; fill: #000; opacity: 1;"></text><text text-anchor="end" transform="translate(-7,64.75757088918141)" style="font-family: sans-serif; font-size: 16px; fill: #000; opacity: 1;"></text><text text-anchor="end" transform="translate(-7,62.14285714285705)" style="font-family: sans-serif; font-size: 16px; fill: #000; opacity: 1;">1e+8</text><text text-anchor="end" transform="translate(-7,44.941143104915284)" style="font-family: sans-serif; font-size: 16px; fill: #000; opacity: 1;"></text><text text-anchor="end" transform="translate(-7,34.878785444590676)" style="font-family: sans-serif; font-size: 16px; fill: #000; opacity: 1;"></text><text text-anchor="end" transform="translate(-7,27.73942906697357)" style="font-family: sans-serif; font-size: 16px; fill: #000; opacity: 1;"></text><text text-anchor="end" transform="translate(-7,22.201714037941656)" style="font-family: sans-serif; font-size: 16px; fill: #000; opacity: 1;"></text><text text-anchor="end" transform="translate(-7,17.67707140664885)" style="font-family: sans-serif; font-size: 16px; fill: #000; opacity: 1;"></text><text text-anchor="end" transform="translate(-7,13.851540570613793)" style="font-family: sans-serif; font-size: 16px; fill: #000; opacity: 1;"></text><text text-anchor="end" transform="translate(-7,10.537715029031688)" style="font-family: sans-serif; font-size: 16px; fill: #000; opacity: 1;"></text><text text-anchor="end" transform="translate(-7,7.614713746324185)" style="font-family: sans-serif; font-size: 16px; fill: #000; opacity: 1;"></text><text text-anchor="end" transform="translate(-7,5)" style="font-family: sans-serif; font-size: 16px; fill: #000; opacity: 1;">1e+9</text></g><g class="mark-rule role-axis-domain" style="pointer-events: none;"><line transform="translate(0,400)" x2="0" y2="-400" style="fill: none; stroke: #888; stroke-width: 1; opacity: 1;"></line></g><g class="mark-text role-axis-title" style="pointer-events: none;"><text text-anchor="middle" transform="translate(-54,200) rotate(-90) translate(0,-4)" style="font-family: sans-serif; font-size: 20px; font-weight: bold; fill: #000; opacity: 1;">Rotational Relaxation</text></g></g></g></g></g></g></g></g></svg>