<svg class="marks" width="803" height="465" viewBox="0 0 803 465" version="1.1" xmlns="http://www.w3.org/2000/svg" xmlns:xlink="http://www.w3.org/1999/xlink"><rect width="803" height="465" style="fill: white;"></rect><g transform="translate(79,13)"><g class="mark-group role-frame root"><g transform="translate(0,0)"><path class="background" d="M0.5,0.5h600v400h-600Z" style="fill: none; stroke: #ddd;"></path><g><g class="mark-line role-mark layer_0_marks"><path d="M0,399.99353628642115L11.972789115646252,397.8424111482001L23.945578231292526,395.62748073225094L35.918367346938794,393.3458634769628L47.89115646258505,390.99450165334173L59.863945578231295,388.57014769332284L71.83673469387755,386.06934922479985L83.8095238095238,383.4884326683558L95.78231292517005,380.82348523179405L107.7551020408163,378.07033511687024L119.72789115646259,375.22452972763944L131.70068027210885,372.2813116410009L143.6734693877551,369.2355920666695L155.64625850340144,366.08192148513086L167.61904761904765,362.81445710718845L179.5918367346939,359.42692674632303L191.56462585034012,355.9125886338799L203.5374149659864,352.2641866353834L215.51020408163265,348.47390024200985L227.4829931972789,344.5332886119487L239.45578231292515,340.4332278189917L251.4285714285714,336.16384032648944L263.40136054421765,331.7144155391951L275.3741496598639,327.073320087795L287.3469387755102,322.22789626402675L299.3197278911565,317.1643467394064L311.2925170068027,311.867603356659L323.265306122449,306.321177366069L335.23809523809535,300.5069879715262L347.2108843537416,294.4051654306305L359.1836734693879,287.99382419119144L371.15646258503415,281.2488006059613L383.1292517006804,274.14334860078543L395.1020408163266,266.64778521646144L407.0748299319729,258.72907612011096L419.04761904761915,250.35034888042506L431.02040816326536,241.47031888007223L442.9931972789116,232.04260900676877L454.96598639455783,222.01493946405284L466.9387755102041,211.3281578224485L478.91156462585036,199.9150713089692L490.8843537414966,187.69903263857591L502.8571428571429,174.59221648770264L514.8299319727892,160.4935046694473L526.8027210884354,145.28587229025462L538.7755102040815,128.8331318900382L550.7482993197278,110.97584373750249L562.7210884353741,91.5261320272993L574.6938775510204,70.26104956095122L586.6666666666666,46.91399352036029" style="fill: none; stroke: black; stroke-width: 2;"></path></g><g class="mark-symbol role-mark layer_1_marks"><path transform="translate(552.3809523809524,108.75113068639689)" d="M2.7386127875258306,0A2.7386127875258306,2.7386127875258306,0,1,1,-2.7386127875258306,0A2.7386127875258306,2.7386127875258306,0,1,1,2.7386127875258306,0" style="fill: none; stroke: #4c78a8; stroke-width: 2; opacity: 0.7;"></path><path transform="translate(466.6666666666665,205.14644789517723)" d="M2.7386127875258306,0A2.7386127875258306,2.7386127875258306,0,1,1,-2.7386127875258306,0A2.7386127875258306,2.7386127875258306,0,1,1,2.7386127875258306,0" style="fill: none; stroke: #4c78a8; stroke-width: 2; opacity: 0.7;"></path><path transform="translate(400,266.1134824347971)" d="M2.7386127875258306,0A2.7386127875258306,2.7386127875258306,0,1,1,-2.7386127875258306,0A2.7386127875258306,2.7386127875258306,0,1,1,2.7386127875258306,0" style="fill: none; stroke: #4c78a8; stroke-width: 2; opacity: 0.7;"></path><path transform="translate(346.66666666666663,301.6732876276489)" d="M2.7386127875258306,0A2.7386127875258306,2.7386127875258306,0,1,1,-2.7386127875258306,0A2.7386127875258306,2.7386127875258306,0,1,1,2.7386127875258306,0" style="fill: none; stroke: #4c78a8; stroke-width: 2; opacity: 0.7;"></path><path transform="translate(266.66666666666663,334.87944417746223)" d="M2.7386127875258306,0A2.7386127875258306,2.7386127875258306,0,1,1,-2.7386127875258306,0A2.7386127875258306,2.7386127875258306,0,1,1,2.7386127875258306,0" style="fill: none; stroke: #4c78a8; stroke-width: 2; opacity: 0.7;"></path><path transform="translate(166.66666666666663,362.6509659036807)" d="M2.7386127875258306,0A2.7386127875258306,2.7386127875258306,0,1,1,-2.7386127875258306,0A2.7386127875258306,2.7386127875258306,0,1,1,2.7386127875258306,0" style="fill: none; stroke: #4c78a8; stroke-width: 2; opacity: 0.7;"></path><path transform="translate(106.66666666666664,376.4890133565933)" d="M2.7386127875258306,0A2.7386127875258306,2.7386127875258306,0,1,1,-2.7386127875258306,0A2.7386127875258306,2.7386127875258306,0,1,1,2.7386127875258306,0" style="fill: none; stroke: #4c78a8; stroke-width: 2; opacity: 0.7;"></path><path transform="translate(586.6666666666666,55.20186361836596)" d="M2.7386127875258306,0A2.7386127875258306,2.7386127875258306,0,1,1,-2.7386127875258306,0A2.7386127875258306,2.7386127875258306,0,1,1,2.7386127875258306,0" style="fill: none; stroke: #f58518; stroke-width: 2; opacity: 0.7;"></path><path transform="translate(558.9743589743589,88.93501514153803)" d="M2.7386127875258306,0A2.7386127875258306,2.7386127875258306,0,1,1,-2.7386127875258306,0A2.7386127875258306,2.7386127875258306,0,1,1,2.7386127875258306,0" style="fill: none; stroke: #f58518; stroke-width: 2; opacity: 0.7;"></path><path transform="translate(533.3333333333333,117.54336541424038)" d="M2.7386127875258306,0A2.7386127875258306,2.7386127875258306,0,1,1,-2.7386127875258306,0A2.7386127875258306,2.7386127875258306,0,1,1,2.7386127875258306,0" style="fill: none; stroke: #f58518; stroke-width: 2; opacity: 0.7;"></path><path transform="translate(38.0952380952381,390.9381776663021)" d="M2.7386127875258306,0A2.7386127875258306,2.7386127875258306,0,1,1,-2.7386127875258306,0A2.7386127875258306,2.7386127875258306,0,1,1,2.7386127875258306,0" style="fill: none; stroke: #4c78a8; stroke-width: 2; opacity: 0.7;"></path><path transform="translate(509.5238095238096,144.0251614234217)" d="M2.7386127875258306,0A2.7386127875258306,2.7386127875258306,0,1,1,-2.7386127875258306,0A2.7386127875258306,2.7386127875258306,0,1,1,2.7386127875258306,0" style="fill: none; stroke: #f58518; stroke-width: 2; opacity: 0.7;"></path><path transform="translate(487.35632183908046,169.4697991795273)" d="M2.7386127875258306,0A2.7386127875258306,2.7386127875258306,0,1,1,-2.7386127875258306,0A2.7386127875258306,2.7386127875258306,0,1,1,2.7386127875258306,0" style="fill: none; stroke: #f58518; stroke-width: 2; opacity: 0.7;"></path><path transform="translate(466.66666666666674,191.57933162016369)" d="M2.7386127875258306,0A2.7386127875258306,2.7386127875258306,0,1,1,-2.7386127875258306,0A2.7386127875258306,2.7386127875258306,0,1,1,2.7386127875258306,0" style="fill: none; stroke: #f58518; stroke-width: 2; opacity: 0.7;"></path><path transform="translate(429.16666666666663,224.78599559445053)" d="M2.7386127875258306,0A2.7386127875258306,2.7386127875258306,0,1,1,-2.7386127875258306,0A2.7386127875258306,2.7386127875258306,0,1,1,2.7386127875258306,0" style="fill: none; stroke: #f58518; stroke-width: 2; opacity: 0.7;"></path><path transform="translate(0,399.1441850196552)" d="M2.7386127875258306,0A2.7386127875258306,2.7386127875258306,0,1,1,-2.7386127875258306,0A2.7386127875258306,2.7386127875258306,0,1,1,2.7386127875258306,0" style="fill: none; stroke: #4c78a8; stroke-width: 2; opacity: 0.7;"></path><path transform="translate(366.66666666666663,273.73997309641715)" d="M2.7386127875258306,0A2.7386127875258306,2.7386127875258306,0,1,1,-2.7386127875258306,0A2.7386127875258306,2.7386127875258306,0,1,1,2.7386127875258306,0" style="fill: none; stroke: #f58518; stroke-width: 2; opacity: 0.7;"></path><path transform="translate(316.6666666666667,306.8619633360394)" d="M2.7386127875258306,0A2.7386127875258306,2.7386127875258306,0,1,1,-2.7386127875258306,0A2.7386127875258306,2.7386127875258306,0,1,1,2.7386127875258306,0" style="fill: none; stroke: #f58518; stroke-width: 2; opacity: 0.7;"></path><path transform="translate(226.66666666666666,347.10392446815575)" d="M2.7386127875258306,0A2.7386127875258306,2.7386127875258306,0,1,1,-2.7386127875258306,0A2.7386127875258306,2.7386127875258306,0,1,1,2.7386127875258306,0" style="fill: none; stroke: #f58518; stroke-width: 2; opacity: 0.7;"></path></g><g class="mark-rule role-mark layer_2_layer_0_marks"><line transform="translate(552.3809523809524,109.34383006791313)" x2="0" y2="-1.1735085470051558" style="fill: none; stroke: #4c78a8;"></line><line transform="translate(466.6666666666665,205.7703256415626)" x2="0" y2="-1.2345952690286595" style="fill: none; stroke: #4c78a8;"></line><line transform="translate(400,266.60509349515553)" x2="0" y2="-0.9750139181355735" style="fill: none; stroke: #4c78a8;"></line><line transform="translate(346.66666666666663,302.07790383034245)" x2="0" y2="-0.803655758615605" style="fill: none; stroke: #4c78a8;"></line><line transform="translate(266.66666666666663,335.24332181629075)" x2="0" y2="-0.7232388078778058" style="fill: none; stroke: #4c78a8;"></line><line transform="translate(166.66666666666663,362.8218215801486)" x2="0" y2="-0.340709020660654" style="fill: none; stroke: #4c78a8;"></line><line transform="translate(106.66666666666664,376.85991037914187)" x2="0" y2="-0.7371027655842681" style="fill: none; stroke: #4c78a8;"></line><line transform="translate(586.6666666666666,55.835219263631586)" x2="0" y2="-1.2531525012831821" style="fill: none; stroke: #f58518;"></line><line transform="translate(558.9743589743589,89.56872795920566)" x2="0" y2="-1.2538517124761484" style="fill: none; stroke: #f58518;"></line><line transform="translate(533.3333333333333,118.16023551379749)" x2="0" y2="-1.2208709181987842" style="fill: none; stroke: #f58518;"></line><line transform="translate(38.0952380952381,391.23990211240505)" x2="0" y2="-0.6003369655826987" style="fill: none; stroke: #4c78a8;"></line><line transform="translate(509.5238095238096,144.67856537523298)" x2="0" y2="-1.2923868833470067" style="fill: none; stroke: #f58518;"></line><line transform="translate(487.35632183908046,170.12354417499193)" x2="0" y2="-1.293054078338514" style="fill: none; stroke: #f58518;"></line><line transform="translate(466.66666666666674,192.54992935098633)" x2="0" y2="-1.9097104895612915" style="fill: none; stroke: #f58518;"></line><line transform="translate(429.16666666666663,225.7845200105546)" x2="0" y2="-1.9637568870556947" style="fill: none; stroke: #f58518;"></line><line transform="translate(0,399.45850226149247)" x2="0" y2="-0.6252588276871052" style="fill: none; stroke: #4c78a8;"></line><line transform="translate(366.66666666666663,276.8209706497705)" x2="0" y2="-5.865439082584089" style="fill: none; stroke: #f58518;"></line><line transform="translate(316.6666666666667,308.57071864226896)" x2="0" y2="-3.3222582790655224" style="fill: none; stroke: #f58518;"></line><line transform="translate(226.66666666666666,348.69507463131094)" x2="0" y2="-3.0993929847938375" style="fill: none; stroke: #f58518;"></line></g><g class="mark-group role-legend"><g transform="translate(618,0)"><path class="background" d="M0,0h101v59h-101Z" style="pointer-events: none; fill: none;"></path><g><g class="mark-group role-legend-entry"><g transform="translate(0,25)"><path class="background" d="M0,0h0v0h0Z" style="pointer-events: none; fill: none;"></path><g><g class="mark-group role-scope"><g transform="translate(0,0)"><path class="background" d="M0,0h55v16h-55Z" style="pointer-events: none; fill: none; opacity: 1;"></path><g><g class="mark-symbol role-legend-symbol" style="pointer-events: none;"><path transform="translate(8,8)" d="M5,0A5,5,0,1,1,-5,0A5,5,0,1,1,5,0" style="fill: none; stroke: #4c78a8; stroke-width: 1.5; opacity: 0.7;"></path></g><g class="mark-text role-legend-label" style="pointer-events: none;"><text text-anchor="start" transform="translate(20,13)" style="font-family: sans-serif; font-size: 16px; fill: #000; opacity: 1;">1</text></g></g></g><g transform="translate(0,18)"><path class="background" d="M0,0h55v16h-55Z" style="pointer-events: none; fill: none; opacity: 1;"></path><g><g class="mark-symbol role-legend-symbol" style="pointer-events: none;"><path transform="translate(8,8)" d="M5,0A5,5,0,1,1,-5,0A5,5,0,1,1,5,0" style="fill: none; stroke: #f58518; stroke-width: 1.5; opacity: 0.7;"></path></g><g class="mark-text role-legend-label" style="pointer-events: none;"><text text-anchor="start" transform="translate(20,13)" style="font-family: sans-serif; font-size: 16px; fill: #000; opacity: 1;">13.5</text></g></g></g></g></g></g></g><g class="mark-text role-legend-title" style="pointer-events: none;"><text text-anchor="start" transform="translate(0,16)" style="font-family: sans-serif; font-size: 20px; font-weight: bold; fill: #000; opacity: 1;">Pressure</text></g></g></g></g><g class="mark-group role-axis"><g transform="translate(0.5,400.5)"><path class="background" d="M0,0h0v0h0Z" style="pointer-events: none; fill: none;"></path><g><g class="mark-rule role-axis-tick" style="pointer-events: none;"><line transform="translate(0,0)" x2="0" y2="5" style="fill: none; stroke: #888; stroke-width: 1; opacity: 1;"></line><line transform="translate(33,0)" x2="0" y2="5" style="fill: none; stroke: #888; stroke-width: 1; opacity: 1;"></line><line transform="translate(67,0)" x2="0" y2="5" style="fill: none; stroke: #888; stroke-width: 1; opacity: 1;"></line><line transform="translate(100,0)" x2="0" y2="5" style="fill: none; stroke: #888; stroke-width: 1; opacity: 1;"></line><line transform="translate(133,0)" x2="0" y2="5" style="fill: none; stroke: #888; stroke-width: 1; opacity: 1;"></line><line transform="translate(167,0)" x2="0" y2="5" style="fill: none; stroke: #888; stroke-width: 1; opacity: 1;"></line><line transform="translate(200,0)" x2="0" y2="5" style="fill: none; stroke: #888; stroke-width: 1; opacity: 1;"></line><line transform="translate(233,0)" x2="0" y2="5" style="fill: none; stroke: #888; stroke-width: 1; opacity: 1;"></line><line transform="translate(267,0)" x2="0" y2="5" style="fill: none; stroke: #888; stroke-width: 1; opacity: 1;"></line><line transform="translate(300,0)" x2="0" y2="5" style="fill: none; stroke: #888; stroke-width: 1; opacity: 1;"></line><line transform="translate(333,0)" x2="0" y2="5" style="fill: none; stroke: #888; stroke-width: 1; opacity: 1;"></line><line transform="translate(367,0)" x2="0" y2="5" style="fill: none; stroke: #888; stroke-width: 1; opacity: 1;"></line><line transform="translate(400,0)" x2="0" y2="5" style="fill: none; stroke: #888; stroke-width: 1; opacity: 1;"></line><line transform="translate(433,0)" x2="0" y2="5" style="fill: none; stroke: #888; stroke-width: 1; opacity: 1;"></line><line transform="translate(467,0)" x2="0" y2="5" style="fill: none; stroke: #888; stroke-width: 1; opacity: 1;"></line><line transform="translate(500,0)" x2="0" y2="5" style="fill: none; stroke: #888; stroke-width: 1; opacity: 1;"></line><line transform="translate(533,0)" x2="0" y2="5" style="fill: none; stroke: #888; stroke-width: 1; opacity: 1;"></line><line transform="translate(567,0)" x2="0" y2="5" style="fill: none; stroke: #888; stroke-width: 1; opacity: 1;"></line><line transform="translate(600,0)" x2="0" y2="5" style="fill: none; stroke: #888; stroke-width: 1; opacity: 1;"></line></g><g class="mark-text role-axis-label" style="pointer-events: none;"><text text-anchor="start" transform="translate(0,20)" style="font-family: sans-serif; font-size: 16px; fill: #000; opacity: 1;">0.200</text><text text-anchor="middle" transform="translate(33.33333333333332,20)" style="font-family: sans-serif; font-size: 16px; fill: #000; opacity: 0;">0.250</text><text text-anchor="middle" transform="translate(66.66666666666664,20)" style="font-family: sans-serif; font-size: 16px; fill: #000; opacity: 0;">0.300</text><text text-anchor="middle" transform="translate(99.99999999999996,20)" style="font-family: sans-serif; font-size: 16px; fill: #000; opacity: 0;">0.350</text><text text-anchor="middle" transform="translate(133.33333333333331,20)" style="font-family: sans-serif; font-size: 16px; fill: #000; opacity: 1;">0.400</text><text text-anchor="middle" transform="translate(166.66666666666663,20)" style="font-family: sans-serif; font-size: 16px; fill: #000; opacity: 0;">0.450</text><text text-anchor="middle" transform="translate(199.99999999999994,20)" style="font-family: sans-serif; font-size: 16px; fill: #000; opacity: 0;">0.500</text><text text-anchor="middle" transform="translate(233.33333333333334,20)" style="font-family: sans-serif; font-size: 16px; fill: #000; opacity: 0;">0.550</text><text text-anchor="middle" transform="translate(266.66666666666663,20)" style="font-family: sans-serif; font-size: 16px; fill: #000; opacity: 1;">0.600</text><text text-anchor="middle" transform="translate(299.99999999999994,20)" style="font-family: sans-serif; font-size: 16px; fill: #000; opacity: 0;">0.650</text><text text-anchor="middle" transform="translate(333.3333333333332,20)" style="font-family: sans-serif; font-size: 16px; fill: #000; opacity: 0;">0.700</text><text text-anchor="middle" transform="translate(366.66666666666663,20)" style="font-family: sans-serif; font-size: 16px; fill: #000; opacity: 0;">0.750</text><text text-anchor="middle" transform="translate(400,20)" style="font-family: sans-serif; font-size: 16px; fill: #000; opacity: 1;">0.800</text><text text-anchor="middle" transform="translate(433.3333333333332,20)" style="font-family: sans-serif; font-size: 16px; fill: #000; opacity: 0;">0.850</text><text text-anchor="middle" transform="translate(466.6666666666665,20)" style="font-family: sans-serif; font-size: 16px; fill: #000; opacity: 0;">0.900</text><text text-anchor="middle" transform="translate(499.99999999999994,20)" style="font-family: sans-serif; font-size: 16px; fill: #000; opacity: 0;">0.950</text><text text-anchor="middle" transform="translate(533.3333333333333,20)" style="font-family: sans-serif; font-size: 16px; fill: #000; opacity: 1;">1.00</text><text text-anchor="middle" transform="translate(566.6666666666666,20)" style="font-family: sans-serif; font-size: 16px; fill: #000; opacity: 0;">1.05</text><text text-anchor="end" transform="translate(600,20)" style="font-family: sans-serif; font-size: 16px; fill: #000; opacity: 0;">1.10</text></g><g class="mark-rule role-axis-domain" style="pointer-events: none;"><line transform="translate(0,0)" x2="600" y2="0" style="fill: none; stroke: #888; stroke-width: 1; opacity: 1;"></line></g><g class="mark-text role-axis-title" style="pointer-events: none;"><text text-anchor="middle" transform="translate(300,43)" style="font-family: sans-serif; font-size: 20px; font-weight: bold; fill: #000; opacity: 1;">Tₘ/T</text></g></g></g></g><g class="mark-group role-axis"><g transform="translate(0.5,0.5)"><path class="background" d="M0,0h0v0h0Z" style="pointer-events: none; fill: none;"></path><g><g class="mark-rule role-axis-tick" style="pointer-events: none;"><line transform="translate(0,400)" x2="-5" y2="0" style="fill: none; stroke: #888; stroke-width: 1; opacity: 1;"></line><line transform="translate(0,380)" x2="-5" y2="0" style="fill: none; stroke: #888; stroke-width: 1; opacity: 1;"></line><line transform="translate(0,368)" x2="-5" y2="0" style="fill: none; stroke: #888; stroke-width: 1; opacity: 1;"></line><line transform="translate(0,360)" x2="-5" y2="0" style="fill: none; stroke: #888; stroke-width: 1; opacity: 1;"></line><line transform="translate(0,353)" x2="-5" y2="0" style="fill: none; stroke: #888; stroke-width: 1; opacity: 1;"></line><line transform="translate(0,348)" x2="-5" y2="0" style="fill: none; stroke: #888; stroke-width: 1; opacity: 1;"></line><line transform="translate(0,344)" x2="-5" y2="0" style="fill: none; stroke: #888; stroke-width: 1; opacity: 1;"></line><line transform="translate(0,340)" x2="-5" y2="0" style="fill: none; stroke: #888; stroke-width: 1; opacity: 1;"></line><line transform="translate(0,336)" x2="-5" y2="0" style="fill: none; stroke: #888; stroke-width: 1; opacity: 1;"></line><line transform="translate(0,333)" x2="-5" y2="0" style="fill: none; stroke: #888; stroke-width: 1; opacity: 1;"></line><line transform="translate(0,313)" x2="-5" y2="0" style="fill: none; stroke: #888; stroke-width: 1; opacity: 1;"></line><line transform="translate(0,302)" x2="-5" y2="0" style="fill: none; stroke: #888; stroke-width: 1; opacity: 1;"></line><line transform="translate(0,293)" x2="-5" y2="0" style="fill: none; stroke: #888; stroke-width: 1; opacity: 1;"></line><line transform="translate(0,287)" x2="-5" y2="0" style="fill: none; stroke: #888; stroke-width: 1; opacity: 1;"></line><line transform="translate(0,281)" x2="-5" y2="0" style="fill: none; stroke: #888; stroke-width: 1; opacity: 1;"></line><line transform="translate(0,277)" x2="-5" y2="0" style="fill: none; stroke: #888; stroke-width: 1; opacity: 1;"></line><line transform="translate(0,273)" x2="-5" y2="0" style="fill: none; stroke: #888; stroke-width: 1; opacity: 1;"></line><line transform="translate(0,270)" x2="-5" y2="0" style="fill: none; stroke: #888; stroke-width: 1; opacity: 1;"></line><line transform="translate(0,267)" x2="-5" y2="0" style="fill: none; stroke: #888; stroke-width: 1; opacity: 1;"></line><line transform="translate(0,247)" x2="-5" y2="0" style="fill: none; stroke: #888; stroke-width: 1; opacity: 1;"></line><line transform="translate(0,235)" x2="-5" y2="0" style="fill: none; stroke: #888; stroke-width: 1; opacity: 1;"></line><line transform="translate(0,227)" x2="-5" y2="0" style="fill: none; stroke: #888; stroke-width: 1; opacity: 1;"></line><line transform="translate(0,220)" x2="-5" y2="0" style="fill: none; stroke: #888; stroke-width: 1; opacity: 1;"></line><line transform="translate(0,215)" x2="-5" y2="0" style="fill: none; stroke: #888; stroke-width: 1; opacity: 1;"></line><line transform="translate(0,210)" x2="-5" y2="0" style="fill: none; stroke: #888; stroke-width: 1; opacity: 1;"></line><line transform="translate(0,206)" x2="-5" y2="0" style="fill: none; stroke: #888; stroke-width: 1; opacity: 1;"></line><line transform="translate(0,203)" x2="-5" y2="0" style="fill: none; stroke: #888; stroke-width: 1; opacity: 1;"></line><line transform="translate(0,200)" x2="-5" y2="0" style="fill: none; stroke: #888; stroke-width: 1; opacity: 1;"></line><line transform="translate(0,180)" x2="-5" y2="0" style="fill: none; stroke: #888; stroke-width: 1; opacity: 1;"></line><line transform="translate(0,168)" x2="-5" y2="0" style="fill: none; stroke: #888; stroke-width: 1; opacity: 1;"></line><line transform="translate(0,160)" x2="-5" y2="0" style="fill: none; stroke: #888; stroke-width: 1; opacity: 1;"></line><line transform="translate(0,153)" x2="-5" y2="0" style="fill: none; stroke: #888; stroke-width: 1; opacity: 1;"></line><line transform="translate(0,148)" x2="-5" y2="0" style="fill: none; stroke: #888; stroke-width: 1; opacity: 1;"></line><line transform="translate(0,144)" x2="-5" y2="0" style="fill: none; stroke: #888; stroke-width: 1; opacity: 1;"></line><line transform="translate(0,140)" x2="-5" y2="0" style="fill: none; stroke: #888; stroke-width: 1; opacity: 1;"></line><line transform="translate(0,136)" x2="-5" y2="0" style="fill: none; stroke: #888; stroke-width: 1; opacity: 1;"></line><line transform="translate(0,133)" x2="-5" y2="0" style="fill: none; stroke: #888; stroke-width: 1; opacity: 1;"></line><line transform="translate(0,113)" x2="-5" y2="0" style="fill: none; stroke: #888; stroke-width: 1; opacity: 1;"></line><line transform="translate(0,102)" x2="-5" y2="0" style="fill: none; stroke: #888; stroke-width: 1; opacity: 1;"></line><line transform="translate(0,93)" x2="-5" y2="0" style="fill: none; stroke: #888; stroke-width: 1; opacity: 1;"></line><line transform="translate(0,87)" x2="-5" y2="0" style="fill: none; stroke: #888; stroke-width: 1; opacity: 1;"></line><line transform="translate(0,81)" x2="-5" y2="0" style="fill: none; stroke: #888; stroke-width: 1; opacity: 1;"></line><line transform="translate(0,77)" x2="-5" y2="0" style="fill: none; stroke: #888; stroke-width: 1; opacity: 1;"></line><line transform="translate(0,73)" x2="-5" y2="0" style="fill: none; stroke: #888; stroke-width: 1; opacity: 1;"></line><line transform="translate(0,70)" x2="-5" y2="0" style="fill: none; stroke: #888; stroke-width: 1; opacity: 1;"></line><line transform="translate(0,67)" x2="-5" y2="0" style="fill: none; stroke: #888; stroke-width: 1; opacity: 1;"></line><line transform="translate(0,47)" x2="-5" y2="0" style="fill: none; stroke: #888; stroke-width: 1; opacity: 1;"></line><line transform="translate(0,35)" x2="-5" y2="0" style="fill: none; stroke: #888; stroke-width: 1; opacity: 1;"></line><line transform="translate(0,27)" x2="-5" y2="0" style="fill: none; stroke: #888; stroke-width: 1; opacity: 1;"></line><line transform="translate(0,20)" x2="-5" y2="0" style="fill: none; stroke: #888; stroke-width: 1; opacity: 1;"></line><line transform="translate(0,15)" x2="-5" y2="0" style="fill: none; stroke: #888; stroke-width: 1; opacity: 1;"></line><line transform="translate(0,10)" x2="-5" y2="0" style="fill: none; stroke: #888; stroke-width: 1; opacity: 1;"></line><line transform="translate(0,6)" x2="-5" y2="0" style="fill: none; stroke: #888; stroke-width: 1; opacity: 1;"></line><line transform="translate(0,3)" x2="-5" y2="0" style="fill: none; stroke: #888; stroke-width: 1; opacity: 1;"></line><line transform="translate(0,0)" x2="-5" y2="0" style="fill: none; stroke: #888; stroke-width: 1; opacity: 1;"></line></g><g class="mark-text role-axis-label" style="pointer-events: none;"><text text-anchor="end" transform="translate(-7,405)" style="font-family: sans-serif; font-size: 16px; fill: #000; opacity: 1;">1e+0</text><text text-anchor="end" transform="translate(-7,384.93133362240127)" style="font-family: sans-serif; font-size: 16px; fill: #000; opacity: 1;"></text><text text-anchor="end" transform="translate(-7,373.19191635202253)" style="font-family: sans-serif; font-size: 16px; fill: #000; opacity: 1;"></text><text text-anchor="end" transform="translate(-7,364.86266724480254)" style="font-family: sans-serif; font-size: 16px; fill: #000; opacity: 1;"></text><text text-anchor="end" transform="translate(-7,358.4019997109321)" style="font-family: sans-serif; font-size: 16px; fill: #000; opacity: 1;"></text><text text-anchor="end" transform="translate(-7,353.12324997442374)" style="font-family: sans-serif; font-size: 16px; fill: #000; opacity: 1;"></text><text text-anchor="end" transform="translate(-7,348.6601306657162)" style="font-family: sans-serif; font-size: 16px; fill: #000; opacity: 1;"></text><text text-anchor="end" transform="translate(-7,344.79400086720375)" style="font-family: sans-serif; font-size: 16px; fill: #000; opacity: 1;"></text><text text-anchor="end" transform="translate(-7,341.383832704045)" style="font-family: sans-serif; font-size: 16px; fill: #000; opacity: 1;"></text><text text-anchor="end" transform="translate(-7,338.3333333333333)" style="font-family: sans-serif; font-size: 16px; fill: #000; opacity: 1;">1e+1</text><text text-anchor="end" transform="translate(-7,318.2646669557346)" style="font-family: sans-serif; font-size: 16px; fill: #000; opacity: 1;"></text><text text-anchor="end" transform="translate(-7,306.52524968535585)" style="font-family: sans-serif; font-size: 16px; fill: #000; opacity: 1;"></text><text text-anchor="end" transform="translate(-7,298.19600057813585)" style="font-family: sans-serif; font-size: 16px; fill: #000; opacity: 1;"></text><text text-anchor="end" transform="translate(-7,291.7353330442654)" style="font-family: sans-serif; font-size: 16px; fill: #000; opacity: 1;"></text><text text-anchor="end" transform="translate(-7,286.4565833077571)" style="font-family: sans-serif; font-size: 16px; fill: #000; opacity: 1;"></text><text text-anchor="end" transform="translate(-7,281.99346399904954)" style="font-family: sans-serif; font-size: 16px; fill: #000; opacity: 1;"></text><text text-anchor="end" transform="translate(-7,278.1273342005371)" style="font-family: sans-serif; font-size: 16px; fill: #000; opacity: 1;"></text><text text-anchor="end" transform="translate(-7,274.7171660373783)" style="font-family: sans-serif; font-size: 16px; fill: #000; opacity: 1;"></text><text text-anchor="end" transform="translate(-7,271.66666666666663)" style="font-family: sans-serif; font-size: 16px; fill: #000; opacity: 1;">1e+2</text><text text-anchor="end" transform="translate(-7,251.59800028906793)" style="font-family: sans-serif; font-size: 16px; fill: #000; opacity: 1;"></text><text text-anchor="end" transform="translate(-7,239.85858301868916)" style="font-family: sans-serif; font-size: 16px; fill: #000; opacity: 1;"></text><text text-anchor="end" transform="translate(-7,231.52933391146917)" style="font-family: sans-serif; font-size: 16px; fill: #000; opacity: 1;"></text><text text-anchor="end" transform="translate(-7,225.06866637759873)" style="font-family: sans-serif; font-size: 16px; fill: #000; opacity: 1;"></text><text text-anchor="end" transform="translate(-7,219.78991664109043)" style="font-family: sans-serif; font-size: 16px; fill: #000; opacity: 1;"></text><text text-anchor="end" transform="translate(-7,215.32679733238288)" style="font-family: sans-serif; font-size: 16px; fill: #000; opacity: 1;"></text><text text-anchor="end" transform="translate(-7,211.46066753387043)" style="font-family: sans-serif; font-size: 16px; fill: #000; opacity: 1;"></text><text text-anchor="end" transform="translate(-7,208.05049937071166)" style="font-family: sans-serif; font-size: 16px; fill: #000; opacity: 1;"></text><text text-anchor="end" transform="translate(-7,205)" style="font-family: sans-serif; font-size: 16px; fill: #000; opacity: 1;">1e+3</text><text text-anchor="end" transform="translate(-7,184.93133362240124)" style="font-family: sans-serif; font-size: 16px; fill: #000; opacity: 1;"></text><text text-anchor="end" transform="translate(-7,173.1919163520225)" style="font-family: sans-serif; font-size: 16px; fill: #000; opacity: 1;"></text><text text-anchor="end" transform="translate(-7,164.8626672448025)" style="font-family: sans-serif; font-size: 16px; fill: #000; opacity: 1;"></text><text text-anchor="end" transform="translate(-7,158.40199971093207)" style="font-family: sans-serif; font-size: 16px; fill: #000; opacity: 1;"></text><text text-anchor="end" transform="translate(-7,153.1232499744238)" style="font-family: sans-serif; font-size: 16px; fill: #000; opacity: 1;"></text><text text-anchor="end" transform="translate(-7,148.66013066571617)" style="font-family: sans-serif; font-size: 16px; fill: #000; opacity: 1;"></text><text text-anchor="end" transform="translate(-7,144.79400086720375)" style="font-family: sans-serif; font-size: 16px; fill: #000; opacity: 1;"></text><text text-anchor="end" transform="translate(-7,141.38383270404495)" style="font-family: sans-serif; font-size: 16px; fill: #000; opacity: 1;"></text><text text-anchor="end" transform="translate(-7,138.33333333333331)" style="font-family: sans-serif; font-size: 16px; fill: #000; opacity: 1;">1e+4</text><text text-anchor="end" transform="translate(-7,118.26466695573458)" style="font-family: sans-serif; font-size: 16px; fill: #000; opacity: 1;"></text><text text-anchor="end" transform="translate(-7,106.52524968535579)" style="font-family: sans-serif; font-size: 16px; fill: #000; opacity: 1;"></text><text text-anchor="end" transform="translate(-7,98.19600057813585)" style="font-family: sans-serif; font-size: 16px; fill: #000; opacity: 1;"></text><text text-anchor="end" transform="translate(-7,91.73533304426542)" style="font-family: sans-serif; font-size: 16px; fill: #000; opacity: 1;"></text><text text-anchor="end" transform="translate(-7,86.45658330775711)" style="font-family: sans-serif; font-size: 16px; fill: #000; opacity: 1;"></text><text text-anchor="end" transform="translate(-7,81.99346399904954)" style="font-family: sans-serif; font-size: 16px; fill: #000; opacity: 1;"></text><text text-anchor="end" transform="translate(-7,78.12733420053712)" style="font-family: sans-serif; font-size: 16px; fill: #000; opacity: 1;"></text><text text-anchor="end" transform="translate(-7,74.71716603737832)" style="font-family: sans-serif; font-size: 16px; fill: #000; opacity: 1;"></text><text text-anchor="end" transform="translate(-7,71.66666666666663)" style="font-family: sans-serif; font-size: 16px; fill: #000; opacity: 1;">1e+5</text><text text-anchor="end" transform="translate(-7,51.5980002890679)" style="font-family: sans-serif; font-size: 16px; fill: #000; opacity: 1;"></text><text text-anchor="end" transform="translate(-7,39.85858301868916)" style="font-family: sans-serif; font-size: 16px; fill: #000; opacity: 1;"></text><text text-anchor="end" transform="translate(-7,31.529333911469166)" style="font-family: sans-serif; font-size: 16px; fill: #000; opacity: 1;"></text><text text-anchor="end" transform="translate(-7,25.068666377598788)" style="font-family: sans-serif; font-size: 16px; fill: #000; opacity: 1;"></text><text text-anchor="end" transform="translate(-7,19.78991664109043)" style="font-family: sans-serif; font-size: 16px; fill: #000; opacity: 1;"></text><text text-anchor="end" transform="translate(-7,15.326797332382853)" style="font-family: sans-serif; font-size: 16px; fill: #000; opacity: 1;"></text><text text-anchor="end" transform="translate(-7,11.460667533870378)" style="font-family: sans-serif; font-size: 16px; fill: #000; opacity: 1;"></text><text text-anchor="end" transform="translate(-7,8.050499370711634)" style="font-family: sans-serif; font-size: 16px; fill: #000; opacity: 1;"></text><text text-anchor="end" transform="translate(-7,5)" style="font-family: sans-serif; font-size: 16px; fill: #000; opacity: 1;">1e+6</text></g><g class="mark-rule role-axis-domain" style="pointer-events: none;"><line transform="translate(0,400)" x2="0" y2="-400" style="fill: none; stroke: #888; stroke-width: 1; opacity: 1;"></line></g><g class="mark-text role-axis-title" style="pointer-events: none;"><text text-anchor="middle" transform="translate(-54,200) rotate(-90) translate(0,-4)" style="font-family: sans-serif; font-size: 20px; font-weight: bold; fill: #000; opacity: 1;">scattering_function</text></g></g></g></g></g></g></g></g></svg>