<svg class="marks" width="803" height="465" viewBox="0 0 803 465" version="1.1" xmlns="http://www.w3.org/2000/svg" xmlns:xlink="http://www.w3.org/1999/xlink"><rect width="803" height="465" style="fill: white;"></rect><g transform="translate(79,13)"><g class="mark-group role-frame root"><g transform="translate(0,0)"><path class="background" d="M0.5,0.5h600v400h-600Z" style="fill: none; stroke: #ddd;"></path><g><g class="mark-symbol role-mark layer_0_marks"><path transform="translate(600,24.534400090323572)" d="M2.7386127875258306,0A2.7386127875258306,2.7386127875258306,0,1,1,-2.7386127875258306,0A2.7386127875258306,2.7386127875258306,0,1,1,2.7386127875258306,0" style="fill: none; stroke: #4c78a8; stroke-width: 2; opacity: 0.7;"></path><path transform="translate(514.2857142857143,150.35811201691166)" d="M2.7386127875258306,0A2.7386127875258306,2.7386127875258306,0,1,1,-2.7386127875258306,0A2.7386127875258306,2.7386127875258306,0,1,1,2.7386127875258306,0" style="fill: none; stroke: #4c78a8; stroke-width: 2; opacity: 0.7;"></path><path transform="translate(450,232.98266962443762)" d="M2.7386127875258306,0A2.7386127875258306,2.7386127875258306,0,1,1,-2.7386127875258306,0A2.7386127875258306,2.7386127875258306,0,1,1,2.7386127875258306,0" style="fill: none; stroke: #4c78a8; stroke-width: 2; opacity: 0.7;"></path><path transform="translate(400.00000000000006,285.24012780125463)" d="M2.7386127875258306,0A2.7386127875258306,2.7386127875258306,0,1,1,-2.7386127875258306,0A2.7386127875258306,2.7386127875258306,0,1,1,2.7386127875258306,0" style="fill: none; stroke: #4c78a8; stroke-width: 2; opacity: 0.7;"></path><path transform="translate(360,315.71996082369907)" d="M2.7386127875258306,0A2.7386127875258306,2.7386127875258306,0,1,1,-2.7386127875258306,0A2.7386127875258306,2.7386127875258306,0,1,1,2.7386127875258306,0" style="fill: none; stroke: #4c78a8; stroke-width: 2; opacity: 0.7;"></path><path transform="translate(300,344.18238072353904)" d="M2.7386127875258306,0A2.7386127875258306,2.7386127875258306,0,1,1,-2.7386127875258306,0A2.7386127875258306,2.7386127875258306,0,1,1,2.7386127875258306,0" style="fill: none; stroke: #4c78a8; stroke-width: 2; opacity: 0.7;"></path><path transform="translate(225,367.98654220315484)" d="M2.7386127875258306,0A2.7386127875258306,2.7386127875258306,0,1,1,-2.7386127875258306,0A2.7386127875258306,2.7386127875258306,0,1,1,2.7386127875258306,0" style="fill: none; stroke: #4c78a8; stroke-width: 2; opacity: 0.7;"></path><path transform="translate(180,379.8477257342228)" d="M2.7386127875258306,0A2.7386127875258306,2.7386127875258306,0,1,1,-2.7386127875258306,0A2.7386127875258306,2.7386127875258306,0,1,1,2.7386127875258306,0" style="fill: none; stroke: #4c78a8; stroke-width: 2; opacity: 0.7;"></path><path transform="translate(540.0000000000001,104.45874024431367)" d="M2.7386127875258306,0A2.7386127875258306,2.7386127875258306,0,1,1,-2.7386127875258306,0A2.7386127875258306,2.7386127875258306,0,1,1,2.7386127875258306,0" style="fill: none; stroke: #f58518; stroke-width: 2; opacity: 0.7;"></path><path transform="translate(519.2307692307692,133.37287012131839)" d="M2.7386127875258306,0A2.7386127875258306,2.7386127875258306,0,1,1,-2.7386127875258306,0A2.7386127875258306,2.7386127875258306,0,1,1,2.7386127875258306,0" style="fill: none; stroke: #f58518; stroke-width: 2; opacity: 0.7;"></path><path transform="translate(500,157.89431321220607)" d="M2.7386127875258306,0A2.7386127875258306,2.7386127875258306,0,1,1,-2.7386127875258306,0A2.7386127875258306,2.7386127875258306,0,1,1,2.7386127875258306,0" style="fill: none; stroke: #f58518; stroke-width: 2; opacity: 0.7;"></path><path transform="translate(128.57142857142858,392.23272371397326)" d="M2.7386127875258306,0A2.7386127875258306,2.7386127875258306,0,1,1,-2.7386127875258306,0A2.7386127875258306,2.7386127875258306,0,1,1,2.7386127875258306,0" style="fill: none; stroke: #4c78a8; stroke-width: 2; opacity: 0.7;"></path><path transform="translate(482.1428571428572,180.59299550579007)" d="M2.7386127875258306,0A2.7386127875258306,2.7386127875258306,0,1,1,-2.7386127875258306,0A2.7386127875258306,2.7386127875258306,0,1,1,2.7386127875258306,0" style="fill: none; stroke: #f58518; stroke-width: 2; opacity: 0.7;"></path><path transform="translate(465.5172413793104,202.40268501102344)" d="M2.7386127875258306,0A2.7386127875258306,2.7386127875258306,0,1,1,-2.7386127875258306,0A2.7386127875258306,2.7386127875258306,0,1,1,2.7386127875258306,0" style="fill: none; stroke: #f58518; stroke-width: 2; opacity: 0.7;"></path><path transform="translate(450.00000000000006,221.35371281728317)" d="M2.7386127875258306,0A2.7386127875258306,2.7386127875258306,0,1,1,-2.7386127875258306,0A2.7386127875258306,2.7386127875258306,0,1,1,2.7386127875258306,0" style="fill: none; stroke: #f58518; stroke-width: 2; opacity: 0.7;"></path><path transform="translate(421.875,249.8311760984975)" d="M2.7386127875258306,0A2.7386127875258306,2.7386127875258306,0,1,1,-2.7386127875258306,0A2.7386127875258306,2.7386127875258306,0,1,1,2.7386127875258306,0" style="fill: none; stroke: #f58518; stroke-width: 2; opacity: 0.7;"></path><path transform="translate(100.00000000000001,399.2664443025616)" d="M2.7386127875258306,0A2.7386127875258306,2.7386127875258306,0,1,1,-2.7386127875258306,0A2.7386127875258306,2.7386127875258306,0,1,1,2.7386127875258306,0" style="fill: none; stroke: #4c78a8; stroke-width: 2; opacity: 0.7;"></path><path transform="translate(375,291.777119796929)" d="M2.7386127875258306,0A2.7386127875258306,2.7386127875258306,0,1,1,-2.7386127875258306,0A2.7386127875258306,2.7386127875258306,0,1,1,2.7386127875258306,0" style="fill: none; stroke: #f58518; stroke-width: 2; opacity: 0.7;"></path><path transform="translate(337.50000000000006,320.16739714517666)" d="M2.7386127875258306,0A2.7386127875258306,2.7386127875258306,0,1,1,-2.7386127875258306,0A2.7386127875258306,2.7386127875258306,0,1,1,2.7386127875258306,0" style="fill: none; stroke: #f58518; stroke-width: 2; opacity: 0.7;"></path><path transform="translate(270.00000000000006,354.66050668699063)" d="M2.7386127875258306,0A2.7386127875258306,2.7386127875258306,0,1,1,-2.7386127875258306,0A2.7386127875258306,2.7386127875258306,0,1,1,2.7386127875258306,0" style="fill: none; stroke: #f58518; stroke-width: 2; opacity: 0.7;"></path></g><g class="mark-rule role-mark layer_1_layer_0_marks"><line transform="translate(600,24.685609679944605)" x2="0" y2="-0.30150343205053787" style="fill: none; stroke: #4c78a8;"></line><line transform="translate(514.2857142857143,150.86614005821127)" x2="0" y2="-1.0058644688615175" style="fill: none; stroke: #4c78a8;"></line><line transform="translate(450,233.51742197848225)" x2="0" y2="-1.0582245163102755" style="fill: none; stroke: #4c78a8;"></line><line transform="translate(400.00000000000006,285.6615087101333)" x2="0" y2="-0.8357262155447529" style="fill: none; stroke: #4c78a8;"></line><line transform="translate(360,316.0667747117221)" x2="0" y2="-0.6888477930990575" style="fill: none; stroke: #4c78a8;"></line><line transform="translate(300,344.49427584253493)" x2="0" y2="-0.6199189781809764" style="fill: none; stroke: #4c78a8;"></line><line transform="translate(225,368.1329899258416)" x2="0" y2="-0.2920363034234015" style="fill: none; stroke: #4c78a8;"></line><line transform="translate(180,380.1656374678359)" x2="0" y2="-0.6318023705007931" style="fill: none; stroke: #4c78a8;"></line><line transform="translate(540.0000000000001,105.00161651168429)" x2="0" y2="-1.0741307153855928" style="fill: none; stroke: #f58518;"></line><line transform="translate(519.2307692307692,133.91605253646202)" x2="0" y2="-1.074730039265262" style="fill: none; stroke: #f58518;"></line><line transform="translate(500,158.42305901182644)" x2="0" y2="-1.0464607870274847" style="fill: none; stroke: #f58518;"></line><line transform="translate(128.57142857142858,392.49134466777576)" x2="0" y2="-0.5145745419280274" style="fill: none; stroke: #4c78a8;"></line><line transform="translate(482.1428571428572,181.15305603591398)" x2="0" y2="-1.1077601857259651" style="fill: none; stroke: #f58518;"></line><line transform="translate(465.5172413793104,202.96303786427882)" x2="0" y2="-1.1083320671472734" style="fill: none; stroke: #f58518;"></line><line transform="translate(450.00000000000006,222.18565372941688)" x2="0" y2="-1.6368947053382783" style="fill: none; stroke: #f58518;"></line><line transform="translate(421.875,250.68801385102185)" x2="0" y2="-1.6850765857447527" style="fill: none; stroke: #f58518;"></line><line transform="translate(100.00000000000001,399.5358590812792)" x2="0" y2="-0.5359361380175187" style="fill: none; stroke: #4c78a8;"></line><line transform="translate(375,294.41797484266044)" x2="0" y2="-5.0275192136434725" style="fill: none; stroke: #f58518;"></line><line transform="translate(337.50000000000006,321.63204455051624)" x2="0" y2="-2.8476499534846766" style="fill: none; stroke: #f58518;"></line><line transform="translate(270.00000000000006,356.0243496839808)" x2="0" y2="-2.6566225583947585" style="fill: none; stroke: #f58518;"></line></g><g class="mark-group role-legend"><g transform="translate(618,0)"><path class="background" d="M0,0h101v59h-101Z" style="pointer-events: none; fill: none;"></path><g><g class="mark-group role-legend-entry"><g transform="translate(0,25)"><path class="background" d="M0,0h0v0h0Z" style="pointer-events: none; fill: none;"></path><g><g class="mark-group role-scope"><g transform="translate(0,0)"><path class="background" d="M0,0h55v16h-55Z" style="pointer-events: none; fill: none; opacity: 1;"></path><g><g class="mark-symbol role-legend-symbol" style="pointer-events: none;"><path transform="translate(8,8)" d="M5,0A5,5,0,1,1,-5,0A5,5,0,1,1,5,0" style="fill: none; stroke: #4c78a8; stroke-width: 1.5; opacity: 0.7;"></path></g><g class="mark-text role-legend-label" style="pointer-events: none;"><text text-anchor="start" transform="translate(20,13)" style="font-family: sans-serif; font-size: 16px; fill: #000; opacity: 1;">1</text></g></g></g><g transform="translate(0,18)"><path class="background" d="M0,0h55v16h-55Z" style="pointer-events: none; fill: none; opacity: 1;"></path><g><g class="mark-symbol role-legend-symbol" style="pointer-events: none;"><path transform="translate(8,8)" d="M5,0A5,5,0,1,1,-5,0A5,5,0,1,1,5,0" style="fill: none; stroke: #f58518; stroke-width: 1.5; opacity: 0.7;"></path></g><g class="mark-text role-legend-label" style="pointer-events: none;"><text text-anchor="start" transform="translate(20,13)" style="font-family: sans-serif; font-size: 16px; fill: #000; opacity: 1;">13.5</text></g></g></g></g></g></g></g><g class="mark-text role-legend-title" style="pointer-events: none;"><text text-anchor="start" transform="translate(0,16)" style="font-family: sans-serif; font-size: 20px; font-weight: bold; fill: #000; opacity: 1;">Pressure</text></g></g></g></g><g class="mark-group role-axis"><g transform="translate(0.5,400.5)"><path class="background" d="M0,0h0v0h0Z" style="pointer-events: none; fill: none;"></path><g><g class="mark-rule role-axis-tick" style="pointer-events: none;"><line transform="translate(0,0)" x2="0" y2="5" style="fill: none; stroke: #888; stroke-width: 1; opacity: 1;"></line><line transform="translate(50,0)" x2="0" y2="5" style="fill: none; stroke: #888; stroke-width: 1; opacity: 1;"></line><line transform="translate(100,0)" x2="0" y2="5" style="fill: none; stroke: #888; stroke-width: 1; opacity: 1;"></line><line transform="translate(150,0)" x2="0" y2="5" style="fill: none; stroke: #888; stroke-width: 1; opacity: 1;"></line><line transform="translate(200,0)" x2="0" y2="5" style="fill: none; stroke: #888; stroke-width: 1; opacity: 1;"></line><line transform="translate(250,0)" x2="0" y2="5" style="fill: none; stroke: #888; stroke-width: 1; opacity: 1;"></line><line transform="translate(300,0)" x2="0" y2="5" style="fill: none; stroke: #888; stroke-width: 1; opacity: 1;"></line><line transform="translate(350,0)" x2="0" y2="5" style="fill: none; stroke: #888; stroke-width: 1; opacity: 1;"></line><line transform="translate(400,0)" x2="0" y2="5" style="fill: none; stroke: #888; stroke-width: 1; opacity: 1;"></line><line transform="translate(450,0)" x2="0" y2="5" style="fill: none; stroke: #888; stroke-width: 1; opacity: 1;"></line><line transform="translate(500,0)" x2="0" y2="5" style="fill: none; stroke: #888; stroke-width: 1; opacity: 1;"></line><line transform="translate(550,0)" x2="0" y2="5" style="fill: none; stroke: #888; stroke-width: 1; opacity: 1;"></line><line transform="translate(600,0)" x2="0" y2="5" style="fill: none; stroke: #888; stroke-width: 1; opacity: 1;"></line></g><g class="mark-text role-axis-label" style="pointer-events: none;"><text text-anchor="start" transform="translate(0,20)" style="font-family: sans-serif; font-size: 16px; fill: #000; opacity: 1;">0.0</text><text text-anchor="middle" transform="translate(50.00000000000001,20)" style="font-family: sans-serif; font-size: 16px; fill: #000; opacity: 1;">0.10</text><text text-anchor="middle" transform="translate(100.00000000000001,20)" style="font-family: sans-serif; font-size: 16px; fill: #000; opacity: 1;">0.20</text><text text-anchor="middle" transform="translate(150,20)" style="font-family: sans-serif; font-size: 16px; fill: #000; opacity: 1;">0.30</text><text text-anchor="middle" transform="translate(200.00000000000003,20)" style="font-family: sans-serif; font-size: 16px; fill: #000; opacity: 1;">0.40</text><text text-anchor="middle" transform="translate(250,20)" style="font-family: sans-serif; font-size: 16px; fill: #000; opacity: 1;">0.50</text><text text-anchor="middle" transform="translate(300,20)" style="font-family: sans-serif; font-size: 16px; fill: #000; opacity: 1;">0.60</text><text text-anchor="middle" transform="translate(350,20)" style="font-family: sans-serif; font-size: 16px; fill: #000; opacity: 1;">0.70</text><text text-anchor="middle" transform="translate(400.00000000000006,20)" style="font-family: sans-serif; font-size: 16px; fill: #000; opacity: 1;">0.80</text><text text-anchor="middle" transform="translate(450,20)" style="font-family: sans-serif; font-size: 16px; fill: #000; opacity: 1;">0.90</text><text text-anchor="middle" transform="translate(500,20)" style="font-family: sans-serif; font-size: 16px; fill: #000; opacity: 1;">1.0</text><text text-anchor="middle" transform="translate(550,20)" style="font-family: sans-serif; font-size: 16px; fill: #000; opacity: 1;">1.1</text><text text-anchor="end" transform="translate(600,20)" style="font-family: sans-serif; font-size: 16px; fill: #000; opacity: 1;">1.2</text></g><g class="mark-rule role-axis-domain" style="pointer-events: none;"><line transform="translate(0,0)" x2="600" y2="0" style="fill: none; stroke: #888; stroke-width: 1; opacity: 1;"></line></g><g class="mark-text role-axis-title" style="pointer-events: none;"><text text-anchor="middle" transform="translate(300,43)" style="font-family: sans-serif; font-size: 20px; font-weight: bold; fill: #000; opacity: 1;">Tₘ/T</text></g></g></g></g><g class="mark-group role-axis"><g transform="translate(0.5,0.5)"><path class="background" d="M0,0h0v0h0Z" style="pointer-events: none; fill: none;"></path><g><g class="mark-rule role-axis-tick" style="pointer-events: none;"><line transform="translate(0,400)" x2="-5" y2="0" style="fill: none; stroke: #888; stroke-width: 1; opacity: 1;"></line><line transform="translate(0,383)" x2="-5" y2="0" style="fill: none; stroke: #888; stroke-width: 1; opacity: 1;"></line><line transform="translate(0,373)" x2="-5" y2="0" style="fill: none; stroke: #888; stroke-width: 1; opacity: 1;"></line><line transform="translate(0,366)" x2="-5" y2="0" style="fill: none; stroke: #888; stroke-width: 1; opacity: 1;"></line><line transform="translate(0,360)" x2="-5" y2="0" style="fill: none; stroke: #888; stroke-width: 1; opacity: 1;"></line><line transform="translate(0,356)" x2="-5" y2="0" style="fill: none; stroke: #888; stroke-width: 1; opacity: 1;"></line><line transform="translate(0,352)" x2="-5" y2="0" style="fill: none; stroke: #888; stroke-width: 1; opacity: 1;"></line><line transform="translate(0,348)" x2="-5" y2="0" style="fill: none; stroke: #888; stroke-width: 1; opacity: 1;"></line><line transform="translate(0,345)" x2="-5" y2="0" style="fill: none; stroke: #888; stroke-width: 1; opacity: 1;"></line><line transform="translate(0,343)" x2="-5" y2="0" style="fill: none; stroke: #888; stroke-width: 1; opacity: 1;"></line><line transform="translate(0,326)" x2="-5" y2="0" style="fill: none; stroke: #888; stroke-width: 1; opacity: 1;"></line><line transform="translate(0,316)" x2="-5" y2="0" style="fill: none; stroke: #888; stroke-width: 1; opacity: 1;"></line><line transform="translate(0,308)" x2="-5" y2="0" style="fill: none; stroke: #888; stroke-width: 1; opacity: 1;"></line><line transform="translate(0,303)" x2="-5" y2="0" style="fill: none; stroke: #888; stroke-width: 1; opacity: 1;"></line><line transform="translate(0,298)" x2="-5" y2="0" style="fill: none; stroke: #888; stroke-width: 1; opacity: 1;"></line><line transform="translate(0,295)" x2="-5" y2="0" style="fill: none; stroke: #888; stroke-width: 1; opacity: 1;"></line><line transform="translate(0,291)" x2="-5" y2="0" style="fill: none; stroke: #888; stroke-width: 1; opacity: 1;"></line><line transform="translate(0,288)" x2="-5" y2="0" style="fill: none; stroke: #888; stroke-width: 1; opacity: 1;"></line><line transform="translate(0,286)" x2="-5" y2="0" style="fill: none; stroke: #888; stroke-width: 1; opacity: 1;"></line><line transform="translate(0,269)" x2="-5" y2="0" style="fill: none; stroke: #888; stroke-width: 1; opacity: 1;"></line><line transform="translate(0,258)" x2="-5" y2="0" style="fill: none; stroke: #888; stroke-width: 1; opacity: 1;"></line><line transform="translate(0,251)" x2="-5" y2="0" style="fill: none; stroke: #888; stroke-width: 1; opacity: 1;"></line><line transform="translate(0,246)" x2="-5" y2="0" style="fill: none; stroke: #888; stroke-width: 1; opacity: 1;"></line><line transform="translate(0,241)" x2="-5" y2="0" style="fill: none; stroke: #888; stroke-width: 1; opacity: 1;"></line><line transform="translate(0,237)" x2="-5" y2="0" style="fill: none; stroke: #888; stroke-width: 1; opacity: 1;"></line><line transform="translate(0,234)" x2="-5" y2="0" style="fill: none; stroke: #888; stroke-width: 1; opacity: 1;"></line><line transform="translate(0,231)" x2="-5" y2="0" style="fill: none; stroke: #888; stroke-width: 1; opacity: 1;"></line><line transform="translate(0,229)" x2="-5" y2="0" style="fill: none; stroke: #888; stroke-width: 1; opacity: 1;"></line><line transform="translate(0,211)" x2="-5" y2="0" style="fill: none; stroke: #888; stroke-width: 1; opacity: 1;"></line><line transform="translate(0,201)" x2="-5" y2="0" style="fill: none; stroke: #888; stroke-width: 1; opacity: 1;"></line><line transform="translate(0,194)" x2="-5" y2="0" style="fill: none; stroke: #888; stroke-width: 1; opacity: 1;"></line><line transform="translate(0,189)" x2="-5" y2="0" style="fill: none; stroke: #888; stroke-width: 1; opacity: 1;"></line><line transform="translate(0,184)" x2="-5" y2="0" style="fill: none; stroke: #888; stroke-width: 1; opacity: 1;"></line><line transform="translate(0,180)" x2="-5" y2="0" style="fill: none; stroke: #888; stroke-width: 1; opacity: 1;"></line><line transform="translate(0,177)" x2="-5" y2="0" style="fill: none; stroke: #888; stroke-width: 1; opacity: 1;"></line><line transform="translate(0,174)" x2="-5" y2="0" style="fill: none; stroke: #888; stroke-width: 1; opacity: 1;"></line><line transform="translate(0,171)" x2="-5" y2="0" style="fill: none; stroke: #888; stroke-width: 1; opacity: 1;"></line><line transform="translate(0,154)" x2="-5" y2="0" style="fill: none; stroke: #888; stroke-width: 1; opacity: 1;"></line><line transform="translate(0,144)" x2="-5" y2="0" style="fill: none; stroke: #888; stroke-width: 1; opacity: 1;"></line><line transform="translate(0,137)" x2="-5" y2="0" style="fill: none; stroke: #888; stroke-width: 1; opacity: 1;"></line><line transform="translate(0,131)" x2="-5" y2="0" style="fill: none; stroke: #888; stroke-width: 1; opacity: 1;"></line><line transform="translate(0,127)" x2="-5" y2="0" style="fill: none; stroke: #888; stroke-width: 1; opacity: 1;"></line><line transform="translate(0,123)" x2="-5" y2="0" style="fill: none; stroke: #888; stroke-width: 1; opacity: 1;"></line><line transform="translate(0,120)" x2="-5" y2="0" style="fill: none; stroke: #888; stroke-width: 1; opacity: 1;"></line><line transform="translate(0,117)" x2="-5" y2="0" style="fill: none; stroke: #888; stroke-width: 1; opacity: 1;"></line><line transform="translate(0,114)" x2="-5" y2="0" style="fill: none; stroke: #888; stroke-width: 1; opacity: 1;"></line><line transform="translate(0,97)" x2="-5" y2="0" style="fill: none; stroke: #888; stroke-width: 1; opacity: 1;"></line><line transform="translate(0,87)" x2="-5" y2="0" style="fill: none; stroke: #888; stroke-width: 1; opacity: 1;"></line><line transform="translate(0,80)" x2="-5" y2="0" style="fill: none; stroke: #888; stroke-width: 1; opacity: 1;"></line><line transform="translate(0,74)" x2="-5" y2="0" style="fill: none; stroke: #888; stroke-width: 1; opacity: 1;"></line><line transform="translate(0,70)" x2="-5" y2="0" style="fill: none; stroke: #888; stroke-width: 1; opacity: 1;"></line><line transform="translate(0,66)" x2="-5" y2="0" style="fill: none; stroke: #888; stroke-width: 1; opacity: 1;"></line><line transform="translate(0,63)" x2="-5" y2="0" style="fill: none; stroke: #888; stroke-width: 1; opacity: 1;"></line><line transform="translate(0,60)" x2="-5" y2="0" style="fill: none; stroke: #888; stroke-width: 1; opacity: 1;"></line><line transform="translate(0,57)" x2="-5" y2="0" style="fill: none; stroke: #888; stroke-width: 1; opacity: 1;"></line><line transform="translate(0,40)" x2="-5" y2="0" style="fill: none; stroke: #888; stroke-width: 1; opacity: 1;"></line><line transform="translate(0,30)" x2="-5" y2="0" style="fill: none; stroke: #888; stroke-width: 1; opacity: 1;"></line><line transform="translate(0,23)" x2="-5" y2="0" style="fill: none; stroke: #888; stroke-width: 1; opacity: 1;"></line><line transform="translate(0,17)" x2="-5" y2="0" style="fill: none; stroke: #888; stroke-width: 1; opacity: 1;"></line><line transform="translate(0,13)" x2="-5" y2="0" style="fill: none; stroke: #888; stroke-width: 1; opacity: 1;"></line><line transform="translate(0,9)" x2="-5" y2="0" style="fill: none; stroke: #888; stroke-width: 1; opacity: 1;"></line><line transform="translate(0,6)" x2="-5" y2="0" style="fill: none; stroke: #888; stroke-width: 1; opacity: 1;"></line><line transform="translate(0,3)" x2="-5" y2="0" style="fill: none; stroke: #888; stroke-width: 1; opacity: 1;"></line><line transform="translate(0,0)" x2="-5" y2="0" style="fill: none; stroke: #888; stroke-width: 1; opacity: 1;"></line></g><g class="mark-text role-axis-label" style="pointer-events: none;"><text text-anchor="end" transform="translate(-7,405)" style="font-family: sans-serif; font-size: 16px; fill: #000; opacity: 1;">1e+0</text><text text-anchor="end" transform="translate(-7,387.79828596205823)" style="font-family: sans-serif; font-size: 16px; fill: #000; opacity: 1;"></text><text text-anchor="end" transform="translate(-7,377.73592830173357)" style="font-family: sans-serif; font-size: 16px; fill: #000; opacity: 1;"></text><text text-anchor="end" transform="translate(-7,370.59657192411646)" style="font-family: sans-serif; font-size: 16px; fill: #000; opacity: 1;"></text><text text-anchor="end" transform="translate(-7,365.05885689508466)" style="font-family: sans-serif; font-size: 16px; fill: #000; opacity: 1;"></text><text text-anchor="end" transform="translate(-7,360.5342142637918)" style="font-family: sans-serif; font-size: 16px; fill: #000; opacity: 1;"></text><text text-anchor="end" transform="translate(-7,356.70868342775674)" style="font-family: sans-serif; font-size: 16px; fill: #000; opacity: 1;"></text><text text-anchor="end" transform="translate(-7,353.39485788617463)" style="font-family: sans-serif; font-size: 16px; fill: #000; opacity: 1;"></text><text text-anchor="end" transform="translate(-7,350.47185660346713)" style="font-family: sans-serif; font-size: 16px; fill: #000; opacity: 1;"></text><text text-anchor="end" transform="translate(-7,347.85714285714283)" style="font-family: sans-serif; font-size: 16px; fill: #000; opacity: 1;">1e+1</text><text text-anchor="end" transform="translate(-7,330.65542881920106)" style="font-family: sans-serif; font-size: 16px; fill: #000; opacity: 1;"></text><text text-anchor="end" transform="translate(-7,320.59307115887646)" style="font-family: sans-serif; font-size: 16px; fill: #000; opacity: 1;"></text><text text-anchor="end" transform="translate(-7,313.4537147812593)" style="font-family: sans-serif; font-size: 16px; fill: #000; opacity: 1;"></text><text text-anchor="end" transform="translate(-7,307.9159997522275)" style="font-family: sans-serif; font-size: 16px; fill: #000; opacity: 1;"></text><text text-anchor="end" transform="translate(-7,303.3913571209347)" style="font-family: sans-serif; font-size: 16px; fill: #000; opacity: 1;"></text><text text-anchor="end" transform="translate(-7,299.5658262848996)" style="font-family: sans-serif; font-size: 16px; fill: #000; opacity: 1;"></text><text text-anchor="end" transform="translate(-7,296.2520007433175)" style="font-family: sans-serif; font-size: 16px; fill: #000; opacity: 1;"></text><text text-anchor="end" transform="translate(-7,293.32899946061)" style="font-family: sans-serif; font-size: 16px; fill: #000; opacity: 1;"></text><text text-anchor="end" transform="translate(-7,290.71428571428567)" style="font-family: sans-serif; font-size: 16px; fill: #000; opacity: 1;">1e+2</text><text text-anchor="end" transform="translate(-7,273.51257167634395)" style="font-family: sans-serif; font-size: 16px; fill: #000; opacity: 1;"></text><text text-anchor="end" transform="translate(-7,263.45021401601934)" style="font-family: sans-serif; font-size: 16px; fill: #000; opacity: 1;"></text><text text-anchor="end" transform="translate(-7,256.3108576384021)" style="font-family: sans-serif; font-size: 16px; fill: #000; opacity: 1;"></text><text text-anchor="end" transform="translate(-7,250.77314260937038)" style="font-family: sans-serif; font-size: 16px; fill: #000; opacity: 1;"></text><text text-anchor="end" transform="translate(-7,246.24849997807752)" style="font-family: sans-serif; font-size: 16px; fill: #000; opacity: 1;"></text><text text-anchor="end" transform="translate(-7,242.4229691420425)" style="font-family: sans-serif; font-size: 16px; fill: #000; opacity: 1;"></text><text text-anchor="end" transform="translate(-7,239.10914360046038)" style="font-family: sans-serif; font-size: 16px; fill: #000; opacity: 1;"></text><text text-anchor="end" transform="translate(-7,236.18614231775288)" style="font-family: sans-serif; font-size: 16px; fill: #000; opacity: 1;"></text><text text-anchor="end" transform="translate(-7,233.57142857142858)" style="font-family: sans-serif; font-size: 16px; fill: #000; opacity: 1;">1e+3</text><text text-anchor="end" transform="translate(-7,216.3697145334868)" style="font-family: sans-serif; font-size: 16px; fill: #000; opacity: 1;"></text><text text-anchor="end" transform="translate(-7,206.30735687316218)" style="font-family: sans-serif; font-size: 16px; fill: #000; opacity: 1;"></text><text text-anchor="end" transform="translate(-7,199.16800049554502)" style="font-family: sans-serif; font-size: 16px; fill: #000; opacity: 1;"></text><text text-anchor="end" transform="translate(-7,193.63028546651321)" style="font-family: sans-serif; font-size: 16px; fill: #000; opacity: 1;"></text><text text-anchor="end" transform="translate(-7,189.1056428352204)" style="font-family: sans-serif; font-size: 16px; fill: #000; opacity: 1;"></text><text text-anchor="end" transform="translate(-7,185.28011199918535)" style="font-family: sans-serif; font-size: 16px; fill: #000; opacity: 1;"></text><text text-anchor="end" transform="translate(-7,181.96628645760325)" style="font-family: sans-serif; font-size: 16px; fill: #000; opacity: 1;"></text><text text-anchor="end" transform="translate(-7,179.04328517489574)" style="font-family: sans-serif; font-size: 16px; fill: #000; opacity: 1;"></text><text text-anchor="end" transform="translate(-7,176.4285714285714)" style="font-family: sans-serif; font-size: 16px; fill: #000; opacity: 1;">1e+4</text><text text-anchor="end" transform="translate(-7,159.22685739062968)" style="font-family: sans-serif; font-size: 16px; fill: #000; opacity: 1;"></text><text text-anchor="end" transform="translate(-7,149.164499730305)" style="font-family: sans-serif; font-size: 16px; fill: #000; opacity: 1;"></text><text text-anchor="end" transform="translate(-7,142.0251433526879)" style="font-family: sans-serif; font-size: 16px; fill: #000; opacity: 1;"></text><text text-anchor="end" transform="translate(-7,136.4874283236561)" style="font-family: sans-serif; font-size: 16px; fill: #000; opacity: 1;"></text><text text-anchor="end" transform="translate(-7,131.96278569236324)" style="font-family: sans-serif; font-size: 16px; fill: #000; opacity: 1;"></text><text text-anchor="end" transform="translate(-7,128.13725485632824)" style="font-family: sans-serif; font-size: 16px; fill: #000; opacity: 1;"></text><text text-anchor="end" transform="translate(-7,124.82342931474614)" style="font-family: sans-serif; font-size: 16px; fill: #000; opacity: 1;"></text><text text-anchor="end" transform="translate(-7,121.90042803203863)" style="font-family: sans-serif; font-size: 16px; fill: #000; opacity: 1;"></text><text text-anchor="end" transform="translate(-7,119.28571428571428)" style="font-family: sans-serif; font-size: 16px; fill: #000; opacity: 1;">1e+5</text><text text-anchor="end" transform="translate(-7,102.08400024777251)" style="font-family: sans-serif; font-size: 16px; fill: #000; opacity: 1;"></text><text text-anchor="end" transform="translate(-7,92.0216425874479)" style="font-family: sans-serif; font-size: 16px; fill: #000; opacity: 1;"></text><text text-anchor="end" transform="translate(-7,84.88228620983074)" style="font-family: sans-serif; font-size: 16px; fill: #000; opacity: 1;"></text><text text-anchor="end" transform="translate(-7,79.34457118079894)" style="font-family: sans-serif; font-size: 16px; fill: #000; opacity: 1;"></text><text text-anchor="end" transform="translate(-7,74.81992854950613)" style="font-family: sans-serif; font-size: 16px; fill: #000; opacity: 1;"></text><text text-anchor="end" transform="translate(-7,70.99439771347107)" style="font-family: sans-serif; font-size: 16px; fill: #000; opacity: 1;"></text><text text-anchor="end" transform="translate(-7,67.68057217188897)" style="font-family: sans-serif; font-size: 16px; fill: #000; opacity: 1;"></text><text text-anchor="end" transform="translate(-7,64.75757088918141)" style="font-family: sans-serif; font-size: 16px; fill: #000; opacity: 1;"></text><text text-anchor="end" transform="translate(-7,62.14285714285717)" style="font-family: sans-serif; font-size: 16px; fill: #000; opacity: 1;">1e+6</text><text text-anchor="end" transform="translate(-7,44.9411431049154)" style="font-family: sans-serif; font-size: 16px; fill: #000; opacity: 1;"></text><text text-anchor="end" transform="translate(-7,34.87878544459073)" style="font-family: sans-serif; font-size: 16px; fill: #000; opacity: 1;"></text><text text-anchor="end" transform="translate(-7,27.739429066973628)" style="font-family: sans-serif; font-size: 16px; fill: #000; opacity: 1;"></text><text text-anchor="end" transform="translate(-7,22.20171403794177)" style="font-family: sans-serif; font-size: 16px; fill: #000; opacity: 1;"></text><text text-anchor="end" transform="translate(-7,17.677071406648906)" style="font-family: sans-serif; font-size: 16px; fill: #000; opacity: 1;"></text><text text-anchor="end" transform="translate(-7,13.851540570613906)" style="font-family: sans-serif; font-size: 16px; fill: #000; opacity: 1;"></text><text text-anchor="end" transform="translate(-7,10.537715029031801)" style="font-family: sans-serif; font-size: 16px; fill: #000; opacity: 1;"></text><text text-anchor="end" transform="translate(-7,7.614713746324355)" style="font-family: sans-serif; font-size: 16px; fill: #000; opacity: 1;"></text><text text-anchor="end" transform="translate(-7,5)" style="font-family: sans-serif; font-size: 16px; fill: #000; opacity: 1;">1e+7</text></g><g class="mark-rule role-axis-domain" style="pointer-events: none;"><line transform="translate(0,400)" x2="0" y2="-400" style="fill: none; stroke: #888; stroke-width: 1; opacity: 1;"></line></g><g class="mark-text role-axis-title" style="pointer-events: none;"><text text-anchor="middle" transform="translate(-54,200) rotate(-90) translate(0,-4)" style="font-family: sans-serif; font-size: 20px; font-weight: bold; fill: #000; opacity: 1;">scattering_function</text></g></g></g></g></g></g></g></g></svg>