<?xml version="1.0" encoding="utf-8" standalone="no"?>
<!DOCTYPE svg PUBLIC "-//W3C//DTD SVG 1.1//EN"
  "http://www.w3.org/Graphics/SVG/1.1/DTD/svg11.dtd">
<!-- Created with matplotlib (https://matplotlib.org/) -->
<svg height="345.6pt" version="1.1" viewBox="0 0 460.8 345.6" width="460.8pt" xmlns="http://www.w3.org/2000/svg" xmlns:xlink="http://www.w3.org/1999/xlink">
 <defs>
  <style type="text/css">
*{stroke-linecap:butt;stroke-linejoin:round;}
  </style>
 </defs>
 <g id="figure_1">
  <g id="patch_1">
   <path d="M 0 345.6 
L 460.8 345.6 
L 460.8 0 
L 0 0 
z
" style="fill:#ffffff;"/>
  </g>
  <g id="axes_1">
   <g id="patch_2">
    <path d="M 57.6 307.584 
L 414.72 307.584 
L 414.72 41.472 
L 57.6 41.472 
z
" style="fill:#ffffff;"/>
   </g>
   <g id="matplotlib.axis_1">
    <g id="xtick_1">
     <g id="line2d_1">
      <defs>
       <path d="M 0 0 
L 0 3.5 
" id="m5876876a97" style="stroke:#000000;stroke-width:0.8;"/>
      </defs>
      <g>
       <use style="stroke:#000000;stroke-width:0.8;" x="73.007757" xlink:href="#m5876876a97" y="307.584"/>
      </g>
     </g>
     <g id="text_1">
      <!-- 0 -->
      <defs>
       <path d="M 31.78125 66.40625 
Q 24.171875 66.40625 20.328125 58.90625 
Q 16.5 51.421875 16.5 36.375 
Q 16.5 21.390625 20.328125 13.890625 
Q 24.171875 6.390625 31.78125 6.390625 
Q 39.453125 6.390625 43.28125 13.890625 
Q 47.125 21.390625 47.125 36.375 
Q 47.125 51.421875 43.28125 58.90625 
Q 39.453125 66.40625 31.78125 66.40625 
z
M 31.78125 74.21875 
Q 44.046875 74.21875 50.515625 64.515625 
Q 56.984375 54.828125 56.984375 36.375 
Q 56.984375 17.96875 50.515625 8.265625 
Q 44.046875 -1.421875 31.78125 -1.421875 
Q 19.53125 -1.421875 13.0625 8.265625 
Q 6.59375 17.96875 6.59375 36.375 
Q 6.59375 54.828125 13.0625 64.515625 
Q 19.53125 74.21875 31.78125 74.21875 
z
" id="DejaVuSans-48"/>
      </defs>
      <g transform="translate(69.826507 322.182437)scale(0.1 -0.1)">
       <use xlink:href="#DejaVuSans-48"/>
      </g>
     </g>
    </g>
    <g id="xtick_2">
     <g id="line2d_2">
      <g>
       <use style="stroke:#000000;stroke-width:0.8;" x="121.90606" xlink:href="#m5876876a97" y="307.584"/>
      </g>
     </g>
     <g id="text_2">
      <!-- 5 -->
      <defs>
       <path d="M 10.796875 72.90625 
L 49.515625 72.90625 
L 49.515625 64.59375 
L 19.828125 64.59375 
L 19.828125 46.734375 
Q 21.96875 47.46875 24.109375 47.828125 
Q 26.265625 48.1875 28.421875 48.1875 
Q 40.625 48.1875 47.75 41.5 
Q 54.890625 34.8125 54.890625 23.390625 
Q 54.890625 11.625 47.5625 5.09375 
Q 40.234375 -1.421875 26.90625 -1.421875 
Q 22.3125 -1.421875 17.546875 -0.640625 
Q 12.796875 0.140625 7.71875 1.703125 
L 7.71875 11.625 
Q 12.109375 9.234375 16.796875 8.0625 
Q 21.484375 6.890625 26.703125 6.890625 
Q 35.15625 6.890625 40.078125 11.328125 
Q 45.015625 15.765625 45.015625 23.390625 
Q 45.015625 31 40.078125 35.4375 
Q 35.15625 39.890625 26.703125 39.890625 
Q 22.75 39.890625 18.8125 39.015625 
Q 14.890625 38.140625 10.796875 36.28125 
z
" id="DejaVuSans-53"/>
      </defs>
      <g transform="translate(118.72481 322.182437)scale(0.1 -0.1)">
       <use xlink:href="#DejaVuSans-53"/>
      </g>
     </g>
    </g>
    <g id="xtick_3">
     <g id="line2d_3">
      <g>
       <use style="stroke:#000000;stroke-width:0.8;" x="170.804363" xlink:href="#m5876876a97" y="307.584"/>
      </g>
     </g>
     <g id="text_3">
      <!-- 10 -->
      <defs>
       <path d="M 12.40625 8.296875 
L 28.515625 8.296875 
L 28.515625 63.921875 
L 10.984375 60.40625 
L 10.984375 69.390625 
L 28.421875 72.90625 
L 38.28125 72.90625 
L 38.28125 8.296875 
L 54.390625 8.296875 
L 54.390625 0 
L 12.40625 0 
z
" id="DejaVuSans-49"/>
      </defs>
      <g transform="translate(164.441863 322.182437)scale(0.1 -0.1)">
       <use xlink:href="#DejaVuSans-49"/>
       <use x="63.623047" xlink:href="#DejaVuSans-48"/>
      </g>
     </g>
    </g>
    <g id="xtick_4">
     <g id="line2d_4">
      <g>
       <use style="stroke:#000000;stroke-width:0.8;" x="219.702666" xlink:href="#m5876876a97" y="307.584"/>
      </g>
     </g>
     <g id="text_4">
      <!-- 15 -->
      <g transform="translate(213.340166 322.182437)scale(0.1 -0.1)">
       <use xlink:href="#DejaVuSans-49"/>
       <use x="63.623047" xlink:href="#DejaVuSans-53"/>
      </g>
     </g>
    </g>
    <g id="xtick_5">
     <g id="line2d_5">
      <g>
       <use style="stroke:#000000;stroke-width:0.8;" x="268.600969" xlink:href="#m5876876a97" y="307.584"/>
      </g>
     </g>
     <g id="text_5">
      <!-- 20 -->
      <defs>
       <path d="M 19.1875 8.296875 
L 53.609375 8.296875 
L 53.609375 0 
L 7.328125 0 
L 7.328125 8.296875 
Q 12.9375 14.109375 22.625 23.890625 
Q 32.328125 33.6875 34.8125 36.53125 
Q 39.546875 41.84375 41.421875 45.53125 
Q 43.3125 49.21875 43.3125 52.78125 
Q 43.3125 58.59375 39.234375 62.25 
Q 35.15625 65.921875 28.609375 65.921875 
Q 23.96875 65.921875 18.8125 64.3125 
Q 13.671875 62.703125 7.8125 59.421875 
L 7.8125 69.390625 
Q 13.765625 71.78125 18.9375 73 
Q 24.125 74.21875 28.421875 74.21875 
Q 39.75 74.21875 46.484375 68.546875 
Q 53.21875 62.890625 53.21875 53.421875 
Q 53.21875 48.921875 51.53125 44.890625 
Q 49.859375 40.875 45.40625 35.40625 
Q 44.1875 33.984375 37.640625 27.21875 
Q 31.109375 20.453125 19.1875 8.296875 
z
" id="DejaVuSans-50"/>
      </defs>
      <g transform="translate(262.238469 322.182437)scale(0.1 -0.1)">
       <use xlink:href="#DejaVuSans-50"/>
       <use x="63.623047" xlink:href="#DejaVuSans-48"/>
      </g>
     </g>
    </g>
    <g id="xtick_6">
     <g id="line2d_6">
      <g>
       <use style="stroke:#000000;stroke-width:0.8;" x="317.499272" xlink:href="#m5876876a97" y="307.584"/>
      </g>
     </g>
     <g id="text_6">
      <!-- 25 -->
      <g transform="translate(311.136772 322.182437)scale(0.1 -0.1)">
       <use xlink:href="#DejaVuSans-50"/>
       <use x="63.623047" xlink:href="#DejaVuSans-53"/>
      </g>
     </g>
    </g>
    <g id="xtick_7">
     <g id="line2d_7">
      <g>
       <use style="stroke:#000000;stroke-width:0.8;" x="366.397575" xlink:href="#m5876876a97" y="307.584"/>
      </g>
     </g>
     <g id="text_7">
      <!-- 30 -->
      <defs>
       <path d="M 40.578125 39.3125 
Q 47.65625 37.796875 51.625 33 
Q 55.609375 28.21875 55.609375 21.1875 
Q 55.609375 10.40625 48.1875 4.484375 
Q 40.765625 -1.421875 27.09375 -1.421875 
Q 22.515625 -1.421875 17.65625 -0.515625 
Q 12.796875 0.390625 7.625 2.203125 
L 7.625 11.71875 
Q 11.71875 9.328125 16.59375 8.109375 
Q 21.484375 6.890625 26.8125 6.890625 
Q 36.078125 6.890625 40.9375 10.546875 
Q 45.796875 14.203125 45.796875 21.1875 
Q 45.796875 27.640625 41.28125 31.265625 
Q 36.765625 34.90625 28.71875 34.90625 
L 20.21875 34.90625 
L 20.21875 43.015625 
L 29.109375 43.015625 
Q 36.375 43.015625 40.234375 45.921875 
Q 44.09375 48.828125 44.09375 54.296875 
Q 44.09375 59.90625 40.109375 62.90625 
Q 36.140625 65.921875 28.71875 65.921875 
Q 24.65625 65.921875 20.015625 65.03125 
Q 15.375 64.15625 9.8125 62.3125 
L 9.8125 71.09375 
Q 15.4375 72.65625 20.34375 73.4375 
Q 25.25 74.21875 29.59375 74.21875 
Q 40.828125 74.21875 47.359375 69.109375 
Q 53.90625 64.015625 53.90625 55.328125 
Q 53.90625 49.265625 50.4375 45.09375 
Q 46.96875 40.921875 40.578125 39.3125 
z
" id="DejaVuSans-51"/>
      </defs>
      <g transform="translate(360.035075 322.182437)scale(0.1 -0.1)">
       <use xlink:href="#DejaVuSans-51"/>
       <use x="63.623047" xlink:href="#DejaVuSans-48"/>
      </g>
     </g>
    </g>
    <g id="text_8">
     <!-- $k$ -->
     <defs>
      <path d="M 18.3125 75.984375 
L 27.296875 75.984375 
L 18.703125 31.6875 
L 49.515625 54.6875 
L 61.1875 54.6875 
L 26.8125 28.515625 
L 51.90625 0 
L 41.015625 0 
L 17.671875 26.703125 
L 12.5 0 
L 3.515625 0 
z
" id="DejaVuSans-Oblique-107"/>
     </defs>
     <g transform="translate(233.26 335.860562)scale(0.1 -0.1)">
      <use transform="translate(0 0.015625)" xlink:href="#DejaVuSans-Oblique-107"/>
     </g>
    </g>
   </g>
   <g id="matplotlib.axis_2">
    <g id="ytick_1">
     <g id="line2d_8">
      <defs>
       <path d="M 0 0 
L -3.5 0 
" id="m91ca9dadd7" style="stroke:#000000;stroke-width:0.8;"/>
      </defs>
      <g>
       <use style="stroke:#000000;stroke-width:0.8;" x="57.6" xlink:href="#m91ca9dadd7" y="282.306241"/>
      </g>
     </g>
     <g id="text_9">
      <!-- −1 -->
      <defs>
       <path d="M 10.59375 35.5 
L 73.1875 35.5 
L 73.1875 27.203125 
L 10.59375 27.203125 
z
" id="DejaVuSans-8722"/>
      </defs>
      <g transform="translate(35.857813 286.10546)scale(0.1 -0.1)">
       <use xlink:href="#DejaVuSans-8722"/>
       <use x="83.789062" xlink:href="#DejaVuSans-49"/>
      </g>
     </g>
    </g>
    <g id="ytick_2">
     <g id="line2d_9">
      <g>
       <use style="stroke:#000000;stroke-width:0.8;" x="57.6" xlink:href="#m91ca9dadd7" y="234.637775"/>
      </g>
     </g>
     <g id="text_10">
      <!-- 0 -->
      <g transform="translate(44.2375 238.436994)scale(0.1 -0.1)">
       <use xlink:href="#DejaVuSans-48"/>
      </g>
     </g>
    </g>
    <g id="ytick_3">
     <g id="line2d_10">
      <g>
       <use style="stroke:#000000;stroke-width:0.8;" x="57.6" xlink:href="#m91ca9dadd7" y="186.969308"/>
      </g>
     </g>
     <g id="text_11">
      <!-- 1 -->
      <g transform="translate(44.2375 190.768527)scale(0.1 -0.1)">
       <use xlink:href="#DejaVuSans-49"/>
      </g>
     </g>
    </g>
    <g id="ytick_4">
     <g id="line2d_11">
      <g>
       <use style="stroke:#000000;stroke-width:0.8;" x="57.6" xlink:href="#m91ca9dadd7" y="139.300842"/>
      </g>
     </g>
     <g id="text_12">
      <!-- 2 -->
      <g transform="translate(44.2375 143.100061)scale(0.1 -0.1)">
       <use xlink:href="#DejaVuSans-50"/>
      </g>
     </g>
    </g>
    <g id="ytick_5">
     <g id="line2d_12">
      <g>
       <use style="stroke:#000000;stroke-width:0.8;" x="57.6" xlink:href="#m91ca9dadd7" y="91.632376"/>
      </g>
     </g>
     <g id="text_13">
      <!-- 3 -->
      <g transform="translate(44.2375 95.431595)scale(0.1 -0.1)">
       <use xlink:href="#DejaVuSans-51"/>
      </g>
     </g>
    </g>
    <g id="ytick_6">
     <g id="line2d_13">
      <g>
       <use style="stroke:#000000;stroke-width:0.8;" x="57.6" xlink:href="#m91ca9dadd7" y="43.963909"/>
      </g>
     </g>
     <g id="text_14">
      <!-- 4 -->
      <defs>
       <path d="M 37.796875 64.3125 
L 12.890625 25.390625 
L 37.796875 25.390625 
z
M 35.203125 72.90625 
L 47.609375 72.90625 
L 47.609375 25.390625 
L 58.015625 25.390625 
L 58.015625 17.1875 
L 47.609375 17.1875 
L 47.609375 0 
L 37.796875 0 
L 37.796875 17.1875 
L 4.890625 17.1875 
L 4.890625 26.703125 
z
" id="DejaVuSans-52"/>
      </defs>
      <g transform="translate(44.2375 47.763128)scale(0.1 -0.1)">
       <use xlink:href="#DejaVuSans-52"/>
      </g>
     </g>
    </g>
    <g id="text_15">
     <!-- $S(k)$ -->
     <defs>
      <path d="M 60.296875 70.515625 
L 58.40625 60.890625 
Q 53.46875 63.53125 48.609375 64.875 
Q 43.75 66.21875 39.203125 66.21875 
Q 30.375 66.21875 25.140625 62.359375 
Q 19.921875 58.5 19.921875 52.09375 
Q 19.921875 48.578125 21.84375 46.703125 
Q 23.78125 44.828125 31.78125 42.671875 
L 37.703125 41.21875 
Q 47.703125 38.625 51.609375 34.640625 
Q 55.515625 30.671875 55.515625 23.484375 
Q 55.515625 12.453125 46.84375 5.515625 
Q 38.1875 -1.421875 24.03125 -1.421875 
Q 18.21875 -1.421875 12.359375 -0.265625 
Q 6.5 0.875 0.59375 3.21875 
L 2.59375 13.375 
Q 8.015625 10.015625 13.453125 8.296875 
Q 18.890625 6.59375 24.3125 6.59375 
Q 33.546875 6.59375 39.109375 10.6875 
Q 44.671875 14.796875 44.671875 21.390625 
Q 44.671875 25.78125 42.453125 28.046875 
Q 40.234375 30.328125 32.90625 32.171875 
L 27 33.6875 
Q 16.890625 36.328125 13.203125 39.765625 
Q 9.515625 43.21875 9.515625 49.421875 
Q 9.515625 60.296875 17.890625 67.25 
Q 26.265625 74.21875 39.703125 74.21875 
Q 44.921875 74.21875 50.046875 73.28125 
Q 55.171875 72.359375 60.296875 70.515625 
z
" id="DejaVuSans-Oblique-83"/>
      <path d="M 31 75.875 
Q 24.46875 64.65625 21.28125 53.65625 
Q 18.109375 42.671875 18.109375 31.390625 
Q 18.109375 20.125 21.3125 9.0625 
Q 24.515625 -2 31 -13.1875 
L 23.1875 -13.1875 
Q 15.875 -1.703125 12.234375 9.375 
Q 8.59375 20.453125 8.59375 31.390625 
Q 8.59375 42.28125 12.203125 53.3125 
Q 15.828125 64.359375 23.1875 75.875 
z
" id="DejaVuSans-40"/>
      <path d="M 8.015625 75.875 
L 15.828125 75.875 
Q 23.140625 64.359375 26.78125 53.3125 
Q 30.421875 42.28125 30.421875 31.390625 
Q 30.421875 20.453125 26.78125 9.375 
Q 23.140625 -1.703125 15.828125 -13.1875 
L 8.015625 -13.1875 
Q 14.5 -2 17.703125 9.0625 
Q 20.90625 20.125 20.90625 31.390625 
Q 20.90625 42.671875 17.703125 53.65625 
Q 14.5 64.65625 8.015625 75.875 
z
" id="DejaVuSans-41"/>
     </defs>
     <g transform="translate(29.778125 184.528)rotate(-90)scale(0.1 -0.1)">
      <use transform="translate(0 0.015625)" xlink:href="#DejaVuSans-Oblique-83"/>
      <use transform="translate(63.476562 0.015625)" xlink:href="#DejaVuSans-40"/>
      <use transform="translate(102.490234 0.015625)" xlink:href="#DejaVuSans-Oblique-107"/>
      <use transform="translate(160.400391 0.015625)" xlink:href="#DejaVuSans-41"/>
     </g>
    </g>
   </g>
   <g id="line2d_14">
    <path clip-path="url(#paae977ce34)" d="M 73.832727 54.857568 
L 74.803745 268.481948 
L 75.128631 279.971312 
L 76.104251 207.085417 
L 76.429626 223.320338 
L 76.755048 247.784948 
L 77.080504 256.619143 
L 77.405989 243.992049 
L 77.731498 225.146422 
L 78.057022 219.378435 
L 78.382563 231.01182 
L 78.708117 246.807554 
L 79.03368 250.794422 
L 79.68483 227.877392 
L 80.010408 226.570494 
L 80.661601 248.542571 
L 80.987189 248.850486 
L 81.638405 230.060434 
L 81.964009 231.859696 
L 82.615235 250.862439 
L 82.940858 249.096603 
L 83.266463 240.071131 
L 83.592099 234.162225 
L 83.917706 237.987547 
L 84.243342 247.658387 
L 84.568958 253.32749 
L 84.894585 249.795473 
L 85.220219 241.804293 
L 85.545829 238.683987 
L 85.87146 244.390224 
L 86.197104 253.601563 
L 86.522731 257.746872 
L 86.848352 254.217149 
L 87.17398 248.849152 
L 87.499632 249.256256 
L 88.150897 263.630359 
L 88.476528 263.903578 
L 89.127766 252.589667 
L 89.453437 255.42624 
L 90.104701 273.063496 
L 90.430332 273.339238 
L 91.081594 263.53508 
L 91.407257 267.19433 
L 92.058513 283.316913 
L 92.384157 283.668517 
L 92.70981 280.207517 
L 93.035437 279.73527 
L 93.361069 285.266988 
L 93.686684 292.70973 
L 94.012383 295.488 
L 94.337992 291.889833 
L 94.663628 286.911353 
L 94.98925 286.456211 
L 95.314919 290.338693 
L 95.640579 292.099288 
L 95.966183 286.265148 
L 96.617467 267.53022 
L 96.943126 269.078312 
L 97.268772 275.556055 
L 97.594418 275.488317 
L 97.92 261.208798 
L 98.571369 214.764048 
L 99.54827 175.218607 
L 100.525147 56.946198 
L 100.850832 53.568 
L 101.827752 127.610528 
L 102.153431 120.791735 
L 102.804629 89.101956 
L 103.130386 92.002814 
L 103.781584 114.401919 
L 104.1073 113.387006 
L 104.432864 105.811925 
L 104.758563 102.216368 
L 105.084111 109.722667 
L 106.061132 160.332629 
L 106.386728 168.775244 
L 106.712407 172.966869 
L 107.03805 174.736139 
L 107.363688 174.424322 
L 108.014973 170.406915 
L 108.340625 171.390559 
L 108.666236 176.468379 
L 109.317497 190.508466 
L 109.643247 194.372571 
L 110.945746 200.952786 
L 111.597098 202.877531 
L 111.922646 205.174296 
L 112.899669 217.437977 
L 113.225247 218.95853 
L 113.550913 219.732092 
L 114.202209 221.849329 
L 114.527736 220.905892 
L 115.179125 214.636834 
L 115.504866 215.435453 
L 116.156004 227.529954 
L 116.481764 229.114951 
L 116.807356 222.965973 
L 117.458796 205.015029 
L 117.784183 204.950487 
L 118.110022 210.075091 
L 118.435609 213.141874 
L 118.761122 208.403951 
L 119.738168 176.778685 
L 120.389343 173.341539 
L 120.71514 167.220417 
L 121.366436 145.007432 
L 121.692047 138.406051 
L 122.017583 137.479291 
L 122.668958 140.554007 
L 122.994466 141.047969 
L 123.320347 143.225751 
L 123.645841 148.932086 
L 124.297189 163.359605 
L 124.622795 166.081758 
L 124.948247 166.168289 
L 125.274118 167.231091 
L 125.599841 171.870466 
L 126.251132 186.156581 
L 126.576706 189.857709 
L 126.902442 190.613089 
L 127.227973 190.865456 
L 127.553696 192.65989 
L 128.204903 198.328055 
L 128.530491 198.861786 
L 129.181996 197.099472 
L 129.507295 197.918487 
L 130.158558 201.824449 
L 130.484556 202.408198 
L 130.810022 202.014763 
L 131.135945 201.851447 
L 131.46135 202.837148 
L 132.112781 206.809103 
L 132.438164 207.848892 
L 132.763947 207.653914 
L 134.066744 203.499572 
L 134.717779 202.162883 
L 135.36913 200.327771 
L 135.694624 199.992124 
L 136.020468 200.587503 
L 136.671801 202.64969 
L 136.997193 201.923965 
L 137.322916 199.236872 
L 137.974104 191.614679 
L 138.300256 189.033481 
L 138.951416 186.466821 
L 139.602344 183.869154 
L 139.928262 183.072964 
L 140.579386 182.952488 
L 140.904982 182.167353 
L 141.230933 180.191128 
L 142.533521 169.649622 
L 142.858754 168.174674 
L 143.184868 168.024454 
L 143.510315 169.738601 
L 144.161718 175.815262 
L 144.486961 176.599891 
L 144.813056 174.620114 
L 145.138299 171.309027 
L 145.46403 169.189924 
L 145.78972 169.944021 
L 146.44096 176.361575 
L 146.766748 177.865823 
L 147.092335 177.393773 
L 147.418151 176.482545 
L 147.743422 176.83121 
L 148.720622 182.215431 
L 149.046149 181.747293 
L 149.371727 180.591107 
L 149.69765 180.159406 
L 150.023232 181.175486 
L 150.99985 186.703661 
L 151.326183 187.276314 
L 151.651122 187.490196 
L 151.977265 187.862597 
L 152.302596 188.664059 
L 153.279017 192.306958 
L 153.605794 192.866731 
L 153.930658 192.868508 
L 154.256847 192.677869 
L 154.582168 192.799456 
L 155.55929 194.706913 
L 155.884938 194.371904 
L 156.53684 193.083939 
L 156.861564 193.333545 
L 157.512935 194.888011 
L 157.838695 195.073269 
L 158.489524 194.667732 
L 159.141361 195.144292 
L 159.466533 195.096846 
L 160.118081 194.361335 
L 160.444242 194.724454 
L 161.095025 196.227549 
L 161.42057 195.658724 
L 162.072267 192.194772 
L 162.397141 191.593048 
L 162.72347 192.448306 
L 163.048913 193.797564 
L 163.375064 194.212984 
L 163.700339 192.982829 
L 164.351607 188.367361 
L 164.676789 186.998508 
L 165.328682 185.825574 
L 166.305625 182.906174 
L 166.630975 182.74778 
L 166.957192 182.80703 
L 167.282271 182.415651 
L 168.259737 178.66055 
L 168.584741 178.312219 
L 168.910902 178.641915 
L 169.561629 179.602842 
L 170.213046 179.902781 
L 170.864081 179.982011 
L 171.190196 179.947975 
L 171.515993 180.061997 
L 171.841958 180.566024 
L 172.818379 183.304471 
L 173.143458 183.544657 
L 173.795398 183.467899 
L 174.121251 183.905213 
L 175.098652 186.046293 
L 175.422929 186.104207 
L 176.074532 185.727912 
L 176.400628 185.778976 
L 176.7258 186.097927 
L 178.029689 188.098334 
L 178.353667 188.081001 
L 179.331301 187.098783 
L 179.65721 187.268393 
L 180.308562 188.20145 
L 180.634117 188.356259 
L 181.610445 187.918239 
L 182.587529 189.290717 
L 182.913317 189.192261 
L 183.56437 188.505002 
L 183.889766 188.711891 
L 184.54178 190.096979 
L 184.867708 190.450289 
L 185.192768 190.345692 
L 185.519237 190.077368 
L 185.843328 190.029355 
L 186.495883 190.644534 
L 186.821726 190.683251 
L 187.798735 189.651385 
L 188.123507 189.862774 
L 188.449267 190.258261 
L 188.774849 190.460201 
L 189.100525 190.287184 
L 189.751765 189.49626 
L 191.054245 188.492833 
L 191.380891 188.480298 
L 191.706464 188.888782 
L 192.030238 189.50589 
L 192.357984 189.857888 
L 192.681841 189.56635 
L 193.660147 187.214723 
L 193.985319 187.152131 
L 194.310044 187.234415 
L 194.636531 187.055391 
L 195.287808 185.970453 
L 195.613587 185.759676 
L 195.93917 185.998872 
L 196.264295 186.399888 
L 196.590885 186.541505 
L 196.91671 186.216721 
L 197.566645 185.005752 
L 197.893934 184.736535 
L 198.869376 184.84571 
L 200.172239 183.822303 
L 200.823758 184.043678 
L 201.149071 183.914318 
L 202.127842 182.797933 
L 202.451159 182.956726 
L 203.103182 183.73273 
L 203.429669 183.800532 
L 203.755439 183.708288 
L 204.079109 183.821785 
L 204.406548 184.376818 
L 204.732765 185.160539 
L 205.056986 185.625791 
L 205.382214 185.37191 
L 206.033641 183.808183 
L 206.359829 183.802832 
L 207.338135 186.104619 
L 207.661731 185.854238 
L 207.9875 185.262249 
L 208.314146 185.000875 
L 208.639738 185.413735 
L 209.290876 187.042413 
L 209.616943 187.412814 
L 210.593244 187.649484 
L 210.918323 187.829994 
L 211.243486 187.865251 
L 211.895994 187.787014 
L 212.222192 188.084845 
L 212.872257 189.046611 
L 213.198949 189.211255 
L 214.17538 189.035551 
L 216.129212 190.081855 
L 216.453983 189.938102 
L 217.431254 188.824559 
L 217.757862 188.960136 
L 218.409261 189.478132 
L 219.385393 189.362439 
L 220.037323 189.534629 
L 220.362859 189.261892 
L 220.688256 188.828005 
L 221.013419 188.614952 
L 221.340055 188.859049 
L 221.665246 189.345784 
L 221.991482 189.563231 
L 222.31519 189.195434 
L 222.967717 187.991624 
L 223.293654 188.173668 
L 223.94509 189.238868 
L 224.270066 188.989353 
L 224.920989 187.398685 
L 225.247775 187.11213 
L 225.897998 187.362524 
L 226.225213 187.10694 
L 226.549518 186.636428 
L 226.876285 186.358524 
L 227.527124 186.620686 
L 227.85279 186.384278 
L 228.504487 184.805766 
L 228.829035 184.499664 
L 229.154496 184.870147 
L 229.48159 185.459589 
L 229.807322 185.604608 
L 230.132429 185.089426 
L 230.456193 184.332238 
L 230.783109 183.954548 
L 231.1101 184.201699 
L 231.432913 184.695652 
L 231.761601 184.867634 
L 232.084582 184.493594 
L 232.412095 183.891489 
L 232.736922 183.586564 
L 233.064697 183.775288 
L 233.386875 184.184272 
L 233.713344 184.41059 
L 234.691351 184.08569 
L 235.667287 184.757189 
L 236.318061 184.814157 
L 237.296105 185.86979 
L 237.621585 185.889933 
L 238.273889 185.689994 
L 239.902763 186.362707 
L 240.228765 186.674815 
L 240.879184 187.59096 
L 241.20306 187.749662 
L 241.854263 187.370257 
L 242.181627 187.189091 
L 242.50707 187.154979 
L 242.831897 187.253394 
L 243.158291 187.486999 
L 243.809307 188.433266 
L 244.132959 188.94379 
L 244.459838 189.19979 
L 244.787277 189.106916 
L 245.437789 188.645953 
L 246.415479 188.818188 
L 247.066253 188.36306 
L 247.390259 188.402586 
L 248.044521 189.155237 
L 248.365711 189.230057 
L 249.344539 188.28051 
L 250.323982 188.877007 
L 251.299042 188.056087 
L 252.276937 188.177627 
L 252.928643 187.813643 
L 253.90361 187.900529 
L 254.880871 186.639489 
L 255.20734 186.788217 
L 255.531346 187.148939 
L 255.85927 187.279684 
L 256.182866 186.927426 
L 256.837426 185.769763 
L 257.158803 185.741462 
L 257.811516 186.461281 
L 258.137257 186.523121 
L 259.113324 185.841999 
L 259.441229 185.938948 
L 260.74287 186.912812 
L 261.070085 186.89517 
L 261.392692 186.550069 
L 262.044417 185.460879 
L 262.372042 185.416703 
L 263.347774 186.957747 
L 263.675399 186.799083 
L 264.323281 185.924293 
L 264.65169 185.979241 
L 265.301046 186.845237 
L 265.62731 187.036724 
L 266.278605 186.806469 
L 267.25596 186.399159 
L 267.58047 186.177134 
L 267.905968 186.142807 
L 268.234564 186.463088 
L 268.8817 187.393201 
L 269.212142 187.32333 
L 269.861423 186.389761 
L 270.186791 186.337227 
L 270.841184 187.20148 
L 271.160993 187.3277 
L 271.816038 186.675768 
L 272.142059 186.654344 
L 273.118033 187.717686 
L 273.440006 187.333827 
L 274.094194 186.193315 
L 274.421949 186.149461 
L 275.06985 186.604842 
L 275.399378 186.575828 
L 275.722937 186.425513 
L 276.045619 186.4188 
L 277.025622 187.267089 
L 277.35321 187.130094 
L 278.000626 186.528316 
L 278.329911 186.528995 
L 278.975928 186.897668 
L 279.306408 186.880714 
L 279.955335 186.565392 
L 280.278259 186.578098 
L 281.25442 187.020448 
L 282.559623 186.98002 
L 283.536865 186.791242 
L 284.190717 187.120583 
L 284.513884 187.28409 
L 285.166131 187.272871 
L 285.814312 187.309303 
L 286.46738 187.548226 
L 287.448222 187.728367 
L 288.096179 188.057969 
L 288.424532 187.975395 
L 289.074858 187.323868 
L 289.400617 187.207764 
L 289.725426 187.427919 
L 290.376554 188.15328 
L 290.702743 188.157007 
L 291.680079 187.437569 
L 292.002145 187.563915 
L 292.656817 188.048759 
L 292.980693 188.090393 
L 293.633593 187.685985 
L 294.282875 187.160618 
L 294.610985 187.054259 
L 294.932305 187.117976 
L 295.914285 187.632424 
L 296.237117 187.53122 
L 297.211878 186.813451 
L 297.865114 186.713916 
L 298.843046 186.603488 
L 299.824262 186.164868 
L 300.143474 186.048133 
L 300.469999 186.049409 
L 301.44698 186.326814 
L 302.425547 186.060889 
L 303.404729 186.272912 
L 304.379659 186.041446 
L 305.353543 186.342534 
L 306.333117 185.895655 
L 306.658206 186.008946 
L 307.633937 186.805939 
L 307.961376 186.820983 
L 309.259043 186.436571 
L 310.240911 186.521779 
L 310.890473 186.565253 
L 311.214759 186.833531 
L 311.870737 187.66508 
L 312.193493 187.759386 
L 312.518134 187.488155 
L 312.846953 187.058823 
L 313.174858 186.85287 
L 313.496831 187.078687 
L 314.148276 187.954035 
L 314.476573 187.850377 
L 315.129268 186.855689 
L 315.449842 186.789595 
L 316.424175 187.75193 
L 317.083025 187.232475 
L 317.402219 187.319063 
L 318.058533 188.267208 
L 318.380077 188.276824 
L 319.357767 186.82452 
L 319.683676 187.095414 
L 320.012495 187.598584 
L 320.335308 187.831863 
L 320.662411 187.607643 
L 320.988693 187.187704 
L 321.315535 187.023336 
L 321.637247 187.300236 
L 321.960955 187.77503 
L 322.289904 188.003919 
L 322.619432 187.737031 
L 323.26696 186.742208 
L 323.586453 186.685872 
L 324.245378 187.138166 
L 324.568302 187.106081 
L 325.220605 186.806685 
L 325.549965 186.970974 
L 326.197195 187.466578 
L 326.525641 187.312785 
L 327.175258 186.48844 
L 327.497996 186.351426 
L 328.473466 186.906686 
L 329.452798 186.546514 
L 329.777009 186.702963 
L 330.426347 187.161799 
L 330.75705 187.057234 
L 331.410453 186.400144 
L 331.735225 186.351128 
L 332.70605 187.189013 
L 333.036436 187.043069 
L 333.691127 186.444545 
L 334.01185 186.495971 
L 334.66531 186.999071 
L 334.987134 186.954853 
L 335.646376 186.457932 
L 335.964115 186.506052 
L 336.621902 187.019018 
L 336.939156 186.943752 
L 337.593959 186.232712 
L 337.919197 186.217978 
L 338.900953 187.318301 
L 339.217871 187.22132 
L 339.868496 186.729723 
L 340.204105 186.752458 
L 340.851931 187.014648 
L 341.833221 187.005189 
L 342.476142 187.243455 
L 342.807404 187.181121 
L 343.461479 186.846387 
L 343.779405 186.905327 
L 344.437715 187.380469 
L 344.757487 187.404573 
L 345.733946 186.763898 
L 346.064387 186.816398 
L 346.71656 187.120656 
L 347.365636 187.051025 
L 348.015944 186.94447 
L 348.996282 187.157826 
L 349.641348 187.316257 
L 349.976192 187.28884 
L 350.944817 186.809548 
L 351.274382 186.857756 
L 352.249535 187.430479 
L 352.573802 187.275851 
L 353.231254 186.745551 
L 353.548844 186.771021 
L 354.199468 187.303153 
L 354.525825 187.37087 
L 354.858393 187.143951 
L 355.504951 186.554005 
L 355.830618 186.598787 
L 356.486297 187.137027 
L 356.807356 187.213835 
L 357.783964 186.843248 
L 358.760442 186.942234 
L 359.41586 186.700019 
L 359.743299 186.761229 
L 360.394296 187.141988 
L 360.719497 187.134893 
L 361.689073 186.568451 
L 362.344248 186.808555 
L 362.994015 186.972581 
L 363.974092 186.847612 
L 364.953983 186.491776 
L 365.277897 186.548489 
L 366.24654 187.118151 
L 367.226599 186.928778 
L 368.206583 187.342833 
L 370.811468 186.913836 
L 371.78414 187.255606 
L 372.769198 186.866191 
L 373.741628 187.473474 
L 374.071492 187.35492 
L 374.719486 186.754611 
L 375.045134 186.660872 
L 377.32661 187.299822 
L 378.626814 186.861539 
L 379.280479 187.141503 
L 379.604672 187.107824 
L 380.582399 186.680979 
L 381.885476 187.01342 
L 382.531437 186.844779 
L 383.183666 186.930338 
L 383.836211 187.187936 
L 384.166037 187.196811 
L 384.486052 187.0311 
L 385.142142 186.451393 
L 385.460198 186.43163 
L 386.440164 187.44405 
L 386.773422 187.289268 
L 387.425987 186.4506 
L 387.739286 186.46622 
L 388.399685 187.370604 
L 388.717051 187.496534 
L 389.03949 187.170367 
L 389.694927 186.301849 
L 390.021023 186.392274 
L 390.683846 187.058314 
L 390.996624 187.061901 
L 391.649225 186.610261 
L 391.983528 186.577553 
L 393.284218 187.190692 
L 393.928351 187.23768 
L 394.580654 187.05463 
L 395.230271 186.917718 
L 396.209192 187.097278 
L 397.187404 186.534626 
L 397.516895 186.640347 
L 398.487273 187.347174 
L 398.487273 187.347174 
" style="fill:none;stroke:#1f77b4;stroke-linecap:square;stroke-width:1.5;"/>
   </g>
   <g id="patch_3">
    <path d="M 57.6 307.584 
L 57.6 41.472 
" style="fill:none;stroke:#000000;stroke-linecap:square;stroke-linejoin:miter;stroke-width:0.8;"/>
   </g>
   <g id="patch_4">
    <path d="M 414.72 307.584 
L 414.72 41.472 
" style="fill:none;stroke:#000000;stroke-linecap:square;stroke-linejoin:miter;stroke-width:0.8;"/>
   </g>
   <g id="patch_5">
    <path d="M 57.6 307.584 
L 414.72 307.584 
" style="fill:none;stroke:#000000;stroke-linecap:square;stroke-linejoin:miter;stroke-width:0.8;"/>
   </g>
   <g id="patch_6">
    <path d="M 57.6 41.472 
L 414.72 41.472 
" style="fill:none;stroke:#000000;stroke-linecap:square;stroke-linejoin:miter;stroke-width:0.8;"/>
   </g>
  </g>
 </g>
 <defs>
  <clipPath id="paae977ce34">
   <rect height="266.112" width="357.12" x="57.6" y="41.472"/>
  </clipPath>
 </defs>
</svg>
