<svg class="marks" width="671" height="465" viewBox="0 0 671 465" version="1.1" xmlns="http://www.w3.org/2000/svg" xmlns:xlink="http://www.w3.org/1999/xlink"><rect width="671" height="465" style="fill: white;"></rect><g transform="translate(61,13)"><g class="mark-group role-frame root"><g transform="translate(0,0)"><path class="background" d="M0.5,0.5h600v400h-600Z" style="fill: none; stroke: #ddd;"></path><g><g class="mark-symbol role-mark layer_0_marks"><path transform="translate(600,282.58616859686725)" d="M2.7386127875258306,0A2.7386127875258306,2.7386127875258306,0,1,1,-2.7386127875258306,0A2.7386127875258306,2.7386127875258306,0,1,1,2.7386127875258306,0" style="fill: none; stroke: #4c78a8; stroke-width: 2; opacity: 0.7;"></path><path transform="translate(514.2857142857143,250.44583029957687)" d="M2.7386127875258306,0A2.7386127875258306,2.7386127875258306,0,1,1,-2.7386127875258306,0A2.7386127875258306,2.7386127875258306,0,1,1,2.7386127875258306,0" style="fill: none; stroke: #4c78a8; stroke-width: 2; opacity: 0.7;"></path><path transform="translate(450,197.9296066252588)" d="M2.7386127875258306,0A2.7386127875258306,2.7386127875258306,0,1,1,-2.7386127875258306,0A2.7386127875258306,2.7386127875258306,0,1,1,2.7386127875258306,0" style="fill: none; stroke: #4c78a8; stroke-width: 2; opacity: 0.7;"></path><path transform="translate(400.00000000000006,137.83525261183365)" d="M2.7386127875258306,0A2.7386127875258306,2.7386127875258306,0,1,1,-2.7386127875258306,0A2.7386127875258306,2.7386127875258306,0,1,1,2.7386127875258306,0" style="fill: none; stroke: #4c78a8; stroke-width: 2; opacity: 0.7;"></path><path transform="translate(360,117.42649784186426)" d="M2.7386127875258306,0A2.7386127875258306,2.7386127875258306,0,1,1,-2.7386127875258306,0A2.7386127875258306,2.7386127875258306,0,1,1,2.7386127875258306,0" style="fill: none; stroke: #4c78a8; stroke-width: 2; opacity: 0.7;"></path><path transform="translate(300,75.55303460011345)" d="M2.7386127875258306,0A2.7386127875258306,2.7386127875258306,0,1,1,-2.7386127875258306,0A2.7386127875258306,2.7386127875258306,0,1,1,2.7386127875258306,0" style="fill: none; stroke: #4c78a8; stroke-width: 2; opacity: 0.7;"></path><path transform="translate(225,77.20885598738778)" d="M2.7386127875258306,0A2.7386127875258306,2.7386127875258306,0,1,1,-2.7386127875258306,0A2.7386127875258306,2.7386127875258306,0,1,1,2.7386127875258306,0" style="fill: none; stroke: #4c78a8; stroke-width: 2; opacity: 0.7;"></path><path transform="translate(180,74.77061147947222)" d="M2.7386127875258306,0A2.7386127875258306,2.7386127875258306,0,1,1,-2.7386127875258306,0A2.7386127875258306,2.7386127875258306,0,1,1,2.7386127875258306,0" style="fill: none; stroke: #4c78a8; stroke-width: 2; opacity: 0.7;"></path><path transform="translate(540.0000000000001,253.91812406723565)" d="M2.7386127875258306,0A2.7386127875258306,2.7386127875258306,0,1,1,-2.7386127875258306,0A2.7386127875258306,2.7386127875258306,0,1,1,2.7386127875258306,0" style="fill: none; stroke: #4c78a8; stroke-width: 2; opacity: 0.7;"></path><path transform="translate(519.2307692307692,243.94235499785125)" d="M2.7386127875258306,0A2.7386127875258306,2.7386127875258306,0,1,1,-2.7386127875258306,0A2.7386127875258306,2.7386127875258306,0,1,1,2.7386127875258306,0" style="fill: none; stroke: #4c78a8; stroke-width: 2; opacity: 0.7;"></path><path transform="translate(500,234.08096646659584)" d="M2.7386127875258306,0A2.7386127875258306,2.7386127875258306,0,1,1,-2.7386127875258306,0A2.7386127875258306,2.7386127875258306,0,1,1,2.7386127875258306,0" style="fill: none; stroke: #4c78a8; stroke-width: 2; opacity: 0.7;"></path><path transform="translate(128.57142857142858,73.61111111111114)" d="M2.7386127875258306,0A2.7386127875258306,2.7386127875258306,0,1,1,-2.7386127875258306,0A2.7386127875258306,2.7386127875258306,0,1,1,2.7386127875258306,0" style="fill: none; stroke: #4c78a8; stroke-width: 2; opacity: 0.7;"></path><path transform="translate(482.1428571428572,224.0932645397265)" d="M2.7386127875258306,0A2.7386127875258306,2.7386127875258306,0,1,1,-2.7386127875258306,0A2.7386127875258306,2.7386127875258306,0,1,1,2.7386127875258306,0" style="fill: none; stroke: #4c78a8; stroke-width: 2; opacity: 0.7;"></path><path transform="translate(465.5172413793104,205.0371408822298)" d="M2.7386127875258306,0A2.7386127875258306,2.7386127875258306,0,1,1,-2.7386127875258306,0A2.7386127875258306,2.7386127875258306,0,1,1,2.7386127875258306,0" style="fill: none; stroke: #4c78a8; stroke-width: 2; opacity: 0.7;"></path><path transform="translate(450.00000000000006,189.21047877145435)" d="M2.7386127875258306,0A2.7386127875258306,2.7386127875258306,0,1,1,-2.7386127875258306,0A2.7386127875258306,2.7386127875258306,0,1,1,2.7386127875258306,0" style="fill: none; stroke: #4c78a8; stroke-width: 2; opacity: 0.7;"></path><path transform="translate(421.875,177.669244335911)" d="M2.7386127875258306,0A2.7386127875258306,2.7386127875258306,0,1,1,-2.7386127875258306,0A2.7386127875258306,2.7386127875258306,0,1,1,2.7386127875258306,0" style="fill: none; stroke: #4c78a8; stroke-width: 2; opacity: 0.7;"></path><path transform="translate(100.00000000000001,106.98924731182791)" d="M2.7386127875258306,0A2.7386127875258306,2.7386127875258306,0,1,1,-2.7386127875258306,0A2.7386127875258306,2.7386127875258306,0,1,1,2.7386127875258306,0" style="fill: none; stroke: #4c78a8; stroke-width: 2; opacity: 0.7;"></path><path transform="translate(375,116.07203533809042)" d="M2.7386127875258306,0A2.7386127875258306,2.7386127875258306,0,1,1,-2.7386127875258306,0A2.7386127875258306,2.7386127875258306,0,1,1,2.7386127875258306,0" style="fill: none; stroke: #4c78a8; stroke-width: 2; opacity: 0.7;"></path><path transform="translate(337.50000000000006,111.79487179487182)" d="M2.7386127875258306,0A2.7386127875258306,2.7386127875258306,0,1,1,-2.7386127875258306,0A2.7386127875258306,2.7386127875258306,0,1,1,2.7386127875258306,0" style="fill: none; stroke: #4c78a8; stroke-width: 2; opacity: 0.7;"></path><path transform="translate(270.00000000000006,63.172606568832975)" d="M2.7386127875258306,0A2.7386127875258306,2.7386127875258306,0,1,1,-2.7386127875258306,0A2.7386127875258306,2.7386127875258306,0,1,1,2.7386127875258306,0" style="fill: none; stroke: #4c78a8; stroke-width: 2; opacity: 0.7;"></path></g><g class="mark-rule role-mark layer_1_layer_0_marks"><line transform="translate(600,283.7039519312274)" x2="0" y2="-2.235566668720196" style="fill: none; stroke: black;"></line><line transform="translate(514.2857142857143,255.76556106901756)" x2="0" y2="-10.63946153888142" style="fill: none; stroke: black;"></line><line transform="translate(450,204.6690265014443)" x2="0" y2="-13.478839752371016" style="fill: none; stroke: black;"></line><line transform="translate(400.00000000000006,144.24934317655968)" x2="0" y2="-12.828181129452076" style="fill: none; stroke: black;"></line><line transform="translate(360,123.10459885776658)" x2="0" y2="-11.356202031804685" style="fill: none; stroke: black;"></line><line transform="translate(300,83.69939265851605)" x2="0" y2="-16.29271611680531" style="fill: none; stroke: black;"></line><line transform="translate(225,84.21455266693545)" x2="0" y2="-14.01139335909528" style="fill: none; stroke: black;"></line><line transform="translate(180,97.30434745298788)" x2="0" y2="-45.06747194703138" style="fill: none; stroke: black;"></line><line transform="translate(540.0000000000001,260.01402782056454)" x2="0" y2="-12.191807506657796" style="fill: none; stroke: black;"></line><line transform="translate(519.2307692307692,249.5428684558232)" x2="0" y2="-11.201026915943942" style="fill: none; stroke: black;"></line><line transform="translate(500,241.18370844725754)" x2="0" y2="-14.20548396132341" style="fill: none; stroke: black;"></line><line transform="translate(128.57142857142858,89.89748952497973)" x2="0" y2="-32.57275682773724" style="fill: none; stroke: black;"></line><line transform="translate(482.1428571428572,230.51999339894437)" x2="0" y2="-12.85345771843572" style="fill: none; stroke: black;"></line><line transform="translate(465.5172413793104,212.52083556555047)" x2="0" y2="-14.967389366641328" style="fill: none; stroke: black;"></line><line transform="translate(450.00000000000006,201.59653838079652)" x2="0" y2="-24.77211921868428" style="fill: none; stroke: black;"></line><line transform="translate(421.875,188.53170051918897)" x2="0" y2="-21.72491236655594" style="fill: none; stroke: black;"></line><line transform="translate(100.00000000000001,123.32232829636575)" x2="0" y2="-32.66616196907563" style="fill: none; stroke: black;"></line><line transform="translate(375,155.22764977285547)" x2="0" y2="-78.3112288695302" style="fill: none; stroke: black;"></line><line transform="translate(337.50000000000006,137.93602571440198)" x2="0" y2="-52.28230783906042" style="fill: none; stroke: black;"></line><line transform="translate(270.00000000000006,88.20972300928793)" x2="0" y2="-50.0742328809099" style="fill: none; stroke: black;"></line></g><g class="mark-group role-axis"><g transform="translate(0.5,400.5)"><path class="background" d="M0,0h0v0h0Z" style="pointer-events: none; fill: none;"></path><g><g class="mark-rule role-axis-tick" style="pointer-events: none;"><line transform="translate(0,0)" x2="0" y2="5" style="fill: none; stroke: #888; stroke-width: 1; opacity: 1;"></line><line transform="translate(50,0)" x2="0" y2="5" style="fill: none; stroke: #888; stroke-width: 1; opacity: 1;"></line><line transform="translate(100,0)" x2="0" y2="5" style="fill: none; stroke: #888; stroke-width: 1; opacity: 1;"></line><line transform="translate(150,0)" x2="0" y2="5" style="fill: none; stroke: #888; stroke-width: 1; opacity: 1;"></line><line transform="translate(200,0)" x2="0" y2="5" style="fill: none; stroke: #888; stroke-width: 1; opacity: 1;"></line><line transform="translate(250,0)" x2="0" y2="5" style="fill: none; stroke: #888; stroke-width: 1; opacity: 1;"></line><line transform="translate(300,0)" x2="0" y2="5" style="fill: none; stroke: #888; stroke-width: 1; opacity: 1;"></line><line transform="translate(350,0)" x2="0" y2="5" style="fill: none; stroke: #888; stroke-width: 1; opacity: 1;"></line><line transform="translate(400,0)" x2="0" y2="5" style="fill: none; stroke: #888; stroke-width: 1; opacity: 1;"></line><line transform="translate(450,0)" x2="0" y2="5" style="fill: none; stroke: #888; stroke-width: 1; opacity: 1;"></line><line transform="translate(500,0)" x2="0" y2="5" style="fill: none; stroke: #888; stroke-width: 1; opacity: 1;"></line><line transform="translate(550,0)" x2="0" y2="5" style="fill: none; stroke: #888; stroke-width: 1; opacity: 1;"></line><line transform="translate(600,0)" x2="0" y2="5" style="fill: none; stroke: #888; stroke-width: 1; opacity: 1;"></line></g><g class="mark-text role-axis-label" style="pointer-events: none;"><text text-anchor="start" transform="translate(0,20)" style="font-family: sans-serif; font-size: 16px; fill: #000; opacity: 1;">0.0</text><text text-anchor="middle" transform="translate(50.00000000000001,20)" style="font-family: sans-serif; font-size: 16px; fill: #000; opacity: 1;">0.1</text><text text-anchor="middle" transform="translate(100.00000000000001,20)" style="font-family: sans-serif; font-size: 16px; fill: #000; opacity: 1;">0.2</text><text text-anchor="middle" transform="translate(150,20)" style="font-family: sans-serif; font-size: 16px; fill: #000; opacity: 1;">0.3</text><text text-anchor="middle" transform="translate(200.00000000000003,20)" style="font-family: sans-serif; font-size: 16px; fill: #000; opacity: 1;">0.4</text><text text-anchor="middle" transform="translate(250,20)" style="font-family: sans-serif; font-size: 16px; fill: #000; opacity: 1;">0.5</text><text text-anchor="middle" transform="translate(300,20)" style="font-family: sans-serif; font-size: 16px; fill: #000; opacity: 1;">0.6</text><text text-anchor="middle" transform="translate(350,20)" style="font-family: sans-serif; font-size: 16px; fill: #000; opacity: 1;">0.7</text><text text-anchor="middle" transform="translate(400.00000000000006,20)" style="font-family: sans-serif; font-size: 16px; fill: #000; opacity: 1;">0.8</text><text text-anchor="middle" transform="translate(450,20)" style="font-family: sans-serif; font-size: 16px; fill: #000; opacity: 1;">0.9</text><text text-anchor="middle" transform="translate(500,20)" style="font-family: sans-serif; font-size: 16px; fill: #000; opacity: 1;">1.0</text><text text-anchor="middle" transform="translate(550,20)" style="font-family: sans-serif; font-size: 16px; fill: #000; opacity: 1;">1.1</text><text text-anchor="end" transform="translate(600,20)" style="font-family: sans-serif; font-size: 16px; fill: #000; opacity: 1;">1.2</text></g><g class="mark-rule role-axis-domain" style="pointer-events: none;"><line transform="translate(0,0)" x2="600" y2="0" style="fill: none; stroke: #888; stroke-width: 1; opacity: 1;"></line></g><g class="mark-text role-axis-title" style="pointer-events: none;"><text text-anchor="middle" transform="translate(300,43)" style="font-family: sans-serif; font-size: 20px; font-weight: bold; fill: #000; opacity: 1;">inv_temp_norm</text></g></g></g></g><g class="mark-group role-axis"><g transform="translate(0.5,0.5)"><path class="background" d="M0,0h0v0h0Z" style="pointer-events: none; fill: none;"></path><g><g class="mark-rule role-axis-tick" style="pointer-events: none;"><line transform="translate(0,400)" x2="-5" y2="0" style="fill: none; stroke: #888; stroke-width: 1; opacity: 1;"></line><line transform="translate(0,356)" x2="-5" y2="0" style="fill: none; stroke: #888; stroke-width: 1; opacity: 1;"></line><line transform="translate(0,311)" x2="-5" y2="0" style="fill: none; stroke: #888; stroke-width: 1; opacity: 1;"></line><line transform="translate(0,267)" x2="-5" y2="0" style="fill: none; stroke: #888; stroke-width: 1; opacity: 1;"></line><line transform="translate(0,222)" x2="-5" y2="0" style="fill: none; stroke: #888; stroke-width: 1; opacity: 1;"></line><line transform="translate(0,178)" x2="-5" y2="0" style="fill: none; stroke: #888; stroke-width: 1; opacity: 1;"></line><line transform="translate(0,133)" x2="-5" y2="0" style="fill: none; stroke: #888; stroke-width: 1; opacity: 1;"></line><line transform="translate(0,89)" x2="-5" y2="0" style="fill: none; stroke: #888; stroke-width: 1; opacity: 1;"></line><line transform="translate(0,44)" x2="-5" y2="0" style="fill: none; stroke: #888; stroke-width: 1; opacity: 1;"></line><line transform="translate(0,0)" x2="-5" y2="0" style="fill: none; stroke: #888; stroke-width: 1; opacity: 1;"></line></g><g class="mark-text role-axis-label" style="pointer-events: none;"><text text-anchor="end" transform="translate(-7,405)" style="font-family: sans-serif; font-size: 16px; fill: #000; opacity: 1;">0.0</text><text text-anchor="end" transform="translate(-7,360.55555555555554)" style="font-family: sans-serif; font-size: 16px; fill: #000; opacity: 1;">0.5</text><text text-anchor="end" transform="translate(-7,316.1111111111111)" style="font-family: sans-serif; font-size: 16px; fill: #000; opacity: 1;">1.0</text><text text-anchor="end" transform="translate(-7,271.6666666666667)" style="font-family: sans-serif; font-size: 16px; fill: #000; opacity: 1;">1.5</text><text text-anchor="end" transform="translate(-7,227.22222222222223)" style="font-family: sans-serif; font-size: 16px; fill: #000; opacity: 1;">2.0</text><text text-anchor="end" transform="translate(-7,182.77777777777777)" style="font-family: sans-serif; font-size: 16px; fill: #000; opacity: 1;">2.5</text><text text-anchor="end" transform="translate(-7,138.33333333333337)" style="font-family: sans-serif; font-size: 16px; fill: #000; opacity: 1;">3.0</text><text text-anchor="end" transform="translate(-7,93.88888888888886)" style="font-family: sans-serif; font-size: 16px; fill: #000; opacity: 1;">3.5</text><text text-anchor="end" transform="translate(-7,49.44444444444446)" style="font-family: sans-serif; font-size: 16px; fill: #000; opacity: 1;">4.0</text><text text-anchor="end" transform="translate(-7,5)" style="font-family: sans-serif; font-size: 16px; fill: #000; opacity: 1;">4.5</text></g><g class="mark-rule role-axis-domain" style="pointer-events: none;"><line transform="translate(0,400)" x2="0" y2="-400" style="fill: none; stroke: #888; stroke-width: 1; opacity: 1;"></line></g><g class="mark-text role-axis-title" style="pointer-events: none;"><text text-anchor="middle" transform="translate(-36,200) rotate(-90) translate(0,-4)" style="font-family: sans-serif; font-size: 20px; font-weight: bold; fill: #000; opacity: 1;">tau1/tau2_mean</text></g></g></g></g></g></g></g></g></svg>