<svg class="marks" width="665" height="465" viewBox="0 0 665 465" version="1.1" xmlns="http://www.w3.org/2000/svg" xmlns:xlink="http://www.w3.org/1999/xlink"><rect width="665" height="465" style="fill: white;"></rect><g transform="translate(59,13)"><g class="mark-group role-frame root"><g transform="translate(0,0)"><path class="background" d="M0.5,0.5h600v400h-600Z" style="fill: none; stroke: #ddd;"></path><g><g class="mark-symbol role-mark layer_0_marks"><path transform="translate(561.0389610389611,218.9713006654581)" d="M2.7386127875258306,0A2.7386127875258306,2.7386127875258306,0,1,1,-2.7386127875258306,0A2.7386127875258306,2.7386127875258306,0,1,1,2.7386127875258306,0" style="fill: none; stroke: #4c78a8; stroke-width: 2; opacity: 0.7;"></path><path transform="translate(490.9090909090908,145.38908142957948)" d="M2.7386127875258306,0A2.7386127875258306,2.7386127875258306,0,1,1,-2.7386127875258306,0A2.7386127875258306,2.7386127875258306,0,1,1,2.7386127875258306,0" style="fill: none; stroke: #4c78a8; stroke-width: 2; opacity: 0.7;"></path><path transform="translate(436.3636363636364,80.90661497382303)" d="M2.7386127875258306,0A2.7386127875258306,2.7386127875258306,0,1,1,-2.7386127875258306,0A2.7386127875258306,2.7386127875258306,0,1,1,2.7386127875258306,0" style="fill: none; stroke: #4c78a8; stroke-width: 2; opacity: 0.7;"></path><path transform="translate(392.72727272727263,43.744915802860305)" d="M2.7386127875258306,0A2.7386127875258306,2.7386127875258306,0,1,1,-2.7386127875258306,0A2.7386127875258306,2.7386127875258306,0,1,1,2.7386127875258306,0" style="fill: none; stroke: #4c78a8; stroke-width: 2; opacity: 0.7;"></path><path transform="translate(327.27272727272725,34.143119525057045)" d="M2.7386127875258306,0A2.7386127875258306,2.7386127875258306,0,1,1,-2.7386127875258306,0A2.7386127875258306,2.7386127875258306,0,1,1,2.7386127875258306,0" style="fill: none; stroke: #4c78a8; stroke-width: 2; opacity: 0.7;"></path><path transform="translate(245.45454545454544,54.46325511766492)" d="M2.7386127875258306,0A2.7386127875258306,2.7386127875258306,0,1,1,-2.7386127875258306,0A2.7386127875258306,2.7386127875258306,0,1,1,2.7386127875258306,0" style="fill: none; stroke: #4c78a8; stroke-width: 2; opacity: 0.7;"></path><path transform="translate(196.36363636363632,94.97608589796194)" d="M2.7386127875258306,0A2.7386127875258306,2.7386127875258306,0,1,1,-2.7386127875258306,0A2.7386127875258306,2.7386127875258306,0,1,1,2.7386127875258306,0" style="fill: none; stroke: #4c78a8; stroke-width: 2; opacity: 0.7;"></path><path transform="translate(589.0909090909091,238.47646905905017)" d="M2.7386127875258306,0A2.7386127875258306,2.7386127875258306,0,1,1,-2.7386127875258306,0A2.7386127875258306,2.7386127875258306,0,1,1,2.7386127875258306,0" style="fill: none; stroke: #4c78a8; stroke-width: 2; opacity: 0.7;"></path><path transform="translate(566.4335664335663,216.76474813388157)" d="M2.7386127875258306,0A2.7386127875258306,2.7386127875258306,0,1,1,-2.7386127875258306,0A2.7386127875258306,2.7386127875258306,0,1,1,2.7386127875258306,0" style="fill: none; stroke: #4c78a8; stroke-width: 2; opacity: 0.7;"></path><path transform="translate(545.4545454545454,206.24716870171872)" d="M2.7386127875258306,0A2.7386127875258306,2.7386127875258306,0,1,1,-2.7386127875258306,0A2.7386127875258306,2.7386127875258306,0,1,1,2.7386127875258306,0" style="fill: none; stroke: #4c78a8; stroke-width: 2; opacity: 0.7;"></path><path transform="translate(140.25974025974028,128.484685024809)" d="M2.7386127875258306,0A2.7386127875258306,2.7386127875258306,0,1,1,-2.7386127875258306,0A2.7386127875258306,2.7386127875258306,0,1,1,2.7386127875258306,0" style="fill: none; stroke: #4c78a8; stroke-width: 2; opacity: 0.7;"></path><path transform="translate(525.974025974026,188.7644237511925)" d="M2.7386127875258306,0A2.7386127875258306,2.7386127875258306,0,1,1,-2.7386127875258306,0A2.7386127875258306,2.7386127875258306,0,1,1,2.7386127875258306,0" style="fill: none; stroke: #4c78a8; stroke-width: 2; opacity: 0.7;"></path><path transform="translate(507.83699059561127,176.3657535885108)" d="M2.7386127875258306,0A2.7386127875258306,2.7386127875258306,0,1,1,-2.7386127875258306,0A2.7386127875258306,2.7386127875258306,0,1,1,2.7386127875258306,0" style="fill: none; stroke: #4c78a8; stroke-width: 2; opacity: 0.7;"></path><path transform="translate(490.90909090909093,157.08060459385754)" d="M2.7386127875258306,0A2.7386127875258306,2.7386127875258306,0,1,1,-2.7386127875258306,0A2.7386127875258306,2.7386127875258306,0,1,1,2.7386127875258306,0" style="fill: none; stroke: #4c78a8; stroke-width: 2; opacity: 0.7;"></path><path transform="translate(460.2272727272727,125.94214329273629)" d="M2.7386127875258306,0A2.7386127875258306,2.7386127875258306,0,1,1,-2.7386127875258306,0A2.7386127875258306,2.7386127875258306,0,1,1,2.7386127875258306,0" style="fill: none; stroke: #4c78a8; stroke-width: 2; opacity: 0.7;"></path><path transform="translate(109.0909090909091,146.91816829878343)" d="M2.7386127875258306,0A2.7386127875258306,2.7386127875258306,0,1,1,-2.7386127875258306,0A2.7386127875258306,2.7386127875258306,0,1,1,2.7386127875258306,0" style="fill: none; stroke: #4c78a8; stroke-width: 2; opacity: 0.7;"></path><path transform="translate(409.09090909090907,67.67939987219735)" d="M2.7386127875258306,0A2.7386127875258306,2.7386127875258306,0,1,1,-2.7386127875258306,0A2.7386127875258306,2.7386127875258306,0,1,1,2.7386127875258306,0" style="fill: none; stroke: #4c78a8; stroke-width: 2; opacity: 0.7;"></path><path transform="translate(368.1818181818182,52.159945780651725)" d="M2.7386127875258306,0A2.7386127875258306,2.7386127875258306,0,1,1,-2.7386127875258306,0A2.7386127875258306,2.7386127875258306,0,1,1,2.7386127875258306,0" style="fill: none; stroke: #4c78a8; stroke-width: 2; opacity: 0.7;"></path><path transform="translate(294.54545454545456,21.21270335139167)" d="M2.7386127875258306,0A2.7386127875258306,2.7386127875258306,0,1,1,-2.7386127875258306,0A2.7386127875258306,2.7386127875258306,0,1,1,2.7386127875258306,0" style="fill: none; stroke: #4c78a8; stroke-width: 2; opacity: 0.7;"></path></g><g class="mark-rule role-mark layer_1_layer_0_marks"><line transform="translate(561.0389610389611,219.66678357343108)" x2="0" y2="-1.3909658159459184" style="fill: none; stroke: black;"></line><line transform="translate(490.9090909090908,146.36528557074638)" x2="0" y2="-1.9524082823338063" style="fill: none; stroke: black;"></line><line transform="translate(436.3636363636364,82.03372247768472)" x2="0" y2="-2.2542150077233316" style="fill: none; stroke: black;"></line><line transform="translate(392.72727272727263,44.93094398678519)" x2="0" y2="-2.3720563678497157" style="fill: none; stroke: black;"></line><line transform="translate(327.27272727272725,35.89988341442285)" x2="0" y2="-3.5135277787315786" style="fill: none; stroke: black;"></line><line transform="translate(245.45454545454544,55.96137510966726)" x2="0" y2="-2.9962399840046245" style="fill: none; stroke: black;"></line><line transform="translate(196.36363636363632,99.01968719312552)" x2="0" y2="-8.087202590327166" style="fill: none; stroke: black;"></line><line transform="translate(589.0909090909091,239.1092440185008)" x2="0" y2="-1.2655499189011437" style="fill: none; stroke: black;"></line><line transform="translate(566.4335664335663,217.48148201513234)" x2="0" y2="-1.4334677625015502" style="fill: none; stroke: black;"></line><line transform="translate(545.4545454545454,207.0309924843532)" x2="0" y2="-1.5676475652689703" style="fill: none; stroke: black;"></line><line transform="translate(140.25974025974028,131.89806562830785)" x2="0" y2="-6.8267612069976735" style="fill: none; stroke: black;"></line><line transform="translate(525.974025974026,189.59881454987868)" x2="0" y2="-1.6687815973723445" style="fill: none; stroke: black;"></line><line transform="translate(507.83699059561127,177.26072210143187)" x2="0" y2="-1.7899370258421072" style="fill: none; stroke: black;"></line><line transform="translate(490.90909090909093,158.6198745476503)" x2="0" y2="-3.078539907585565" style="fill: none; stroke: black;"></line><line transform="translate(460.2272727272727,127.60952926323097)" x2="0" y2="-3.334771940989299" style="fill: none; stroke: black;"></line><line transform="translate(109.0909090909091,150.04328830088255)" x2="0" y2="-6.250240004198275" style="fill: none; stroke: black;"></line><line transform="translate(409.09090909090907,73.88870180876617)" x2="0" y2="-12.41860387313767" style="fill: none; stroke: black;"></line><line transform="translate(368.1818181818182,58.11091235933827)" x2="0" y2="-11.901933157373087" style="fill: none; stroke: black;"></line><line transform="translate(294.54545454545456,27.065850057510765)" x2="0" y2="-11.706293412238233" style="fill: none; stroke: black;"></line></g><g class="mark-group role-axis"><g transform="translate(0.5,400.5)"><path class="background" d="M0,0h0v0h0Z" style="pointer-events: none; fill: none;"></path><g><g class="mark-rule role-axis-tick" style="pointer-events: none;"><line transform="translate(0,0)" x2="0" y2="5" style="fill: none; stroke: #888; stroke-width: 1; opacity: 1;"></line><line transform="translate(55,0)" x2="0" y2="5" style="fill: none; stroke: #888; stroke-width: 1; opacity: 1;"></line><line transform="translate(109,0)" x2="0" y2="5" style="fill: none; stroke: #888; stroke-width: 1; opacity: 1;"></line><line transform="translate(164,0)" x2="0" y2="5" style="fill: none; stroke: #888; stroke-width: 1; opacity: 1;"></line><line transform="translate(218,0)" x2="0" y2="5" style="fill: none; stroke: #888; stroke-width: 1; opacity: 1;"></line><line transform="translate(273,0)" x2="0" y2="5" style="fill: none; stroke: #888; stroke-width: 1; opacity: 1;"></line><line transform="translate(327,0)" x2="0" y2="5" style="fill: none; stroke: #888; stroke-width: 1; opacity: 1;"></line><line transform="translate(382,0)" x2="0" y2="5" style="fill: none; stroke: #888; stroke-width: 1; opacity: 1;"></line><line transform="translate(436,0)" x2="0" y2="5" style="fill: none; stroke: #888; stroke-width: 1; opacity: 1;"></line><line transform="translate(491,0)" x2="0" y2="5" style="fill: none; stroke: #888; stroke-width: 1; opacity: 1;"></line><line transform="translate(545,0)" x2="0" y2="5" style="fill: none; stroke: #888; stroke-width: 1; opacity: 1;"></line><line transform="translate(600,0)" x2="0" y2="5" style="fill: none; stroke: #888; stroke-width: 1; opacity: 1;"></line></g><g class="mark-text role-axis-label" style="pointer-events: none;"><text text-anchor="start" transform="translate(0,20)" style="font-family: Roboto; font-size: 16px; fill: #000; opacity: 1;">0.0</text><text text-anchor="middle" transform="translate(54.54545454545455,20)" style="font-family: Roboto; font-size: 16px; fill: #000; opacity: 1;">0.1</text><text text-anchor="middle" transform="translate(109.0909090909091,20)" style="font-family: Roboto; font-size: 16px; fill: #000; opacity: 1;">0.2</text><text text-anchor="middle" transform="translate(163.63636363636363,20)" style="font-family: Roboto; font-size: 16px; fill: #000; opacity: 1;">0.3</text><text text-anchor="middle" transform="translate(218.1818181818182,20)" style="font-family: Roboto; font-size: 16px; fill: #000; opacity: 1;">0.4</text><text text-anchor="middle" transform="translate(272.7272727272727,20)" style="font-family: Roboto; font-size: 16px; fill: #000; opacity: 1;">0.5</text><text text-anchor="middle" transform="translate(327.27272727272725,20)" style="font-family: Roboto; font-size: 16px; fill: #000; opacity: 1;">0.6</text><text text-anchor="middle" transform="translate(381.81818181818176,20)" style="font-family: Roboto; font-size: 16px; fill: #000; opacity: 1;">0.7</text><text text-anchor="middle" transform="translate(436.3636363636364,20)" style="font-family: Roboto; font-size: 16px; fill: #000; opacity: 1;">0.8</text><text text-anchor="middle" transform="translate(490.9090909090909,20)" style="font-family: Roboto; font-size: 16px; fill: #000; opacity: 1;">0.9</text><text text-anchor="middle" transform="translate(545.4545454545454,20)" style="font-family: Roboto; font-size: 16px; fill: #000; opacity: 1;">1.0</text><text text-anchor="end" transform="translate(600,20)" style="font-family: Roboto; font-size: 16px; fill: #000; opacity: 1;">1.1</text></g><g class="mark-rule role-axis-domain" style="pointer-events: none;"><line transform="translate(0,0)" x2="600" y2="0" style="fill: none; stroke: #888; stroke-width: 1; opacity: 1;"></line></g><g class="mark-text role-axis-title" style="pointer-events: none;"><text text-anchor="middle" transform="translate(300,43)" style="font-family: Roboto; font-size: 20px; font-weight: bold; fill: #000; opacity: 1;">inv_temp_norm</text></g></g><path class="foreground" d="" style="pointer-events: none; display: none; fill: none;"></path></g></g><g class="mark-group role-axis"><g transform="translate(0.5,0.5)"><path class="background" d="M0,0h0v0h0Z" style="pointer-events: none; fill: none;"></path><g><g class="mark-rule role-axis-tick" style="pointer-events: none;"><line transform="translate(0,400)" x2="-5" y2="0" style="fill: none; stroke: #888; stroke-width: 1; opacity: 1;"></line><line transform="translate(0,356)" x2="-5" y2="0" style="fill: none; stroke: #888; stroke-width: 1; opacity: 1;"></line><line transform="translate(0,311)" x2="-5" y2="0" style="fill: none; stroke: #888; stroke-width: 1; opacity: 1;"></line><line transform="translate(0,267)" x2="-5" y2="0" style="fill: none; stroke: #888; stroke-width: 1; opacity: 1;"></line><line transform="translate(0,222)" x2="-5" y2="0" style="fill: none; stroke: #888; stroke-width: 1; opacity: 1;"></line><line transform="translate(0,178)" x2="-5" y2="0" style="fill: none; stroke: #888; stroke-width: 1; opacity: 1;"></line><line transform="translate(0,133)" x2="-5" y2="0" style="fill: none; stroke: #888; stroke-width: 1; opacity: 1;"></line><line transform="translate(0,89)" x2="-5" y2="0" style="fill: none; stroke: #888; stroke-width: 1; opacity: 1;"></line><line transform="translate(0,44)" x2="-5" y2="0" style="fill: none; stroke: #888; stroke-width: 1; opacity: 1;"></line><line transform="translate(0,0)" x2="-5" y2="0" style="fill: none; stroke: #888; stroke-width: 1; opacity: 1;"></line></g><g class="mark-text role-axis-label" style="pointer-events: none;"><text text-anchor="end" transform="translate(-7,405)" style="font-family: Roboto; font-size: 16px; fill: #000; opacity: 1;">0.0</text><text text-anchor="end" transform="translate(-7,360.55555555555554)" style="font-family: Roboto; font-size: 16px; fill: #000; opacity: 1;">0.5</text><text text-anchor="end" transform="translate(-7,316.11111111111114)" style="font-family: Roboto; font-size: 16px; fill: #000; opacity: 1;">1.0</text><text text-anchor="end" transform="translate(-7,271.6666666666667)" style="font-family: Roboto; font-size: 16px; fill: #000; opacity: 1;">1.5</text><text text-anchor="end" transform="translate(-7,227.22222222222223)" style="font-family: Roboto; font-size: 16px; fill: #000; opacity: 1;">2.0</text><text text-anchor="end" transform="translate(-7,182.77777777777777)" style="font-family: Roboto; font-size: 16px; fill: #000; opacity: 1;">2.5</text><text text-anchor="end" transform="translate(-7,138.33333333333334)" style="font-family: Roboto; font-size: 16px; fill: #000; opacity: 1;">3.0</text><text text-anchor="end" transform="translate(-7,93.88888888888889)" style="font-family: Roboto; font-size: 16px; fill: #000; opacity: 1;">3.5</text><text text-anchor="end" transform="translate(-7,49.444444444444464)" style="font-family: Roboto; font-size: 16px; fill: #000; opacity: 1;">4.0</text><text text-anchor="end" transform="translate(-7,5)" style="font-family: Roboto; font-size: 16px; fill: #000; opacity: 1;">4.5</text></g><g class="mark-rule role-axis-domain" style="pointer-events: none;"><line transform="translate(0,400)" x2="0" y2="-400" style="fill: none; stroke: #888; stroke-width: 1; opacity: 1;"></line></g><g class="mark-text role-axis-title" style="pointer-events: none;"><text text-anchor="middle" transform="translate(-33.21666717529297,200) rotate(-90) translate(0,-4)" style="font-family: Roboto; font-size: 20px; font-weight: bold; fill: #000; opacity: 1;">tau_T2/tau_T4_mean</text></g></g><path class="foreground" d="" style="pointer-events: none; display: none; fill: none;"></path></g></g></g><path class="foreground" d="" style="display: none; fill: none;"></path></g></g></g></svg>